<svg xmlns="http://www.w3.org/2000/svg" enable-background="new 0 0 619.08 540" viewBox="0 0 619.08 540"><path fill="#4c98c4" d="M457.081 262.073c-8.611-14.201-24.012-23.546-34.136-36.822-11.216-14.708-15.237-33.22-24.467-49.117-19.841-34.175-65.586-52.758-105.411-42.822-23.927 5.97-44.205 20.575-65.862 31.907-30.364 15.888-55.224 15.903-87.382 7.714-25.76-6.56-51.45 5.47-72.596 18.528-85.237 52.634 30.682 176.56 66.803 212.038h243.674l.473-.364c14.05-10.963 25.917-23.317 40.225-33.909 15.252-11.291 28.918-28.674 37.337-45.084 9.94-19.376 12.669-43.389 1.342-62.069z" opacity=".22" class="color4c98c4 svgShape"/><path fill="#ffffff" d="M203.366 193.974c-3.317.013-5.993 2.684-5.969 5.959l.296 41.522c0 2.691 2.209 4.872 4.935 4.872 0 0 39.665.112 55.712.083 3.663-.007 6.634-2.93 6.655-6.546l.24-41.244c0-2.69-2.209-4.871-4.934-4.871l-56.935.225z" class="colorfff svgShape"/><path fill="#5e7783" d="M256.988 243.365h-51.346a3.381 3.381 0 0 1-3.381-3.38v-39.807a3.38 3.38 0 0 1 3.381-3.38h51.346a3.38 3.38 0 0 1 3.38 3.38v39.807a3.38 3.38 0 0 1-3.38 3.38z" class="color5e7783 svgShape"/><path fill="#bde2ec" d="M256.988 243.885h-51.346a3.905 3.905 0 0 1-3.901-3.901v-39.807a3.905 3.905 0 0 1 3.901-3.901h51.346a3.905 3.905 0 0 1 3.901 3.901v39.807a3.905 3.905 0 0 1-3.901 3.901zm-51.345-46.568a2.863 2.863 0 0 0-2.86 2.86v39.807a2.863 2.863 0 0 0 2.86 2.86h51.346a2.863 2.863 0 0 0 2.86-2.86v-39.807a2.863 2.863 0 0 0-2.86-2.86h-51.346z" class="colorbde2ec svgShape"/><path fill="#73e5c8" d="M221.135 232.634 212.838 208l-4.846 9.77h-5.73v-1.141h5.022l5.756-11.605 7.527 22.348 2.054-18.616 3.423 9.136.839-4.987 3.373 4.022 1.093-1.742.393.739c.183.114 1.327.703 5.485.703 3.286 0 5.499-1.215 6.963-2.02.86-.472 1.482-.814 2.059-.789 1.322.055 2.492 2.24 2.99 3.317h11.129v1.141h-11.876l-.148-.346c-.596-1.388-1.623-2.951-2.143-2.972-.263-.014-.844.31-1.462.649-1.566.86-3.933 2.161-7.512 2.161-3.349 0-4.955-.367-5.719-.689l-1.118 1.782-2.791-3.328-1.133 6.734-3.234-8.632-2.097 18.999zM256.149 228.126h1.141v5.078h-1.141z" class="color73e5c8 svgShape"/><path fill="#73e5c8" d="M240.895 235.397h-.571v-12.569h16.681v5.298h-.571v-4.727h-15.539z" class="color73e5c8 svgShape"/><path fill="#73e5c8" d="M242.658 227.086h.571v5.194h-.571zM245.091 229.394h.571v4.098h-.571zM247.693 228.126h.571v6.001h-.571zM249.706 230.003h.571v5.278h-.571zM251.972 227.779h.571v4.501h-.571zM254.322 230.26h.571v5.253h-.571z" class="color73e5c8 svgShape"/><radialGradient id="a" cx="322.894" cy="181.086" r="71.893" gradientTransform="matrix(.9449 0 0 .9266 -73.674 36.15)" gradientUnits="userSpaceOnUse"><stop offset="0" stop-color="#78949c" class="stopColor78949c svgShape"/><stop offset=".339" stop-color="#4c5e63" class="stopColor4c5e63 svgShape"/><stop offset=".79" stop-color="#151b1c" class="stopColor151b1c svgShape"/><stop offset="1" stop-color="#000000" class="stopColor000000 svgShape"/></radialGradient><path fill="url(#a)" d="M267.985 259.666h-73.338a8.567 8.567 0 0 1-8.567-8.567v-62.037a8.567 8.567 0 0 1 8.567-8.567h73.338a8.568 8.568 0 0 1 8.567 8.567v62.037a8.567 8.567 0 0 1-8.567 8.567z"/><path fill="#ffffff" d="M267.985 259.842h-73.339c-4.821 0-8.743-3.922-8.743-8.743v-62.038c0-4.82 3.922-8.742 8.743-8.742h73.339c4.821 0 8.743 3.922 8.743 8.742v62.038c0 4.821-3.922 8.743-8.743 8.743zm-73.339-79.171c-4.627 0-8.391 3.764-8.391 8.391V251.1c0 4.627 3.764 8.391 8.391 8.391h73.339c4.627 0 8.391-3.764 8.391-8.391v-62.038c0-4.627-3.764-8.391-8.391-8.391h-73.339z" class="colorfff svgShape"/><path fill="#899ea9" d="M141.308 391.267h2.385v7.321h-2.385zM180.832 391.267h2.385v7.321h-2.385z" class="color899ea9 svgShape"/><path fill="#ffffff" d="M140.654 293.172h33.892v4.77h-33.892zM174.546 293.172h7.897v4.77h-7.897z" class="colorfff svgShape"/><path fill="#eefaff" d="M140.654 297.942h33.892v89.237h-33.892z" class="coloreefaff svgShape"/><path fill="#ffffff" d="M174.546 297.942h7.897v89.237h-7.897zM158.03 235.558h3.405v7.946h-3.405z" class="colorfff svgShape"/><path fill="#597099" d="M193.679 285.367c-2.157 0-4.544-.492-7.139-1.474l.809-2.136c3.826 1.448 7.058 1.713 9.607.787 2.22-.806 3.975-2.545 5.216-5.168 2.355-4.975 2.792-13.182 1.169-21.953-1.41-7.621-4.197-14.168-6.628-15.567-2.559-1.473-5.224-2.118-7.923-1.919a13.457 13.457 0 0 0-5.097 1.429.97.97 0 0 0-.524.87v2.43h-2.284v-2.43c0-1.232.677-2.344 1.766-2.902a15.747 15.747 0 0 1 5.97-1.674c3.163-.234 6.268.512 9.23 2.217 1.62.932 3.166 3.077 4.595 6.374 1.312 3.027 2.398 6.747 3.14 10.757.783 4.233 1.119 8.5.972 12.337-.169 4.404-.95 8.108-2.323 11.008-1.508 3.187-3.695 5.319-6.501 6.338-1.241.451-2.596.676-4.055.676zM132.29 279.26c-3.914-1.449-8.31-4.246-11.758-7.482-3.035-2.848-6.766-7.383-7.307-12.815-.286-2.879-.064-5.562.663-7.973.768-2.549 1.913-4.174 2.739-5.088 1.149-1.272 2.44-2.003 3.541-2.006 2.122-.005 13.445 0 13.559 0l-.001 2.284c-.114 0-11.434-.005-13.553 0-.29.001-1.022.335-1.852 1.253-2.227 2.465-3.283 6.691-2.824 11.305.26 2.609 1.615 6.701 6.597 11.376 3.189 2.993 7.399 5.677 10.988 7.005l-.792 2.141z" class="color597099 svgShape"/><path fill="#c2e8f2" d="M133.621 245.827h9.038v10.504h-9.038z" class="colorc2e8f2 svgShape"/><path fill="#ffffff" d="M169.598 242.099h2.119v43.833h-2.119z" class="colorfff svgShape"/><path fill="#eefaff" d="M148.235 242.099h21.363v43.833h-21.363z" class="coloreefaff svgShape"/><path fill="#c2e8f2" d="M144.998 285.932h-13.139a1.942 1.942 0 0 1-1.942-1.943v-23.232a8.512 8.512 0 0 1 17.024 0v23.232c0 1.073-.87 1.943-1.943 1.943z" class="colorc2e8f2 svgShape"/><path fill="#ebf6ff" d="M145.78 259.916a6.72 6.72 0 0 0-6.72-6.72h-1.277a6.72 6.72 0 0 0-6.72 6.72v13.008h14.717v-13.008z" class="colorebf6ff svgShape"/><path fill="#9cc7e8" d="M131.062 272.924v9.764c0 .856.694 1.55 1.55 1.55h11.617a1.55 1.55 0 0 0 1.55-1.55v-9.764h-14.717z" class="color9cc7e8 svgShape"/><path fill="#ebf6ff" d="M134.225 245.827h7.886v10.504h-7.886z" class="colorebf6ff svgShape"/><path fill="#db6b63" d="M142.754 245.827h-9.279a.789.789 0 1 1 0-1.578h9.279a.79.79 0 0 1 0 1.578z" class="colordb6b63 svgShape"/><path fill="#b0e1ff" d="M165.346 251.777a5.289 5.289 0 1 1-10.578 0 5.289 5.289 0 0 1 10.578 0z" class="colorb0e1ff svgShape"/><path fill="#ebf6ff" d="M164.682 251.777a4.625 4.625 0 1 1-9.25 0 4.625 4.625 0 0 1 9.25 0z" class="colorebf6ff svgShape"/><path fill="#9cc7e8" d="M154.58 261.992a1.541 1.541 0 1 1-3.082 0 1.541 1.541 0 0 1 3.082 0zM168.428 261.992a1.541 1.541 0 1 1-3.082 0 1.541 1.541 0 0 1 3.082 0z" class="color9cc7e8 svgShape"/><path fill="#db6b63" d="M168.428 267.548a1.541 1.541 0 1 1-3.082 0 1.541 1.541 0 0 1 3.082 0z" class="colordb6b63 svgShape"/><path fill="#9cc7e8" d="M162.616 275.368a2.821 2.821 0 1 1-5.642 0 2.821 2.821 0 0 1 5.642 0z" class="color9cc7e8 svgShape"/><path fill="#9cc7e8" d="M163.287 279.853h-6.934a3.339 3.339 0 0 1-3.335-3.335v-2.49a3.339 3.339 0 0 1 3.335-3.335h6.934a3.339 3.339 0 0 1 3.335 3.335v2.49a3.339 3.339 0 0 1-3.335 3.335zm-6.934-8.398a2.577 2.577 0 0 0-2.574 2.574v2.49a2.577 2.577 0 0 0 2.574 2.574h6.934a2.577 2.577 0 0 0 2.574-2.574v-2.49a2.577 2.577 0 0 0-2.574-2.574h-6.934z" class="color9cc7e8 svgShape"/><path fill="#c2e8f2" d="M133.739 260.801a.76.76 0 0 1-.76-.732c-.109-2.868.47-3.741 1.438-4.838l.047-.053a.761.761 0 0 1 1.142 1.006l-.047.054c-.718.814-1.152 1.306-1.058 3.773a.761.761 0 0 1-.732.79h-.03zM133.727 275.613a.76.76 0 0 1-.761-.761v-10.396a.761.761 0 0 1 1.522 0v10.396a.76.76 0 0 1-.761.761z" class="colorc2e8f2 svgShape"/><path fill="#c2e8f2" d="M177.324 245.827h9.039v10.504h-9.039z" transform="rotate(-180 181.843 251.079)" class="colorc2e8f2 svgShape"/><path fill="#c2e8f2" d="M174.985 285.932h13.139c1.073 0 1.943-.87 1.943-1.943v-23.232a8.512 8.512 0 0 0-17.024 0v23.232a1.942 1.942 0 0 0 1.942 1.943z" class="colorc2e8f2 svgShape"/><path fill="#ebf6ff" d="M174.203 259.916a6.72 6.72 0 0 1 6.72-6.72h1.277a6.72 6.72 0 0 1 6.72 6.72v13.008h-14.717v-13.008z" class="colorebf6ff svgShape"/><path fill="#9cc7e8" d="M188.921 272.924v9.764a1.55 1.55 0 0 1-1.55 1.55h-11.617a1.55 1.55 0 0 1-1.55-1.55v-9.764h14.717z" class="color9cc7e8 svgShape"/><path fill="#ebf6ff" d="M177.872 245.827h7.886v10.504h-7.886z" transform="rotate(-180 181.815 251.079)" class="colorebf6ff svgShape"/><path fill="#db6b63" d="M177.229 245.827h9.279a.789.789 0 1 0 0-1.578h-9.279a.79.79 0 0 0 0 1.578z" class="colordb6b63 svgShape"/><path fill="#c2e8f2" d="M186.244 260.801h-.03a.762.762 0 0 1-.732-.79c.094-2.467-.339-2.958-1.058-3.773l-.047-.054a.761.761 0 0 1 1.142-1.006l.047.053c.967 1.097 1.547 1.97 1.437 4.838a.76.76 0 0 1-.759.732zM186.256 275.613a.761.761 0 0 1-.761-.761v-10.396a.761.761 0 0 1 1.522 0v10.396c0 .42-.341.761-.761.761zM130.003 251.75a1.789 1.789 0 0 1-1.789-1.789v-1.012a1.789 1.789 0 0 1 3.578 0v1.012c0 .988-.801 1.789-1.789 1.789z" class="colorc2e8f2 svgShape"/><path fill="#c2e8f2" d="M128.859 245.442h2.167v2.565h-2.167z" class="colorc2e8f2 svgShape"/><path fill="#c2e8f2" d="M127.507 244.366h4.818v1.344h-4.818zM181.198 241.621h1.656v4.206h-1.656z" class="colorc2e8f2 svgShape"/><path fill="#eefaff" d="M122.554 285.482h73.198v8.283h-73.198z" class="coloreefaff svgShape"/><path fill="#ffffff" d="M128.213 386.087h66.409v5.128h-66.409z" class="colorfff svgShape"/><path fill="#cee8ef" d="M128.213 391.215h66.409v1.848h-66.409z" class="colorcee8ef svgShape"/><ellipse cx="142.046" cy="399.642" fill="#899ea9" rx="5.133" ry="5.398" class="color899ea9 svgShape"/><ellipse cx="183.413" cy="399.642" fill="#899ea9" rx="5.133" ry="5.398" class="color899ea9 svgShape"/><path fill="#2e8fc7" d="M586.551 248.978h-.732a.61.61 0 1 1 0-1.221h.732a.61.61 0 1 1 0 1.221zM600.065 248.978h-3.378a.61.61 0 1 1 0-1.221h3.378a.61.61 0 1 1 0 1.221zm-6.757 0h-3.378a.61.61 0 1 1 0-1.221h3.378a.61.61 0 1 1 0 1.221zM604.908 248.978h-1.465a.61.61 0 0 1 0-1.221h.855v-.855a.61.61 0 1 1 1.221 0v1.465a.61.61 0 0 1-.611.611zM604.908 244.45a.61.61 0 0 1-.61-.61v-3.063a.61.61 0 1 1 1.221 0v3.063a.61.61 0 0 1-.611.61zm0-6.127a.61.61 0 0 1-.61-.61v-3.063a.61.61 0 1 1 1.221 0v3.063a.61.61 0 0 1-.611.61zm0-6.127a.61.61 0 0 1-.61-.61v-3.063a.61.61 0 1 1 1.221 0v3.063a.61.61 0 0 1-.611.61zm0-6.127a.61.61 0 0 1-.61-.611v-3.063a.61.61 0 1 1 1.221 0v3.063a.61.61 0 0 1-.611.611zm0-6.126a.61.61 0 0 1-.61-.611v-3.063a.61.61 0 1 1 1.221 0v3.063a.612.612 0 0 1-.611.611zm0-6.127a.61.61 0 0 1-.61-.61v-3.063a.61.61 0 1 1 1.221 0v3.063a.61.61 0 0 1-.611.61zm0-6.127a.61.61 0 0 1-.61-.611v-3.063a.61.61 0 1 1 1.221 0v3.063a.61.61 0 0 1-.611.611zM604.908 201.562a.61.61 0 0 1-.61-.611v-.855h-.855a.61.61 0 0 1 0-1.222h1.465a.61.61 0 0 1 .611.611v1.465a.611.611 0 0 1-.611.612zM599.401 198.876h-2.905a.61.61 0 0 0 0 1.222h2.905a.61.61 0 0 0 0-1.222zM593.591 198.876h-2.905a.61.61 0 0 0 0 1.222h2.905a.61.61 0 1 0 0-1.222zM587.782 198.876h-2.905a.61.61 0 0 0 0 1.222h2.905a.61.61 0 1 0 0-1.222zM570.353 198.876h-2.905a.61.61 0 1 0 0 1.222h2.905a.61.61 0 0 0 0-1.222zM564.544 198.876h-2.905a.61.61 0 0 0 0 1.222h2.905a.61.61 0 0 0 0-1.222zM581.972 198.876h-2.905a.61.61 0 1 0 0 1.222h2.905a.61.61 0 0 0 0-1.222zM576.163 198.876h-2.905a.61.61 0 0 0 0 1.222h2.905a.61.61 0 0 0 0-1.222zM558.734 198.876h-.521v1.221h.521a.61.61 0 0 0 0-1.221zM539.84 185.206a.61.61 0 0 0 .61-.61v-2.685a.61.61 0 1 0-1.221 0v2.685c0 .337.274.61.611.61zM539.84 179.836a.61.61 0 0 1-.611-.611v-.855h-.855a.61.61 0 1 1 0-1.221h1.465a.61.61 0 0 1 .61.611v1.465a.61.61 0 0 1-.609.611zM535.391 178.37h-2.983a.61.61 0 1 1 0-1.221h2.983a.61.61 0 0 1 0 1.221zm-5.966 0h-2.983a.61.61 0 1 1 0-1.221h2.983a.61.61 0 0 1 0 1.221zm-5.967 0h-2.983a.61.61 0 1 1 0-1.221h2.983a.61.61 0 1 1 0 1.221zm-5.966 0h-2.983a.61.61 0 1 1 0-1.221h2.983a.61.61 0 0 1 0 1.221zm-5.967 0h-2.983a.61.61 0 1 1 0-1.221h2.983a.61.61 0 1 1 0 1.221zm-5.966 0h-2.983a.61.61 0 1 1 0-1.221h2.983a.61.61 0 1 1 0 1.221zm-5.967 0h-2.983a.61.61 0 1 1 0-1.221h2.983a.61.61 0 1 1 0 1.221zm-5.967 0h-2.983a.61.61 0 1 1 0-1.221h2.983a.61.61 0 0 1 0 1.221zm-5.966 0h-2.983a.61.61 0 1 1 0-1.221h2.983a.61.61 0 1 1 0 1.221zm-5.967 0h-2.983a.61.61 0 1 1 0-1.221h2.983a.61.61 0 1 1 0 1.221zm-5.966 0h-2.983a.61.61 0 1 1 0-1.221h2.983a.61.61 0 1 1 0 1.221zm-5.967 0h-2.983a.61.61 0 1 1 0-1.221h2.983a.61.61 0 1 1 0 1.221zm-5.966 0h-2.983a.61.61 0 1 1 0-1.221h2.983a.61.61 0 1 1 0 1.221zm-5.967 0h-2.983a.61.61 0 1 1 0-1.221h2.983a.61.61 0 1 1 0 1.221zM451.859 178.37h-1.465a.61.61 0 1 1 0-1.221h1.465a.61.61 0 1 1 0 1.221zM77.357 261.707h-2.931a.61.61 0 1 0 0 1.221h2.931a.61.61 0 1 0 0-1.221zM83.218 261.707h-2.93a.61.61 0 0 0 0 1.221h2.93a.61.61 0 1 0 0-1.221zM89.079 261.707h-2.931a.61.61 0 0 0 0 1.221h2.931a.61.61 0 1 0 0-1.221zM71.496 261.707h-2.93a.61.61 0 1 0 0 1.221h2.93a.61.61 0 1 0 0-1.221zM65.635 261.707h-2.931a.61.61 0 1 0 0 1.221h2.931a.61.61 0 1 0 0-1.221zM48.053 261.707h-2.93a.61.61 0 1 0 0 1.221h2.93a.61.61 0 1 0 0-1.221zM53.914 261.707h-2.931a.61.61 0 0 0 0 1.221h2.931a.61.61 0 1 0 0-1.221zM59.774 261.707h-2.931a.61.61 0 0 0 0 1.221h2.931a.61.61 0 1 0 0-1.221zM94.94 261.707h-2.93a.61.61 0 0 0 0 1.221h2.93a.61.61 0 1 0 0-1.221zM100.801 261.707h-2.93a.61.61 0 1 0 0 1.221h2.93a.61.61 0 1 0 0-1.221zM139.655 154.039h-2.931a.61.61 0 0 0 0 1.221h2.931a.61.61 0 1 0 0-1.221zM125.772 163.599a.61.61 0 0 0-.611.611v2.93a.61.61 0 1 0 1.221 0v-2.93a.61.61 0 0 0-.61-.611zM133.794 154.039h-2.93a.61.61 0 1 0 0 1.221h2.93a.61.61 0 1 0 0-1.221zM125.772 157.738a.61.61 0 0 0-.611.61v2.931a.61.61 0 0 0 1.221 0v-2.931a.61.61 0 0 0-.61-.61zM125.772 181.181a.61.61 0 0 0-.611.611v2.93a.61.61 0 1 0 1.221 0v-2.93a.61.61 0 0 0-.61-.611zM125.772 175.32a.61.61 0 0 0-.611.61v2.93a.61.61 0 1 0 1.221 0v-2.93a.61.61 0 0 0-.61-.61zM125.772 169.46a.61.61 0 0 0-.611.611V173a.61.61 0 1 0 1.221 0v-2.93a.61.61 0 0 0-.61-.61zM127.933 154.039h-2.162a.61.61 0 0 0-.611.611v.769a.61.61 0 0 0 1.221 0v-.158h1.551a.61.61 0 0 0 .001-1.222zM174.821 154.039h-2.93a.61.61 0 1 0 0 1.221h2.93a.61.61 0 1 0 0-1.221zM168.96 154.039h-2.93a.61.61 0 0 0 0 1.221h2.93a.61.61 0 1 0 0-1.221zM180.682 154.039h-2.93a.61.61 0 1 0 0 1.221h2.93a.61.61 0 1 0 0-1.221zM151.377 154.039h-2.931a.61.61 0 0 0 0 1.221h2.931a.61.61 0 1 0 0-1.221zM163.099 154.039h-2.93a.61.61 0 1 0 0 1.221h2.93a.61.61 0 1 0 0-1.221zM145.516 154.039h-2.93a.61.61 0 1 0 0 1.221h2.93a.61.61 0 1 0 0-1.221zM157.238 154.039h-2.931a.61.61 0 0 0 0 1.221h2.931a.61.61 0 1 0 0-1.221zM125.772 187.042a.61.61 0 0 0-.611.611v2.93a.61.61 0 1 0 1.221 0v-2.93a.61.61 0 0 0-.61-.611zM125.772 257.373a.61.61 0 0 0-.611.611v2.93a.61.61 0 1 0 1.221 0v-2.93a.61.61 0 0 0-.61-.611zM125.772 251.512a.61.61 0 0 0-.611.61v2.93a.61.61 0 1 0 1.221 0v-2.93a.61.61 0 0 0-.61-.61zM125.772 192.903a.61.61 0 0 0-.611.611v2.93a.61.61 0 0 0 1.221 0v-2.93a.61.61 0 0 0-.61-.611zM124.244 261.707h-2.931a.61.61 0 0 0 0 1.221h2.931a.61.61 0 1 0 0-1.221zM106.662 261.707h-2.93a.61.61 0 1 0 0 1.221h2.93a.61.61 0 1 0 0-1.221zM125.772 239.79a.61.61 0 0 0-.611.611v2.93a.61.61 0 1 0 1.221 0v-2.93a.61.61 0 0 0-.61-.611zM118.383 261.707h-2.93a.61.61 0 1 0 0 1.221h2.93a.61.61 0 1 0 0-1.221zM112.522 261.707h-2.93a.61.61 0 1 0 0 1.221h2.93a.61.61 0 1 0 0-1.221zM125.772 245.651a.61.61 0 0 0-.611.611v2.93a.61.61 0 0 0 1.221 0v-2.93a.61.61 0 0 0-.61-.611zM125.772 204.625a.61.61 0 0 0-.611.611v2.93a.61.61 0 1 0 1.221 0v-2.93a.61.61 0 0 0-.61-.611zM125.772 198.764a.61.61 0 0 0-.611.611v2.93a.61.61 0 0 0 1.221 0v-2.93a.61.61 0 0 0-.61-.611zM125.772 210.486a.61.61 0 0 0-.611.611v2.93a.61.61 0 0 0 1.221 0v-2.93a.61.61 0 0 0-.61-.611zM125.772 228.069a.61.61 0 0 0-.611.611v2.93a.61.61 0 0 0 1.221 0v-2.93a.61.61 0 0 0-.61-.611zM125.772 216.347a.61.61 0 0 0-.611.611v2.93a.61.61 0 1 0 1.221 0v-2.93a.61.61 0 0 0-.61-.611zM125.772 233.93a.61.61 0 0 0-.611.611v2.93a.61.61 0 1 0 1.221 0v-2.93a.61.61 0 0 0-.61-.611zM125.772 222.208a.61.61 0 0 0-.611.61v2.93a.61.61 0 1 0 1.221 0v-2.93a.61.61 0 0 0-.61-.61zM119.628 208.743h2.93a.61.61 0 1 1 0 1.221h-2.93a.61.61 0 1 1 0-1.221zM113.767 208.743h2.93a.61.61 0 0 1 0 1.221h-2.93a.61.61 0 1 1 0-1.221zM107.907 208.743h2.93a.61.61 0 1 1 0 1.221h-2.93a.61.61 0 1 1 0-1.221zM96.185 208.743h2.93a.61.61 0 0 1 0 1.221h-2.93a.61.61 0 1 1 0-1.221zM102.046 208.743h2.93a.61.61 0 1 1 0 1.221h-2.93a.61.61 0 1 1 0-1.221zM81.533 209.964h-2.931a.61.61 0 1 1 0-1.221h2.931a.61.61 0 0 1 0 1.221zM93.254 209.964h-2.93a.61.61 0 1 1 0-1.221h2.93a.61.61 0 1 1 0 1.221zM75.672 209.964h-2.93a.61.61 0 1 1 0-1.221h2.93a.61.61 0 1 1 0 1.221zM69.811 208.743h-1.12v1.221h1.12a.61.61 0 1 0 0-1.221zM87.393 209.964h-2.93a.61.61 0 1 1 0-1.221h2.93a.61.61 0 1 1 0 1.221zM568.754 236.103c7.54 0 13.675 6.135 13.675 13.675 0 7.54-6.135 13.675-13.675 13.675-7.54 0-13.675-6.135-13.675-13.675 0-7.541 6.135-13.675 13.675-13.675zm0-.99c-8.099 0-14.664 6.565-14.664 14.664s6.565 14.664 14.664 14.664 14.664-6.565 14.664-14.664c0-8.098-6.565-14.664-14.664-14.664z" class="color2e8fc7 svgShape"/><path fill="#2e8fc7" d="M562.486 254.836a.385.385 0 0 1-.154-.033c-2.105-.943-3.686-1.393-4.556-.523a.376.376 0 1 1-.532-.532c1.305-1.305 3.469-.495 5.395.368a.377.377 0 0 1-.153.72zM568.236 256.914c-1.127 0-2.43-.523-3.64-1.066a.376.376 0 1 1 .308-.686c2.124.953 3.717 1.409 4.589.538 1.101-1.101.007-3.438-1.05-5.699-1.167-2.495-2.374-5.076-.9-6.549 1.302-1.303 3.455-.498 5.37.357a.376.376 0 1 1-.307.687c-2.092-.935-3.663-1.379-4.531-.512-1.101 1.101-.007 3.438 1.05 5.699 1.167 2.495 2.374 5.076.9 6.549-.493.491-1.109.682-1.789.682zM578.534 246.616c-1.127 0-2.43-.523-3.641-1.067a.376.376 0 1 1 .308-.686c2.124.954 3.717 1.41 4.589.538a.376.376 0 1 1 .532.532c-.492.493-1.108.683-1.788.683z" class="color2e8fc7 svgShape"/><path fill="#2e8fc7" d="M564.61 261.49a.376.376 0 0 1-.266-.642c1.101-1.101.007-3.438-1.05-5.699-1.167-2.495-2.374-5.076-.9-6.549 1.301-1.302 3.445-.502 5.353.349a.376.376 0 1 1-.307.687c-1.802-.804-3.597-1.422-4.514-.504-1.101 1.101-.007 3.439 1.05 5.699 1.167 2.495 2.374 5.076.9 6.549a.378.378 0 0 1-.266.11zM573.392 251.76c-1.05 0-2.273-.452-3.49-.991a.375.375 0 0 1-.191-.496.375.375 0 0 1 .496-.191c1.765.782 3.523 1.38 4.434.469 1.101-1.101.007-3.438-1.05-5.699-1.167-2.495-2.374-5.076-.901-6.549a.376.376 0 1 1 .532.532c-1.1 1.101-.007 3.438 1.05 5.698 1.167 2.496 2.374 5.076.901 6.549-.486.486-1.096.678-1.781.678z" class="color2e8fc7 svgShape"/><path fill="#2e8fc7" d="M579.279 245.081a.192.192 0 0 1-.134-.055l-5.657-5.657a.19.19 0 0 1 0-.269.19.19 0 0 1 .269 0l5.657 5.657a.19.19 0 0 1 0 .269.194.194 0 0 1-.135.055zM576.941 245.016a.189.189 0 0 1-.134-.056l-3.254-3.254a.19.19 0 0 1 0-.269.19.19 0 0 1 .269 0l3.254 3.254a.19.19 0 0 1-.135.325zM574.111 247.76a.196.196 0 0 1-.135-.055l-3.124-3.124a.19.19 0 0 1 0-.269.19.19 0 0 1 .269 0l3.124 3.124a.19.19 0 0 1 0 .269.194.194 0 0 1-.134.055zM574.007 250.285a.193.193 0 0 1-.135-.056l-5.546-5.546a.19.19 0 0 1 0-.269.19.19 0 0 1 .269 0l5.546 5.546a.19.19 0 0 1-.134.325zM571.482 250.389a.189.189 0 0 1-.134-.056l-3.124-3.125a.19.19 0 0 1 0-.269.19.19 0 0 1 .269 0l3.124 3.125a.19.19 0 0 1-.135.325zM569.049 252.778a.192.192 0 0 1-.134-.055l-3.124-3.125a.19.19 0 0 1 0-.269.19.19 0 0 1 .269 0l3.124 3.125a.19.19 0 0 1-.135.324zM568.946 255.303a.196.196 0 0 1-.135-.055l-5.546-5.546a.19.19 0 0 1 0-.269.19.19 0 0 1 .269 0l5.546 5.546a.19.19 0 0 1 0 .269.188.188 0 0 1-.134.055zM566.421 255.407a.196.196 0 0 1-.135-.055l-3.125-3.124a.19.19 0 0 1 0-.269.19.19 0 0 1 .269 0l3.125 3.124a.19.19 0 0 1 0 .269.194.194 0 0 1-.134.055zM563.881 257.946a.189.189 0 0 1-.134-.056l-3.124-3.125a.19.19 0 0 1 0-.269.19.19 0 0 1 .269 0l3.124 3.125a.19.19 0 0 1-.135.325zM563.778 260.472a.188.188 0 0 1-.134-.055l-5.546-5.546a.19.19 0 0 1 0-.269.19.19 0 0 1 .269 0l5.546 5.546a.19.19 0 0 1 0 .269.198.198 0 0 1-.135.055zM201.531 144.628c7.294 0 13.227 5.934 13.227 13.227 0 7.294-5.934 13.227-13.227 13.227-7.294 0-13.227-5.934-13.227-13.227-.001-7.293 5.933-13.227 13.227-13.227zm0-.989c-7.852 0-14.216 6.365-14.216 14.216 0 7.852 6.365 14.216 14.216 14.216s14.216-6.365 14.216-14.216c0-7.852-6.365-14.216-14.216-14.216z" class="color2e8fc7 svgShape"/><path fill="#2e8fc7" d="M205.495 149.263c.322 0 .63.12.867.339l2.635 2.43c.251.232.397.548.411.889.014.342-.106.668-.338.919l-10.807 11.718c-.245.266-.58.412-.941.412-.322 0-.63-.12-.867-.339l-2.635-2.43a1.281 1.281 0 0 1-.073-1.809l10.807-11.718c.245-.264.579-.411.941-.411zm0-.614c-.511 0-1.02.205-1.393.61l-10.807 11.718a1.895 1.895 0 0 0 .108 2.677l2.635 2.43c.364.336.825.502 1.284.502.51 0 1.02-.205 1.393-.61l10.807-11.718a1.895 1.895 0 0 0-.108-2.677l-2.635-2.43a1.888 1.888 0 0 0-1.284-.502z" class="color2e8fc7 svgShape"/><path fill="#2e8fc7" d="M205.7 150.911a.503.503 0 1 1-.739-.681.503.503 0 0 1 .739.681zM207.093 152.195a.503.503 0 1 1-.739-.681.503.503 0 0 1 .739.681zM208.485 153.48a.503.503 0 1 1-.739-.681.503.503 0 0 1 .739.681zM205.336 152.665a.503.503 0 1 1-.739-.681.503.503 0 0 1 .739.681zM206.729 153.949a.503.503 0 1 1-.739-.681.503.503 0 0 1 .739.681zM197.124 164.316a.503.503 0 1 1 .739.681.503.503 0 0 1-.739-.681zM195.732 163.031a.503.503 0 1 1 .739.681.503.503 0 0 1-.739-.681zM194.339 161.747a.503.503 0 1 1 .739.681.503.503 0 0 1-.739-.681zM197.488 162.562a.503.503 0 1 1 .739.681.503.503 0 0 1-.739-.681zM196.096 161.277a.503.503 0 1 1 .739.681.503.503 0 0 1-.739-.681zM200.575 160.855l-2.327-2.146a.814.814 0 0 1-.047-1.151l3.033-3.289a.814.814 0 0 1 1.151-.047l2.327 2.146c.331.305.352.82.047 1.151l-3.033 3.289a.814.814 0 0 1-1.151.047zM541.01 215.639c-7.809 0-14.163-6.353-14.163-14.163 0-7.809 6.353-14.163 14.163-14.163 7.81 0 14.163 6.353 14.163 14.163 0 7.81-6.353 14.163-14.163 14.163zm0-27.348c-7.271 0-13.186 5.915-13.186 13.186s5.915 13.186 13.186 13.186 13.186-5.915 13.186-13.186-5.915-13.186-13.186-13.186z" class="color2e8fc7 svgShape"/><path fill="#2e8fc7" d="M547.534 208.303h-13.049a3.472 3.472 0 0 1-3.468-3.469v-6.88a3.472 3.472 0 0 1 3.468-3.468h13.049a3.472 3.472 0 0 1 3.468 3.468v6.88a3.471 3.471 0 0 1-3.468 3.469zm-13.048-13.085a2.739 2.739 0 0 0-2.736 2.736v6.88a2.739 2.739 0 0 0 2.736 2.736h13.049a2.739 2.739 0 0 0 2.736-2.736v-6.88a2.74 2.74 0 0 0-2.736-2.736h-13.049z" class="color2e8fc7 svgShape"/><path fill="#2e8fc7" d="M541.01 205.589a4.199 4.199 0 0 1-4.194-4.194c0-2.313 1.882-4.194 4.194-4.194s4.194 1.882 4.194 4.194a4.199 4.199 0 0 1-4.194 4.194zm0-7.778a3.588 3.588 0 0 0-3.584 3.584 3.588 3.588 0 0 0 3.584 3.584 3.588 3.588 0 0 0 3.584-3.584 3.588 3.588 0 0 0-3.584-3.584z" class="color2e8fc7 svgShape"/><path fill="#2e8fc7" d="M540.252 199.305h1.516v4.178h-1.516z" class="color2e8fc7 svgShape"/><path fill="#2e8fc7" d="M540.252 199.305h1.516v4.178h-1.516z" transform="rotate(90 541.01 201.395)" class="color2e8fc7 svgShape"/><path fill="#2e8fc7" d="M545.218 192.812a.758.758 0 0 1-.758.758h-6.899a.758.758 0 1 1 0-1.516h6.899c.418 0 .758.339.758.758zM52.774 216.731c-7.809 0-14.163-6.353-14.163-14.163 0-7.81 6.353-14.163 14.163-14.163s14.163 6.353 14.163 14.163c0 7.81-6.353 14.163-14.163 14.163zm0-27.349c-7.271 0-13.186 5.915-13.186 13.186s5.915 13.186 13.186 13.186 13.186-5.915 13.186-13.186c.001-7.27-5.915-13.186-13.186-13.186z" class="color2e8fc7 svgShape"/><path fill="#2e8fc7" d="M59.759 210.092H46.691a3.477 3.477 0 0 1-3.473-3.473v-6.89a3.477 3.477 0 0 1 3.473-3.473h13.068a3.477 3.477 0 0 1 3.473 3.473v6.89a3.477 3.477 0 0 1-3.473 3.473zm-13.068-13.104a2.743 2.743 0 0 0-2.74 2.74v6.89a2.743 2.743 0 0 0 2.74 2.74h13.068a2.743 2.743 0 0 0 2.74-2.74v-6.89a2.743 2.743 0 0 0-2.74-2.74H46.691zM49.011 211.769a.76.76 0 0 1 .759-.759h6.909a.76.76 0 0 1 0 1.518H49.77a.76.76 0 0 1-.759-.759z" class="color2e8fc7 svgShape"/><path fill="#2e8fc7" d="M55.596 210.595a.386.386 0 0 1-.374-.293l-1.893-7.629-.849 3.163a.385.385 0 0 1-.372.286h-6.714a.385.385 0 0 1 0-.77h6.419l1.16-4.318a.385.385 0 0 1 .746.007l1.723 6.944 1.49-14.267a.384.384 0 0 1 .379-.345h.004c.194 0 .358.144.382.338l1.455 11.642h2.315a.385.385 0 0 1 0 .77h-2.655a.385.385 0 0 1-.382-.338l-1.081-8.645-1.369 13.111a.385.385 0 0 1-.356.344h-.028zM27.724 274.823c-7.809 0-14.163-6.353-14.163-14.163 0-7.809 6.354-14.163 14.163-14.163s14.163 6.353 14.163 14.163c0 7.81-6.353 14.163-14.163 14.163zm0-27.349c-7.271 0-13.186 5.915-13.186 13.186s5.915 13.186 13.186 13.186 13.186-5.915 13.186-13.186-5.915-13.186-13.186-13.186z" class="color2e8fc7 svgShape"/><path fill="#2e8fc7" d="M27.883 269.788c-4.336 0-7.864-3.528-7.864-7.863v-6.259a3.342 3.342 0 0 1 3.338-3.338h2.028v.977h-2.028a2.363 2.363 0 0 0-2.361 2.361v6.259a6.894 6.894 0 0 0 6.887 6.886 6.894 6.894 0 0 0 6.886-6.886v-6.259a2.363 2.363 0 0 0-2.361-2.361h-2.044v-.977h2.044a3.342 3.342 0 0 1 3.338 3.338v6.259c.001 4.335-3.527 7.863-7.863 7.863z" class="color2e8fc7 svgShape"/><path fill="#2e8fc7" d="M35.923 277.828c-4.703 0-8.529-3.826-8.529-8.529h.977c0 4.164 3.387 7.552 7.551 7.552s7.552-3.388 7.552-7.552h.977c.001 4.703-3.825 8.529-8.528 8.529zM24.508 252.816a.879.879 0 1 1 1.757 0 .879.879 0 0 1-1.757 0zM29.522 252.816a.879.879 0 1 1 1.757 0 .879.879 0 0 1-1.757 0z" class="color2e8fc7 svgShape"/><path fill="#2e8fc7" d="M43.963 272.662a3.366 3.366 0 0 1-3.362-3.362 3.366 3.366 0 0 1 3.362-3.362 3.366 3.366 0 0 1 3.362 3.362 3.364 3.364 0 0 1-3.362 3.362zm0-5.748c-1.315 0-2.386 1.07-2.386 2.385s1.07 2.386 2.386 2.386c1.315 0 2.386-1.07 2.386-2.386s-1.07-2.385-2.386-2.385z" class="color2e8fc7 svgShape"/><path fill="#2e8fc7" d="M43.963 270.99c-.932 0-1.69-.758-1.69-1.69 0-.932.758-1.69 1.69-1.69.932 0 1.69.758 1.69 1.69 0 .932-.758 1.69-1.69 1.69zm0-2.404a.714.714 0 0 0 0 1.426.714.714 0 0 0 0-1.426z" class="color2e8fc7 svgShape"/><path fill="#3a90bd" d="M376.237 408.975h64.004a1.832 1.832 0 1 0 0-3.664h-64.004a1.832 1.832 0 0 0 0 3.664z" class="color3a90bd svgShape"/><path fill="#db6b63" d="M412.309 345.171c2.237-6.587 14.772-1.584 19.874-15.347 1.047-2.823-9.828-7.705-9.61-11.058.102-1.571 11.478-1.466 11.531-3.103.628-19.203-8.708-32.374-5.034-43.695 1.286-3.962-7.081-4.126-6.114-7.216.331-1.06 8.714 1.084 9.461.236 4.358-4.953 13.743-14.325 15.386-19.955 1.203-4.123.459-10.727-.444-16.964-.197-1.358-8.748-1.05-8.941-2.344-.641-4.294 8.609-1.281 8.886-3.472.763-6.039 9.455-28.46-.474-32.283-7.413-2.854-26.572 25.854-28.92 33.502-.27.879 6.932 8.625 6.002 9.308-.816.599-10.173-6.159-11.115-5.499-7.288 5.1-17.613 11.885-19.875 18.699-2.888 8.703 3.275 25.196 2.328 30.676-1.477 8.547-13.784 24.283-16.052 40.273-.139.982 11.792-1.35 11.733-.367-.103 1.716-12.108 6.746-11.924 8.449.133 1.237 21.944-9.001 22.252-7.779.409 1.622-20.615 14.699-19.859 16.283 5.767 12.074 16.307 7.633 21.268 7.443 4.961-.189 9.641 4.213 9.641 4.213z" class="colordb6b63 svgShape"/><path fill="#8dccf2" d="M413.5 324.807a38.155 38.155 0 0 0-2.006-.433c-.946 22.3-.184 42.542 1.404 55.466.205 1.67 2.73 1.358 2.525-.31-1.744-14.216-2.582-33.767-1.923-54.723z" class="color8dccf2 svgShape"/><path fill="#f7f6f1" d="M440.379 212.888c-.424-.366-.671.13-1.868 1.518-17.401 21.961-24.783 66.443-26.815 105.694.656.116 1.31.248 1.962.395 1.596-38.902 8.404-81.653 24.124-103.722 1.177-1.58 1.76-2.248 2.632-3.277a.42.42 0 0 0-.035-.608z" class="colorf7f6f1 svgShape"/><path fill="#8dccf2" d="M424.177 356.048c4.56-5.73 14.388 2.952 25.151-8.135.768-.791-11.582-7.779-10.959-8.719.984-1.486 14.838 2.972 15.522 1.179 4.543-11.912 3.326-29.738 7.74-41.889.394-1.084-7.887-6.753-7.395-7.738.607-1.216 10 2.289 10.731 1.244 6.376-9.12 17.052-12.209 24.617-17.493 1.232-.861-9.402-13.287-8.367-14.299.714-.699 13.158 10.064 13.752 9.264 5.233-7.042 5.438-17.304 6.576-24.452.286-1.794-6.474-4.53-5.977-5.831.391-1.022 7.98-.723 8.604-1.331 4.591-4.47 15.982-16.36 9.421-23.286-.832-.878-6.369 7.065-7.313 6.722-1.238-.449 2.078-9.007.673-8.694-7.974 1.779-18.416 14.411-28.684 21.689-.831.589 2.72 10.376 1.892 10.886-.923.569-6.224-8.148-7.139-7.699-7.532 3.694-26.27 6.276-32.765 13.41-.471.517 17.398 14.249 17.005 14.872-.499.79-19.238-11.499-19.629-10.571-3.558 8.431-3.095 21.828-5.982 26.92-4.503 7.943-22.295 19.156-30.231 34.191-.487.924 12.164 2.857 11.756 3.81-.712 1.664-14.396 2.376-14.82 4.129-.308 1.273 24.944-1.112 24.814.209-.172 1.753-25.655 7.23-25.468 9.068 1.418 14.014 13.441 13.363 18.423 14.94 4.982 1.578 8.052 7.604 8.052 7.604z" class="color8dccf2 svgShape"/><path fill="#8dccf2" d="M477.744 253.408c.439-.368.998.292.562.664-33.2 28.354-53.944 89.989-58.815 133.573a1.119 1.119 0 0 1-2.224-.248c4.442-39.781 25.418-104.619 60.477-133.989z" class="color8dccf2 svgShape"/><path fill="#f7f6f1" d="M477.744 253.408c-26.53 22.225-44.996 64.761-54.335 101.38.554-.265 1.51-.204 1.988.272 9.255-37.789 27.407-79.207 52.91-100.987.435-.372-.124-1.032-.563-.665z" class="colorf7f6f1 svgShape"/><path fill="#f7f6f1" d="M403.925 356.698c-2.568-5.205-12.391.298-18.11-10.53-1.173-2.221 7.29-7.443 6.745-10.193-.255-1.288-9.654.037-9.876-1.311-2.61-15.815 3.677-27.726-.594-36.69-1.495-3.137 5.408-4.184 4.272-6.634-.389-.84-7.09 1.846-7.8 1.225-4.144-3.622-12.927-10.353-14.899-14.83-1.444-3.279-1.547-8.822-1.48-14.08.015-1.145 7.121-1.821 7.14-2.912.062-3.622-7.26-.122-7.728-1.904-1.288-4.912-10.92-22.511-3.123-26.754 5.821-3.168 24.794 18.492 27.569 24.562.319.698-4.794 7.889-3.951 8.352.74.407 7.744-6.202 8.595-5.759 6.583 3.425 15.863 7.913 18.475 13.303 3.336 6.884.035 21.197 1.415 25.627 2.152 6.909 14.045 18.585 17.663 31.564.222.797-9.901.167-9.745.974.272 1.408 10.75 4.261 10.783 5.69.024 1.038-19.131-5.056-19.253-4.011-.161 1.387 18.652 9.914 18.199 11.306-3.455 10.615-12.657 8.089-16.781 8.472-4.124.382-7.516 4.533-7.516 4.533z" class="colorf7f6f1 svgShape"/><path fill="#8dccf2" d="M403.925 357.186a.49.49 0 0 1-.438-.272c-.94-1.905-3.027-2.211-5.669-2.599-3.985-.585-8.945-1.313-12.435-7.919-.758-1.436 1.107-3.326 3.267-5.515 1.596-1.617 3.574-3.623 3.441-4.746-.467-.307-3.015-.304-4.399-.304-3.485.007-5.318-.044-5.49-1.087-1.259-7.631-.469-14.336.229-20.251.744-6.309 1.387-11.758-.782-16.309-.975-2.046.914-3.334 2.432-4.37 1.291-.881 2.082-1.481 1.882-2.152-.532-.056-2.349.434-3.46.735-2.703.73-3.77.965-4.262.535-.761-.665-1.698-1.451-2.69-2.284-4.508-3.782-10.681-8.962-12.335-12.717-1.456-3.305-1.592-8.818-1.522-14.283.012-.912 1.381-1.3 4.003-1.96 1.06-.267 2.812-.708 3.137-1.025-.006-.352-.102-.608-.294-.78-.644-.578-2.373-.361-3.762-.186-1.798.226-3.352.421-3.655-.735-.265-1.011-.92-2.639-1.678-4.525-1.416-3.522-3.356-8.347-4.128-12.622-.935-5.178.048-8.596 2.922-10.16.901-.49 2.083-.497 3.513-.02 7.943 2.648 22.369 19.635 24.734 24.808.224.489-.173 1.261-1.833 4.095-.662 1.13-1.683 2.873-2.04 3.768.781-.482 2.229-1.63 3.26-2.447 3.399-2.696 4.409-3.38 5.038-3.052l1.428.739c6.577 3.398 14.763 7.628 17.262 12.784 2.063 4.257 1.672 11.009 1.327 16.966-.219 3.783-.408 7.049.115 8.729.864 2.774 3.379 6.394 6.292 10.587 4.11 5.916 9.225 13.278 11.375 20.991a.578.578 0 0 1-.096.506c-.338.453-1.35.53-5.195.596-1.346.023-3.246.056-4.139.18.86.592 3.207 1.535 4.706 2.138 4.089 1.643 5.757 2.407 5.78 3.364a.563.563 0 0 1-.217.458c-.511.404-2.07.095-9.811-1.941-3.037-.799-6.996-1.84-8.704-2.096 1.408 1.038 5.181 3.059 8.069 4.606 8.365 4.481 9.888 5.503 9.586 6.431-2.96 9.092-10.005 8.911-14.665 8.79-.986-.025-1.837-.047-2.535.017-3.875.36-7.15 4.317-7.182 4.356a.504.504 0 0 1-.382.178zm-16.003-22.333c3.23 0 4.926.065 5.117 1.026.321 1.618-1.629 3.594-3.694 5.687-1.569 1.591-3.522 3.57-3.098 4.373 3.258 6.169 7.75 6.828 11.713 7.409 2.548.374 4.782.702 6.046 2.523 1.086-1.161 3.965-3.876 7.39-4.194.755-.07 1.634-.048 2.651-.021 4.61.12 10.916.282 13.671-7.994-.14-.184-.7-.708-2.935-2.014-1.72-1.005-3.969-2.21-6.144-3.375-7.754-4.154-9.2-5.098-9.101-5.944a.574.574 0 0 1 .253-.411c.287-.196.745-.291 3.737.399 1.817.419 4.176 1.04 6.457 1.64 2.828.744 6.49 1.707 8.192 1.993-1.024-.603-3.075-1.427-4.556-2.022-3.854-1.548-5.44-2.265-5.607-3.129a.585.585 0 0 1 .124-.483c.358-.441 1.443-.522 5.263-.588 1.435-.025 3.513-.061 4.269-.207-2.161-7.431-7.132-14.586-11.138-20.352-2.959-4.259-5.514-7.936-6.423-10.854-.576-1.849-.382-5.198-.157-9.076.322-5.549.721-12.456-1.231-16.483-2.357-4.864-10.383-9.011-16.832-12.342l-1.347-.698c-.582.148-2.669 1.802-4.063 2.908-3.174 2.518-4.043 3.122-4.624 2.803a.66.66 0 0 1-.317-.41c-.186-.673.549-2.032 2.272-4.973.701-1.197 1.651-2.819 1.75-3.275-1.255-2.671-5.486-8.136-10.113-13.061-5.633-5.994-10.738-10.057-14.004-11.146-1.163-.388-2.084-.404-2.737-.049-5.763 3.136-1.125 14.669 1.646 21.56.802 1.995 1.436 3.571 1.716 4.641.086.328 1.84.107 2.589.013 1.75-.22 3.56-.447 4.537.429.422.379.63.915.618 1.594-.015.872-1.339 1.246-3.875 1.885-1.113.28-2.956.745-3.265 1.085-.067 5.335.064 10.694 1.44 13.817 1.562 3.547 7.635 8.642 12.069 12.363.979.822 1.906 1.599 2.667 2.264.428.092 2.284-.408 3.402-.71 2.9-.783 4.197-1.097 4.557-.32.706 1.523-.824 2.567-2.173 3.487-1.69 1.152-2.674 1.939-2.101 3.142 2.29 4.805 1.632 10.384.87 16.843-.688 5.835-1.468 12.447-.245 19.917.452.333 3 .332 4.535.329l.229.001z" class="color8dccf2 svgShape"/><path fill="#8dccf2" d="m405.033 385.458-.014-1.608-.039-1.912c-.021-.755-.045-1.624-.085-2.597-.15-3.891-.492-9.455-1.159-16.114a374.793 374.793 0 0 0-2.994-22.675 374.607 374.607 0 0 0-2.288-12.701 344.02 344.02 0 0 0-2.83-13.02 299.64 299.64 0 0 0-3.363-12.89 241.301 241.301 0 0 0-3.87-12.304c-1.375-3.95-2.806-7.733-4.308-11.258-1.501-3.525-3.043-6.805-4.608-9.756-1.565-2.951-3.141-5.579-4.653-7.827a59.75 59.75 0 0 0-4.226-5.59l-.463-.536-.222-.257-.224-.241-.827-.888c-.126-.14-.258-.265-.381-.388l-.355-.353c-.227-.224-.431-.431-.618-.611l-1.177-1.072-.012-.011a.373.373 0 0 1 .499-.554l1.212 1.081c.193.182.402.389.637.615l.366.355c.127.124.262.25.392.391l.851.895.23.243a226.753 226.753 0 0 0 .705.798 60.465 60.465 0 0 1 4.345 5.624c1.555 2.26 3.175 4.9 4.786 7.862 1.611 2.962 3.2 6.252 4.748 9.787 1.55 3.535 3.03 7.327 4.454 11.286a242.644 242.644 0 0 1 4.02 12.33 299.945 299.945 0 0 1 3.514 12.916 345.748 345.748 0 0 1 2.979 13.048c.904 4.321 1.713 8.59 2.431 12.733a381.487 381.487 0 0 1 1.886 11.977 345.85 345.85 0 0 1 1.36 10.781c.741 6.692 1.145 12.295 1.337 16.227.101 1.964.143 3.514.173 4.575l.03 1.608a1.12 1.12 0 1 1-2.238.042l-.001-.011z" class="color8dccf2 svgShape"/><path fill="#8dccf2" d="m392.365 378.155 1.273 2.395s.858 25.218 7.205 25.218h23.106c6.269 0 7.208-24.9 7.208-24.9l1.273-2.713a1.02 1.02 0 0 0-1.019-1.019h-38.028c-.563 0-1.018.455-1.018 1.019z" class="color8dccf2 svgShape"/><path fill="#8dccf2" d="m403.81 378.155 1.273 2.395s.858 25.218 7.205 25.218h11.66c6.269 0 7.208-24.9 7.208-24.9l1.273-2.713a1.02 1.02 0 0 0-1.019-1.019h-26.582c-.563 0-1.018.455-1.018 1.019zM351.645 330.272v9.946h54.678c1.894 0 3.429-1.486 3.429-3.318v-3.311c0-1.832-1.535-3.318-3.429-3.318h-54.678z" class="color8dccf2 svgShape"/><path fill="#f7f6f1" d="M86.72 339.801c-6.02-.29-11.871-3.255-16.924-8.576a32.46 32.46 0 0 1-.498-.536h292.525c1.083 0 2.086.568 2.617 1.483.25.43.382.921.382 1.419v3.308c0 1.6-1.345 2.902-2.999 2.902H86.72z" class="colorf7f6f1 svgShape"/><path fill="#8dccf2" d="M361.823 331.107c.928 0 1.786.487 2.242 1.271.214.367.327.787.327 1.214v3.308c0 1.37-1.152 2.485-2.569 2.485H86.73c-5.839-.284-11.526-3.145-16.461-8.278h291.554zm0-.834H68.359c.368.423.741.835 1.12 1.234 4.986 5.251 10.886 8.408 17.23 8.711h275.115c1.894 0 3.43-1.485 3.43-3.318v-3.308c0-.589-.159-1.144-.438-1.623a3.449 3.449 0 0 0-2.993-1.696z" class="color8dccf2 svgShape"/><path fill="#bfe9ff" d="M364.816 331.969c-16.03 1.587-47.21 1.099-53.178 1.905-7.146.966-48.233 2.147-52.878 1.372-4.645-.774-22.509 1.12-36.728 2.157-14.222 1.037-76.887 2.074-82.382-1.412-2.778-1.761-5.266-4.029-8.153-5.717h230.327a3.445 3.445 0 0 1 2.992 1.695z" class="colorbfe9ff svgShape"/><path fill="#8dccf2" d="M328.876 346.657v50.395c0 3.542-2.968 6.414-6.63 6.414H157.613c-3.663 0-6.631-2.872-6.631-6.414v-50.395c0-3.542 2.968-6.414 6.631-6.414h164.633c3.662 0 6.63 2.872 6.63 6.414z" class="color8dccf2 svgShape"/><path fill="#f7f6f1" d="M301.441 346.656v50.396c0 3.541-2.967 6.414-6.629 6.414H130.178c-3.662 0-6.629-2.873-6.629-6.414v-50.396c0-3.541 2.967-6.412 6.629-6.412h164.634c3.662 0 6.629 2.871 6.629 6.412z" class="colorf7f6f1 svgShape"/><path fill="#8dccf2" d="M294.812 403.883H130.178c-3.893 0-7.06-3.064-7.06-6.831v-50.396c0-3.765 3.167-6.829 7.06-6.829h164.634c3.893 0 7.06 3.064 7.06 6.829v50.396c0 3.766-3.168 6.831-7.06 6.831zm-164.634-63.222c-3.418 0-6.199 2.689-6.199 5.995v50.396c0 3.307 2.781 5.997 6.199 5.997h164.634c3.418 0 6.198-2.69 6.198-5.997v-50.396c0-3.306-2.781-5.995-6.198-5.995H130.178z" class="color8dccf2 svgShape"/><path fill="#ebf5fa" d="m242.03 340.244-47.758 63.222h-52.258l69.724-63.222zM286.951 340.244l-15.986 63.222h-60.347l49.605-63.222z" class="colorebf5fa svgShape"/><path fill="#f7f6f1" d="M131.728 327.345a2.88 2.88 0 0 1-1.249 2.368 3.07 3.07 0 0 1-1.777.56H87.774c-1.67 0-3.026-1.312-3.026-2.928 0-.809.339-1.54.886-2.071a3.067 3.067 0 0 1 2.14-.857h40.929c1.669 0 3.025 1.311 3.025 2.928z" class="colorf7f6f1 svgShape"/><path fill="#8dccf2" d="M128.702 330.69H87.773c-1.906 0-3.457-1.5-3.457-3.344 0-.892.359-1.731 1.012-2.365a3.495 3.495 0 0 1 2.445-.98h40.929c1.906 0 3.457 1.5 3.457 3.345 0 .892-.359 1.731-1.012 2.365a3.5 3.5 0 0 1-2.445.979zm-40.929-5.856c-.693 0-1.345.261-1.836.735a2.458 2.458 0 0 0-.76 1.776c0 1.384 1.164 2.511 2.595 2.511h40.929a2.633 2.633 0 0 0 1.836-.735c.49-.475.76-1.106.76-1.776 0-1.385-1.164-2.511-2.596-2.511H87.773z" class="color8dccf2 svgShape"/><path fill="#bfe9ff" d="M131.728 327.345a2.88 2.88 0 0 1-1.249 2.368c-2.581-1.331-5.518-2.136-9.254-1.715-6.272.709-17.187.973-23.713-3.581h31.189c1.671 0 3.027 1.311 3.027 2.928z" class="colorbfe9ff svgShape"/><path fill="#bbe4fa" d="M328.876 346.657v5.677H123.548v-5.677c0-3.542 2.968-6.414 6.631-6.414h192.067c3.662 0 6.63 2.872 6.63 6.414z" class="colorbbe4fa svgShape"/><path fill="#3a90bd" d="M51.608 406.171h313.293c.734 0 1.329-.806 1.329-1.801s-.595-1.801-1.329-1.801H51.608c-.734 0-1.329.806-1.329 1.801s.595 1.801 1.329 1.801z" class="color3a90bd svgShape"/><path fill="#232b59" d="M110.077 301.709c-5.317-6.784-12.085-1.396-13.293 3.16-1.209 4.557 1.934 20.705 13.293 22.54 11.359 1.835 20.06-6.65 20.06-6.65l-20.06-19.05z" class="color232b59 svgShape"/><path fill="#f3a088" d="M132.407 311.452s19.548 3.907 20.417 5.71c.869 1.802.25 14.897-2.791 14.897s-29.789-12.628-29.789-12.628l12.163-7.979z" class="colorf3a088 svgShape"/><path fill="#f7b690" d="M110.508 299.989c4.299-2.825 15.174-5.83 18.993-4.374 1.097.418.757 2.132.982 2.884.354 1.183 6.28.449 7.715 5.03 2.256 7.197-7.603 18.899-15.354 14.925-2.048 6.111-10.696 1.189-2.37-2.464-1.426-2.126-7.173 1.632-8.51-1.826-3.115-8.057-4.173-12.389-1.456-14.175z" class="colorf7b690 svgShape"/><path fill="#f3a088" d="M352.297 320.761c6.323.161 11.412-.645 12.955-1.128 1.542-.483 13.704-10.196 15.401-10.196 1.696 0-5.388 19.985-8.164 20.815-2.776.83-3.607-2.196-4.995-2.392-1.388-.197-19.668.187-19.668.187l4.471-7.286z" class="colorf3a088 svgShape"/><path fill="#0a3d5f" d="M380.653 309.437c-1.135 0-6.953 4.346-11.142 7.368.615 2.24.562 4.841.15 7.088-.191 1.042-.572 2.056-.949 3.042-.16.418-.322.848-.501 1.273 1.038.822 2.007 2.723 4.278 2.044 2.775-.83 9.86-20.815 8.164-20.815z" class="color0a3d5f svgShape"/><path fill="#222b54" d="M224.534 305.087c19.144-4.176 60.878-4.861 75.658-4.149 5.504.265 63.062 18.625 63.062 18.625l-1.508 11.165H220.761l3.773-25.641z" class="color222b54 svgShape"/><path fill="#f7b690" d="M352.389 321.415c6.323.161 11.412-.645 12.954-1.128 1.542-.483 11.511-16.113 16.137-15.63 1.687.176-9.505 24.765-12.281 25.596-2.776.83-3.084-1.355-4.472-1.551-1.388-.197-16.81 0-16.81 0l4.472-7.287z" class="colorf7b690 svgShape"/><path fill="#0a3d5f" d="M381.481 304.657c-3.692-.386-10.789 9.495-14.287 13.744-.203 2.56-.48 5.105-.861 7.655-.157 1.054-.391 2.064-.824 2.999.853.644 1.512 1.849 3.691 1.197 2.775-.83 13.968-25.419 12.281-25.595z" class="color0a3d5f svgShape"/><path fill="#0a3c60" d="M224.534 305.087c26.59-3.018 68.632 1.53 74.142 1.53 5.509 0 62.967 12.946 62.967 12.946l-1.508 11.165H220.761l3.773-25.641z" class="color0a3c60 svgShape"/><path fill="#f7b690" d="M179.732 299.501c-11.354.643-32.047 11.984-34.781 22.733-.973 3.826-2.182 6.563-1.623 7.722 1.529 3.173 10.876 4.819 16.716 4.819 27.169 0 72.892-1.023 77.381-3.902 5.813-3.728 6.886-24.143 1.097-27.909-3.958-2.575-37.152-4.689-58.79-3.463z" class="colorf7b690 svgShape"/><path fill="#f3a088" d="M147.724 321.913c.984-5.178 6.067-8.511 11.202-7.322 7.348 1.701 50.188 4.604 52.874 4.972 4.29.587 32.752 3.694 35.735 4.126 6.96 1.008 21.181 5.717 20.089 7.125-.588.758-15.075 1.396-19.572-.364-1.325-.518-2.758-.688-4.177-.583-11.018.814-27.213 3.521-31.859 3.794-3.875.228-47.617-.203-55.613-.545-5.646-.241-9.8-5.439-8.72-10.986l.041-.217z" class="colorf3a088 svgShape"/><path fill="#6a9dbd" d="M381.653 305.087c1.972 0 1.611 4.834 1.074 6.66-.537 1.826-8.117 18.981-10.239 18.506-2.122-.476 7.661-25.166 9.165-25.166z" class="color6a9dbd svgShape"/><path fill="#8dccf2" d="M381.481 304.657c-1.586.205-3.084 2.847-3.811 4.136-1.924 3.412-10.418 21.46-8.47 21.46 2.375 0 16.02-26.079 12.281-25.596z" class="color8dccf2 svgShape"/><path fill="#232b59" d="M352.361 197.016c1.416-3.318 5.671-8.89 10.368-9.307 10.463-.93 13.295 5.927 13.153 12.555-.1 4.65-3.189 7.231-3.037 11.432.104 2.896 7.82 7.284 5.511 15.528-1.625 5.801-10.645 8.264-16.399 3.879-2.052-1.564-5.836-7.424-3.712-14.914 2.124-7.49 3.947-8.702 5.203-12.45 1.708-5.099-1.404-12.983-10.501-6.225-2.18 1.619-.867.16-.586-.498z" class="color232b59 svgShape"/><path fill="#f7b690" d="M336.298 309.625c.218 3.811-.548 20.1-.802 31.741-.554 25.377 2.265 54.883 1.025 58.723-1.808 5.601 3.203 4.01 3.313-.073.201-7.414 16.26-38.766 14.713-48.724-.81-5.212-2.527-8.555-2.786-11.713-.259-3.158 8.365-30.256 8.365-30.256l-23.828.302z" class="colorf7b690 svgShape"/><path fill="#f7b690" d="M357.712 310.733c1.073 3.66 3.149 19.009 5.882 30.321.846 3.501 3.787 12.43 5.698 18.65 5.733 18.659 12.064 35.61 11.81 38.628-.495 5.87 5.504 3.086 3.729-.583-1.775-3.669 3.369-39.702.375-49.318-2.994-9.615-5.893-10.466-6.859-13.48-.965-3.015 2.497-30.002 2.497-30.002l-23.132 5.784z" class="colorf7b690 svgShape"/><path fill="#2e6c9e" d="M333.893 310.612c-.562 7.733-.374 20.816 0 21.969.374 1.153 11.457 2.996 24.148 3.637 12.691.641 23.446-3.536 24.195-4.481.749-.945-.058-24.528-.432-26.522-.374-1.994-47.911 5.397-47.911 5.397z" class="color2e6c9e svgShape"/><path fill="#f7f6f1" d="M374.728 217.366c-2.283-2.674-5.419-4.819-9.637-7.018-2.747-1.765-9.522-3.283-13.02-1.087-4.639 2.171-9.266 5.824-12.062 8.957a4.18 4.18 0 0 0-.546.482c-12.676 13.349-22.927 34.443-21.461 41.965 1.217 6.246 8.204 7.712 14.651 7.066-1.129 21.533-1.459 42.739-.537 44.804 1.798 4.025 46.343 4.096 51.468.244.617-.464.202-23.981-1.025-47.02 4.55.945 9.993 1.055 12.25-2.204 8.073-11.662-13.884-40.502-20.081-46.189zm7.181 36.591c-.165-2.483-.348-4.134-.532-6.478 1.326 2.072 2.396 4.029 3.025 6.062-.269.104-1.513.255-2.493.416z" class="colorf7f6f1 svgShape"/><path fill="#8dccf2" d="M353.689 242.146a.291.291 0 0 1-.129-.551c3.76-1.902 18.005-15.98 20.759-23.722a.286.286 0 0 1 .368-.175c.15.054.228.221.174.372-1.204 3.387-4.874 8.557-10.069 14.186-4.32 4.682-8.936 8.828-10.974 9.859a.288.288 0 0 1-.129.031zM352.316 239.229a.286.286 0 0 1-.231-.117c-4.324-5.84-7.889-13.778-9.779-21.779a.288.288 0 1 1 .56-.135c1.873 7.926 5.401 15.786 9.68 21.565a.293.293 0 0 1-.23.466z" class="color8dccf2 svgShape"/><path fill="#8dccf2" d="M352.315 315.253a.29.29 0 0 1-.286-.256c-.561-4.655-.789-21.691-.543-40.507.103-7.844.546-33.817 1.925-38.734a.288.288 0 1 1 .555.158c-1.081 3.852-1.692 22.456-1.903 38.583-.246 18.793-.02 35.797.538 40.429a.291.291 0 0 1-.251.324c-.012.003-.023.003-.035.003zM379.263 254.855a.292.292 0 0 1-.08-.571c.265-.078 6.529-1.895 10.271-.495a.292.292 0 0 1 .17.374.288.288 0 0 1-.37.172c-3.566-1.333-9.847.49-9.91.509a.282.282 0 0 1-.081.011zM381.4 267.467l-.023-.001c-1.431-.117-5.056-1.203-6.504-3.669a.293.293 0 0 1 .101-.399.287.287 0 0 1 .395.102c1.335 2.273 4.717 3.277 6.055 3.386a.29.29 0 0 1 .264.313.29.29 0 0 1-.288.268zM337.417 256.032a.282.282 0 0 1-.182-.066c-1.167-.965-8.482-1.291-10.875-1.112a.29.29 0 0 1-.309-.269.29.29 0 0 1 .266-.312c1.856-.139 9.836.046 11.283 1.242a.293.293 0 0 1 .041.409.286.286 0 0 1-.224.108zM334.003 268.713a.291.291 0 0 1-.035-.58c1.163-.141 5.12-1.212 6.152-1.597.846-.316 1.328-.606 1.4-2.897a.29.29 0 0 1 .297-.281.29.29 0 0 1 .279.3c-.076 2.391-.609 2.988-1.776 3.424-1.079.403-5.062 1.48-6.283 1.629-.011.002-.022.002-.034.002z" class="color8dccf2 svgShape"/><path fill="#232b59" d="M351.22 193.505c-3.17-3.383-4.714-13.78 2.317-20.04 5.801-5.166 11.292-2.096 13.286-.871 3.155 1.939 7.639 12.52-.852 20.743-8.492 8.224-9.394 5.887-14.751.168z" class="color232b59 svgShape"/><path fill="#2e6c9e" d="M359.02 210.137c2.103.337 5.684 1.738 7.656 4.299 1.972 2.561-11.409 20.353-12.224 20.353-1.721 0-5.274-18.615-4.437-20.811.565-1.478 6.638-4.221 9.005-3.841z" class="color2e6c9e svgShape"/><path fill="#f3a088" d="M362.672 198.503c.39 6.175 1.588 12.67 2.621 14.618 1.455 2.743-6.411 5.356-9.708 4.474-3.297-.882-4.267-2.645-4.364-3.82-.097-1.175 3.863-5.059 4.558-13.322.554-6.586 6.734-4.467 6.893-1.95z" class="colorf3a088 svgShape"/><path fill="#f7b690" d="M349.203 184.42c-1.105 9.09 2.563 18.943 5.475 19.473 3.954.719 11.005-4.478 11.242-12.912 2.072.586 2.596-2.674 2.139-4.795-.569-2.639-2.532.292-2.532.292s-15.893-5.604-16.324-2.058z" class="colorf7b690 svgShape"/><path fill="#2e6c9e" d="M336.521 400.089c-6.742 5.013-10.485 7.282-10.236 8.794.25 1.512 15.472-1.008 16.72-1.765 1.248-.756-3.171-7.102-3.171-7.102l-3.313.073zM381.101 398.333c-2.735 3.732-8.484 8.579-7.477 10.596 1.007 2.017 13.802-3.616 14.622-5.896.441-1.226-3.416-5.283-3.416-5.283l-3.729.583z" class="color2e6c9e svgShape"/><path fill="#8dccf2" d="m332.856 252.854-.027-.001a.29.29 0 0 1-.26-.316c.006-.067.616-6.728 1.151-9.756a.288.288 0 1 1 .567.103c-.531 3.004-1.138 9.64-1.144 9.707a.29.29 0 0 1-.287.263zM383.124 313.352a.291.291 0 0 1-.112-.559c.033-.02.352-.282.496-2.71.085-1.443.077-3.072.072-4.045l-.002-.474a.29.29 0 0 1 .288-.291.29.29 0 0 1 .288.291l.002.471c.026 5.022-.224 7-.921 7.295a.29.29 0 0 1-.111.022zM332.623 313.352a.288.288 0 0 1-.121-.027c-1.013-.474-1.117-2.795-1.161-6.28-.007-.517-.013-1.005-.025-1.474a.29.29 0 0 1 .28-.298.292.292 0 0 1 .295.283c.012.473.019.963.025 1.482.029 2.281.068 5.404.827 5.76a.292.292 0 0 1 .14.386.283.283 0 0 1-.26.168z" class="color8dccf2 svgShape"/><path fill="#bf323f" d="M347.559 238.31c.234-.402.755-.631 1.166-.511.888.261 1.331.39 2.219.649a2.66 2.66 0 0 0-.229.724c.001.003.002.005.001.009-.165.291-.281.569-.324.822a724.206 724.206 0 0 1-2.512-.746c-.41-.122-.552-.548-.321-.947zM347.512 241.357c.109.431.464.775.793.769a352.6 352.6 0 0 1 1.781-.031 3.21 3.21 0 0 1-.052-.725c.001-.003.003-.005.002-.008a3.106 3.106 0 0 1-.107-.84c-.807.017-1.211.026-2.018.045-.329.007-.507.363-.399.79zM351.967 236.429a4.965 4.965 0 0 0-.856 1.067c-.837-.462-1.962-1.119-1.972-1.124-.264-.155-.286-.516-.047-.808.238-.29.646-.406.912-.25l.001-.001s.548.317 1.155.663c.269.153.554.314.807.453z" class="colorbf323f svgShape"/><path fill="#bf323f" d="M354.226 236.232a2.857 2.857 0 0 0-.154-.058c-1.638-.554-3.556.658-4.283 2.707-.728 2.049.01 4.158 1.648 4.712.052.018.105.033.158.048l2.631-7.409z" class="colorbf323f svgShape"/><path fill="#d14754" d="M353.146 230.737c-.09.081-.19.164-.251.279-1.439 2.72-1.437 9.892 2.295 11.196.46.161.885.192 1.241.114.632-.137 1.131-.629.918-1.338-1.17-2.635-2.09-5.104-1.85-8.053.01-.128.264-1.819.439-1.804-.774-.366-2.122-.587-2.792-.394z" class="colord14754 svgShape"/><path fill="#bf323f" d="M352.564 244.895c-.647-.319-1.34-.48-2.023-.617-.946-.19-1.628.037-2.533-.47-.906-.508-1.766-1.032-2.693-1.486a.465.465 0 0 0-.621.223l-.456.938a.826.826 0 0 0 .308 1.072c1.074.643 2.172 1.207 3.179 1.934.469.298.932.603 1.384.921 1.343.946 2.599 1.9 3.971 2.694 1 .28 1.984.309 2.812-.126 1.569-.826.752-2.492-.704-3.662-.479-.385-1.091-.695-1.695-.981-.319-.152-.636-.296-.929-.44z" class="colorbf323f svgShape"/><path fill="#d14754" d="M353.226 236.168a9.458 9.458 0 0 0-2.148 3.215c-.873 2.184-.869 4.603-.627 6.917.514 4.923 11.472 8.728 16.616 6.34 2.59-1.202 8.391-4.208 7.993-7.759-.264-2.356-2.385-3.277-4.197-4.316-2.096-1.202-4.106-2.39-6.029-3.859-1.774-1.355-3.661-2.71-5.969-2.854-2.094-.131-4.11.814-5.639 2.316z" class="colord14754 svgShape"/><path fill="#bf323f" d="M360.969 251.122a.255.255 0 0 1-.246-.325c.465-1.658.146-3.583-.975-5.883-.213-.436-.489-.912-.781-1.416-1.041-1.793-2.22-3.826-1.656-5.792.608-2.119 2.18-2.258 2.246-2.264a.264.264 0 0 1 .274.237.257.257 0 0 1-.236.274c-.051.004-1.286.132-1.792 1.895-.504 1.756.617 3.688 1.606 5.393.297.512.578.996.799 1.449 1.179 2.417 1.509 4.46 1.008 6.244a.259.259 0 0 1-.247.188z" class="colorbf323f svgShape"/><path fill="#bf323f" d="M359.99 243.669c-.233 0-.466-.011-.701-.034a.255.255 0 1 1 .05-.509c2.77.277 5.399-1.211 6.86-3.869a.255.255 0 1 1 .448.246c-1.439 2.616-3.944 4.166-6.657 4.166z" class="colorbf323f svgShape"/><path fill="#bf323f" d="M366.401 248.155a.258.258 0 0 1-.13-.036c-2.658-1.57-3.113-2.396-3.906-5.246a.256.256 0 0 1 .493-.138c.772 2.775 1.143 3.449 3.673 4.943a.256.256 0 0 1-.13.477zM351.008 246.712a.257.257 0 0 1-.231-.145.255.255 0 0 1 .12-.341c.875-.421 1.388-2.763 1.19-3.884-.051-.287-.118-.575-.185-.863-.202-.868-.411-1.766-.19-2.667a.256.256 0 0 1 .497.122c-.192.782-.006 1.582.191 2.429.069.297.138.594.191.89.208 1.175-.271 3.855-1.472 4.433a.261.261 0 0 1-.111.026z" class="colorbf323f svgShape"/><path fill="#bf323f" d="M354.848 249.666a.256.256 0 0 1-.148-.048c-.792-.565-1.02-1.531-1.241-2.464-.234-.991-.436-1.846-1.246-2.084a.255.255 0 0 1-.173-.318.254.254 0 0 1 .318-.173c1.095.322 1.351 1.408 1.6 2.458.199.842.405 1.713 1.04 2.165a.255.255 0 0 1-.15.464z" class="colorbf323f svgShape"/><path fill="#bf323f" d="M356.313 248.327a.254.254 0 0 1-.191-.086c-1.02-1.15-1.898-1.761-2.683-1.869a.256.256 0 0 1-.219-.288.26.26 0 0 1 .288-.218c1.214.167 2.291 1.242 2.996 2.035a.256.256 0 0 1-.191.426zM358.276 240.544a.257.257 0 0 1-.081-.499 7.48 7.48 0 0 1 4.135-.153.256.256 0 1 1-.126.496 6.974 6.974 0 0 0-3.849.142.244.244 0 0 1-.079.014zM363.954 246.354a.255.255 0 0 1-.189-.428c.667-.733 1.721-1.101 2.683-.937a.255.255 0 0 1 .209.295.251.251 0 0 1-.295.209 2.514 2.514 0 0 0-2.219.777.257.257 0 0 1-.189.084z" class="colorbf323f svgShape"/><path fill="#c5e9ff" d="M376.967 257.368h-36.068a2.544 2.544 0 0 1-2.527-2.253l-1.487-12.935a3.323 3.323 0 0 1 3.301-3.702h37.493a3.322 3.322 0 0 1 3.301 3.702l-1.487 12.935a2.542 2.542 0 0 1-2.526 2.253z" opacity=".65" class="colorc5e9ff svgShape"/><path fill="#f7b690" d="M343.544 251.08c-.629.038-1.775-.568-2.432-.29-2.341.989-3.63 6.182-4.462 7.345-1.066 1.491 1.804 3.644 3.28 4.472 1.476.828 6.444.51 7.521.284 2.495-.524 6.559-3.812 5.508-4.277-1.312-.58-8.632-5.762-8.859-6.052.963-.104 1.25-.738 1.291-1.304.022-.309-1.46-.201-1.847-.178zM372.688 251.754c.629.038 1.775-.568 2.432-.29 2.34.989 4.409 5.507 5.241 6.671 1.066 1.491-1.804 3.644-3.28 4.472-1.476.828-4.751.537-5.773.124-1.23-.497-4.81-4.552-3.758-5.016 1.312-.58 5.43-3.662 5.657-3.953-.963-.104-2.326-1.264-2.367-1.83-.021-.309 1.462-.201 1.848-.178z" class="colorf7b690 svgShape"/><path fill="#ebf6ff" d="M364.098 190.261s-1.202 2.926-.999 3.919c.202.994.049 2.967.049 2.967l.209 1.762.066.48s-1.882 1.402-3.447 1.835c-1.565.433-7.691.34-8.926-.158-1.234-.498-2.405-7.626-1.921-9.978.521-2.533 5.423-1.35 8.969-1.166.665.034 5.743.964 6 .339z" class="colorebf6ff svgShape"/><path fill="#ebf6ff" d="M359.796 193.212a.32.32 0 0 1-.289-.459 18.068 18.068 0 0 1 6.215-7.194.32.32 0 1 1 .357.531 17.437 17.437 0 0 0-5.994 6.94.32.32 0 0 1-.289.182zM362 198.759a.32.32 0 0 1-.231-.541l3.596-3.761a.32.32 0 1 1 .463.441l-3.596 3.761a.315.315 0 0 1-.232.1z" class="colorebf6ff svgShape"/><path fill="#c5e9ff" d="M348.028 183.67s-.211-8.285.636-10.813c.846-2.528 8.411-3.893 12.298-3.072 3.888.821 9.444 4.353 10.692 5.782 1.247 1.43-1.159 9.679-1.266 10.757-.107 1.078-6.293-2.583-12.735-3.657-6.442-1.075-7.313-.291-9.625 1.003z" class="colorc5e9ff svgShape"/><path fill="#000725" d="M274.456 404.423c-.722.134-1.581 1.797-.266 2.486 1.206.632 10.691.305 15.269.383 5.232.09 9.969.093 11.457-.666.447-.228.68-2.04-1.263-2.328-.932-.139-21.692-.525-25.197.125z" class="color000725 svgShape"/><path fill="#f7b690" d="M281.881 379.146c.285 4.346.958 12.591 1.579 15.283.172.745 2.258 4.078 1.437 5.018-.845.968-5.759 1.181-7.82-1.491-.924-1.198-4.352-17.531-4.352-19.681 0-2.151 9.005-1.43 9.156.871z" class="colorf7b690 svgShape"/><path fill="#001b44" d="M276.163 396.698c-.457.677-3.213 6.264-1.613 8.551.487.696 24.866.723 26.039 0 .263-.163-.4-.848-1.593-1.807-1.236-.993-5.068-.393-7-1.693-4.507-3.034-7.679-8.032-7.973-7.689-.541.632.202 3.86-3.079 4.507-2.628.517-4.346-2.512-4.781-1.869z" class="color001b44 svgShape"/><path fill="#224f73" d="M282.963 388.549c-.076 1.797-7.785 2.539-8.796.793-.547-.945-8.172-25.553-6.52-35.095 1.676-9.682 4.036-13.873 4.382-18.043 1.448-17.469-25.757-71.885-12.876-70.015 9.882 1.434 25.978 3.972 26.733 9.971 2.956 23.466 2.302 56.706.239 67.272-1.013 28.677-3.117 44.072-3.162 45.117z" class="color224f73 svgShape"/><path fill="#e0947d" d="M336.065 233.159c1.352-1.261 5.163-1.514 5.788-1.512 1.993.006 4.225-1.204 4.355-.819.13.385-.448 4.537-.736 6.214-.289 1.677-4.331 2.447-4.427 3.313-.096.866-.577 3.657-1.444 4.812-.866 1.155-6.64 1.54-6.64 1.54l-1.334-3.982c-.001.001 1.866-7.167 4.438-9.566z" class="colore0947d svgShape"/><path fill="#000725" d="M212.351 397.997c-1.501-.198-2.388 1.525-1.933 2.722 1.082 2.851 14.203 7.563 15.954 7.178 1.229-.269 1.773-2.022 1.407-2.879-.712-1.664-15.428-7.021-15.428-7.021z" class="color000725 svgShape"/><path fill="#f7b690" d="M231.269 376.285c-2.279 5.644-5.534 15.6-5.478 20.191.02 1.654-3.997 5.165-7.793.734-.661-.772-2.027-4.188-1.409-5.322.45-.825 1.461-1.627 2.209-2.804 3.596-5.658 4.496-15.622 5.472-17.029 1.179-1.701 9.193-1.203 6.999 4.23z" class="colorf7b690 svgShape"/><path fill="#001b44" d="M216.447 392.72c-.498-.163-1.252.337-1.837 1.786-1.2 2.972-4.084 4.557-3.273 5.597 1.988 2.548 10.324 5.424 15.081 6.362.661.13 1.253-1.273.918-2.531-.183-.688-1.091-1.66-1.206-2.171-.607-2.704.922-8.142-2.709-9.603-1.283-.516-4.851 4.39-6.27 3.091-.617-.565-.704-2.531-.704-2.531z" class="color001b44 svgShape"/><path fill="#2e6c9e" d="M254.005 340.173c-1.195 3.799-4.212 7.543-6.812 11.693-1.834 2.927-1.832 7.535-5.367 14.017-7.753 14.218-12.666 19.347-13.667 21.12-1.116 1.974-7.016-1.014-7.798-2.436 2.115-15.086.734-23.131 5.498-32.621 3.691-7.352 11.898-11.093 13.216-15.381 3.043-9.908-7.247-63.505-1.179-71.634 0 0 13.84-.547 26.721 1.322 9.881 1.433-7.279 63.324-10.612 73.92z" class="color2e6c9e svgShape"/><path fill="#f3a088" d="M296.089 209.183c3.225 7.554 7.944 33.875 11.096 35.995 4.133 2.78 24.798-2.555 24.798-2.555s2.801-.548 2.801 2.52c0 1.102-16.947 19.302-37.898 13.597-5.563-1.515-12.467-36.339-12.467-36.339l11.67-13.218z" class="colorf3a088 svgShape"/><path fill="#2e6c9e" d="M294.998 204.276c5.828 6.401 12.406 29.751 11.023 31.823-1.384 2.073-18.634 5.143-21.601 4.344-2.967-.799 10.578-36.167 10.578-36.167z" class="color2e6c9e svgShape"/><path fill="#2e6c9e" d="M246.478 204.276c-1.99 5.212-9.961 26.467-9.961 43.915 0 5.124-4.694 36.157.646 41.36 8.603 8.381 35.251 2.971 50.408 1.293 7.119-.789 1.587-42.829 1.752-44.386.962-9.074 5.944-38.163 5.675-42.183-2.968-3.617-11.681-9.853-21.699-12.862-6.98-2.096-24.479 6.726-26.821 12.863z" class="color2e6c9e svgShape"/><path fill="#f3a088" d="M283.382 177.039c-1.135 5.79-15.465 13.547-15.739 15.061-.663 3.673 1.828 8.677 5.475 12.02s10.31 3.836 10.5 1.153c.47-6.638 9.33-14.472 9.33-14.472l-9.566-13.762z" class="colorf3a088 svgShape"/><path fill="#232b59" d="M284.802 179.295c-1.282 3.564-4.035 8.423-3.622 11.454.413 3.032 8.597 11.946 12.472 11.285 3.875-.66 3.393-13.062 3.393-13.062l-11.192-12.407-1.051 2.73z" class="color232b59 svgShape"/><path fill="#f7b690" d="M305.437 179.215c-.909 3.273-2.129 6.49-2.677 6.871-.548.381-.879.001-1.09.283-.211.282-1.022 7.888-2.57 7.609-1.548-.279-2.17-2.149-2.17-2.149s-4.55-1.022-5.411-1.575c-3.421-2.195-7.155-9.524-7.099-9.834.056-.31 3.727-11.691 7.18-13.13 2.279-.95 9.509 2.673 9.509 2.673l4.467 8.478-.139.774z" class="colorf7b690 svgShape"/><path fill="#232b59" d="M296.36 174.948c2.043-.774 5.772 3.894 8.203 5.548 1.426.97 3.051-4.168 3.849-6.623 1.1-3.385 1.523-1.165-1.241-2.92-4.147-2.634-9.469-6.557-14.409-7.448-3.096-.558-8.616 6.12-9.133 8.105-.517 1.985-1.183 7.64.381 8.721 1.564 1.081 2.901-6.531 4.744-6.998 1.842-.467 2.271 7.366 3.132 7.24.861-.128 1.901-4.65 4.474-5.625z" class="color232b59 svgShape"/><path fill="#f7b690" d="M253.328 203.253c-19.575 9.385-5.33 58.013 6.315 59.861 9.763 1.549 35.251-4.766 46.291-21.797.463-.715-1.05-3.186-1.82-2.87-10.749 4.417-34.006 10.333-35.63 7.968-7.347-10.7-2.79-43.776-15.156-43.162z" class="colorf7b690 svgShape"/><path fill="#f7b690" d="M303.744 239.335c1.632-4.792 4.556-10.199 5.633-10.838 1.077-.639 7.078-1.278 7.848-.958.769.319.065 1.491-1.077 1.757-.45.105-4.309.48-4.309.48s6.942 1.311 7.48 1.871c.539.559-.902 3.629-2.325 3.48-2.372-.248-3.616-.479-3.616-.479s3.924 2.396 3.693 3.354c-.231.958-1.441.58-2.134.261-.692-.32-2.525-1.702-2.525-1.702s-1.39 5.239-3.468 6.185c-2.077.946-3.435-.316-3.435-.316l-1.765-3.095z" class="colorf7b690 svgShape"/><path fill="#2e6c9e" d="M259.102 194.389c-18.164 5.256-20.659 24.737-15.465 44.341 1.167 4.404 23.845-1.305 23.899-4.756 4.869-8.535.446-42.155-8.434-39.585z" class="color2e6c9e svgShape"/><path fill="#f3a088" d="M331.626 242.726c.976-5.42 3.061-5.864 4.291-6.217 1.434-.412 3.678-.554 4.311-.554.539 0 1.911-.671 2.111-.342.449.739-.238 2.129-1.392 2.557-1.472.546-3.107.426-3.499 1.219-.301.609 1.725 2.345.618 4.888-.715 1.642-4.403 3.39-5.891 3.915l-.549-5.466z" class="colorf3a088 svgShape"/><path fill="#224f73" d="M263.436 268.181c.819.711 1.65 4.034 0 4.328-1.65.295-18.52.549-19.254 0-.733-.548-1.1-3.484 0-3.937 1.101-.453 18.677-.892 19.254-.391zM289.832 224.881c.279.711.561 4.034 0 4.329-.561.295-6.3.549-6.549 0-.25-.548-.374-3.484 0-3.937s6.353-.893 6.549-.392z" class="color224f73 svgShape"/><path fill="#265a85" d="M267.492 235.358a.302.302 0 0 1-.03.002c-.217.012-.395-.113-.397-.279-.003-.174-.32-17.527-4.872-26.183-.079-.151.02-.331.222-.401.206-.071.431-.005.51.146 4.604 8.757 4.923 26.219 4.926 26.395.002.158-.156.297-.359.32zM289.561 218.494c.733 10.844.237 21.437.229 21.598-.012.235.155.429.373.432h.03c.205-.013.374-.194.385-.418.008-.162.501-10.693-.223-21.553l-.794-.059z" class="color265a85 svgShape"/><path fill="#ebf6ff" d="M289.992 182.065s-.642 2.753-1.346 3.355c-.704.602-1.66 2.1-1.66 2.1l-1.129 1.149-.315.308s.733 2.033 1.743 3.198c1.01 1.165 3.264 2.973 4.52 3.291 1.255.317 4.146.934 4.15.935 2.15.459 4.611-3.615 5.51-5.564.969-2.1-3.582-3.93-6.508-5.736-.549-.34-5.102-2.447-4.965-3.036z" class="colorebf6ff svgShape"/><path fill="#ebf6ff" d="M292.034 187.11a.323.323 0 0 1-.318-.381 17.612 17.612 0 0 0-.805-9.223.323.323 0 1 1 .606-.224 18.255 18.255 0 0 1 .834 9.562.323.323 0 0 1-.317.266zM286.951 190.348a.325.325 0 0 1-.32-.279l-.72-5.204a.324.324 0 1 1 .641-.089l.72 5.204a.324.324 0 0 1-.276.365l-.045.003z" class="colorebf6ff svgShape"/><path fill="#c5e9ff" d="M306.15 181.01s4.496-7.07 5.008-9.723c.512-2.654-5.921-7.963-10.017-9.371-4.096-1.408-11.174-1.376-13.093-.816-1.919.559-3.927 9.025-4.384 10.018-.458.993 7.28 1.191 13.92 3.773 6.639 2.581 7.055 3.736 8.566 6.119z" class="colorc5e9ff svgShape"/><path fill="#67baed" d="M91.544 389.142h10.452v2.425H91.544z" transform="rotate(45.001 96.774 390.359)" class="color67baed svgShape"/><path fill="#67baed" d="M91.544 389.142h10.452v2.425H91.544z" transform="rotate(134.999 96.771 390.356)" class="color67baed svgShape"/><path fill="#67baed" d="M387.571 207.711h10.452v2.425h-10.452z" transform="rotate(45.001 392.8 208.918)" class="color67baed svgShape"/><path fill="#67baed" d="M387.571 207.711h10.452v2.425h-10.452z" transform="rotate(134.999 392.8 208.923)" class="color67baed svgShape"/><path fill="#67baed" d="M98.317 234.042a6.876 6.876 0 0 1 5.833-7.766 6.876 6.876 0 0 1 7.766 5.833 6.876 6.876 0 0 1-5.833 7.766 6.876 6.876 0 0 1-7.766-5.833zm9.956-1.415a3.193 3.193 0 0 0-3.605-2.708 3.193 3.193 0 0 0-2.708 3.605 3.193 3.193 0 0 0 3.605 2.708 3.192 3.192 0 0 0 2.708-3.605zM413.907 173.68a6.876 6.876 0 0 1 5.833-7.766 6.875 6.875 0 0 1 7.766 5.833 6.876 6.876 0 0 1-5.833 7.766 6.876 6.876 0 0 1-7.766-5.833zm9.956-1.415a3.193 3.193 0 0 0-3.605-2.708 3.193 3.193 0 0 0-2.708 3.605 3.193 3.193 0 0 0 3.605 2.708 3.192 3.192 0 0 0 2.708-3.605z" class="color67baed svgShape"/></svg>