<svg xmlns="http://www.w3.org/2000/svg" viewBox="0 0 4680 3120"><defs><linearGradient id="a" x1="-7355.05" x2="-7708.57" y1="388.5" y2="437.94" gradientTransform="scale(-1 1) rotate(-8 130.203 -26421.196)" gradientUnits="userSpaceOnUse"><stop offset=".04" stop-color="#f5f5f5" stop-opacity="0" class="stopColorf5f5f5 svgShape"/><stop offset="1" stop-color="#ffffff" class="stopColorfff svgShape"/></linearGradient></defs><g data-name="Layer 2" fill="#000000" class="color000 svgShape"><g data-name="Layer 1" fill="#000000" class="color000 svgShape"><path fill="#b6ecf0" d="M0 0h4680v3120H0z" class="colorb6ecf0 svgShape"/><path fill="#85dfe5" d="M1019.67 364.55h1061.4v711.78h-1061.4z" class="color85dfe5 svgShape"/><path fill="#b6ecf0" d="M1051.76 398.22h998.13v644.44h-998.13z" class="colorb6ecf0 svgShape"/><path fill="#85dfe5" d="M1115.73 752.54h249.63v19.01h-249.63zM1115.73 792.95h249.63v19.02h-249.63zM1115.73 833.37h249.63v19.02h-249.63zM1115.73 873.78h249.63v19.02h-249.63zM1115.73 914.2h249.63v19.02h-249.63zM1115.73 954.62h249.63v19.02h-249.63zM1426.76 752.54h249.63v19.01h-249.63zM1426.76 792.95h249.63v19.02h-249.63zM1426.76 833.37h249.63v19.02h-249.63zM1426.76 873.78h249.63v19.02h-249.63zM1426.76 914.2h249.63v19.02h-249.63zM1426.76 954.62h249.63v19.02h-249.63z" class="color85dfe5 svgShape"/><rect width="1989.85" height="126.18" x="2239.38" y="2432.74" fill="#213949" rx="63.09" class="color213949 svgShape"/><path fill="#85dfe5" d="M1318.89 511c-29.55-11.85-38.28 3.71-43.07-.05-11.17-8.79-1.65-14.1 7-28.32 4.34-7.14 13.86-13.37 11.35-16.56-3.23-4.08-11.55-9.41-11.55-9.41l-22.32 24.29s-32.62 32.94-34.36 80-23.61 57.21-51.94 81.05-27.15 53.72-25.57 67.12c1.1 9.28 21.84 1.7 21.84 1.7s-12.92-29.94 9.37-44.79 60.39 35.11 115.43 4.77c61.5-33.95 91.93-132.51 23.82-159.8ZM1991.72 969.78h-249.06l-13.44-121.62a44.31 44.31 0 0 1 44-49.19h187.84a44.31 44.31 0 0 1 44 49.19Z" class="color85dfe5 svgShape"/><path fill="none" stroke="#85dfe5" stroke-miterlimit="10" stroke-width="5" d="M1790 751.28h152.44a8.25 8.25 0 0 1 8.25 8.25v38.33h-168.96v-38.33a8.25 8.25 0 0 1 8.27-8.25Z" class="colorStroke85dfe5 svgStroke"/><path fill="#b6ecf0" d="M1920.22 862.07v42.4h-35.24v39.8h-37.55v-39.8h-35.25v-42.4h35.25v-39.81h37.55v39.81h35.24z" class="colorb6ecf0 svgShape"/><rect width="442.26" height="115.38" x="641.16" y="2430.54" fill="#213949" opacity=".82" rx="57.69" class="color213949 svgShape"/><path fill="#ffffff" d="M2426.51 2447.38a75.14 75.14 0 1 1-88.92-73.85 76 76 0 0 1 27.57 0 75.15 75.15 0 0 1 61.35 73.85Z" class="colorfff svgShape"/><path fill="#b6ecf0" d="M2397.93 2447.39a46.56 46.56 0 1 1-55.1-45.77 47.14 47.14 0 0 1 17.08 0 46.57 46.57 0 0 1 38.02 45.77Z" class="colorb6ecf0 svgShape"/><path fill="#ffbd9a" d="M1360.71 1313.91s17.38 40.55 74.93 46.22a142.58 142.58 0 0 0 18.67.58c72.54-2.34 74.88-9.36 74.88-9.36l-74.88 147.42s-126.36-145.08-187.2-147.42 93.6-37.44 93.6-37.44Z" class="colorffbd9a svgShape"/><path fill="#2ec4a9" d="M2350.53 1271.79v227s-215.56 43.83-251.69 19.59-10.39-223.17 50.45-220.83l9.36-21.06 55.9-1.36Z" class="color2ec4a9 svgShape"/><path fill="#24232b" d="M2350.53 1487.35v11.42s-215.56 43.83-251.69 19.59-10.39-223.17 50.45-220.83l9.36-21.06 55.9-1.36c.17.7.31 1.45.42 2.2 3.56 22.75-19.37 48.91-25.5 70.06-9.06 31.36.35 67.35 23.58 90.26 24 23.68 58.76 32.1 91.69 39.54q19.89 4.53 39.82 9c1.97.48 3.98.9 5.97 1.18Z" opacity=".11" class="color24232b svgShape"/><path fill="#55d3b9" d="M2165.67 1290.51c-1.38 1-2.74 2-4.07 3-.24.16-.47.35-.68.51q-1.76 1.34-3.44 2.74-2.07 1.65-4.07 3.41c-.63.54-1.27 1.1-1.87 1.67-1.36 1.24-2.72 2.48-4 3.79-.91.86-1.82 1.75-2.71 2.66-.26.26-.52.52-.75.78-1.15 1.17-2.25 2.34-3.35 3.53 0 0 0 .07-.07.09-1.12 1.22-2.22 2.46-3.27 3.72-.28.31-.54.61-.8.92-1.08 1.26-2.11 2.55-3.14 3.83s-2.24 2.88-3.32 4.33c0 0-.07.1-.09.14-1.05 1.41-2.08 2.83-3.07 4.29l-.46.67c-.85 1.22-1.67 2.46-2.46 3.7-.14.24-.28.45-.42.68a98.8 98.8 0 0 0-2.62 4.24 1.13 1.13 0 0 1-.12.21c-1 1.56-1.87 3.18-2.74 4.79s-1.75 3.26-2.57 4.89-1.52 3-2.25 4.57c-.09.23-.21.44-.3.65-.75 1.59-1.45 3.18-2.13 4.8 0 .12-.1.21-.14.33a163 163 0 0 0-8.87 27.19c-.63 2.66-1.17 5.36-1.66 8-5.36 29.6 13.1 60 24.54 86.51 1.62 3.76 23.78 46.07 8.17 43.31-17.34-3.07-62.29 4.33-94.47 7.93-4.75.54-9.22 1-13.26 1.31-40.44 3.21-80.8 7.63-121.38 9-16.17.54-32.34.56-48.51.23-22.39-.44-44.76-1.52-67.13-2.76l-8.22-.44c-32.08-1.81-64.16-3.77-96.22-4.45-27.49-.58-59.22 1.47-91.49 2.53-1.85.07-3.67.11-5.52.14q-10.15.32-20.27.4c-23.58.18-46.89-.73-68.54-4.12a209.31 209.31 0 0 1-26.6-5.81c-3-.84-5.92-1.77-8.8-2.78-34-11.89-41.65-41.35-38.56-73.31 2.31-24.24 10.81-49.91 18.74-70.46 2.67-6.93 5.57-18.91 10.76-24.41a20.12 20.12 0 0 1 4.68-3.65c10.93-6.29 28.51-5 41.33-9.24 37.58-12.45 69-40.18 98.77-64 19.77-15.82 38.33-29.65 64.28-31.56 43.06-3.19 76 17.92 116.34 27 21.3 4.78 44.53 4.82 66.3 5.13 24.52.37 50.24 2.69 74.6-.94 23.28-3.49 46.3-11.84 69.26-17.15 27.26-6.34 54.76-10.88 82.37-11.54 5.26-.11 10.53-.11 15.79 0a247.41 247.41 0 0 1 43.41 5.15c9.64 2.06 38 8.56 42.73 19.37 1.77 4.21.04 9.03-7.66 14.48Z" class="color55d3b9 svgShape"/><path fill="#2ec4a9" d="M2165.67 1290.51c-1.38 1-2.74 2-4.07 3-.24.16-.47.35-.68.51q-1.76 1.34-3.44 2.74-2.07 1.65-4.07 3.41c-.63.54-1.27 1.1-1.87 1.67-1.36 1.24-2.72 2.48-4 3.79-.93.86-1.82 1.75-2.71 2.66-.26.26-.52.52-.75.78-1.15 1.17-2.25 2.34-3.35 3.53 0 0 0 .07-.07.09-1.12 1.22-2.22 2.46-3.27 3.72-.28.31-.54.61-.8.92-1.08 1.26-2.11 2.55-3.14 3.83s-2.24 2.88-3.32 4.33c0 0-.07.1-.09.14-1.05 1.41-2.06 2.83-3.07 4.29l-.46.67c-.85 1.22-1.67 2.46-2.46 3.7-.14.24-.28.45-.42.68q-1.33 2.1-2.62 4.24a1.13 1.13 0 0 1-.12.21c-.94 1.56-1.85 3.18-2.74 4.79s-1.75 3.26-2.57 4.89-1.52 3.05-2.25 4.57c-.09.23-.21.44-.3.65-.73 1.59-1.45 3.18-2.13 4.8 0 .12-.1.21-.14.33a143 143 0 0 1-40.11 54c-63 51.85-129.78 93.34-204.1 124.81-3.72 1.59-7.46 3.16-11.23 4.68-22.39-.44-44.76-1.52-67.13-2.76l-8.22-.44c-64.72.65-129.16.21-193.23-1.78q-10.15.32-20.27.4l-.93-1.08c-17.41-20.43-35.45-56-16.92-109 19.94-57.07 91.28-49.47 131.23-40.18a245.21 245.21 0 0 0 65.61 6.46l106.7-4.12a193.74 193.74 0 0 0 112.72-42.07l122.31-96.85a247.41 247.41 0 0 1 43.41 5.15c9.64 2.06 38 8.56 42.73 19.37 1.77 4.2.04 9.02-7.66 14.47Z" opacity=".35" class="color2ec4a9 svgShape"/><path fill="#ffbd9a" d="M2068.89 1296c-22.6-6.21-25.55-37.17-4.46-47.39 27.32-13.24 48.24-27.17 55.43-36.29 25.48-32.28 54.18-74.46 88-79.18 21.86-3 1.44 18.4-15.79 34a7.63 7.63 0 0 0 6.19 13.21c24.41-3.46 61.07-12.46 79.07-35.89a31 31 0 0 1 19.7-11.89c2.87-.46 4.92-.29 4.61 1.22-.93 4.48-18.86 68.4-124.48 95.76a6.19 6.19 0 0 0-2 .93l-87.88 70.52Z" class="colorffbd9a svgShape"/><path fill="#2ec4a9" d="M2175 1248.39c-112.32 126.36-227 212.94-374.4 262.08s-201.24 7-210.6 0-60.84-42.12-35.1-112.32c15.77-43.06 66.76-43.88 103.83-38.05 5.76.89 11.16 2 16 3a235.62 235.62 0 0 0 60 5.64l97.51-3.6a182.07 182.07 0 0 0 103-36.65l22.8-17.19 160.8-121.45 9.62 10Z" class="color2ec4a9 svgShape"/><path fill="#ffbd9a" d="M1364.65 1322.7c13.76-12.14 18-28 17.79-46-.24-19.54-6.89-37.86-13.75-56.09a25.38 25.38 0 0 1-.47-16.89c.88-2.82 2.06-5.44 2.15-8.19.14-4.42-1.93-7.55-7.11-7.14-30.89 2.45-61.26-6.1-92.11-11.27s-76.2-35.86-84 23.75c-4.16 31.91 12 113.1 37.6 145.12.42 2.6-.37 1.5-.41 1.91s-.05.11-.07.15c-.64 1-1.12 1.53-1.72 2.6 0 .08.26-.59-.15.27a17.75 17.75 0 0 0-2 5c-1 7.72 2.62 14.1 8.39 19.15a23.92 23.92 0 0 0 8.28 4.53l.24.06c9.27 1.84 17-.25 24.81-5.45a49.23 49.23 0 0 0 7.07-6.38c.43-.43.75-.87 1.23-1.34 10.51-10 27.18-11.36 39.65-16.27 19.75-7.78 38.93-13.67 54.58-27.52Z" class="colorffbd9a svgShape"/><path fill="#54667f" d="M1084 1289.48q-1.57-3.72-2.81-7.51c.81 2.53 1.81 5.03 2.81 7.51Z" class="color54667f svgShape"/><path fill="#54667f" d="M1469.94 1532.63q-29.18-1.79-58.17-4.12c-43.55-3.48-73.1-14.69-110.19-39.61-16.55-11.12-32.48-23.1-48-35.74-.93-1.92-1.89-3.86-2.85-5.85 0 0-4.75-2.53-12.73-7.25l-.1-.07c-55.92-48.18-106.14-104.44-156.73-158a99.74 99.74 0 0 1 22.89-100.22 186.08 186.08 0 0 1 51.15-37.72 176.77 176.77 0 0 1 44-15c38.78-7.76 49.64 15.62 49.89 47.83.37 45.52-20.47 108.68-13.62 126.5 9.76 25.39 54.17 41.42 75.58 54.13 19.87 11.77 40.48 24.1 55.6 41.93 12 14.15 20.71 30.68 36.2 41.6a60.06 60.06 0 0 0 7.09 4.33l1.59.82c1.9 1 3.79 1.93 5.64 2.85l5.49 2.73c2.71 1.36 5.35 2.7 7.92 4.09 7.72 4.18 14.78 8.76 20.92 15.14a63.13 63.13 0 0 1 10.46 14.62c6.03 11.49 14.03 32.83 7.97 47.01Z" class="color54667f svgShape"/><path fill="#54667f" d="M1417.22 1449c-1.85-.92-3.74-1.87-5.64-2.85 1.9 1.02 3.78 1.96 5.64 2.85Z" class="color54667f svgShape"/><path fill="#2ec4a9" d="M1469.52 1375.92c-12.08 29.81-16.94 62.92-18 95.08-11.28-11.75-25.72-17.39-41.56-25.63a60.06 60.06 0 0 1-7.09-4.33c1.66-3.89 3.54-7.75 5.53-11.56 3.13-6 6.52-11.93 9.75-17.73q4.39-7.9 8.44-16 4.64-9.21 8.78-18.66c4.91-11.16 8.26-32.06 21.9-35.89 6.25-1.78 32-.19 33.28 6.64 1.57 8.45-17.9 20.36-21.03 28.08Z" class="color2ec4a9 svgShape"/><path fill="#213949" d="M1471.3 1528.47a22.76 22.76 0 0 1-1.36 4.16q-29.18-1.79-58.17-4.12c-43.55-3.48-73.1-14.69-110.19-39.61q-9.3-6.26-18.37-12.87c-3.16-2.3-6.32-4.64-9.43-7q-10.21-7.72-20.17-15.87c-.93-1.92-1.89-3.86-2.85-5.85 0 0-4.75-2.53-12.73-7.25l-.1-.07c-55.92-48.18-106.14-104.44-156.73-158a99.74 99.74 0 0 1 22.89-100.22 186.08 186.08 0 0 1 51.15-37.72c-2 4.37-4.94 9.12-7.25 14.13a216.57 216.57 0 0 0-18.19 62c-3.62 28.59 1.66 59.62 20.64 81.31 12.5 14.25 29.95 23.59 41.77 38.42 10.27 12.9 15.59 29.11 25.2 42.52 14.93 20.85 38.78 33.11 61.71 44.63 12.61 6.31 25.39 12.7 39.17 15.84 10.58 2.41 21.37 2.82 32.23 2.62 11.51-.21 23.1-1.12 34.6-1.08a209.34 209.34 0 0 1 26.49 1.78c4.23 2.18 8.35 4.19 12.35 6.18 2.45 1.23 4.84 2.47 7.17 3.74 7.54 4.11 14.44 8.63 20.45 14.89a63.13 63.13 0 0 1 10.46 14.62c5.44 10.35 12.44 28.89 9.26 42.82Z" opacity=".68" class="color213949 svgShape"/><path fill="#ffffff" d="M1599.77 821.21h-163.63c-19.51 0-34.24-6.9-41.48-19.43s-5.85-28.74 3.91-45.64l56.89-98.53a200.11 200.11 0 0 1 24.64-34l1.84-2h72l1.83 2a200.71 200.71 0 0 1 24.65 34l56.89 98.53c9.75 16.9 11.14 33.11 3.9 45.64s-21.93 19.43-41.44 19.43ZM1487.46 634a188.45 188.45 0 0 0-21.28 29.81l-56.91 98.53c-7.45 12.92-8.84 24.73-3.89 33.28s15.84 13.25 30.76 13.25h163.63c14.92 0 25.84-4.71 30.77-13.25s3.55-20.36-3.9-33.28l-56.91-98.53a188.45 188.45 0 0 0-21.28-29.81Z" class="colorfff svgShape"/><path fill="#ffffff" d="M1582.67 624.6a12.7 12.7 0 0 1-12.7 12.72H1466a12.72 12.72 0 0 1 0-25.44h39.64V509.64a22.69 22.69 0 0 1-10.33-19.06v-26h-368.79L726.05 825.41v187.81a37.43 37.43 0 0 1 25 35.31v726h-74.79v-726a37.4 37.4 0 0 1 25-35.31v-198.8L1117 439.91h378.24V414a22.71 22.71 0 1 1 45.41 0v76.63a22.77 22.77 0 0 1-10.36 19.08v102.17H1570a12.72 12.72 0 0 1 12.67 12.72Z" class="colorfff svgShape"/><path fill="#85dfe5" d="M2777.74 1661.59c-490.55 16.38-990.59 64.7-1479.09 22.2-178-119.38-296.4-259.24-450.12-402.69 20.85-16.24 43.74-47.22 64-60.7 37.18-24.71 69.38-37.16 107.33-.77 20.78 19.91 41.09 40.9 61.33 62.34q1.23 3.79 2.81 7.51c-1-2.48-2-5-2.81-7.51 50.59 53.56 100.81 109.82 156.74 158l.09.07q7.73 6.63 15.58 13.1 10 8.11 20.17 15.87c3.11 2.36 6.27 4.7 9.43 7q9.06 6.63 18.37 12.87c37.09 24.92 66.64 36.12 110.19 39.61q29 2.33 58.17 4.12c9.31.58 18.63 1.15 28 1.64 21.65 3.39 45 4.3 68.54 4.12q10.11-.08 20.27-.4c64.07 2 128.51 2.43 193.23 1.78l8.22.44c22.37 1.24 44.74 2.32 67.13 2.76 16.17.33 32.34.31 48.51-.23 40.58-1.36 80.94-5.78 121.38-9 4-.32 8.51-.77 13.26-1.31 220.92-9.5 442.17-25.25 657.61-31 52.47-1.4 66.95 28.39 77.29 72 5.63 23.8.3 62.02 4.37 88.18Z" class="color85dfe5 svgShape"/><path fill="#85dfe5" d="M1084 1289.48q-1.57-3.72-2.81-7.51c.81 2.53 1.81 5.03 2.81 7.51ZM1586.71 1538q-10.15.32-20.27.4c-23.58.18-46.89-.73-68.54-4.12q33.74 1.82 67.61 3c7.06.26 14.13.5 21.2.72ZM2038.44 1532.44c-4.75.54-9.22 1-13.26 1.31-40.44 3.21-80.8 7.63-121.38 9-16.17.54-32.34.56-48.51.23-22.39-.44-44.76-1.52-67.13-2.76l-8.22-.44q43.21-.42 86.58-1.48c57.22-1.3 114.57-3.38 171.92-5.86Z" class="color85dfe5 svgShape"/><path fill="#f7feff" d="M2880.39 1775v-726.5a37.44 37.44 0 0 0-74.87 0V1775Z" class="colorf7feff svgShape"/><path fill="#55d3b9" d="M2779.85 1715.83c-495.07 16.26-991.51 58.87-1485.62 21.85v-.32a2 2 0 0 0-.28.11c-179-120.09-299.24-254.89-451.76-398-22-20.6-15.14-23.5-9.78-42.8 2.44-8.73 13.9-9.83 17.41-17.62 156.78 147.07 278 280.45 450.45 404.82 487.87 42.42 987.6-6.16 1477.34-22.19q1.15 27.1 2.24 54.15Z" class="color55d3b9 svgShape"/><path fill="#ffffff" d="M2190.71 1739v-279h58.68v-30.52H945.85V1460h58.73v279H675.39v54.08h2205V1739Zm-897.25 0H1035v-279h258.43Zm288.85 0H1324v-279h258.29Zm289 0h-258.42v-279h258.41Zm288.87 0h-258.44v-279h258.43ZM687.82 1796.15h84.47v510.72h-84.47z" class="colorfff svgShape"/><path fill="#c3c9ce" d="M675.38 1793.05h109.34v77.01H675.38zM849.85 2397.65a80.39 80.39 0 1 1-80.42-80.33 80.39 80.39 0 0 1 80.42 80.33Z" class="colorc3c9ce svgShape"/><path fill="#b6ecf0" d="M819.12 2397.65a49.68 49.68 0 1 1-49.69-49.65 49.69 49.69 0 0 1 49.69 49.65Z" class="colorb6ecf0 svgShape"/><path fill="#c3c9ce" d="M687.82 2287.57v39.72l68.28 81.12h16.99v-120.84h-85.27z" class="colorc3c9ce svgShape"/><path fill="#c3c9ce" d="M765.18 2287.57h87.13v40.79h-87.13z" class="colorc3c9ce svgShape"/><path fill="#85dfe5" d="M2351.7 424.33h1526.74v1831.43H2351.7z" class="color85dfe5 svgShape"/><path fill="#ffffff" d="M2450.58 477.84h1328.96v1724.38H2450.58z" opacity=".64" class="colorfff svgShape"/><path fill="#ffffff" d="M2964.36 2133.56h301.42v92.79h-301.42z" class="colorfff svgShape"/><path fill="#ffffff" d="M2337.59 397.8v1975.73a76 76 0 0 1 27.56 0v-91.28h1527.41V397.8ZM3865 2254.68H2365.15V425.39h599.21v47.74a31.28 31.28 0 0 0 31.28 31.26h238.87a31.26 31.26 0 0 0 31.26-31.26v-47.74H3865Z" class="colorfff svgShape"/><path fill="#ffffff" d="M3864.99 1588.12h27.58v817.14h-27.58z" class="colorfff svgShape"/><path fill="#32303d" d="M3953.89 2405.26a75.13 75.13 0 1 0-75.11 75.14 75.1 75.1 0 0 0 75.11-75.14Z" class="color32303d svgShape"/><path fill="#85dfe5" d="M2607.14 525.99h53.54v1620.42h-53.54zM2927.91 525.99h53.54v1620.42h-53.54zM3248.7 525.99h53.54v1620.42h-53.54zM3569.46 525.99H3623v1620.42h-53.54z" class="color85dfe5 svgShape"/><path fill="#ffffff" d="M3624.66 1591.2h514.8v898.56h-514.8z" class="colorfff svgShape"/><path fill="#45baff" d="m4059.48 1535-10.91 56.16h-452a18.72 18.72 0 0 1-18.72-18.72v-18.72a18.72 18.72 0 0 1 18.72-18.72Z" class="color45baff svgShape"/><path fill="#213949" d="M3888.7 1271.6h91.87v27.89h-91.87z" class="color213949 svgShape"/><rect width="54.87" height="43.15" x="3888.7" y="1263.97" fill="#213949" rx="15" class="color213949 svgShape"/><path fill="#213949" d="m4005.27 1528.37 16.18-1.94a13.68 13.68 0 0 0 12-15l-26.17-257.94a13.67 13.67 0 0 0-15.24-12.2l-16.23 2a13.68 13.68 0 0 0-12 15l26.19 257.88a13.67 13.67 0 0 0 15.27 12.2Z" class="color213949 svgShape"/><path fill="#54667f" d="M3978.84 1264.17a7.5 7.5 0 0 1 6.54-8.21 7.51 7.51 0 0 1 8.41 6.69l24.66 242.9a7.51 7.51 0 0 1-6.59 8.22 7.52 7.52 0 0 1-8.36-6.7" class="color54667f svgShape"/><rect width="176.11" height="11.04" x="3874.43" y="1522.26" fill="#213949" rx="5.52" class="color213949 svgShape"/><path fill="#213949" d="m3970 1104.49-91.43 321.32a26.47 26.47 0 0 1-8.91 13.42l-16.21 13 111.71-387.79 5 19a39.71 39.71 0 0 1-.16 21.05Z" class="color213949 svgShape"/><path fill="#54667f" d="m3979.9 1029-126.4 444a9.17 9.17 0 0 1-11.55 6.25l-14-4.38 132.46-466.57 10 3.11a14.35 14.35 0 0 1 9.49 17.59Z" class="color54667f svgShape"/><path fill="#ffffff" d="m3945.69 1003.64 14.69 4.62-132.46 466.57-16.23-5.1a7.67 7.67 0 0 1-5.09-9.42L3935 1009.4a8.48 8.48 0 0 1 10.69-5.76Z" class="colorfff svgShape"/><path fill="url(#a)" d="m3949.81 1004.84-127.56-133.38c-71.18-74.43-196-45.88-227.8 52.09l-138.45 427c-33.56 103.5 61.91 202.58 166.59 172.89l182.75-51.84" opacity=".47"/><path fill="#009cff" d="M4186.26 1553.76v18.72a18.72 18.72 0 0 1-18.72 18.72h-119l10.91-56.16h108.06a18.72 18.72 0 0 1 18.75 18.72Z" class="color009cff svgShape"/><path fill="#e4e7e9" d="M4139.46 1591.2v898.56h-514.8v-309.82l47.41-7a387.61 387.61 0 0 0 323.76-309.65l52.74-272.07Z" class="colore4e7e9 svgShape"/><path fill="#ffbd9a" d="m2901.73 2298.36 6.43 137.02h64.23l14.98-162.71-85.64 25.69z" class="colorffbd9a svgShape"/><path fill="#85dfe5" d="M3243.32 1096c-5.68 97.48-39 191-57.14 286.94-22.39 118.41-21.54 239.82-20.62 360.32q1.84 240.76 3.7 481.52a187.18 187.18 0 0 0 2.59 29.87 125.94 125.94 0 0 0 7.75 27.57h-490.07c-4.24-7.9-5.11-17.49-4.1-27.57 1.33-13.16 5.86-27.15 10.28-39.31 40.06-110.33 29.59-232.49 6.86-347.65s-57.24-228.69-64-345.88c-4-68.34.9-140.25-29.53-201.56-10.34-20.83-24.56-39.9-31.59-62.07-8.59-27-5.69-56.27-2.07-84.43 15.64-121.7 48.34-250.71 141.44-330.65 24.68-21.19 53.1-38.39 74.09-63.23 59.33-70.2 44.88-176.17 104.85-245.54 18.48-21.38 46.59-36.84 75.34-41.89 24.07-4.21 48.59-1.12 68.27 11.92 12.72 8.42 23.41 21 30.67 38.44 32.12 77.21-43.34 177.47 7.13 244.15 16.13 21.31 41.66 32.83 63.53 48.19 79.88 56.14 108.3 163.41 102.62 260.86Z" opacity=".36" class="color85dfe5 svgShape"/><path fill="#ffbd9a" d="m3096.56 2285.51 14.99 167h70.65l6.42-179.84-92.06 12.84z" class="colorffbd9a svgShape"/><path fill="#005d91" d="m3096.56 1476.73-59.2 454.76-11.88 91.2-3.21 24.71-15.37 117.86v.06l-16.38 125.89-4.84 37.06a19.3 19.3 0 0 1-22.27 16.87l-42.56-7.41c-15.52-2.67-27.17-16-28.13-32.15l-31.62-534.88-.9-15.09-1.41-24v-.06l-1.42-24.09-.49-8.43-.08-1-2.15-36.53-5.71-96.51-2.89-48.9-4.26-72.39 22.41 2.92 15.14 2Z" class="color005d91 svgShape"/><path fill="#020202" d="m3096.56 1476.73-59.2 454.76-11.88 91.2-28.24-113c-18.6-60.46-29.78-140.75-52.69-200.05-16.76-43.44-74.55 39.65-87.18-2.1l-.49-8.43-.08-1-2.15-36.53-5.71-96.51-2.89-48.9 33.29-67.5Z" opacity=".24" class="color020202 svgShape"/><path fill="#0088d3" d="m3251.31 1495.65-11 171.75-7 108.89-36.1 564.2c-.88 13.79-11.9 23.85-23.59 21.54l-49.72-9.8a29.13 29.13 0 0 1-9.44-3.71c-8.33-5.07-14.41-14.32-16.25-25.45l-43.18-259.29-19.61-117.64-9.49-56.91-4.09-24.58-14.73-88.35-2.65-16-2.19-13.06-1-6.21-1.22-7.41-16.47-98.8-17.27-103.67-12.14-72.88-.5-3-4.75-28.56L3209 1486Z" class="color0088d3 svgShape"/><path fill="#c3c9ce" d="M3108.72 791.93c-.6 2.07-2.4 3.55-4.15 4.81-.71.52-1.44 1-2.17 1.5-20.1 13.62-45.17 18.69-69.47 18a138.26 138.26 0 0 1-39.71-6.7c-2.55-.86-9.34 6.78-11.76 5.67-.7-.28-1.39-.62-2.07-.94-1.87-.94.6-10.58-1.14-11.78-2.83-2-5.48-4.47-6.36-7.79a9.29 9.29 0 0 1 .15-5.07 201.53 201.53 0 0 1 22.67-6.79c.65-2.08 1.25-4.15 1.82-6.21 2.77.09 5.55.24 8.31.19 8.69-.17 17.17-2.42 25.69-4.17 7.07-1.46 14.22-2.57 21.35-3.66 10.34-1.63 20.87-3.24 31.26-1.93a24 24 0 0 1 6.53 1.58 17.53 17.53 0 0 1 2.33 1.27 33.55 33.55 0 0 1 6.46 5.69c2.3 2.42 4.54 4.91 6.75 7.45s4.43 5.69 3.51 8.88Z" class="colorc3c9ce svgShape"/><path fill="#ffffff" d="M3250.39 1676.89a87.51 87.51 0 0 1-11.22 8.6c-18.61 12-44.17 18.8-78.4 19.66-24.34.61-48.63.57-72.88-1.82-21-2.06-42-9.61-57.84-23.84-19.07-17.12-24.22-41.68-33.86-64.38s-18.75-45.49-27.3-68.54c-1.19-3.24-1.86-5-1.86-5-6.12 48.87-38.13 94.07-72.83 126.78-5.74 5.42-11.74 10.84-19 13.77-25.11 10.12-60-23.17-75.12-39.93-55.11-61.23 12.84-449.6 12.84-449.6l-102.76 68.51s-12.85 8.57-23.55 0-6.42-74.93-6.42-74.93c4.28-83.5 115.61-271.9 122-289 4.3-11.47 74-48 119.49-70.78 22.39-11.22 38.94-19.14 38.94-19.14 4.6-1.67 20 10.92 24.62 9.64 48-13.41 86.94-21.71 129.33-9.87a428.62 428.62 0 0 1 68.51 25.86c26.6 12.65 43 23.61 43 23.61l25.69 49.25-2.12 337.88v2.53c-.22 27.1 1.84 54 5 80.79 6.19 52.74 16.57 105.08 22.1 157.86 5.94 57.06 21.61 148.41-26.36 192.09Z" class="colorfff svgShape"/><path fill="#ffbd9a" d="M3161.15 615.26a28.31 28.31 0 0 1-4.64 13.16c-5.59 8.37-12.68 10-20.54 15.05-4.56 2.94-6.61 8.63-8.15 14.56-1.2 4.65-2.1 9.38-3.69 13a105.76 105.76 0 0 1-16.57 26.44 129.91 129.91 0 0 1-28.88 25.14 147 147 0 0 1-20.59 11.11c-15.44 6.83-34.54 15.35-51.62 10.92-.94-.24-1.86-.52-2.81-.84-14.81-4.92-28-18.11-37-30.06-18.2-24.08-30.08-53.71-38.58-82.87-1.16-4-2.25-7.93-3.3-11.84-1.11-4.16-4.58-11.93-3.79-16.34l12.85-70.65 146.46-30 4.41-.9 37.53-7.69 3.64 40.9.24 2.67 1 11.35 3.68 41.43 1.16-.24c15.79-3.06 30.69 9.66 29.19 25.7Z" class="colorffbd9a svgShape"/><path fill="#54667f" d="M3127.82 658c1.54-5.93 3.59-11.62 8.15-14.56 7.86-5 15-6.68 20.54-15.05a28.31 28.31 0 0 0 4.64-13.16c1.46-15.78-13.94-27.81-28.94-25.63l-1.31.21a29.29 29.29 0 0 0-2.44-3c-.11-.11-.24-.22-.34-.33-2.19-2-4.56-4.11-6-6.72a82.75 82.75 0 0 1-4.6-9.59c-.11-.28-.24-.56-.35-.83-2.93-7.13-5.48-14.52-9.69-21-.48-.73-1-1.41-1.48-2-12.21-15.27-36.57-9.19-53.2-7-3.58.47-7.2.79-10.79 1-23 1.56-46.29-.52-68.49 7.34-26.83 9.49-34.9 32.74-40.75 58.51-.51 2.21-.83 5.65-1.3 9.34-.67 5.07-1.65 10.57-3.77 13.81-12.29 19-31.06-22.12-36.14-36.91-.49-1.5-.88-2.72-1.09-3.58-5.1-20.87-2.74-42.86 4.6-62.9 14.54-39.71 48.88-73.52 88.87-85.89 43.53-13.47 91.79-9.72 135.63.4 19.83 4.58 34.3 22.12 34.17 42.46v.43a44 44 0 0 1-2.55 14.21c-.25.79-.53 1.56-.83 2.33 1.35.35 2.76.75 4.22 1.27 12.52 4.41 28 16.23 35.15 46.93 12.81 55.71-18.88 110.65-61.91 109.91Z" class="color54667f svgShape"/><path fill="#ffbd9a" d="M3071.85 872.08c-33.46-7.13-70.46-17.7-86.38-31.64a60.4 60.4 0 0 1-3.34-26.53c1.26-2.35 2.46-4.75 3.61-7.23a182 182 0 0 0 8.31-21.67c.24-.71.45-1.41.66-2.14.54-1.74 1.05-3.49 1.55-5.2.08-.35.19-.67.27-1 9-32.26 10.94-63.74 11.16-67.55v-.38s43.87-60.23 62.37-22.44c2.63 5.35 4.73 12.7 6.14 22.44a270.23 270.23 0 0 0 6.36 30.36c2.7 10.17 5.91 20.55 9.42 30.85 3.3 9.59 6.83 19.12 10.4 28.32 3.37 8.59 6.77 16.92 10.09 24.77 11.3 26.76-12.21 55.12-40.62 49.04Z" class="colorffbd9a svgShape"/><path fill="#ffbd9a" d="M2985.47 840.44c-7.71-6.72-10.49-14.24-5.59-22.54q1.15-2 2.25-4a60.4 60.4 0 0 0 3.34 26.54Z" class="colorffbd9a svgShape"/><path fill="#55d3b9" d="M3107.05 831.38 3063 962.58l-6.59-18.37 4.81 23.66-42.85 127.54-20.77 42.59-23.52-299.73c-.35-5.1 4.21-9.3 9.7-8.91 0 0 18.58 49.58 116.7-2.87a4.7 4.7 0 0 1 4.33-.06 4.06 4.06 0 0 1 2.24 4.95Z" class="color55d3b9 svgShape"/><path fill="#e4e7e9" d="m3004 879.15-6.87 128.2-6.87 132.76L2965 931.79 2946.74 989c-17.86-33.89-23.18-116.43-24.66-151.21a17.72 17.72 0 0 1 9.83-16.59c17-8.44 28.7-14 28.7-14q6.9-2.51 13.87-4.43c-9.31 40.71 29.52 76.38 29.52 76.38Z" class="colore4e7e9 svgShape"/><path fill="#ffffff" d="M3003.65 871.24a24 24 0 0 1 5.65 16.87l-5.87 109.63-6.43 124.17-23.55-194.83-17.13 53.53c-21.41-40.68-23.55-156.29-23.55-156.29-1.27-16.4 20.85-28 39.26-34.68a201.53 201.53 0 0 1 22.67-6.79c-.21.73-.42 1.43-.66 2.14a60.34 60.34 0 0 0-10.38 20.72 50 50 0 0 0-1.54 8.18 60.4 60.4 0 0 0 3.34 26.53c4.61 13.36 12.61 24.29 18.19 30.82ZM3001.29 1121.91a76.47 76.47 0 0 1 1.71-12.76Z" class="colorfff svgShape"/><path fill="#e4e7e9" d="M3174.24 828.73a10.69 10.69 0 0 1 5 14.89c-5.45 10-16.32 20.87-33.46 35.72-27.43 23.77-51.93 65-60.69 80.74a3.14 3.14 0 0 1-5.71-.55l-11.47-34.39 4.8 25.3 10.27 54.28a12.12 12.12 0 0 1-2.07 9.32c-7.65 10.63-28.39 40.17-46.2 72.54-9 16.4-21.16 33.72-24.5 49.33l32.53-242.82s61.12-48.62 71.82-86.13a421.91 421.91 0 0 1 59.68 21.77Z" class="colore4e7e9 svgShape"/><path fill="#ffffff" d="M3129.74 869.28c-32.11 27.83-59.94 81.35-59.94 81.35L3057 912.1l4.48 23.66 10.51 55.55s-18.73 42.35-39.61 80.29c-8.43 15.33-35.41 64.61-38.54 79.21L3032 892.66a27.36 27.36 0 0 1 9.2-17.06c17.47-15.09 58.45-53.28 60.79-81.32a23.7 23.7 0 0 0-2.21-12.78l-6.42-10.7s59.94 15 68.51 36.39-.01 34.26-32.13 62.09Z" class="colorfff svgShape"/><path fill="#e4e7e9" d="M3065.52 1265.35c-6.43 27.84-171.28 68.51-194.83 42.82-22-24-145.58-278.32-124.17-286.88 0 0 41.19-17.3 89.85-32.78 10-3.21 20.4-6.32 30.79-9.19 27.25-7.55 54.63-13.42 76.86-14.6a40.14 40.14 0 0 1 40 26.81c23.26 66.47 86.74 251.07 81.5 273.82Z" class="colore4e7e9 svgShape"/><path fill="#ffffff" d="M3027 1258.93c-6.42 27.83-171.28 68.51-194.83 42.82-22-24-145.58-278.32-124.17-286.89 0 0 41.19-17.3 89.85-32.77 10-3.22 20.41-6.32 30.79-9.19 27.25-7.56 54.64-13.42 76.86-14.6a40.14 40.14 0 0 1 40 26.8c7 20 17.58 50.51 28.84 84.14 3.58 10.62 7.22 21.56 10.83 32.57 3.9 11.88 7.75 23.87 11.48 35.62 3.19 10 6.25 19.91 9.14 29.44 13.7 45.24 23.37 82.6 21.21 92.06Z" class="colorfff svgShape"/><path fill="#ffffff" d="M3027 1258.93c-6.42 27.83-171.28 68.51-194.83 42.82-22-24-145.58-278.32-124.17-286.89 0 0 41.19-17.3 89.85-32.77 10-3.22 20.41-6.32 30.79-9.19 27.25-7.56 54.64-13.42 76.86-14.6a40.14 40.14 0 0 1 40 26.8c7 20 17.58 50.51 28.84 84.14 3.58 10.62 7.22 21.56 10.83 32.57 3.9 11.88 7.75 23.87 11.48 35.62 3.19 10 6.25 19.91 9.14 29.44 13.7 45.24 23.37 82.6 21.21 92.06Z" class="colorfff svgShape"/><path fill="#ffbd9a" d="m3048.39 1121.91-6.42 45h-132.34a16.14 16.14 0 0 1-15.82-19.29s0-.09 0-.13a21.29 21.29 0 0 1 5.27-10.15 21.06 21.06 0 0 1 9.91-6l67.89-18.3a9.88 9.88 0 0 0 8.22-11.24 9 9 0 0 0-.4-1.67l-6.6-19.59a2.74 2.74 0 0 1 4.18-3.11c5.88 4.35 14.3 11.61 19.61 20.94a37.66 37.66 0 0 0 16.57 15.44 36.35 36.35 0 0 0 7 2.5Z" class="colorffbd9a svgShape"/><path fill="#55d3b9" d="m2828.62 972.9-6.62-32.61a16 16 0 0 0-13.25-12.67l-2.21-.35a11.38 11.38 0 0 0-9.46 2.87l-1.71 1.57a16 16 0 0 0-4.84 15l6.81 33.57c.13.62.3 1.25.49 1.85" class="color55d3b9 svgShape"/><path fill="#2ec4a9" d="M2808.75 927.62a15.41 15.41 0 0 0-2.46-.19 16 16 0 0 0-10.92 4.28 6.07 6.07 0 0 1-1.48-3.17l-.4-2.93a6 6 0 0 1 5.14-6.81l2.86-.41a6 6 0 0 1 6.82 5.14l.4 2.91a5.87 5.87 0 0 1 .04 1.18Z" class="color2ec4a9 svgShape"/><path fill="#ffffff" d="M3020.06 2466.21c-.1 1-.23 2-.38 2.87-.62 3.62-1.56 6.46-2.94 8.22-1.79 2.29-5.6 3.92-10.72 5-24.26 5.22-77.87-1.13-86-2.14a9.74 9.74 0 0 0-2.16 0l-17.94 1.54-49 4.26a14.74 14.74 0 0 1-1.88 0l-32.76-3.19-32.22-3.15a10.8 10.8 0 0 1-3.47-.94l-.51-.24-37.64-17.59a12.79 12.79 0 0 1-6.46-7.2c-2.66-7-.15-16.4 7.3-19a2.54 2.54 0 0 0 .49-.15c16.06-5.22 55.13-6.94 82.19-18.24 1.73-.73 3.47-1.5 5.2-2.25 1.37-.6 2.72-1.22 4.09-1.86 3.11-1.39 6.17-2.85 9.21-4.35 1.35-.68 2.7-1.32 4-2 3.09-1.56 6.13-3.15 9.06-4.73 1.35-.71 2.65-1.43 4-2.16q4.66-2.54 8.93-5c1.37-.75 2.68-1.52 3.94-2.27 3.19-1.86 6.19-3.66 8.86-5.31l3.88-2.4c.77-.47 1.48-.92 2.16-1.35 5.16-3.27 11.67-1.73 15.2 3.77a57.2 57.2 0 0 0 27.88 22.84 58.93 58.93 0 0 0 11.32 3.11 38.45 38.45 0 0 0 6.49.53 39.13 39.13 0 0 0 21.79-7.19 26.9 26.9 0 0 1 13.83-4.75c15.21-.82 30 11.9 32.7 31.06 1.76 12.89 2.5 25.37 1.56 34.26Z" class="colorfff svgShape"/><path d="M2836.61 2418.29a3.66 3.66 0 0 1 3.28 2.6 4.77 4.77 0 0 1-1.94 5.82 3 3 0 0 1-1.35.33 3.63 3.63 0 0 1-3.28-2.61 4.74 4.74 0 0 1 1.94-5.81 2.93 2.93 0 0 1 1.35-.33m0-1a4.07 4.07 0 0 0-1.8.43 5.76 5.76 0 0 0-2.43 7.05 4.62 4.62 0 0 0 4.22 3.27 4.07 4.07 0 0 0 1.8-.43c2.32-1.16 3.41-4.32 2.43-7.06a4.65 4.65 0 0 0-4.22-3.26ZM2849.77 2411.73a3.64 3.64 0 0 1 3.27 2.61 4.72 4.72 0 0 1-1.93 5.81 3 3 0 0 1-1.35.33 3.65 3.65 0 0 1-3.28-2.61 4.73 4.73 0 0 1 1.94-5.81 2.93 2.93 0 0 1 1.35-.33m0-1a4 4 0 0 0-1.8.44 5.73 5.73 0 0 0-2.43 7 4.63 4.63 0 0 0 4.22 3.27 4.07 4.07 0 0 0 1.8-.43 5.74 5.74 0 0 0 2.44-7.01 4.61 4.61 0 0 0-4.21-3.27ZM2862.93 2405.17a3.65 3.65 0 0 1 3.28 2.61 4.74 4.74 0 0 1-1.94 5.81 3 3 0 0 1-1.36.33 3.66 3.66 0 0 1-3.28-2.61 4.74 4.74 0 0 1 1.94-5.81 3 3 0 0 1 1.36-.33m0-1a4 4 0 0 0-1.8.44 5.74 5.74 0 0 0-2.44 7 4.63 4.63 0 0 0 4.22 3.27 4.08 4.08 0 0 0 1.81-.43c2.33-1.16 3.42-4.32 2.43-7a4.63 4.63 0 0 0-4.22-3.27ZM2876.09 2398.62a3.63 3.63 0 0 1 3.27 2.6 4.71 4.71 0 0 1-1.94 5.81 2.93 2.93 0 0 1-1.35.33 3.65 3.65 0 0 1-3.28-2.61 4.73 4.73 0 0 1 1.95-5.81 2.92 2.92 0 0 1 1.35-.32m0-1a3.93 3.93 0 0 0-1.8.43 5.74 5.74 0 0 0-2.44 7 4.63 4.63 0 0 0 4.22 3.27 4.07 4.07 0 0 0 1.8-.43c2.34-1.16 3.42-4.32 2.43-7a4.61 4.61 0 0 0-4.21-3.26ZM2889.25 2392.05a3.65 3.65 0 0 1 3.27 2.61 4.76 4.76 0 0 1-1.93 5.82 3.11 3.11 0 0 1-1.35.32 3.65 3.65 0 0 1-3.29-2.6 4.77 4.77 0 0 1 1.94-5.82 3 3 0 0 1 1.36-.33m0-1a4 4 0 0 0-1.8.44c-2.34 1.16-3.42 4.31-2.44 7a4.62 4.62 0 0 0 4.23 3.27 4 4 0 0 0 1.79-.43 5.76 5.76 0 0 0 2.43-7 4.62 4.62 0 0 0-4.21-3.27Z" fill="#000000" class="color000 svgShape"/><path d="m2833.75 2411.17 3.64 10a1.75 1.75 0 0 1-.66 2.12.92.92 0 0 1-.44.1 1.25 1.25 0 0 1-1.05-.9l-3.75-10.33 2.27-1m.57-1.36-4.09 1.84 4.06 11.21a2.22 2.22 0 0 0 2 1.56h.07a1.85 1.85 0 0 0 .84-.2 2.75 2.75 0 0 0 1.16-3.37l-4-11ZM2847 2404.83l3.56 9.81a1.75 1.75 0 0 1-.66 2.12 1 1 0 0 1-.44.1 1.22 1.22 0 0 1-1-.9l-3.64-10 2.23-1.11m.56-1.4c-1.34.68-2.68 1.34-4 2l3.94 10.86a2.2 2.2 0 0 0 2 1.56 1.93 1.93 0 0 0 .86-.2 2.76 2.76 0 0 0 1.16-3.37l-3.94-10.86ZM2860 2398l3.66 10.09a1.75 1.75 0 0 1-.67 2.13.91.91 0 0 1-.43.09 1.22 1.22 0 0 1-1-.9l-3.71-10.22 2.15-1.19m.55-1.44c-1.31.72-2.63 1.44-4 2.16l4 11a2.19 2.19 0 0 0 2 1.56h.07a1.79 1.79 0 0 0 .84-.2 2.74 2.74 0 0 0 1.16-3.37l-4-11.18ZM2872.94 2390.71l3.92 10.8a1.75 1.75 0 0 1-.66 2.13 1 1 0 0 1-.44.11 1.25 1.25 0 0 1-1.05-.91l-3.95-10.87 2.18-1.26m.53-1.47-3.93 2.29 4.23 11.65a2.23 2.23 0 0 0 2 1.57 2.07 2.07 0 0 0 .89-.21 2.75 2.75 0 0 0 1.16-3.37l-4.34-11.93ZM2885.69 2383l4.31 12a1.76 1.76 0 0 1-.65 2.12.88.88 0 0 1-.4.1h-.06a1.22 1.22 0 0 1-1-.9l-4.33-11.92 2.15-1.33m.52-1.5-3.88 2.4 4.6 12.69a2.21 2.21 0 0 0 2 1.56h.08a1.91 1.91 0 0 0 .83-.2 2.75 2.75 0 0 0 1.16-3.36l-4.75-13.09Z" fill="#000000" class="color000 svgShape"/><path fill="#c3c9ce" d="M3018.16 2498.07c-.24.25-.47.51-.73.77a20 20 0 0 1-9.83 5.58 9.3 9.3 0 0 1-1.58.26 13.51 13.51 0 0 1-2.31.17h-25.93c-18.39 0-41.13-.08-63.91-.17h-5.09c-27-.11-53.5-.3-72.47-.54-8.85-.12-17.13-.42-24.9-.83l-5.59-.34a481.26 481.26 0 0 1-58.08-7.18c-2.06-.36-4-.75-6-1.11-8.6-1.65-28.62-34.13-10.47-42 .56.12 2.15.49 4.59 1 13.46 2.85 53.35 10.6 95.57 11.8 1.9 0 3.81.06 5.71.11 8 .1 17.26.25 27.34.42h.05c6.08.11 12.41.24 18.94.35l14.41.3c50.94 1 107.26 2.26 120 2.44h2.4c4.26 3.66 3.43 5.67 3.83 10.64a24.67 24.67 0 0 1-5.95 18.33Z" class="colorc3c9ce svgShape"/><path fill="#ffab8b" d="M1426.62 1395.75q-4 8.09-8.44 16c-3.23 5.8-6.62 11.71-9.75 17.73h-18.3c-8.45-9.4-15.16-20.28-23.43-30-15.12-17.83-35.73-30.16-55.6-41.93-21.41-12.71-65.82-28.74-75.58-54.13-6.85-17.82 14-81 13.62-126.5 32.7 25.36 27.09 77.07 44.71 110.69 11.53 22 32.84 36.9 53.36 50.92l55.82 38.14a159.36 159.36 0 0 1 23.59 19.08Z" class="colorffab8b svgShape"/><path fill="#e4e7e9" d="m2976.9 1113.05-67.89 18.3a21.06 21.06 0 0 0-9.91 6 21.29 21.29 0 0 0-5.27 10.15c-3.27-5.26-2.14-13.14 1.93-18.2 4.9-6.1 12.67-9 20.15-11.28 10.85-3.25 22.05-5.74 32.07-11 6.46-3.41 12.48-8.16 16.59-14.26 4.22-6.27 3.38-12.85 6.19-19.33a8.56 8.56 0 0 1 3.53-4.16c3.58 10.62 7.22 21.56 10.83 32.57a9.88 9.88 0 0 1-8.22 11.21Z" opacity=".39" class="colore4e7e9 svgShape"/><path fill="#ffffff" d="M3339.54 1192.37a48.61 48.61 0 0 1-20 39.29 78.86 78.86 0 0 1-60.83 13.68c-63.92-12-175.42-51.49-216.21-66.33a23.68 23.68 0 0 1-13.89-13.53c1.19-14 10.32-27.21 22-35.54 14.21-10.08 31.64-14.32 48.68-18l3.6-.77h95.31l14.33-131.16 13.51-123.62c61.33 68.15 99.61 254.22 112.7 327.4a48.4 48.4 0 0 1 .8 8.58Z" class="colorfff svgShape"/><path fill="#ffffff" d="m3102.94 1111.21-3.6.77c-17 3.64-34.47 7.88-48.68 18-11.73 8.33-20.86 21.52-22 35.54a23.87 23.87 0 0 1-1.63-8.65v-39.74a5.88 5.88 0 0 1 5.89-5.88Z" class="colorfff svgShape"/><path fill="#ffab8b" d="M3117.48 570.21a30.52 30.52 0 0 1-6 4.84c-15.69 9.55-35.45 4.05-53.5 1.5-13.51-1.91-27.17-2-40.79-2-12.65 0-25.69 0-37.33 5-7.05 3.07-15.31 8.74-19.38 15.4-3.66 6-6.49 11.69-10.3 17a50.73 50.73 0 0 1-6.72 7.67 84.18 84.18 0 0 1-14.67 10.94.61.61 0 0 1-.9-.36c-.06-.26-.15-.5-.21-.75 3.66-5.59 3.9-17.88 5.07-23.15 5.85-25.77 13.92-49 40.75-58.51 25.69-9.08 52.79-4.9 79.28-8.39 17.34-2.29 43.07-8.8 54.68 9 4.21 6.49 6.76 13.88 9.69 21 .09.25.22.53.33.81ZM3082.58 739.07c-17.79 13.29-38.13 23-58.26 32.65-8.77 4.19-19.14 8.35-28.06 5.93.08-.35.19-.67.27-1a307.79 307.79 0 0 0 7.13-32.8c1 .32 1.87.6 2.81.84 17.08 4.43 36.18-4.09 51.62-10.92a147 147 0 0 0 20.59-11.11q1.68 8.05 3.9 16.41Z" class="colorffab8b svgShape"/><path fill="#e4e7e9" d="M3201.08 1095.92a18.34 18.34 0 0 1-18.24 16.36h-84.18c21.74-4.61 45.17-7.18 64.08-19.86 18.71-12.54 23.23-35.69 29.21-55.87Z" class="colore4e7e9 svgShape"/><path fill="#213949" d="M3020.06 2466.21c-.68 1-1.39 1.9-2.12 2.85a118.48 118.48 0 0 1-9.22 10.57c-.9.92-1.78 1.8-2.7 2.68a195 195 0 0 1-28.22 22.5c-18.39 0-41.13-.08-63.91-.17h-5.09c-27-.11-53.5-.3-72.47-.54-8.85-.12-17.13-.42-24.9-.83l-5.59-.34a481.26 481.26 0 0 1-58.08-7.18c8.35-8.84 20-14.25 32.26-17.32a106.73 106.73 0 0 1 11.8-2.29c19.07-2.63 38.62-1.52 57.42-5.63a116.48 116.48 0 0 0 15.3-4.54h.05c19.12-7.08 36.59-18.62 53.67-30 7.3-4.86 18.84-14.07 31.88-23.17a39.13 39.13 0 0 0 21.79-7.19 26.9 26.9 0 0 1 13.83-4.75c15.21-.82 30 11.9 32.7 31.06 1.8 12.92 2.54 25.4 1.6 34.29Z" opacity=".15" class="color213949 svgShape"/><path fill="#e4e7e9" d="M3254.6 1326.88c-5.93-9.27-10.27-19.52-16.5-28.62-13.28-19.33-34.22-32.18-56-40.91s-44.75-13.92-67-21.46a330.24 330.24 0 0 1-47.38-20.25c-17.32-9.08-35.43-21.88-38.75-41.13a35.65 35.65 0 0 1-.36-9 23.7 23.7 0 0 0 13.91 13.55c38.9 14.15 142.12 50.74 207.14 64.53v2.53c-.24 27.07 1.82 53.96 4.94 80.76Z" class="colore4e7e9 svgShape"/><path fill="#ffffff" d="M3221 2468.48c-.6 3.62-1.54 6.46-2.89 8.22-10.23 13.23-86.88 4.47-96.77 3.3a10.4 10.4 0 0 0-2.16-.05l-46.71 4.26-20.24 1.85a14.74 14.74 0 0 1-1.88 0l-65-6.06a10.57 10.57 0 0 1-3.47-.95l-38.21-17.66a12.79 12.79 0 0 1-6.51-7.17c-2.68-7-.22-16.4 7.23-19 .15-.07.33-.11.47-.17 16-5.29 55.11-7.15 82.13-18.59 1.74-.72 3.47-1.5 5.18-2.27 1.37-.6 2.72-1.22 4.09-1.86 3.11-1.41 6.17-2.89 9.19-4.39l4-2c3.08-1.59 6.1-3.17 9-4.78 1.34-.7 2.67-1.43 4-2.16q4.65-2.57 8.93-5.05c1.34-.77 2.65-1.54 3.91-2.29 3.19-1.89 6.17-3.68 8.85-5.35l3.87-2.4 2.14-1.37c5.16-3.3 11.67-1.78 15.22 3.7a57.23 57.23 0 0 0 39.31 25.78c11.07 1.82 20.49-1.46 28.26-6.77a26.61 26.61 0 0 1 27.21-2.07c9.68 4.66 17.47 14.83 19.42 28.19 2.17 14.33 2.92 28.16 1.43 37.11Z" class="colorfff svgShape"/><path d="M3037.77 2418.45a3.66 3.66 0 0 1 3.28 2.59 4.77 4.77 0 0 1-1.91 5.82 3 3 0 0 1-1.37.33 3.62 3.62 0 0 1-3.27-2.59 4.73 4.73 0 0 1 1.91-5.82 3 3 0 0 1 1.36-.33m0-1a4 4 0 0 0-1.81.44c-2.33 1.17-3.4 4.33-2.4 7.06a4.6 4.6 0 0 0 4.21 3.24 4 4 0 0 0 1.82-.44c2.32-1.17 3.39-4.33 2.39-7.06a4.64 4.64 0 0 0-4.21-3.24ZM3050.9 2411.84a3.62 3.62 0 0 1 3.27 2.59 4.73 4.73 0 0 1-1.9 5.82 3 3 0 0 1-1.36.33 3.64 3.64 0 0 1-3.28-2.59 4.72 4.72 0 0 1 1.91-5.82 3 3 0 0 1 1.36-.33m0-1a4 4 0 0 0-1.81.44 5.73 5.73 0 0 0-2.4 7 4.64 4.64 0 0 0 4.22 3.25 4 4 0 0 0 1.81-.44 5.75 5.75 0 0 0 2.39-7.06 4.6 4.6 0 0 0-4.21-3.24ZM3064 2405.22a3.65 3.65 0 0 1 3.28 2.59 4.74 4.74 0 0 1-1.91 5.82 3 3 0 0 1-1.37.33 3.64 3.64 0 0 1-3.28-2.59 4.74 4.74 0 0 1 1.92-5.82 3 3 0 0 1 1.36-.33m0-1a4 4 0 0 0-1.81.44 5.75 5.75 0 0 0-2.41 7.05 4.62 4.62 0 0 0 4.22 3.29 4.15 4.15 0 0 0 1.82-.43c2.32-1.17 3.4-4.34 2.4-7.06a4.64 4.64 0 0 0-4.22-3.25ZM3077.16 2398.61a3.64 3.64 0 0 1 3.28 2.59 4.74 4.74 0 0 1-1.92 5.82 3 3 0 0 1-1.36.33 3.65 3.65 0 0 1-3.28-2.59 4.75 4.75 0 0 1 1.92-5.82 3 3 0 0 1 1.36-.33m0-1a4 4 0 0 0-1.81.44 5.75 5.75 0 0 0-2.41 7 4.64 4.64 0 0 0 4.22 3.25 4 4 0 0 0 1.82-.44c2.33-1.16 3.4-4.33 2.4-7.06a4.62 4.62 0 0 0-4.22-3.24ZM3090.3 2392a3.64 3.64 0 0 1 3.27 2.6 4.75 4.75 0 0 1-1.91 5.82 3 3 0 0 1-1.36.33 3.63 3.63 0 0 1-3.28-2.59 4.74 4.74 0 0 1 1.91-5.82 2.92 2.92 0 0 1 1.37-.34m0-1a4 4 0 0 0-1.82.44 5.75 5.75 0 0 0-2.4 7.06 4.63 4.63 0 0 0 4.22 3.25 4 4 0 0 0 1.81-.44c2.32-1.17 3.4-4.34 2.4-7.06a4.63 4.63 0 0 0-4.21-3.25Z" fill="#000000" class="color000 svgShape"/><path d="m3034.87 2411.34 3.68 10a1.76 1.76 0 0 1-.66 2.13.85.85 0 0 1-.43.1 1.24 1.24 0 0 1-1-.9l-3.79-10.31 2.26-1m.56-1.36c-1.35.63-2.72 1.24-4.08 1.85l4.11 11.2a2.22 2.22 0 0 0 2 1.55h.06a1.87 1.87 0 0 0 .85-.21 2.73 2.73 0 0 0 1.14-3.37l-4.05-11ZM3048.08 2405l3.6 9.78a1.76 1.76 0 0 1-.65 2.13 1 1 0 0 1-.44.11 1.22 1.22 0 0 1-1.05-.9l-3.68-10 2.22-1.11m.55-1.41-4 2 4 10.84a2.2 2.2 0 0 0 2 1.56 2 2 0 0 0 .87-.21 2.75 2.75 0 0 0 1.15-3.37l-4-10.85ZM3061.11 2398.05l3.7 10.07a1.75 1.75 0 0 1-.67 2.13.79.79 0 0 1-.42.1 1.23 1.23 0 0 1-1-.9l-3.75-10.2 2.19-1.2m.53-1.44c-1.3.72-2.62 1.45-4 2.17l4.05 11a2.2 2.2 0 0 0 2 1.55h.06a2 2 0 0 0 .85-.2 2.76 2.76 0 0 0 1.15-3.38l-4.11-11.16ZM3074 2390.72l4 10.78a1.76 1.76 0 0 1-.65 2.13.9.9 0 0 1-.44.11 1.25 1.25 0 0 1-1.06-.9l-4-10.85 2.17-1.27m.53-1.47-3.93 2.3 4.28 11.63a2.23 2.23 0 0 0 2 1.56 2 2 0 0 0 .9-.21 2.75 2.75 0 0 0 1.14-3.37l-4.38-11.91ZM3086.69 2383l4.38 11.91a1.77 1.77 0 0 1-.64 2.13.93.93 0 0 1-.45.1 1.24 1.24 0 0 1-1-.89l-4.37-11.91 2.14-1.34m.51-1.5c-1.21.77-2.5 1.57-3.87 2.42l4.65 12.67a2.23 2.23 0 0 0 2 1.55h.07a2 2 0 0 0 .85-.2 2.76 2.76 0 0 0 1.14-3.37l-4.81-13.07Z" fill="#000000" class="color000 svgShape"/><path fill="#c3c9ce" d="M3205.21 2504.32c-19.87.06-57.78.17-94.93.17-16.4 0-32.63 0-47.1-.09-9.33 0-17.94-.08-25.37-.15-43.16-.38-72.94-5-94.56-9.05-8.61-1.63-28.76-34-10.64-42 .55.13 2.14.48 4.58 1 14.08 2.91 57 11.07 101.33 11.47 15.07.13 34.79.41 55.73.73 55 .84 118.37 2 126.78 2.06h.67c4.28 3.64 3.44 5.65 3.87 10.62 1.14 13.63-8.65 25.19-20.36 25.24Z" class="colorc3c9ce svgShape"/><path fill="#213949" d="m3239.17 1685.49-5.8 90.8c-22 11.09-49 4.69-73-2q-20.49-5.71-41-11.46c-19.48-5.46-39.1-10.94-57.49-19.31-2-.88-3.91-1.8-5.84-2.76-20.06-10-38.6-24.11-50.25-43.25-7.32-12-11.69-25.6-16-39-2.25-7-4.11-15.18-6.13-23.63l-14.71-88.25c9.64 25.69 53.81 141.26 70.93 147 37 12.33 82.56 12.57 120.95 11.61 34.17-.95 59.73-7.74 78.34-19.75Z" opacity=".18" class="color213949 svgShape"/><path fill="#213949" d="M3005.85 522.94c13.1 3 24.53 10.51 36.12 17.45-23 1.56-46.29-.52-68.49 7.34-26.83 9.49-34.9 32.74-40.75 58.51-.51 2.21-.83 5.65-1.3 9.34-4.16-6.23-6.1-14.52-6-22.25.43-39.78 39.01-79.9 80.42-70.39ZM3127.82 658c1.54-5.93 3.59-11.62 8.15-14.56 7.86-5 15-6.68 20.54-15.05a28.31 28.31 0 0 0 4.64-13.16c1.46-15.78-13.94-27.81-28.94-25.63l-1.31.21a29.29 29.29 0 0 0-2.44-3c-.11-.11-.24-.22-.34-.33-2.19-2-4.56-4.11-6-6.72a82.75 82.75 0 0 1-4.6-9.59c-.11-.28-.24-.56-.35-.83-2.93-7.13-5.48-14.52-9.69-21-.48-.73-1-1.41-1.48-2 11-8.33 18.77-21.69 25.2-34.32 2.24-4.41 4.66-9.08 8.86-11.71 3.3-2.06 7.22-2.57 11.13-2.68-.25.79-.53 1.56-.83 2.33 1.35.35 2.76.75 4.22 1.27 12.52 4.41 28 16.23 35.15 46.93 12.81 55.64-18.88 110.58-61.91 109.84Z" opacity=".69" class="color213949 svgShape"/><path fill="#213949" d="M3205.21 2504.32c-19.87.06-57.78.17-94.93.17-16.4 0-32.63 0-47.1-.09a54.27 54.27 0 0 1 9.32-20.19 53.53 53.53 0 0 1 8.28-9 64.27 64.27 0 0 1 13.47-8.78c15-7.43 32.56-10.3 48.68-15.67 27.79-9.29 41.64-25.65 57.29-47.61 9.68 4.66 17.47 14.83 19.42 28.19 2.1 14.37 2.85 28.2 1.39 37.15h.67c4.28 3.64 3.44 5.65 3.87 10.62 1.14 13.6-8.65 25.16-20.36 25.21Z" opacity=".15" class="color213949 svgShape"/><path fill="#ff3a56" d="m2858.42 1030.24 10.31 27.63-22.97 8.56 9.68 25.94-24.47 9.13-9.67-25.94-22.97 8.57-10.31-27.63 22.97-8.57-9.68-25.93 24.47-9.13 9.68 25.94 22.96-8.57z" class="colorff3a56 svgShape"/></g></g></svg>