<svg xmlns="http://www.w3.org/2000/svg" viewBox="0 0 4680 3120"><g data-name="Layer 2" fill="#000000" class="color000 svgShape"><g data-name="Layer 1" fill="#000000" class="color000 svgShape"><path fill="#b6ecf0" d="M0 0h4680v3120H0z" class="colorb6ecf0 svgShape"/><rect width="1387.05" height="122.4" x="596.58" y="2516.08" fill="#213949" opacity=".82" rx="61.2" class="color213949 svgShape"/><rect width="1739.6" height="122.4" x="2184.25" y="2516.08" fill="#213949" rx="61.2" class="color213949 svgShape"/><path fill="#85dfe5" d="M2992.85 634.13h1061.4v711.78h-1061.4z" class="color85dfe5 svgShape"/><path fill="#b6ecf0" d="M3024.93 667.8h998.13v644.44h-998.13z" class="colorb6ecf0 svgShape"/><path fill="#85dfe5" d="M3088.91 1022.11h249.63v19.01h-249.63zM3088.91 1062.53h249.63v19.02h-249.63zM3088.91 1102.95h249.63v19.02h-249.63zM3088.91 1143.36h249.63v19.02h-249.63zM3088.91 1183.78h249.63v19.02h-249.63zM3088.91 1224.19h249.63v19.02h-249.63zM3399.93 1022.11h249.63v19.01h-249.63zM3399.93 1062.53h249.63v19.02h-249.63zM3399.93 1102.95h249.63v19.02h-249.63zM3399.93 1143.36h249.63v19.02h-249.63zM3399.93 1183.78h249.63v19.02h-249.63zM3399.93 1224.19h249.63v19.02h-249.63zM3292.07 780.54c-29.56-11.84-38.29 3.72-43.07 0-11.18-8.78-1.65-14.09 7-28.31 4.34-7.14 13.86-13.37 11.36-16.56-3.24-4.08-11.56-9.42-11.56-9.42l-22.31 24.29s-32.63 33-34.37 80-23.58 57.24-51.91 81.06-27.16 53.72-25.58 67.12c1.11 9.28 21.85 1.69 21.85 1.69s-12.92-29.94 9.36-44.78 60.4 35.11 115.43 4.77c61.47-33.98 91.95-132.54 23.8-159.86ZM3964.89 1239.36h-249.06l-13.44-121.63a44.32 44.32 0 0 1 44.05-49.18h187.84a44.32 44.32 0 0 1 44 49.18Z" class="color85dfe5 svgShape"/><path fill="none" stroke="#85dfe5" stroke-miterlimit="10" stroke-width="5" d="M3763.16 1020.86h152.44a8.25 8.25 0 0 1 8.25 8.25v38.33h-168.94v-38.33a8.25 8.25 0 0 1 8.25-8.25Z" class="colorStroke85dfe5 svgStroke"/><path fill="#b6ecf0" d="M3893.4 1131.65v42.4h-35.25v39.8h-37.54v-39.8h-35.25v-42.4h35.25v-39.81h37.54v39.81h35.25z" class="colorb6ecf0 svgShape"/><path fill="#85dfe5" d="M1927.07 1811.75c451.75 15.08 912.22 59.58 1362.06 20.44 163.9-109.94 273-238.73 414.51-370.82-19.2-15-40.27-43.49-58.91-55.9-34.24-22.76-63.89-34.22-98.85-.71-19.13 18.34-37.84 37.66-56.48 57.4q-1.12 3.49-2.58 6.92 1.42-3.42 2.58-6.92c-46.58 49.33-92.83 101.13-144.33 145.5a.28.28 0 0 1-.08.06q-7.11 6.12-14.35 12.07c-6.12 5-12.3 9.87-18.57 14.61-2.87 2.18-5.78 4.33-8.69 6.45q-8.32 6.11-16.91 11.85c-34.16 23-61.37 33.27-101.47 36.48q-26.73 2.13-53.57 3.79c-8.58.54-17.16 1.06-25.75 1.51-19.94 3.12-41.4 4-63.12 3.79q-9.3-.06-18.66-.36c-59 1.83-118.34 2.24-177.95 1.63l-7.56.41c-20.6 1.14-41.2 2.14-61.82 2.55-14.89.3-29.78.28-44.67-.22-37.37-1.25-74.54-5.32-111.78-8.27-3.72-.31-7.84-.72-12.21-1.21-203.44-8.75-407.19-23.25-605.58-28.53-48.31-1.29-61.65 26.14-71.18 66.3-5.22 21.9-.33 57.08-4.08 81.18Z" class="color85dfe5 svgShape"/><path fill="#85dfe5" d="M3486.82 1469.08q1.45-3.42 2.58-6.92-1.15 3.5-2.58 6.92ZM3023.87 1697.93q9.35.28 18.66.36c21.72.17 43.18-.67 63.12-3.79q-31.07 1.68-62.26 2.8-9.75.33-19.52.63ZM2607.88 1692.82c4.37.49 8.49.9 12.21 1.21 37.24 3 74.41 7 111.78 8.27 14.89.5 29.78.52 44.67.22 20.62-.41 41.22-1.41 61.82-2.55l7.56-.41q-39.78-.39-79.73-1.35c-52.68-1.21-105.5-3.11-158.31-5.39Z" class="color85dfe5 svgShape"/><path fill="#ffbd9a" d="M3232 1491.58s-16 37.34-69 42.56a130.81 130.81 0 0 1-17.19.53c-66.8-2.15-68.95-8.62-68.95-8.62l68.95 135.76s116.36-133.6 172.39-135.76-86.2-34.47-86.2-34.47Z" class="colorffbd9a svgShape"/><path fill="#2ec4a9" d="M2320.48 1452.79v209s198.51 40.36 231.78 18 9.57-205.51-46.46-203.36l-8.62-19.39-51.48-1.25Z" class="color2ec4a9 svgShape"/><path fill="#24232b" d="M2320.48 1651.29v10.52s198.51 40.36 231.78 18 9.57-205.51-46.46-203.36l-8.62-19.39-51.48-1.25c-.15.65-.28 1.34-.39 2-3.27 20.94 17.85 45 23.49 64.51 8.34 28.88-.32 62-21.72 83.11-22.13 21.81-54.11 29.57-84.43 36.42l-36.67 8.32c-1.81.48-3.66.83-5.5 1.12Z" opacity=".11" class="color24232b svgShape"/><path fill="#55d3b9" d="M2490.72 1470c1.27.9 2.52 1.81 3.75 2.76l.62.47c1.08.82 2.13 1.66 3.17 2.52 1.27 1 2.52 2.07 3.75 3.15.58.49 1.16 1 1.72 1.53 1.25 1.14 2.5 2.28 3.71 3.49.84.8 1.68 1.62 2.5 2.46.24.23.47.47.69.71 1 1.07 2.07 2.15 3.08 3.25l.06.09q1.56 1.68 3 3.42c.26.28.5.56.73.84 1 1.17 1.94 2.35 2.89 3.54s2.07 2.65 3.06 4c0 0 .07.09.09.13 1 1.3 1.91 2.61 2.82 4l.43.62c.78 1.12 1.53 2.26 2.26 3.41l.39.62q1.26 1.93 2.41 3.9a1.18 1.18 0 0 0 .11.19c.89 1.45 1.73 2.94 2.52 4.42s1.62 3 2.37 4.51 1.4 2.78 2.07 4.2c.09.21.2.41.28.6.69 1.47 1.34 2.93 2 4.42.05.11.09.19.13.3a150.74 150.74 0 0 1 8.17 25c.58 2.46 1.08 4.93 1.53 7.41 4.93 27.26-12.07 55.27-22.6 79.67-1.49 3.47-21.9 42.43-7.53 39.88 16-2.82 57.37 4 87 7.31 4.37.49 8.49.9 12.21 1.21 37.24 3 74.41 7 111.78 8.27 14.89.5 29.78.52 44.67.22 20.62-.41 41.22-1.41 61.82-2.55l7.56-.41c29.55-1.66 59.09-3.47 88.61-4.09 25.32-.54 54.54 1.36 84.25 2.33 1.71.06 3.39.1 5.09.13q9.35.28 18.66.36c21.72.17 43.18-.67 63.12-3.79a192.38 192.38 0 0 0 24.5-5.34c2.76-.78 5.45-1.64 8.1-2.57 31.29-10.95 38.36-38.08 35.51-67.51-2.13-22.32-10-46-17.26-64.88-2.45-6.38-5.13-17.41-9.91-22.48a18.44 18.44 0 0 0-4.31-3.36c-10.06-5.8-26.25-4.59-38.06-8.51-34.6-11.47-63.52-37-90.95-58.94-18.21-14.56-35.3-27.3-59.2-29.07-39.64-2.93-69.94 16.51-107.13 24.83-19.61 4.39-41 4.44-61.05 4.72-22.58.34-46.27 2.48-68.7-.86-21.44-3.22-42.64-10.91-63.78-15.8-25.11-5.84-50.43-10-75.85-10.62-4.85-.11-9.7-.11-14.55 0a228.31 228.31 0 0 0-40 4.74c-8.88 1.9-35 7.89-39.35 17.84-1.68 3.88-.05 8.31 7.04 13.31Z" class="color55d3b9 svgShape"/><path fill="#ffbd9a" d="M3228.35 1499.67c-12.66-11.18-16.58-25.79-16.38-42.35.23-18 6.35-34.86 12.67-51.65a23.39 23.39 0 0 0 .43-15.55c-.81-2.6-1.89-5-2-7.55-.13-4.06 1.78-7 6.55-6.57 28.44 2.25 56.41-5.62 84.82-10.38s70.17-33 77.32 21.87c3.83 29.39-11.07 104.15-34.62 133.63-.4 2.41.33 1.39.36 1.76s.05.11.07.14c.59.88 1 1.42 1.59 2.4 0 .07-.24-.54.13.25a16.17 16.17 0 0 1 1.82 4.58c.92 7.11-2.41 13-7.72 17.63a22 22 0 0 1-7.63 4.18h-.22c-8.54 1.7-15.7-.22-22.85-5a44.8 44.8 0 0 1-6.51-5.87c-.39-.39-.69-.8-1.14-1.23-9.67-9.17-25-10.46-36.51-15-18.1-7.11-35.72-12.53-50.18-25.29Z" class="colorffbd9a svgShape"/><path fill="#54667f" d="M3131.4 1693q26.86-1.65 53.56-3.79c40.11-3.21 67.32-13.53 101.48-36.48 15.24-10.24 29.91-21.27 44.17-32.91.85-1.77 1.74-3.55 2.62-5.39 0 0 4.38-2.33 11.72-6.67l.1-.07c51.49-44.37 97.74-96.17 144.33-145.5a91.86 91.86 0 0 0-21.08-92.29 171.24 171.24 0 0 0-47.11-34.73 162.74 162.74 0 0 0-40.55-13.8c-35.71-7.14-45.71 14.39-45.94 44.05-.34 41.92 18.85 100.08 12.54 116.49-9 23.38-49.89 38.14-69.6 49.85-18.3 10.84-37.28 22.19-51.2 38.61-11 13-19.07 28.25-33.34 38.31a54.84 54.84 0 0 1-6.53 4l-1.46.76c-1.75.9-3.49 1.78-5.19 2.62l-5.06 2.52c-2.5 1.25-4.93 2.48-7.29 3.76-7.11 3.85-13.61 8.07-19.27 14a58.22 58.22 0 0 0-9.63 13.46c-5.52 10.48-12.81 30.13-7.27 43.2Z" class="color54667f svgShape"/><path fill="#2ec4a9" d="M3131.78 1548.68c11.13 27.45 15.6 57.94 16.55 87.56 10.39-10.82 23.69-16 38.27-23.61a54.84 54.84 0 0 0 6.53-4c-1.53-3.58-3.26-7.14-5.09-10.65-2.88-5.54-6-11-9-16.33q-4-7.28-7.77-14.73-4.27-8.48-8.09-17.18c-4.52-10.28-7.6-29.53-20.16-33-5.76-1.64-29.48-.18-30.65 6.11-1.37 7.75 16.53 18.72 19.41 25.83Z" class="color2ec4a9 svgShape"/><path fill="#213949" d="M3130.14 1689.16a21.22 21.22 0 0 0 1.26 3.83q26.86-1.65 53.56-3.79c40.11-3.21 67.32-13.53 101.48-36.48q8.57-5.76 16.91-11.85c2.91-2.12 5.82-4.27 8.69-6.45 6.27-4.74 12.46-9.63 18.57-14.61.85-1.77 1.74-3.55 2.62-5.39 0 0 4.38-2.33 11.72-6.67l.1-.07c51.49-44.37 97.74-96.17 144.33-145.5a91.86 91.86 0 0 0-21.08-92.29 171.24 171.24 0 0 0-47.11-34.73c1.88 4 4.55 8.4 6.68 13a199.35 199.35 0 0 1 16.75 57.08c3.34 26.33-1.53 54.91-19 74.88-11.51 13.12-27.58 21.72-38.46 35.38-9.46 11.88-14.36 26.81-23.21 39.16-13.75 19.2-35.71 30.49-56.82 41.1-11.62 5.81-23.38 11.69-36.07 14.58-9.75 2.22-19.68 2.6-29.68 2.42-10.6-.2-21.28-1-31.87-1a193 193 0 0 0-24.39 1.64c-3.9 2-7.69 3.86-11.37 5.69q-3.39 1.7-6.61 3.44c-6.94 3.79-13.29 8-18.83 13.72a58.22 58.22 0 0 0-9.63 13.46c-5.02 9.58-11.46 26.62-8.54 39.45Z" opacity=".68" class="color213949 svgShape"/><path fill="#ffffff" d="M2973.64 1020c-6.66-11.54-5.39-26.46 3.6-42l52.39-90.74a185 185 0 0 1 22.69-31.27l1.69-1.87h66.34l1.69 1.87a185 185 0 0 1 22.7 31.27l52.39 90.74c9 15.57 10.25 30.49 3.59 42s-20.23 17.89-38.19 17.89h-150.69c-17.97-.03-31.53-6.38-38.2-17.89Zm85.46-154.52a173.1 173.1 0 0 0-19.6 27.44l-52.4 90.74c-6.87 11.9-8.14 22.77-3.59 30.64s14.59 12.2 28.33 12.2h150.69c13.73 0 23.79-4.32 28.33-12.2s3.27-18.74-3.59-30.64l-52.41-90.74a173.05 173.05 0 0 0-19.59-27.44Z" class="colorfff svgShape"/><path fill="#ffffff" d="M3027.59 856.81a11.69 11.69 0 0 0 11.69 11.71h95.79a11.72 11.72 0 0 0 0-23.43h-36.5v-94.15a20.88 20.88 0 0 0 9.52-17.55v-23.9h339.56l368.78 332.24v173a34.47 34.47 0 0 0-23.06 32.51v668.6h68.91v-668.6a34.44 34.44 0 0 0-23.06-32.51v-183.12l-382.83-344.88h-348.3v-23.91a20.92 20.92 0 1 0-41.83 0v70.57a21 21 0 0 0 9.54 17.61v94.12h-36.52a11.71 11.71 0 0 0-11.69 11.69Z" class="colorfff svgShape"/><path fill="#55d3b9" d="M1925.13 1861.69c455.9 15 913.06 54.22 1368.08 20.13v-.3a.85.85 0 0 1 .26.11c164.85-110.59 275.57-234.73 416-366.5 20.21-19 13.94-21.63 9-39.41-2.25-8-12.8-9-16-16.23-144.37 135.43-256 258.26-414.81 372.79-449.26 39.07-909.45-5.67-1360.44-20.43q-1.07 24.93-2.09 49.84Z" class="color55d3b9 svgShape"/><path fill="#ffffff" d="M3773.85 1935.66h77.79v470.31h-77.79z" class="colorfff svgShape"/><path fill="#c3c9ce" d="M3762.4 1932.8h100.69v70.92H3762.4zM3702.43 2489.57a74 74 0 1 0 74.05-74 74 74 0 0 0-74.05 74Z" class="colorc3c9ce svgShape"/><path fill="#b6ecf0" d="M3730.72 2489.57a45.75 45.75 0 1 0 45.76-45.72 45.76 45.76 0 0 0-45.76 45.72Z" class="colorb6ecf0 svgShape"/><path fill="#c3c9ce" d="M3851.64 2388.2v36.57l-62.88 74.71h-15.65V2388.2h78.53z" class="colorc3c9ce svgShape"/><path fill="#c3c9ce" d="M3700.16 2388.19h80.23v37.56h-80.23z" class="colorc3c9ce svgShape"/><path fill="#ffab8b" d="M3171.29 1566.94q3.72 7.44 7.77 14.73c3 5.35 6.1 10.79 9 16.33h16.85c7.78-8.65 14-18.67 21.58-27.66 13.92-16.42 32.9-27.77 51.2-38.61 19.71-11.71 60.61-26.47 69.6-49.85 6.31-16.41-12.88-74.57-12.54-116.49-30.12 23.35-24.95 71-41.18 101.93-10.61 20.26-30.24 34-49.13 46.89l-51.44 35.12a147.26 147.26 0 0 0-21.71 17.61Z" class="colorffab8b svgShape"/><path fill="#55d3b9" d="M2973.55 1692.13c-38 7.42-466.27 2.92-469.29-18.66-.34-2.41-.66-5-1-7.72-1.47-12.7-2.69-27.92-3.44-38.3-.53-7.26-.83-12.15-.83-12.15s262-85.22 387.88-85.15c48.12 0 154.11-19.32 171.05 57 13.08 59-44.29 97.15-84.37 104.98Z" class="color55d3b9 svgShape"/><path fill="#ffbd9a" d="m2503.28 1665.75-15.93.12a174.61 174.61 0 0 0-25.19 2l-90.43 14c-3.87.44-7.2-3.21-7.2-7.89 0-4.35 2.23-8.27 5.6-9.85l35.42-16.69a124.71 124.71 0 0 1 33.64-10.42l60.65-9.6c.75 10.41 1.97 25.63 3.44 38.33Z" class="colorffbd9a svgShape"/><path fill="#ffffff" d="M1832.54 1883v49.81h2030.54V1883h-303.14v-256.89H3614V1598H2413.62v28.11h54V1883Zm1461.37-256.89h238V1883h-238Zm-266 0h237.85V1883h-237.84Zm-266.13 0h238V1883h-238Zm-266 0h238V1883h-238Z" class="colorfff svgShape"/><path fill="#54667f" d="M3178.25 1427.93Z" class="color54667f svgShape"/><path fill="#ffffff" d="M2251 2492.56a75.14 75.14 0 1 0 88.92-73.85 76 76 0 0 0-27.56 0 75.16 75.16 0 0 0-61.36 73.85Z" class="colorfff svgShape"/><path fill="#b6ecf0" d="M2279.62 2492.57a46.56 46.56 0 1 0 55.1-45.77 47.14 47.14 0 0 0-17.08 0 46.57 46.57 0 0 0-38.02 45.77Z" class="colorb6ecf0 svgShape"/><path fill="#85dfe5" d="M799.12 469.51h1526.74v1831.43H799.12z" class="color85dfe5 svgShape"/><path fill="#ffffff" d="M898.01 523.02h1328.96V2247.4H898.01z" opacity=".64" class="colorfff svgShape"/><path fill="#ffffff" d="M785 443v1884.43h1527.4v91.28a76 76 0 0 1 27.56 0V443Zm27.58 27.59h599.21v47.74a31.26 31.26 0 0 0 31.21 31.24h238.87a31.28 31.28 0 0 0 31.28-31.26v-47.74h599.25v1829.29H812.57Z" class="colorfff svgShape"/><path fill="#85dfe5" d="M2016.87 571.17h53.54v1620.42h-53.54zM1696.1 571.17h53.54v1620.42h-53.54zM1375.32 571.17h53.54v1620.42h-53.54zM1054.55 571.17h53.54v1620.42h-53.54z" class="color85dfe5 svgShape"/><path fill="#c2312a" d="M1777.34 2098.55a12.33 12.33 0 0 1-12.33 12.34h-24.91a12.34 12.34 0 0 1-12.35-12.34v-18.94a12.33 12.33 0 0 1 12.35-12.33h24.9a12.32 12.32 0 0 1 12.33 12.33Z" class="colorc2312a svgShape"/><path fill="#31c0c7" d="M1785.2 2065.47a12.34 12.34 0 0 1-12.33 12.36h-40.65a12.34 12.34 0 0 1-12.33-12.36v-13.17a12.33 12.33 0 0 1 12.33-12.34h40.65a12.33 12.33 0 0 1 12.33 12.34Z" class="color31c0c7 svgShape"/><path fill="#2db1b8" d="M1735 2070.47a4.61 4.61 0 0 1-4.6 4.61 4.6 4.6 0 0 1-4.59-4.61v-21.94a4.6 4.6 0 0 1 4.59-4.59 4.61 4.61 0 0 1 4.6 4.59ZM1749.75 2070.47a4.59 4.59 0 0 1-4.58 4.61 4.61 4.61 0 0 1-4.6-4.61v-21.94a4.61 4.61 0 0 1 4.6-4.59 4.59 4.59 0 0 1 4.58 4.59ZM1764.53 2070.47a4.61 4.61 0 0 1-4.61 4.61 4.59 4.59 0 0 1-4.58-4.61v-21.94a4.59 4.59 0 0 1 4.58-4.59 4.61 4.61 0 0 1 4.61 4.59ZM1779.3 2070.47a4.61 4.61 0 0 1-4.62 4.61 4.61 4.61 0 0 1-4.59-4.61v-21.94a4.61 4.61 0 0 1 4.59-4.59 4.62 4.62 0 0 1 4.62 4.59Z" class="color2db1b8 svgShape"/><path fill="#ff3a56" d="M1799.86 2104.75v104.51a12.36 12.36 0 0 1-12.35 12.35h-69.91a12.33 12.33 0 0 1-12.33-12.35v-104.51a12.32 12.32 0 0 1 12.33-12.36h69.91a12.35 12.35 0 0 1 12.35 12.36Z" class="colorff3a56 svgShape"/><path fill="#c2312a" d="M1795.28 2211.71a5 5 0 0 1-4.93 4.95H1714a5 5 0 0 1-5-4.95v-2.66a5 5 0 0 1 5-5h76.38a5 5 0 0 1 4.93 5Z" opacity=".61" class="colorc2312a svgShape"/><path fill="#62c3ed" d="M1401.32 1996.15v-10.27a10.55 10.55 0 1 0-21.09 0v10.27c-9.4 6.55-23.36 40-23.36 48.16v34a16.42 16.42 0 0 0 16.4 16.44h35a16.45 16.45 0 0 0 16.44-16.44v-34c-.01-8.17-13.98-41.61-23.39-48.16Z" class="color62c3ed svgShape"/><path fill="#59b6de" d="M1440.86 2205.2a16.41 16.41 0 0 1-16.42 16.41h-67.33a16.42 16.42 0 0 1-16.43-16.41v-82.88c0-9.07 7.36-39.41 16.43-39.41h67.33c9.07 0 16.42 30.34 16.42 39.41Z" class="color59b6de svgShape"/><path fill="#f2f2f2" d="M1340.88 2123.83h89.24v51.96h-89.24z" class="colorf2f2f2 svgShape"/><path fill="#cccccc" d="M1548 2057.9a16.44 16.44 0 0 1-16.43 16.44h-33.13a16.45 16.45 0 0 1-16.44-16.44v-25.19a16.43 16.43 0 0 1 16.43-16.41h33.13a16.42 16.42 0 0 1 16.43 16.41Z" class="colorccc svgShape"/><path fill="#31c0c7" d="M1558.43 2013.92a16.42 16.42 0 0 1-16.43 16.42h-54a16.43 16.43 0 0 1-16.43-16.42v-17.52A16.42 16.42 0 0 1 1488 1980h54a16.42 16.42 0 0 1 16.43 16.41Z" class="color31c0c7 svgShape"/><path fill="#2db1b8" d="M1491.64 2020.57a6.11 6.11 0 0 1-6.12 6.12 6.12 6.12 0 0 1-6.12-6.12v-29.19a6.13 6.13 0 0 1 6.12-6.11 6.12 6.12 0 0 1 6.12 6.11ZM1511.28 2020.57a6.12 6.12 0 0 1-6.12 6.12 6.1 6.1 0 0 1-6.1-6.12v-29.19a6.11 6.11 0 0 1 6.1-6.11 6.13 6.13 0 0 1 6.12 6.11ZM1530.9 2020.57a6.09 6.09 0 0 1-6.1 6.12 6.12 6.12 0 0 1-6.12-6.12v-29.19a6.13 6.13 0 0 1 6.12-6.11 6.1 6.1 0 0 1 6.1 6.11ZM1550.55 2020.57a6.11 6.11 0 0 1-6.11 6.12 6.11 6.11 0 0 1-6.12-6.12v-29.19a6.12 6.12 0 0 1 6.12-6.11 6.12 6.12 0 0 1 6.11 6.11Z" class="color2db1b8 svgShape"/><path fill="#cccccc" d="M1577.91 2066.15v139a16.41 16.41 0 0 1-16.42 16.41h-93a16.43 16.43 0 0 1-16.44-16.41v-139a16.42 16.42 0 0 1 16.44-16.42h93a16.4 16.4 0 0 1 16.42 16.42Z" class="colorccc svgShape"/><path fill="#ffffff" d="M1458.22 2097.26h111.68v65.02h-111.68zM1306.16 1902.38l-36.12.01.29 695.12 36.14-.03-.31-695.1z" class="colorfff svgShape"/><path fill="#fafbfd" d="M1858.18 1902.08h36.11v695.09h-36.11z" class="colorfafbfd svgShape"/><path fill="#ffffff" d="m1894.17 1896.15-624.08.36v38.34l624.1-.36-.02-38.34zM1894.28 2222.16l-624.08 1.12.13 327.32 624.09-1.1-.14-327.34z" class="colorfff svgShape"/><path fill="#ebf0f5" d="m1840.84 2256.61-517.18.91.13 258.65 517.18-.91-.13-258.65z" class="colorebf0f5 svgShape"/><path fill="#213949" d="M1623.78 2386.4a41.47 41.47 0 1 0-41.46 41.47 41.47 41.47 0 0 0 41.46-41.47Z" opacity=".82" class="color213949 svgShape"/><path fill="#85dfe5" d="M914.1 1274.65c10.09.08 20.47 1.77 29.06 7.06 7.49 4.62 13.2 11.71 17.46 19.42 22.07 39.92 5.74 89.82-15.37 130.26-23.15 44.34-51.62 85.73-74.48 130.21s-40.2 93.31-38.61 143.29c-21.22-36.08-42.61-72.49-55.93-112.18a304.93 304.93 0 0 1 6.41-209.44c22.69-55.99 71.05-109.05 131.46-108.62ZM1051.35 1575.07c16.87-4.16 34.18-6 51.31-3.49 27.38 4 54.16 20.8 63.8 46.73 13.34 35.88-10.39 77-43.47 96.27-40.27 23.45-91.06 22.62-135.68 30.89-32.34 6-65.52 17.82-86.45 43.18-3.44-56.39.38-113.92 42.6-155.91 21.85-21.73 49.45-37 78.17-48.1a239.84 239.84 0 0 1 29.72-9.57ZM635.11 1574.14c6.95-9.65 17.54-16.27 28.82-20a56.83 56.83 0 0 1 24.23-3c24.84 2.83 42.69 25.49 52.72 48.39a181.07 181.07 0 0 1 15 63.88c2.37 49.72-14.84 104.07 10.87 146.7a173.91 173.91 0 0 1-142.47-208.65c2.05-9.67 5.06-19.32 10.83-27.32Z" class="color85dfe5 svgShape"/><path fill="#55d3b9" d="M882.09 1380.05c-37.38 87.5-43 182.6-45.9 276.54q-.3 9.66-.57 19.3c-1.53 53.94-6.63 108-5.63 162 .48 25.47 2.68 50.67 5.11 76h-20.25a244.44 244.44 0 0 0-16.36-39.37c-13-25.47-29.8-46.55-47.6-67.76-5.35-6.41-10.81-12.83-16.28-19.39-39.09-47-67.5-105.3-77.45-165.73-.44-2.65 3.49-3.87 4.1-1.12 16.21 72 54.4 130.33 102.62 184.65l.22.26a330.77 330.77 0 0 1 51.81 78.78c1 2 1.81 4.12 2.71 6.18a652.15 652.15 0 0 1-2.23-70.74c1.2-43.56 4.05-87.13 6.44-130.68q.82-14.65 1.53-29.27c4.64-96.2 12.53-193.78 52.64-282.7 1.56-3.48 6.58-.42 5.09 3.05ZM1098.19 1645.81c-70.65 34.06-143.45 61.52-186.7 131.29-.29.48-.59.94-.86 1.41-26.61 43.24-44.8 88.19-56.8 135.36h-15.42c12.48-50.38 35.55-99.87 61.71-140.76 1.71-2.73 3.46-5.39 5.23-8 45.6-68.3 117.45-93.76 189.84-124.39 3.43-1.5 6.5 3.4 3 5.09Z" class="color55d3b9 svgShape"/><path fill="#ffffff" d="m685.55 1933 .64 10.59 2 34.81 4.74 82.25 3.1 54 6.66 114.59 1.69 29.52 6.2 107.26 3.2 55.21 6.7 115.83 1.32 22.87c.6 9.69 3.93 16.9 7.89 16.9h198c4 0 7.44-7.32 7.9-17.24l3.42-68.84.73-15.32 2.37-48.11 1.55-30.76.14-3 10.08-203.6.05-1 .64-12.84 2.87-57.58 1.18-24.11.51-9.69 3.42-69.74 1.23-24.34 2.87-58c.6-11.72-3.1-22.09-7.89-22.09H693.44c-4.83-.16-8.57 10.43-7.89 22.43Z" class="colorfff svgShape"/><path fill="#ecedf2" d="M916.07 2135.09h.01l.89-17.82h-.02l-.88 17.82zM909.74 2262.88l.47-9.41h-.01l-.46 9.41zM912.29 2211.16h.02l.87-17.72-.89 17.72z" class="colorecedf2 svgShape"/><path fill="#85dfe5" d="m685.55 1933 .64 10.59 2 34.81 4.74 82.25 3.1 54 6.66 114.59 1.69 29.52 6.2 107.26 3.2 55.21 6.7 115.83 1.32 22.87c.6 9.69 3.93 16.9 7.89 16.9h198c4 0 7.44-7.32 7.9-17.24 0 0 3.42-68.84 3.46-68.84l.73-15.32 2.37-48.11 1.55-30.76c1.32-38.56-45.09-79.54-70.27-103.58-31.22-29.8-63.92-57.46-86.61-94.73-24.83-40.78-36.36-89.12-42.14-136.18-1.85-15.08-8.9-151.63-1.08-151.68-16.72.12-33.45.1-50.17.1-4.82-.08-8.56 10.51-7.88 22.51Z" class="color85dfe5 svgShape"/><path fill="#54667f" d="M3439.37 1293.49q1.5-3.54 2.68-7.16-1.22 3.62-2.68 7.16Z" class="color54667f svgShape"/><path fill="#ffbd9a" d="m2642.23 2370.09 26.85 124.23 58.13-7.51 1.81-140.83-86.79 24.11zM2446.67 2370.09l26.85 124.23 58.13-7.51 1.82-140.83-86.8 24.11z" class="colorffbd9a svgShape"/><path fill="#ffffff" d="M3126.56 449.78c-49.92-25.47-112.09-6.72-139.56 42.13a108 108 0 0 0-5.58 11.46c-16 38.64-40.38 73.25-72.77 99.71l49.94 7.13c22.83 3.25 45 10.65 64.6 22.81a105.6 105.6 0 0 0 17.51 8.75c46.44 18.12 100 .58 126.77-41.5a105.31 105.31 0 0 0-40.91-150.49ZM3239.82 817.46c-25.38-45.3-82.94-62.8-129.23-39.27a99.57 99.57 0 0 0-10.19 6c-32.2 21.55-68.78 35.69-107.35 39.43l34.83 31.17c15.93 14.25 29.22 31.35 38.07 50.8a97.55 97.55 0 1 0 173.87-88.1ZM3473.44 607.52q-3.14-2.85-6.58-5.45c-47.17-35.55-169.78-49.19-216.56-5.09a106.57 106.57 0 0 0-8.65 9.19c-26.53 31.78-59.76 57.29-98.17 72.74l45.08 21.46c20.61 9.82 39.39 23.35 54.31 40.62a105.46 105.46 0 0 0 14 13.43c42.76 34.2 131.18 34.24 181.47 20.2 72.27-20.2 87.43-119.3 35.1-167.1ZM3444 337.47c-53.69-21.36-115.72 3.88-139.23 56.67a111.09 111.09 0 0 0-4.62 12.3c-12.73 41.21-34.42 79.08-65.13 109.35l52 2.52c23.75 1.15 47.23 6.61 68.51 17.22a110 110 0 0 0 18.82 7.29c49.42 14.14 102.76-9 126.16-54.78A108.58 108.58 0 0 0 3444 337.47Z" class="colorfff svgShape"/><path fill="#55d3b9" d="M3349.41 492.61a6.84 6.84 0 0 1-3.83-4.05l-20.47-58.07a6.85 6.85 0 0 1 12.92-4.56l17.75 50.36L3462.15 416a6.85 6.85 0 1 1 6.76 11.91l-113.49 64.35a6.85 6.85 0 0 1-5.78.45ZM3130.65 585a7.24 7.24 0 0 1-10.25.28l-36.53-34.61-29.6 56.92a7.24 7.24 0 0 1-6.44 3.91 7.17 7.17 0 0 1-3.34-.82 7.27 7.27 0 0 1-3.1-9.79l31.51-60.61-44.6-42.28a7.25 7.25 0 1 1 10-10.53l41.59 39.4 24.54-47.18a7.26 7.26 0 0 1 12.88 6.7l-26.46 50.87 39.54 37.46a7.25 7.25 0 0 1 .26 10.28ZM3144.69 891a4.13 4.13 0 0 1-4.12-3.82v-.47c-1-8.89 2-18.62 10.22-28.51 7.42-8.73 11.54-15.16 11.54-22.58 0-8.4-5.28-14-15.66-14.17a31.57 31.57 0 0 0-11.61 2.3 5.54 5.54 0 0 1-7.3-3.16 5.56 5.56 0 0 1 2.9-7 47.69 47.69 0 0 1 19-4c19 0 27.52 11.7 27.52 24.23 0 11.21-6.26 19.28-14.17 28.67-7.25 8.57-9.89 15.82-9.39 24.23a4.14 4.14 0 0 1-4.13 4.29Zm-7.31 21.18a9.55 9.55 0 0 1 9.75-8.49c5.76 0 9.72 4.28 9.72 10.38 0 4.76-2.59 8.63-6.92 9.83-7.09 1.99-13.64-4.41-12.55-11.69Z" class="color55d3b9 svgShape"/><path fill="#ffffff" d="m2798.53 728.13 156.64 44.07-156.05 314.08-140.04-76.02 139.45-282.13z" class="colorfff svgShape"/><path fill="#ffbd9a" d="M2836.13 685.17s-40 72-32 102-18 24-18 24-10 36-50 46c0 0-28-10 0 106s-118-26-118-26 42-48 36-90-78-112-28-182.05 177.99-59.97 210 20.05Z" class="colorffbd9a svgShape"/><path fill="#54667f" d="M2831.52 719.31c-3.74 5.16-17 19.8-21.32 7.17-5.51-16-34.42 22.55-37.6 26.6l-3.86 4.84-2.41 3.05c-1.07 1.36-2.13 2.72-3.2 4.07s-2.13 2.73-3.18 4.09c-1.7 2.18-3.4 4.43-5.13 6.69-7.41 9.75-15.22 19.77-25.58 26.59a71.92 71.92 0 0 1-7.37 4.26 116.81 116.81 0 0 1-38 10.21l-2 .17h-.15a51.83 51.83 0 0 1-32.32-8.23c-1.36-.88-2.69-1.8-4-2.74-.42-.3-.82-.6-1.22-.91s-.88-.64-1.29-1-.85-.65-1.26-1c-.61-.48-1.19-1-1.77-1.46a124.09 124.09 0 0 1-10.15-9.77c-64.37-69.62-20.23-189.73 74.42-200.85a171.44 171.44 0 0 1 38.34.14 175.47 175.47 0 0 1 46.3 11.46c29.34 12 51.66 37.5 55.89 66 2.46 16.57-1.2 34.14-13.14 50.62Z" class="color54667f svgShape"/><path fill="none" stroke="#55d3b9" stroke-miterlimit="10" d="m2826.78 860 96.86-71.92a7.66 7.66 0 0 1 11.28 2.47 7.66 7.66 0 0 1-2 9.67l-95.06 75.54a6.91 6.91 0 0 1-10.31-2l-2.71-4.81a6.91 6.91 0 0 1 1.94-8.95Z" class="colorStroke55d3b9 svgStroke"/><path fill="#ffbd9a" d="M2904.23 931.54a17.08 17.08 0 0 0 1.87.41c-.59.3-1.34.58-1.87-.41ZM2906.1 932c.5-.26.87-.55.92-.15-.02.15-.32.15-.92.15ZM2909 889.41c-6 30.87-6 39.86-4.74 42.13-8.68-2.24-34.59-12.23-34.59-12.23a176.47 176.47 0 0 1-16-21.79c-11-17.53-10.89-35.26-11-55.22-.05-6-1.75-12.43-.43-18.44 2.53-11.53 12.58.94 14.78 6.11.93 2.15 3.43 20.79 5.68 24.85.28.5.56.77.83.75 1.58-.15 19.24-15.64 26.58-22.14l.17-.14a7 7 0 0 1 8.07-.66c7.08 4.3 18.29 17.37 10.65 56.78Z" class="colorffbd9a svgShape"/><path fill="none" stroke="#55d3b9" stroke-miterlimit="10" d="m2824.05 866.48-17.37 16.39a4.67 4.67 0 0 0-.75 5.88 4.67 4.67 0 0 0 6.78 1.25l20.29-15.34Z" class="colorStroke55d3b9 svgStroke"/><path fill="none" stroke="#55d3b9" stroke-miterlimit="10" d="m2804.89 886.33-6.79 8.39a.5.5 0 0 0 .58.79l11-4.32a.51.51 0 0 0 .17-.84l-4.23-4.07a.5.5 0 0 0-.73.05Z" class="colorStroke55d3b9 svgStroke"/><path fill="#2ec4a9" d="M2279.28 1493.72s92.86 681.58 162.19 877.5a39.26 39.26 0 0 0 36 26.14l28 .76a33.7 33.7 0 0 0 34.61-34.51l-19-781.19" class="color2ec4a9 svgShape"/><path fill="#2ec4a9" d="M2422.37 1493.72s145.54 681.58 214.87 877.5a39.26 39.26 0 0 0 36 26.14l28 .76a33.7 33.7 0 0 0 34.61-34.51l-19-781.19" class="color2ec4a9 svgShape"/><path fill="#213949" d="M2831.52 719.31c-3.74 5.16-17 19.8-21.32 7.17-5.51-16-34.42 22.55-37.6 26.6l-3.86 4.84-2.41 3.05c-1.07 1.36-2.13 2.72-3.2 4.07s-2.13 2.73-3.18 4.09c-1.7 2.18-3.4 4.43-5.13 6.69-7.41 9.75-15.22 19.77-25.58 26.59a71.92 71.92 0 0 1-7.37 4.26c-11.73 6-25 9-38 10.21l-2 .17h-.15a51.83 51.83 0 0 1-32.32-8.23c-1.36-.88-2.69-1.8-4-2.74-.42-.3-.82-.6-1.22-.91s-.88-.64-1.29-1-.85-.65-1.26-1c-.61-.48-1.19-1-1.77-1.46a124.09 124.09 0 0 1-10.15-9.77c4.58 1 9.13 2 13.62 2.88 17.06 3.24 31.46-4.14 46.2-12 7.77-4.16 19.09-8.9 24.18-16.39 4.12-6 4.57-13.85 3.94-21.14-1-11.73-2.31-23.27-2.07-35.1.13-6 .75-12.07 3.33-17.47 5.24-11 17.78-16.93 29.92-18 23.53-2.13 46.15 9.2 69.81 5.16 9.61-1.65 17.84-6.48 26-11.16 2.48 16.54-1.18 34.11-13.12 50.59Z" opacity=".79" class="color213949 svgShape"/><path fill="#ffffff" d="M2933.91 1127.05v9c-.47 60.19-8.26 122-31.12 169.76a53 53 0 0 1-44.84 29.83l-111.83-62.35s.27 13.32.67 35.46c1 59.82 3 184 2.88 282.93-.08 63.48-1 116.59-3.55 135.73-8 60-38 64-124 38s-136-74-224.06-66-106-4-118-98 10-288.08 98-414.12l200.1-242 4.59-5.55 5.36-6.48c2 6 148 12 198.06 78 5.31 7 9.9 13.7 13.87 20.08 18.86 30.3 24 53.77 27.08 71.68 2.4 13.9 3.59 24.46 9.06 32.27 0 0 22.87-59.71 23-146.74v-6.76a487.39 487.39 0 0 0-3.32-51.64 12.11 12.11 0 0 1 12.11-11.91h32.43a12.11 12.11 0 0 1 11.87 9.65c5.6 27.2 20.7 108.09 21.65 195-.02 1.36-.01 2.77-.01 4.16Z" class="colorfff svgShape"/><path fill="#ffffff" d="M2933.91 1127.05v9c-.39 60.5-8.14 122.72-31.12 170.77a53 53 0 0 1-44.84 29.82 195.19 195.19 0 0 1-63.35-6.6 176.82 176.82 0 0 1-47.81-21.29c-32.17-20.52-63.43-55.1-85.9-112.43a4.14 4.14 0 0 1 .46-3.87l4.15-6L2782.83 1017a4.14 4.14 0 0 1 6.75-.09c30.74 42.29 35.06 72.72 38.66 94.06 0 .22.07.44.11.66 1.53 9 3 16.32 6.29 22.24.46.83 1 1.63 1.49 2.41 0 0 .14-.35.39-1 .87-2.4 3.14-8.93 5.91-19 .81-2.93 1.67-6.18 2.55-9.69a492.42 492.42 0 0 0 14.2-118.06v-6.76a492.59 492.59 0 0 0-3.23-50 11.29 11.29 0 0 1-.09-1.63 12.11 12.11 0 0 1 12.11-11.91h32.43a12.11 12.11 0 0 1 11.87 9.65c5.6 27.2 20.7 108.09 21.65 195Z" class="colorfff svgShape"/><path fill="#e4e7e9" d="M2827.07 1103a17.31 17.31 0 0 1-14.63-1.68c-6.38-4-10.18-10.92-13.49-17.66-15-30.67-28.37-54.19-51.7-79.12-18.58-19.86-43.87-32.44-70-40a303.67 303.67 0 0 0-48.92-9.56c-8.93-1-18-1.84-26.64-4.59-7.36-2.36-12.88-6.64-19-10.72l5.36-6.48c2 6 148 12 198.06 78 5.31 7 9.9 13.7 13.87 20.08 18.87 30.37 24.02 53.84 27.09 71.73Z" class="colore4e7e9 svgShape"/><path fill="#ffffff" d="M2627.08 898.23s-40 26-40 36 146.41 26.22 186.24 63.13c0 0 5.68-21.15-14.93-44.73a33.88 33.88 0 0 0-22.1-11.07c-5.08-.55-13-2.45-25.17-7.33-30.03-11.99-70.04-46-84.04-36Z" class="colorfff svgShape"/><path fill="#e4e7e9" d="M2749.66 1591.73a12.44 12.44 0 0 1-4.43-.49c-5.07-1.51-8.51-6.18-10.87-10.91-7.85-15.77-7.57-34.2-7.13-51.8q1.23-47.55 2.44-95.1c.72-28.42 1.38-57.4-6.81-84.62-6-20.1-16.67-38.45-27-56.73-10-17.77-53.53-83.58-35.18-102.57a13.5 13.5 0 0 1 4.78-3l-5.41 7.82c22.52 58.56 54.15 93.73 86.7 114.49 1.08 59.8 3.03 183.95 2.91 282.91ZM2835 1150.81a331.2 331.2 0 0 0-9.8 38.64c-.45 2.42-1.38 5.39-3.83 5.81-2 .33-3.71-1.26-4.92-2.84-6.08-7.92-7.65-18.56-6.43-28.46s5-19.29 8.74-28.53q4.78-11.91 9.59-23.78c1.53 9 3 16.32 6.29 22.24.46.83 1 1.63 1.49 2.41 0 0 .14-.35.39-1a36.28 36.28 0 0 1-1.52 15.51Z" class="colore4e7e9 svgShape"/><path fill="#ffab8b" d="M2890.27 833.31a13.85 13.85 0 0 1-2.78 4.42l-9.74 11.47c-2.49 2.94-5.13 6-8.71 7.42-2.13.86-5.57.86-6.35-1.78.28.5.56.77.83.75 1.58-.15 19.24-15.64 26.58-22.14Z" class="colorffab8b svgShape"/><path fill="#ffffff" d="M2681.23 2524a1.22 1.22 0 0 1-.07.17c-1.4 3.28-3 4.69-6.91 6.22-12.14 4.69-25.93 9.36-38.34 14a9.73 9.73 0 0 1-3.54.7c-19.07.78-38.12 1.73-57.18 3a4.42 4.42 0 0 1-1.48 0c-7.07-.85-8.73-1.14-17.43-2.24-4.42-.57-10.6-1.35-17-2.13-6.22-.76-12.64-1.51-17.79-2.07a5.75 5.75 0 0 0-2 .06c-23.48 2.3-58 9.92-78.68-6-2.54-2-2.23-3.7-2.29-7.31v-.86a248.39 248.39 0 0 1 1-33.72c1.13-10.6 7.17-20.14 17.29-24.69 8.87-4 16.93-2.47 24.84 2.22 7 4.15 15 8 22.57 6.28 14.49-3.32 22.4-12.51 31.05-22.78 5.07-6 7.81-5.21 14.39-3.4.87.24 1.18.91 1.93 1.37 1.2.7 2.18 1.49 3.4 2.32h.06c2.42 1.64 4.85 3.42 7.32 5.17h.05l3.14 2.2 7.11 4.89c1 .7 2.09 1.4 3.12 2.09 2.29 1.54 4.56 3.09 6.9 4.62l3.06 2c2.36 1.47 4.67 2.9 7.1 4.32 1.07.62 1.94 1.17 3.16 1.82h.06c1.26.67 2.51 1.56 4 2.26 1.17.55 2.35 1.07 3.53 1.58 22.69 9.66 47.64 12.33 71.12 19.69a1.61 1.61 0 0 1 .52.2c6.63 4.76 9.22 10.33 5.99 18.02Z" class="colorfff svgShape"/><path fill="#213949" d="M2587.29 2488.07c-.95 2.12-1 5 1.2 6.32s4.21-.18 5.14-2.3 1-5-1.16-6.32-4.22.23-5.18 2.3ZM2577.24 2481.62c-.94 2.11-1 5 1.15 6.31s4.19-.23 5.14-2.34 1-5-1.17-6.3-4.19.23-5.12 2.33ZM2567.14 2475.18c-.92 2.14-.92 5 1.25 6.32s4.18-.23 5.12-2.33 1-5-1.2-6.31-4.25.14-5.17 2.32ZM2556.43 2468.72c-1 2.2-.76 5 1.48 6.33s4.32-.14 5.28-2.33.79-5-1.45-6.33-4.35.13-5.31 2.33ZM2545.29 2462.2a5.17 5.17 0 0 0 2.05 6.43c2.27 1.25 4.15-.17 5.09-2.4s.6-5.1-1.71-6.35-4.55-.03-5.43 2.32Z" opacity=".82" class="color213949 svgShape"/><path fill="#213949" d="M2593.92 2478.36c1.07.59 2.13 1.21 3.18 1.83-1.55 3.28-3.21 6.82-4.73 10a2.13 2.13 0 0 1-1.81 1.45.58.58 0 0 1-.76-.22 2.54 2.54 0 0 1-.46-3.2c1.4-3.14 3.12-6.63 4.58-9.86ZM2583.75 2472.05c1 .64 2.06 1.3 3.08 2-1.55 3.14-3.08 6.62-4.54 9.7a2.18 2.18 0 0 1-1.82 1.46.56.56 0 0 1-.74-.22 2.59 2.59 0 0 1-.46-3.2c1.34-3.13 3.01-6.58 4.48-9.74ZM2573.64 2465.31c1.06.69 2.09 1.4 3.13 2.12-1.46 3.24-3 6.75-4.5 9.88a2.17 2.17 0 0 1-1.81 1.45.56.56 0 0 1-.74-.21c-.84-1.11-1.13-1.71-.5-3.2 1.33-3.22 3-6.75 4.42-10.04ZM2563.33 2458.16c1.08.73 2.14 1.48 3.2 2.24-1.55 3.43-3.16 7.12-4.7 10.45-.51 1.1-.89 1.19-1.86 1.45a.62.62 0 0 1-.79-.23c-.89-1.07-1.24-1.68-.61-3.19 1.43-3.45 3.23-7.2 4.76-10.72ZM2552.54 2450.58c1.14.78 2.27 1.57 3.4 2.37-1.67 3.74-3.34 7.76-5 11.42-.49 1.11-.83 1.19-1.8 1.47a.7.7 0 0 1-.82-.22c-.95-1-1.48-1.69-.87-3.23 1.55-3.86 3.43-7.92 5.09-11.81Z" opacity=".82" class="color213949 svgShape"/><path fill="#c3c9ce" d="M2674.21 2560.29c-29.28 6.49-55.16 4.41-84 5-1.15 0-2.3 0-3.46.08h-2.84c-5.41.18-13-.57-20-.66-10.37-.13-23.26-.13-34.25-.42h-1.44c-25.58-.76-52-.07-77-2.43a27.4 27.4 0 0 1-4.91-.89c-10.6-2.93-13.13-11.77-13.71-22.89-.25-4.62 2.16-6.81 5-9.8.53 0 .33.06 1 .08 34.08 1.14 68.81 1.21 103 .93 6.29-.06 13.95 0 21.46.06h3.45c6.81.07 13.3.17 18.31.23a741 741 0 0 0 95.76-5.34l.64-.07c4.46-.55 1.23-.39 5.12-.42 14.35 11.59.36 33.77-12.13 36.54Z" class="colorc3c9ce svgShape"/><path fill="#020202" d="M2674.21 2560.29c-29.28 6.49-55.16 4.41-84 5-1.15 0-2.3 0-3.46.08h-2.84c-5.41.18-13-.57-20-.66-10.37-.13-23.26-.13-34.25-.42h-1.44c-25.58-.76-52-.07-77-2.43a27.4 27.4 0 0 1-4.91-.89 34 34 0 0 1 6.72-3.53c12.14-4.7 25.59-3.84 38.58-4.64a149 149 0 0 0 64.09-19.23c2.32-1.33 4.82-2.73 7.34-4.22 6.21-3.65 12.66-7.77 17.35-12.27 7.41-7.1 11.13-17.37 17.78-25.24a49.26 49.26 0 0 1 5.61-5.67c22.69 9.66 47.64 12.33 71.12 19.69a1.61 1.61 0 0 1 .52.2c6.49 4.68 9.08 10.25 5.85 18a1.22 1.22 0 0 1-.07.17c4.46-.55 1.23-.39 5.12-.42 14.37 11.53.38 33.71-12.11 36.48Z" opacity=".21" class="color020202 svgShape"/><path fill="#ffffff" d="M2634.05 2527.51c.14 4.2-.43 6 2.31 8.16 20.65 15.95 55.19 8.33 78.68 6a5.48 5.48 0 0 1 2-.06c10.44 1.13 26.08 3.08 34.78 4.19s10.37 1.4 17.44 2.26a4.66 4.66 0 0 0 1.48 0c19.05-1.27 38.11-2.22 57.18-3a9.59 9.59 0 0 0 3.54-.71c12.41-4.62 26.21-9.29 38.34-14 4-1.55 5.56-3 7-6.38 3.22-7.74.64-13.32-5.86-18a1.66 1.66 0 0 0-.51-.21c-24.71-7.74-51-10.29-74.66-21.26-1.52-.7-2.77-1.59-4-2.26s-2.13-1.22-3.22-1.85c-2.44-1.42-4.76-2.85-7.11-4.32-1.06-.66-2.09-1.33-3.1-2-2.34-1.52-4.61-3.09-6.9-4.62l-3.14-2.1-7.1-4.9c-1.1-.75-2.19-1.53-3.18-2.22-2.5-1.76-4.93-3.55-7.38-5.2-1.24-.84-2.24-1.64-3.45-2.35-.77-.45-1.07-1.15-1.94-1.38-6.58-1.81-9.32-2.61-14.39 3.4-8.65 10.26-16.56 19.46-31.05 22.78-7.56 1.73-15.57-2.12-22.58-6.28-7.9-4.69-16-6.21-24.84-2.22-10.11 4.54-16.15 14.09-17.28 24.7a248.3 248.3 0 0 0-1.06 33.83Z" class="colorfff svgShape"/><path fill="#213949" d="M2782.85 2488.07c-.95 2.12-1 5 1.2 6.32s4.21-.18 5.14-2.3 1-5-1.17-6.32-4.21.23-5.17 2.3ZM2772.8 2481.62c-.94 2.11-1 5 1.15 6.31s4.19-.23 5.14-2.34 1-5-1.18-6.3-4.18.23-5.11 2.33ZM2762.7 2475.18c-.92 2.14-.93 5 1.25 6.32s4.18-.23 5.12-2.33 1-5-1.2-6.31-4.26.14-5.17 2.32ZM2752 2468.72c-1 2.2-.76 5 1.48 6.33s4.32-.14 5.27-2.33.8-5-1.45-6.33-4.3.13-5.3 2.33ZM2740.85 2462.2a5.17 5.17 0 0 0 2 6.43c2.28 1.25 4.16-.17 5.09-2.4s.61-5.1-1.7-6.35-4.51-.03-5.39 2.32Z" opacity=".82" class="color213949 svgShape"/><path fill="#213949" d="M2789.47 2478.36c1.08.59 2.13 1.21 3.19 1.83-1.55 3.28-3.21 6.82-4.73 10a2.14 2.14 0 0 1-1.82 1.45.58.58 0 0 1-.75-.22 2.54 2.54 0 0 1-.46-3.2c1.4-3.14 3.1-6.63 4.57-9.86ZM2779.31 2472.05c1 .64 2.06 1.3 3.08 2-1.55 3.14-3.08 6.62-4.54 9.7a2.18 2.18 0 0 1-1.82 1.46.56.56 0 0 1-.74-.22 2.59 2.59 0 0 1-.46-3.2c1.34-3.13 3.01-6.58 4.48-9.74ZM2769.2 2465.31c1.06.69 2.09 1.4 3.13 2.12-1.46 3.24-3 6.75-4.51 9.88a2.14 2.14 0 0 1-1.8 1.45.55.55 0 0 1-.74-.21c-.84-1.11-1.13-1.71-.51-3.2 1.34-3.22 3.01-6.75 4.43-10.04ZM2758.89 2458.16c1.08.73 2.13 1.48 3.19 2.24-1.54 3.43-3.15 7.12-4.7 10.45-.5 1.1-.88 1.19-1.85 1.45a.62.62 0 0 1-.79-.23c-.89-1.07-1.25-1.68-.61-3.19 1.45-3.45 3.23-7.2 4.76-10.72ZM2748.09 2450.58c1.15.78 2.28 1.57 3.41 2.37-1.67 3.74-3.34 7.76-5 11.42-.49 1.11-.83 1.19-1.8 1.47a.69.69 0 0 1-.82-.22c-.95-1-1.48-1.69-.87-3.23 1.55-3.86 3.43-7.92 5.08-11.81Z" opacity=".82" class="color213949 svgShape"/><path fill="#c3c9ce" d="M2646.74 2561.86c25.05 2.36 51.44 1.67 77 2.43 11.29.34 24.87.32 35.7.46 7 .09 14.59.84 20 .66 31.43-1.06 58.91 1.83 90.31-5.12 12.49-2.77 26.48-24.95 12.06-36.5-4.06 0-.36-.14-5.75.49a739.36 739.36 0 0 1-95.76 5.33c-11.31-.13-30.21-.43-43.22-.32-34.21.28-68.94.21-103-.93-.67 0-.46-.09-1-.08-2.79 3-5.21 5.19-5 9.8.7 12.67 3.92 22.39 18.66 23.78Z" class="colorc3c9ce svgShape"/><circle cx="3288.64" cy="678.06" r="15.63" fill="#55d3b9" class="color55d3b9 svgShape"/><circle cx="3358.12" cy="679.45" r="15.63" fill="#55d3b9" class="color55d3b9 svgShape"/><circle cx="3427.61" cy="680.84" r="15.63" fill="#55d3b9" class="color55d3b9 svgShape"/></g></g></svg>