<svg xmlns="http://www.w3.org/2000/svg" data-name="Layer 1" viewBox="0 0 3100 2900"><g data-name="3" fill="#000000" class="color000 svgShape"><path fill="#dcf4fe" d="M1202.37 2349.259c-66.51-4.05-140.26-5.85-191.25 37-22.16 18.64-37.8 52.65-20.66 76 7 9.61 18.2 15.2 29 20.21 253 117.05 542.52 119.36 815.91 117.08 141.11-1.18 285.4-3.68 425.53-18.46 139.46-14.71 275.63-50 411.05-85.18 82.79-21.48 173.74-48.79 218.13-121.9 8.31-13.68 14.75-29.27 13.629-45.23-2-28.66-26.92-49.74-50.59-66-31.92-22-66.61-42.21-105.05-47.09-32-4.07-64.22 2.78-95.71 9.62-78 16.95-155.94 34.12-234.2 49.74-94.92 18.95-190.28 35.63-285.62 52.31-155.87 27.26-313.42 54.78-472.29 48.83-152.38-5.72-305.52-17.66-457.88-26.93ZM2637.92 1799.889c-66.91 94.48-174.91 157.5-283.76 209.88-224.3 107.92-469.57 183.88-722.3 200.33-213.92 13.93-433.49-16.48-627.56-98.7a1113.337 1113.337 0 0 1-102.87-49.88c-230-126.72-389.31-330.4-490.07-554.94-17.4-38.77-33.06-78.18-47-117.91-12.78-36.33-22-72-27.25-106.89-17.85-119 10.88-229.47 105.29-330.15 42.33-45.14 89.16-86.27 136.07-127.32 88-77 162-169.66 243.77-254.21 59-61 122.07-117.8 197.4-161.46a653.166 653.166 0 0 1 78.26-38.47c87.2-36 182.89-55.22 278.5-63.34 250.27-21.25 506.7 6.84 740.2 89 134 47.15 260.4 112.1 373.8 195.76 195.61 144.42 249.21 422.79 269.61 640.16 17.56 187.2-7.91 406.87-122.09 568.14Z" class="colordcf4fe svgShape"/><path fill="#bdebfa" d="M1257.88 394.559v452H841.73v-252.07c59-61 122.08-117.8 197.4-161.46a653.305 653.305 0 0 1 78.27-38.47Z" class="colorbdebfa svgShape"/><path fill="#bdebfa" d="M2637.92 1799.879c-66.9 94.49-174.91 157.51-283.76 209.89-224.3 107.92-469.57 183.87-722.3 200.33-213.92 13.92-433.49-16.47-627.55-98.7a1113.529 1113.529 0 0 1-102.88-49.88c-230-126.71-389.31-330.4-490.06-554.94-17.41-38.78-33.07-78.18-47-117.92-12.78-36.32-22-72-27.25-106.88 249.33 59.93 745.09 123.86 1232.37-134.85 420.24-223.1 527.5-538.51 547.13-751.08 133.93 47.16 260.39 112.16 373.74 195.76 195.65 144.4 249.25 422.78 269.65 640.14 17.57 187.26-7.91 406.87-122.09 568.13Z" class="colorbdebfa svgShape"/><rect width="41.83" height="544.57" x="1963.899" y="1965.119" fill="#231f36" rx="19.59" class="color231f36 svgShape"/><path fill="#ffffff" d="M2415.589 611.199h24v1303.76h-24z" class="colorfff svgShape"/><path fill="#32303d" d="M2413.709 647.549h27.75v95.11h-27.75zM2409.049 907.999h37.07v204.38h-37.07z" class="color32303d svgShape"/><rect width="422.4" height="35.55" x="2213.279" y="611.199" fill="#ffffff" rx="17.77" class="colorfff svgShape"/><rect width="4.24" height="152.55" x="2234.439" y="646.739" rx="2.03" fill="#000000" class="color000 svgShape"/><path fill="#37d6ba" d="M2287.08 813.129v151.06a15 15 0 0 1-15 15h-68.16a15 15 0 0 1-15-15v-151.06a15 15 0 0 1 15-15h68.16a15 15 0 0 1 15 15Z" class="color37d6ba svgShape"/><path fill="#ffffff" d="M2207.15 801.759h61.7a14.05 14.05 0 0 1 14.05 14.05v145.71a14.05 14.05 0 0 1-14.05 14.05h-61.7a14.05 14.05 0 0 1-14.05-14.05v-145.71a14.05 14.05 0 0 1 14.05-14.05Z" opacity=".56" class="colorfff svgShape"/><path fill="#dc433d" d="M2209.46 854.529h57.08a10.7 10.7 0 0 1 10.7 10.7v93.82a10.7 10.7 0 0 1-10.7 10.7h-57.08a10.7 10.7 0 0 1-10.7-10.7v-93.82a10.7 10.7 0 0 1 10.7-10.7Z" class="colordc433d svgShape"/><path fill="#ffffff" style="isolation:isolate" d="M2287.08 813.129v20.63l-98.15 118.63v-30.55l95.92-116.57a14.92 14.92 0 0 1 2.23 7.86Z" opacity=".39" class="colorfff svgShape"/><path fill="#005f75" d="M2227.86 791.129h21.18a3.5 3.5 0 0 1 3.5 3.5 3.5 3.5 0 0 1-3.5 3.5h-21.18a3.5 3.5 0 0 1-3.5-3.5 3.5 3.5 0 0 1 3.5-3.5Z" class="color005f75 svgShape"/><path fill="#dcf4fe" d="M309.73 615.059c-30.3 76.54-9.83 177.73 62.59 216.89 50.5 27.3 114.92 18.86 164.44-10.2s86.12-76 115.46-125.32c49.94-84 139.36-284.37-23-302.84-119.21-13.58-277.74 115.98-319.49 221.47Z" class="colordcf4fe svgShape"/><path fill="#ffffff" stroke="#ffc5b9" stroke-miterlimit="10" stroke-width="5.11" d="M1278.74 2516.699c-73.91-15.69-160.46-76.94-171.6-89.6-6.76-7.67 6-47.75 17.16-78.09 7.21-19.7 13.72-35.3 13.72-35.3l102.25-12.14s-14.79 37.6-12.65 50.62a45.571 45.571 0 0 0 2.47 9c5.05 13.2 18.29 31.54 52.2 51.73 42.51 25.31 97.18 46.57 104.78 62.77s-34.42 56.7-108.33 41.01ZM1524.91 2449.829c-66.35-14.1-144.06-69.08-154.06-80.44-4-4.51-.41-21.47 5.31-40.29 8.69-28.61 22.41-61.51 22.41-61.51l91.8-10.91s-13.27 33.77-11.361 45.45a46.836 46.836 0 0 0 6.78 17.16c6.58 10.6 19 23.5 42.31 37.37 38.17 22.72 87.25 41.81 94.07 56.35s-30.91 50.9-97.26 36.82Z" class="colorfff svgShape colorStrokeffc5b9 svgStroke"/><path fill="#dc433d" d="M1240.27 2301.569s-14.79 37.6-12.65 50.62a45.571 45.571 0 0 0 2.47 9c-36.09 5.87-77-3.18-105.79-12.19 7.21-19.7 13.72-35.3 13.72-35.3ZM1479.01 2302.13a46.836 46.836 0 0 0 6.78 17.159c-30.85 25.2-78.3 18.45-109.63 9.81 8.69-28.61 22.41-61.51 22.41-61.51l91.8-10.91s-13.27 33.77-11.36 45.45Z" class="colordc433d svgShape"/><path fill="#fcb190" d="M2310.01 2210.85s5.07 120.31 8.3 149.36c0 0 68.69-4.15 71.91-8.76 0 0 5.07-131.84 10.6-153.05s-90.81 12.45-90.81 12.45ZM2479.25 2122.13s5.07 120.31 8.3 149.35c0 0 68.69-4.14 71.91-8.75 0 0 5.07-131.85 10.61-153s-90.82 12.4-90.82 12.4Z" class="colorfcb190 svgShape"/><path fill="#07a58a" d="M2152.32 1894.449s171.32-40.27 175.22-25.33-12.73 57.63-12.73 57.63-147.09 72-160.08 65.63-17.96-86.24-2.41-97.93Z" class="color07a58a svgShape"/><path fill="#37d6ba" d="M1698.01 1888.009s451.89-3.25 454.31 6.49 8.91 82.51 8.91 82.51-461.22 25.29-469.07 11-4.54-94.85 5.85-100Z" class="color37d6ba svgShape"/><path fill="#231f36" d="M1675.919 1976.959h485.3v32.48h-485.3z" class="color231f36 svgShape"/><path d="m2161.229 2009.449 153.58-55.23v-27.47l-153.58 50.21v32.49z" fill="#000000" class="color000 svgShape"/><path fill="#494868" d="M2072.259 1565.199h233.33v16.58h-233.33z" class="color494868 svgShape"/><rect width="231.71" height="76.38" x="2073.069" y="1491.949" fill="#37d6ba" rx="12.04" class="color37d6ba svgShape"/><path fill="#fcb190" d="M2144.6 1440.159s24.95 121.42 28.88 130.61 182.46 86 182.46 86-206.09-11.81-259.25-44-59.73-35.44-51.2-95.17 99.11-77.44 99.11-77.44Z" class="colorfcb190 svgShape"/><path fill="#faa67a" d="M1916.16 1212.559c-42.29 9-81.15-46-81.15-46a67.303 67.303 0 0 0 17.33-18.31 56.337 56.337 0 0 0 8.2-20.93c2.38-14.3 1.44-39.68.18-58.93-1-14.59-2.09-25.65-2.09-25.65l104.77 26.29s-.25 20.44 1 41.23c.9 15.78 2.62 31.75 5.91 39.15a27.28 27.28 0 0 0 4.18 6.64c9.33 11 25.06 12.15 26.679 12.8 1.84.8-42.72 34.7-85.01 43.71Z" class="colorfaa67a svgShape"/><path fill="#b11d19" d="M1964.35 1110.299a77 77 0 0 1-32.57-3.13c-23.36-7.29-53.34-26.49-71.06-38.74-1-14.59-2.09-25.65-2.09-25.65l104.77 26.29s-.25 20.44.95 41.23Z" class="colorb11d19 svgShape"/><path fill="#494868" d="M2651.95 2160.159s-86 40.7-166.71 26.91l-3.28 41.35s-44 27.57-113.54 23-103.71-27.56-103.71-27.56 13.79-157.52 24.28-227.09 22.32-106.33 22.32-106.33c-2.16.6-175 49.06-343.25 24.27-169.33-24.94-188.25-59.93-203.4-78.53s3.87-77.09 19.63-105 262.34-104.88 312.42-118.43 76.79 3.68 76.79 3.68l1.12.3c10.7 2.81 96.67 24.92 191.84 34.74 101.74 10.51 210 28.88 225.79 67s59.7 441.69 59.7 441.69Z" class="color494868 svgShape"/><path fill="#231f36" d="M2311.31 1890.409c-2.16.6-175 49.06-343.25 24.27-169.33-24.94-188.25-59.93-203.4-78.53s3.87-77.09 19.63-105 262.34-104.88 312.42-118.43 76.79 3.68 76.79 3.68l1.12.3c-21.12 14.29-49 41.66-69 57-27.07 20.83-128.5 69.82-206.9 84.52s-112.71 53.97-101.65 78.79 52.67 69.56 204.58 65.88 269.49-49 296.44-55.12 13.22 42.64 13.22 42.64Z" class="color231f36 svgShape"/><path fill="#b11d19" d="M1916.16 1212.559c-42.29 9-81.15-46-81.15-46a67.303 67.303 0 0 0 17.33-18.31c9.67 11.11 28.49 26.71 59.15 29.36 34.32 3 54.08-7.24 62.95-21.56 9.33 11 25.06 12.15 26.68 12.8 1.89.8-42.67 34.7-84.96 43.71Z" class="colorb11d19 svgShape"/><path fill="#dc433d" d="M2173.48 1616.459s-10.57-6.27-29.36 7.44-40.34 44.25-115.53 63.45-248.68 91.24-259.25 117.87-4.7 30.94-4.7 30.94-11 6.66-39.94-18.41-40.35-210.69-45.43-228.31-35.25-67.75-37.6-101.83 113.34-289.91 19.49-253.6a15.22 15.22 0 0 1-11.78-.2 14.198 14.198 0 0 1-4.58-3.46c-7.05-7.84 43.08-56 57.179-51.7s32.5 6.66 35.64 5.88 81.06-19.19 85.76-25.46 12.93-17.62 19.58-9 34.47 33.28 79.89 35.63 56.78-6.27 62.27-13.31-9.79-24.28 0-23.5 24.67 22.72 52.48 34.07 56.78 27 57.56 32.51 18.41 18.4 27.42 71.66 34.46 140.2 43.86 168.4c0 0-57.57 21.14-74.8 25.06 0 0 0 79.5 2.35 90.47 1.79 8.36 46.87 24 68.33 35.82 6.69 3.67 11.07 6.98 11.16 9.58Z" class="colordc433d svgShape"/><path fill="#b11d19" style="isolation:isolate" d="M2173.48 1616.459s-10.57-6.27-29.36 7.44-40.34 44.25-115.53 63.45-248.68 91.24-259.25 117.87-4.7 30.94-4.7 30.94-11 6.66-39.94-18.41-40.35-210.69-45.43-228.31-35.25-67.75-37.6-101.83 113.34-289.91 19.49-253.6a15.22 15.22 0 0 1-11.78-.2c3.39-5.28 9.1-12.09 17.35-15.21 14.5-5.48 40.33-16.84 52.87-11.75 38.2 15.51 55 51.59 63.07 89.59 10.3 48.71 23.27 97.09 42 143.3 17 41.9 43.84 79.43 63.73 120 13 26.46 25.55 53.3 42 77.8 14.08 20.93 34.52 51.09 61.64 54.9 17.77 2.49 34.75-9.11 50.5-15.56 25.18-10.31 54.35-21.93 74.53-40.81 13.43-12.55 30.44-24.15 45.23-29.18 6.71 3.66 11.09 6.97 11.18 9.57Z" opacity=".33" class="colorb11d19 svgShape"/><path fill="#231f36" d="M1675.919 1656.749h32.48v352.69h-32.48z" class="color231f36 svgShape"/><path fill="#faa67a" d="M1545.51 695.429c-2.88 36.52-12.17 59.9-35.87 81.68s-80.08 37.79-82.32 51.25c-1.28 7.69-4.14 19.9-5.45 32-1 9-1.091 18 1 25 4.8 16.34-18.91 31.72-50 30.43s-50.29-37.47-44.841-47.08 16.33-36.52 18.25-65-14.74-64.38-28.82-77.5-24-35.88 26.58-69.52 165.28-42.59 177.13-31.7 15.05 10.88 15.05 10.88 9.37 17.78 9.72 46.82q.07 6.04-.43 12.74Z" class="colorfaa67a svgShape"/><path fill="#dc6350" d="M1545.94 682.669c-7.38 4.92-19.13 11.13-33 12.55-23.64 2.43-69.59-11-95.77-13.94s-65 37.58-60.68 118.2c3.65 68.28 51 63.84 65.34 60.88-1 9-1.09 18 1 25 4.8 16.34-18.91 31.72-50 30.43s-50.29-37.47-44.84-47.08 16.33-36.52 18.25-65-14.74-64.38-28.82-77.5-24-35.88 26.58-69.52 165.28-42.59 177.13-31.7 15.05 10.88 15.05 10.88 9.41 17.76 9.76 46.8Z" class="colordc6350 svgShape"/><path fill="#37d6ba" d="M1512.75 1788.459c-1.43 14.61-3.29 66.81-5.18 132.54-4.38 151.76-9 375.68-9 375.68-49.52 33-135.61 5.9-135.61 5.9s-4.72-74.29-9.43-245.27c-4.68-169.75 21.28-362.93 21.65-365.7-.48 1.5-20.86 65.27-25.61 85.72-22.88 98.74-90.371 553.55-90.371 553.55-28.51 10.58-56.13 11.11-79.21 7.82-36.11-5.13-61.12-19.61-61.12-19.61s-4.71-81.36 0-174.53 23.59-265.31 23.59-265.31 61.32-352.57 77.83-413.89 217-63.68 253.15-68.72 44.03 343.47 39.31 391.82Z" class="color37d6ba svgShape"/><path fill="#07a58a" d="M1512.75 1788.459c-1.43 14.61-3.29 66.81-5.18 132.54-19.71 2.62-40.62 4.13-50.86.74-22.46-7.4 17-467.56-16.81-449.85s-128.54-4-140.32 0-3.93 397.4-9.81 426.84-84.681 27.9-96.171 60.84c-10 28.75-13 308.46-13.58 379.13-36.11-5.13-61.12-19.61-61.12-19.61s-4.71-81.36 0-174.53 23.59-265.31 23.59-265.31 61.32-352.57 77.83-413.89 217-63.68 253.15-68.72 44 343.47 39.28 391.82Z" class="color07a58a svgShape"/><path fill="#37d6ba" d="M1494.58 1433.099c.64 1.92-24.4 13.77-78.66 23.38s-131.46-3.53-147.15-11.53-5-306.83-12.81-369.64c-7.89-63.32 8.9-189.37 13.77-188.34 3.43.73 11.33-3 20.41-7.92 5.59-3 11.65-6.51 17.38-9.69 15.06-8.33 24.54-27.38 29.73-22.34 0 0 10.63 26.82 39.46 28.74s44.49-4.81 44.49-4.81 5.16-6.4 7.4 3.21 9.93 22.74 19.86 27.87c1 .52 2 1 3 1.42a78.08 78.08 0 0 0 18.13 5.3s18.57 95.77 20.18 117.24 4.81 407.11 4.81 407.11Z" class="color37d6ba svgShape"/><path fill="#0faf97" d="M1494.58 1433.099c.64 1.92-24.4 13.77-78.66 23.38s-131.46-3.53-147.15-11.53-5-306.83-12.81-369.64c-7.89-63.32 8.9-189.37 13.77-188.34 3.43.73 11.33-3 20.41-7.92 3.41 50 12.88 213.68 8.92 287.67-4.69 87.67 10.46 103.79 42.34 113.26s63-18.79 67-37.73 25.51-34.26 31.88-15.44 27.11 11.65 24.71-5.09c-2.12-14.9-.72-247.53-13.47-318.27a78.08 78.08 0 0 0 18.13 5.3s18.57 95.77 20.18 117.24 4.75 407.11 4.75 407.11Z" opacity=".6" class="color0faf97 svgShape"/><path fill="none" stroke="#00695f" stroke-miterlimit="10" stroke-width="2.56" d="M1268.77 1444.949s30.08 18.84 114.46 14.73 111.35-26.58 111.35-26.58" class="colorStroke00695f svgStroke"/><path fill="#683522" d="M1544.15 708.279c2.39-13.45 1.48-33.35 1.48-33.35-14.45 18.55-52.33 16.33-52.33 16.33 8-4.8 8.649-11.53 8.649-11.53-42.82 13.31-63.42-10.25-63.42-10.25-20.5 4.81-39.4-1-39.4-1-10.89 12.5-21.13 27.23-26.9 33.32s-4.81-9.29-4.81-9.29c1.92-20.82-41.32-29.15-44.52-1s20.82 38.12 20.82 38.12c-1.28 29.47 8.33 59.58 8.33 59.58s-37.16-10.89-46-34.91c-3.51-9.53-6.17-22.89-7-37.76-1.27-22.61 1.68-48.74 12.31-70.19 17.62-35.55 28.51-51.89 75.91-71.1s84.24-11.21 118.19-3.21 31.39 37.48 31.39 37.48c5.27 1.32 13.54 4.14 19 22.44 2.49 8.43 4.37 20.14 5.07 36.49 2.21 51.97-16.77 39.83-16.77 39.83Z" class="color683522 svgShape"/><path fill="#ffffff" d="M1360.79 761.279s34.18-13.64 43.79-44.39c0 0 44.84 24.35 80.39 28.19s46.34 5 46.34 5-28.72 75-88 83.69-82.52-72.49-82.52-72.49ZM1323.22 1391.449c-10.89 5.45-43.24 6.09-43.24 6.09s-1.28 206.27 0 261.37.64 241.19.64 241.19-8 3.84-61.18 22.74-152.15-9.29-188.34-31.71c0 0 27.23-145.74 40-206.6s37.48-207.56 39.72-243.75a377.54 377.54 0 0 0-1.92-66.62s-36.2-4.49-50.93-23.38 1.28-107.62 3.52-117.88 48-230.93 60.22-253.68 27.87-29.15 26.27-34.59 22.42-23.71 42.91-36.52 72.71-29.14 72.71-32.67 11.21-8.32 19.86-11.21c0 0 7.37 102.82 6.41 173s-1.28 242.78-1.28 242.78 28.51 2.25 33 6.73 12.52 99.27 1.63 104.71Z" class="colorfff svgShape"/><path fill="#fbd4cd" d="M1263.64 875.439s-40 110.83-39.07 115 24.34 25.63 24 30.11-12.81 35.23-9.29 46.12 49.69 99 49.69 99l-.36 114.35s-71.43-17-100.9-19.22c0 0 10.89-91.29 9.93-112.43s-3.52-46.12-6.73-48.68 7.37-5.77 10.57 6.08.65 121.08-3.84 137.41 70.47 24.67 77.83 21.46 8.65-86.8 2.89-99.29-45.17-79.76-45.811-97.37 10.57-43.89 7.37-49.33-21.78-18.9-22.42-27.55 39.71-111.74 39.71-111.74Z" class="colorfbd4cd svgShape"/><path fill="#ffffff" d="M1458.25 906.009s-3.48-15.64 0-13.76 18 8 18.49 11.25 3.29 10.32 3.29 10.32 67.89 38.45 76.15 55.33 13.89 30.49 29.36 105 48.77 226 48.77 226l-49.24 118.17-52.38-37.34s.8 181.31 4.08 275.57 4.69 249.48 4.69 249.48-48.3 5.16-83 1.41c0 0 15.48-275.28 15.48-329.21s.52-597.96-15.69-672.22Z" class="colorfff svgShape"/><path fill="#fbd4cd" d="M1108.94 1374.159s109.54 23.7 171 23.38v11.85s-55.41 3.84-104.1 6.09-64.47-6.1-64.47-6.1Z" class="colorfbd4cd svgShape"/><path fill="#dd938a" d="M1323.22 1391.449c-3.85-3.52-8.9-29.78-8.9-29.78-9-41.65 7.3-75 7.3-75 4.48 4.53 12.49 99.34 1.6 104.78Z" class="colordd938a svgShape"/><path fill="#fbd4cd" d="M1480.01 913.829s21.1 82.53 33.76 103.64c0 0-21.51 31.89-19.2 34.7s20.61 26.26 19.2 29.07-40.47 79.73-42.74 92.86l.12 7.51s46.84-86.3 47.78-96.15-15-26.26-15.48-33.76 16.5-27.2 15.52-34.23-35.4-101.59-35.4-101.59Z" class="colorfbd4cd svgShape"/><rect width="231.71" height="76.38" x="1634.309" y="1600.139" fill="#37d6ba" rx="12.04" class="color37d6ba svgShape"/><path fill="#fbd4cd" d="m1538.1 1101.199-5.41 279.88 15 10.67s.09-164.66 0-218.12c-.09-49.45-2.1-90.48-8-78.91a15.278 15.278 0 0 0-1.59 6.48Z" class="colorfbd4cd svgShape"/><path fill="#fcb190" d="M1925.01 1687.809c-2.91 9.54-53.86 44.54-59.89 43.37a15 15 0 0 1-9.14-6c-2.34 1.17-9.34.39-12.25-2.14s-1.75-7.2-1.75-7.2c-4.09 1.56-10.69-1-11.86-3.1s-.3-7.07-.3-7.07c.76-8.43 29.91-23 29.91-23-15.34-16.11-19.94-69.81-23.78-74.41s-40.65.76-119.67 0-166.47 0-188.71-23 1.53-81.31 20.12-125.36c15.72-37.26 88.77-178.36 110.86-220.85 1-1.87 1.83-3.55 2.6-5 2.39-4.62 3.74-7.18 3.74-7.18 5.3-7 31.06-14.25 41.94-14.25s31.89 17.69 49.2 36.17 19.84 111.62 15.75 126.4-34.23 19.25-34.23 19.25l-72.33 112.2s10.11 4.47 55.61 11.67 135.93 33.25 146 42.58 61.11 117.39 58.18 126.92Z" class="colorfcb190 svgShape"/><path fill="#dc6350" style="isolation:isolate" d="M1771.79 1375.129c-4.09 14.78-34.23 19.25-34.23 19.25l-72.33 112.2s-29.9-.67-39.6-4.83 54.629-65.73 79.59-101.24 57.22-112.53 27.46-142.89c-23.87-24.34-59.43-18.81-74.12-18.62 1-1.87 1.83-3.55 2.6-5 2.39-4.62 3.74-7.18 3.74-7.18 5.3-7 31.06-14.25 41.94-14.25s31.89 17.69 49.2 36.17 19.84 111.61 15.75 126.39Z" opacity=".47" class="colordc6350 svgShape"/><path fill="#b11d19" d="M1771.79 1375.129c-4.09 14.78-34.23 19.25-34.23 19.25s25.51-39.13 28.65-53.62 0-74-26.24-95.16c-26-21-78-11.76-78.81-11.61 2.39-4.62 3.74-7.18 3.74-7.18 5.3-7 31.06-14.25 41.94-14.25s31.89 17.69 49.2 36.17 19.84 111.62 15.75 126.4ZM2091.64 1480.569s1.51-48.94 0-87 1.77-61.7 7.67-52.51-3.23 91.68 20.7 130.84Z" class="colorb11d19 svgShape"/><path fill="#231f36" d="M2548.42 2188.37s-28.7-399.94-73.49-457.16-273.26-74.15-301.45-74.46-21.16 9.67-21.16 9.67 298.9 23.27 321 98 14.14 365.109 12 422.659c-.08 0 41.62 7.05 63.1 1.29Z" class="color231f36 svgShape"/><path d="M1392.91 1603.009a497.286 497.286 0 0 0-15.66 51.8q-3.101 12.91-5.58 26c-1.54 8.17-3.92 17.83-3.27 26.15a2.43 2.43 0 0 0 4.75.64c3.08-8.28 3.74-18.24 5.39-26.93q2.37-12.57 5.35-25c4.11-17.23 8.9-34.3 14.49-51.1 1.17-3.49-4.25-4.91-5.47-1.51Z" fill="#000000" class="color000 svgShape"/><path fill="#f4a644" d="M2315.87 2327.649s9.9 8.39 42.59 5.32 32.94-8.46 32.94-8.46 7.69-9.72 15.08 9.13 155.15 42.6 184.7 44.71 48 78.1-61.74 73.35-216.36-17.94-231.66-32.19 8.23-99.29 18.09-91.86ZM2485.65 2247.939s30.86 17 74.79-8.36c0 0 3.75-6.35 9.86 2.62s145.41 19.53 176 19 33.24 37.18-7.92 60.81-245.9.65-257 0-6.79-83.12 4.27-74.07Z" class="colorf4a644 svgShape"/><path fill="none" stroke="#231f36" stroke-miterlimit="10" stroke-width="6.81" d="M1894.12 1731.209s48.09 70.17 159 71.51 313.93-44.08 326 10.69-16.17 437.6-16.17 437.6" class="colorStroke231f36 svgStroke"/><path fill="#faa67a" d="M2005.47 1002.369c-3 12.61-53.21 57.12-85.85 69.17-5.48 2-10.46 3.15-14.64 3-29.08-.78-75.49-33.83-93.72-66.39 0 0-15.89-1.55-24.41-18.61s0-39.53 15.89-39.92 25.58-51.16 55.82-74.81 116.68-13.18 116.68-13.18 22.83 1.9 32.93 27.81a62.825 62.825 0 0 1 2.73 9c7.75 34.57-1.89 89.2-5.43 103.93Z" class="colorfaa67a svgShape"/><path fill="#dc6350" style="isolation:isolate" d="M2008.17 889.469a99.31 99.31 0 0 0-43.82-12.19c-33.67-1.12-99.46 35-107.64 52.73s-14 106.84 28.91 126.85c10.27 4.78 22.41 9.78 34 14.68-5.48 2-10.46 3.15-14.64 3-29.08-.78-75.49-33.83-93.72-66.39 0 0-15.89-1.55-24.41-18.61s0-39.53 15.89-39.92 25.58-51.16 55.82-74.81 116.68-13.18 116.68-13.18 22.83 1.93 32.93 27.84Z" opacity=".52" class="colordc6350 svgShape"/><path fill="#683522" d="M2009.01 891.609s-6.2-21.43-54.27-18.71-89.16 28.29-102.34 48.06-5 69-18.21 67.07-2.33-32.18-31.4-38.38c0 0-14-24 4.26-72.1s118.18-70.16 159.66-44.54 51.94 51 42.3 58.6Z" class="color683522 svgShape"/><path fill="#ffffff" d="M1839.95 1025.239s27.14-38.38 29.46-58.15c0 0 64.83 9.22 103.11 7s38.59-4.58 38.59-4.58 6.77-1.62 5.6 10-16.67 63.59-33.33 88.39-105.05 21.3-143.43-42.66Z" class="colorfff svgShape"/><path d="M1544.15 708.279c2.39-13.45 1.48-33.35 1.48-33.35-14.45 18.55-52.33 16.33-52.33 16.33 8-4.8 8.649-11.53 8.649-11.53-42.82 13.31-63.42-10.25-63.42-10.25-20.5 4.81-39.4-1-39.4-1-10.89 12.5-21.13 27.23-26.9 33.32s-4.81-9.29-4.81-9.29c1.92-20.82-41.32-29.15-44.52-1s20.82 38.12 20.82 38.12c-1.28 29.47 8.33 59.58 8.33 59.58s-37.16-10.89-46-34.91c-3.51-9.53-6.17-22.89-7-37.76 7.54-1.39 14.87-5 16.16-13.46 2.79-18.41 5.58-37.93 42.95-39 34.28-1 168.23 5.91 197.64-32.07 2.49 8.43 4.37 20.14 5.07 36.49 2.26 51.92-16.72 39.78-16.72 39.78Z" fill="#000000" class="color000 svgShape"/><path fill="#2d294c" d="M1672.47 1255.899v-1.67l-46.81-.59a5.287 5.287 0 0 1 0 .72 5.902 5.902 0 0 1-.1.91Z" class="color2d294c svgShape"/><path fill="#606089" d="M1624.11 1257.619a3.14 3.14 0 0 0 1.52-2.31 5.903 5.903 0 0 0 .1-.91 5.29 5.29 0 0 0 0-.72 3 3 0 0 0-1.49-2.34l-23.43-.29v6.32Z" class="color606089 svgShape"/><path fill="#dcf4fe" d="m1506.989 1256.119-.19 15.46 93.69 1.17.19-15.42.04-3.25.04-3.07.2-15.43-93.69-1.18-.2 15.3 13.14.17.16-12.36 5.94.08v.03l71.51.89-.16 12.46-.03 3.07-.05 3.25-.15 12.45-71.51-.89v.03l-5.95-.08.16-12.52-13.14-.16z" class="colordcf4fe svgShape"/><path fill="#0489ac" d="m1597.429 1269.739.15-12.45.05-3.25.03-3.07.16-12.46-71.51-.89-.19 15.53-.2 15.7 71.51.89z" class="color0489ac svgShape"/><path fill="#2d294c" d="m1441.729 1271.569.2-16.27 58.37.73.04-3.2.04-3.21-58.37-.73.2-16.23-5.94-.08-.25 19.44-.24 19.48 5.95.07zM1520.129 1256.279l-.16 12.52 5.95.08v-.03l.2-15.7.19-15.53v-.03l-5.94-.08-.16 12.36-13.14-.17-.04 3.21-.04 3.21 13.14.16z" class="color2d294c svgShape"/><path fill="#606089" d="m1506.689 1279.949.11-8.37.19-15.46.04-3.21.04-3.21.2-15.3.1-8.36-6.69-.09-.3 23.67-.04 3.21-.04 3.2-.3 23.83 6.69.09z" class="color606089 svgShape"/><path fill="#ffffff" d="M1585.94 1260.01h13.32v1.36h-13.32z" transform="rotate(-89.28 1592.6 1260.69)" class="colorfff svgShape"/><path fill="#ffffff" d="M1578.506 1259.919h13.32v1.36h-13.32z" transform="rotate(-89.28 1585.166 1260.599)" class="colorfff svgShape"/><path fill="#ffffff" d="M1571.073 1259.827h13.32v1.36h-13.32z" transform="rotate(-89.28 1577.733 1260.507)" class="colorfff svgShape"/><path fill="#ffffff" d="M1563.629 1259.735h13.32v1.36h-13.32z" transform="rotate(-89.28 1570.29 1260.415)" class="colorfff svgShape"/><path fill="#ffffff" d="M1556.196 1259.633h13.32v1.36h-13.32z" transform="rotate(-89.28 1562.856 1260.313)" class="colorfff svgShape"/><path fill="#ffffff" d="M1548.773 1259.552h13.32v1.36h-13.32z" transform="rotate(-89.28 1555.433 1260.232)" class="colorfff svgShape"/><path fill="#ffffff" d="M1541.329 1259.45h13.32v1.36h-13.32z" transform="rotate(-89.28 1547.99 1260.13)" class="colorfff svgShape"/><path fill="#ffffff" d="M1533.896 1259.368h13.32v1.36h-13.32z" transform="rotate(-89.28 1540.556 1260.048)" class="colorfff svgShape"/><path fill="#ffffff" d="M1526.452 1259.256h13.32v1.36h-13.32z" transform="rotate(-89.28 1533.112 1259.936)" class="colorfff svgShape"/><path fill="#faa67a" d="M1556.11 1265.179c-.71 4.74-7 10.18-20.84 14.79-21.15 7.06-54.78 21.79-53.18 23.07s20.5 1.28 26.59 6.08 4 24.34-5.45 27.87c0 0 4.5 21.78-8.64 23.71 0 0 5.43 18.89-31.71 18.25q-4-.08-8.21-.24c-36.32-1.4-82.76-7.81-95.26-12.57-13.45-5.12-45.09-4.48-45.09-4.48s-10.64-32.68 3.14-65.35c0 0 32.67-.64 38.75-3.84s27.87-16.65 42.92-26.9 23.39-39.4 31.07-38.76 7.69 32 3.53 39.72a71.32 71.32 0 0 0-6.09 16.65s36.83-4.48 50.28-6.72 67.91-23.39 75-18c2.38 1.94 3.56 4.23 3.19 6.72Z" class="colorfaa67a svgShape"/><path fill="#dc6350" style="isolation:isolate" d="M1556.11 1265.189c-.71 4.74-7 10.18-20.84 14.79-21.15 7.06-54.78 21.79-53.18 23.07s20.5 1.28 26.59 6.08 4 24.34-5.45 27.87c0 0 4.5 21.78-8.64 23.71 0 0 5.43 18.89-31.71 18.25q-4-.08-8.21-.24c1.53-7.52 5.67-29 5.5-40.16-.2-13.74 5.05-32.53 17.58-38.39s74.41-30.74 78.36-34.98Z" opacity=".26" class="colordc6350 svgShape"/><path fill="#b11d19" d="M1465.92 1328.659c6.18 1.08 12.35 2.65 18.42 4.21s12.23 3.29 18.21 5.34c2.649.91 3.81-3.31 1.159-4.19a130.78 130.78 0 0 0-37.54-7.24c-1.06-.07-1.32 1.69-.25 1.88ZM1463.2 1354.269c9.9 4.62 20.71 7 31.51 8.34l-1.11-4.08a3.897 3.897 0 0 0-1 .75c-1.57 1.54.07 3.88 2 3.49a4.199 4.199 0 0 0 1.19-.46 2.22 2.22 0 0 0 1-2.47 2.3 2.3 0 0 0-2.111-1.61c-10.38-1.24-20.5-3.69-30.69-5.9-1.11-.24-2 1.4-.82 1.94Z" class="colorb11d19 svgShape"/><path fill="#07a58a" d="M1329.95 869.679a69.73 69.73 0 0 0 33.27 24.87 83.83 83.83 0 0 0 20.79 4.46c6.51.57 14.8 1 20.12-3.33 2.41-2 .65-5.28-1.64-6.21-5.17-2.09-12.17-.61-17.68-.93a72.624 72.624 0 0 1-18.17-3.52 89.56 89.56 0 0 1-32.33-18.74c-2.21-2-6.37.7-4.39 3.39Z" class="color07a58a svgShape"/><path fill="#ffffff" d="M1365.86 692.359a95.762 95.762 0 0 0 20.06 23.91c3.91 3.26 8 6.34 12.09 9.32s8.1 6.64 13.25 6.74c2.76.06 3.86-2.82 2.89-5-1.84-4.15-6.36-6.36-9.95-8.83q-6.41-4.41-12.5-9.22c-7.76-6.13-15.65-12.28-22.3-19.63-1.72-1.9-4.88.56-3.54 2.73ZM1341.71 732.559c4.85 6.44 8.51 13.81 13.15 20.45 3.24 4.64 8.379 15.3 14.93 15a2.79 2.79 0 0 0 2.58-2c1.34-3.87-1.15-6.57-3.34-9.61-2.42-3.34-5-6.55-7.571-9.77a84.782 84.782 0 0 0-17.3-16.54c-1.42-1-3.52 1-2.45 2.46Z" class="colorfff svgShape"/><path fill="#b11d19" d="M1337.7 693.279a11.48 11.48 0 0 0 .7 7.19c.9 2.34 1.78 4.89 3.62 6.67a7.23 7.23 0 0 0 12.08-7c-.61-2-1.84-3.56-2.87-5.36a14.64 14.64 0 0 0-4.34-5.2c-3.39-2.34-8.16.09-9.19 3.73ZM1791.78 974.459a11.45 11.45 0 0 0 .7 7.18c.9 2.35 1.78 4.89 3.62 6.68a7.23 7.23 0 0 0 12.08-7c-.61-2-1.84-3.56-2.87-5.36a14.67 14.67 0 0 0-4.34-5.21c-3.39-2.33-8.16.09-9.19 3.74Z" class="colorb11d19 svgShape"/><path fill="#bdebfa" d="M1404.78 736.689c3.87 3.17 7.91 6.15 12.05 9s8.23 5.84 13 7.26c2.15.65 3.27-2 2-3.49-3-3.6-7.25-6.09-11.1-8.66-4.22-2.8-8.59-5.43-13.07-7.8-2.26-1.19-5.07 1.94-2.88 3.74ZM1393.79 747.529a81.706 81.706 0 0 0 12.22 13.82c3.78 3.56 8.69 9 13.89 10.19 1.55.35 3.59-1.11 2.88-2.88-2-4.89-7-8.43-10.75-12.08-4.361-4.31-8.71-8.92-13.5-12.74-2.48-2-6.861.55-4.78 3.69ZM1382.01 758.479q3.69 6.21 7.47 12.36c2.27 3.69 4.35 8 7.61 11 1.57 1.39 4.53.07 3.77-2.2-1.39-4.17-4.43-7.77-6.83-11.42q-4-6-7.84-12.14c-1.66-2.62-5.77-.26-4.18 2.44ZM1373.23 768.889c4 9.2 9.72 20.4 18.45 26a1.68 1.68 0 0 0 2.28-2.29c-2.67-4.36-6.43-8.11-9.45-12.25a90.259 90.259 0 0 1-8-13.38c-1.1-2.25-4.28-.28-3.32 1.94Z" class="colorbdebfa svgShape"/><path d="M1455.19 716.869a7.922 7.922 0 0 0-2 .29c.59-.17-2 .73-2 1l.68-.23a4.54 4.54 0 0 0-2 1.06 14.284 14.284 0 0 0-1.38 1.2c-.55.55-1.08 1.13-1.59 1.73a7.51 7.51 0 0 0-1.93 3.18 9.814 9.814 0 0 0 0 3.74 6.21 6.21 0 0 0 7.63 4.34c1.71-.66 3.24-1.41 4.16-3.09.28-.5.47-1.07.72-1.59s.54-1 .8-1.53a9.538 9.538 0 0 0 1-3.7l-.78 2.86a9.54 9.54 0 0 0 1.34-4.49 4.85 4.85 0 0 0-4.77-4.77ZM1518.13 732.339a24.355 24.355 0 0 1-1.91 3.16 13.001 13.001 0 0 0-1.25 5.88 5.49 5.49 0 0 0 10.76 1.45 13.468 13.468 0 0 0 .83-4.82 11.82 11.82 0 0 1-.17-3.4c1.25-5.41-6.42-7.43-8.26-2.27Z" fill="#000000" class="color000 svgShape"/><path fill="#683522" d="M1449.35 702.759a53.631 53.631 0 0 1 15.94.89c4 .86 8 3.45 12.06 2.56a1.74 1.74 0 0 0 1-2.53c-2.32-4.17-8.53-4.87-12.87-5.49a42.63 42.63 0 0 0-16.64 1c-2 .47-1.59 3.74.48 3.56ZM1517.81 713.309a24.49 24.49 0 0 1 10.81 4.46c1.95 1.4 5.14 3.87 6.42.34a2.63 2.63 0 0 0-.67-2.53c-3.85-4.41-10.43-5.94-16-6.08-2.13 0-2.72 3.5-.52 3.81Z" class="color683522 svgShape"/><path fill="#bdebfa" d="M1874.01 987.889a181.317 181.317 0 0 0 23.05 8.72c6.2 2 15.18 6.29 21.5 3.62 1.67-.7 1.4-2.88.51-4-2.14-2.68-5.2-3.18-8.41-4.1-3.82-1.09-7.66-2.12-11.49-3.16-7.68-2.09-15.23-4.46-23-6.26-3-.7-5.22 3.74-2.18 5.18ZM1871.57 1003.699c4.25 2.54 8.62 6 13.45 7.21a2.27 2.27 0 0 0 2.19-3.77c-3.39-3.64-8.54-5.78-12.82-8.27-3.12-1.81-5.91 3-2.82 4.83ZM1860.89 1022.869c5.66 3.61 11.3 8.15 18.15 8.87 1.52.16 1.889-1.77 1.12-2.71-4.17-5.12-10.93-7.57-16.57-10.77-3-1.7-5.591 2.77-2.7 4.61Z" class="colorbdebfa svgShape"/><path fill="#ffffff" d="M1819.59 965.009c9 2.18 18.19 3.77 27.28 5.77 4.38 1 8.76 1.82 13.17 2.62s9.1 2.33 13.48 1.76c3.47-.46 6.24-5.71 2.06-7.62-3.92-1.79-8.08-1.91-12.33-2.41-4.79-.56-9.57-1.11-14.38-1.5-9.59-.78-19.14-2-28.75-2.56-2.26-.13-2.72 3.41-.53 3.94ZM1810.4 1011.529c5.41 3.86 12.07 6.21 18.15 8.84 5.58 2.41 11.54 6 17.52 7.07a2.23 2.23 0 0 0 1.7-4c-5.21-3.84-12.43-5.87-18.38-8.44-5.68-2.45-11.57-5.41-17.64-6.62a1.76 1.76 0 0 0-1.35 3.2Z" class="colorfff svgShape"/><path d="M1923.63 946.329a7.82 7.82 0 0 0-5.51-.74 8.58 8.58 0 0 0-4.91 4 12.21 12.21 0 0 0-1.32 5.25 11.861 11.861 0 0 0-.06 1.33c0 .6 0 .35.15-.74a4.271 4.271 0 0 1-.3 1c-1.42 3.84 1.58 8.72 5.45 9.6s8.77-1.17 9.6-5.45a30.576 30.576 0 0 0 .14-6.89c0-.84-.76-3.45-.17-1.73.08.72.11.82.09.28l-.25-1.82q-1.16-2.77-.43-1c.23.67.3.83.21.47a5.79 5.79 0 0 0-2.69-3.5ZM1996.45 951.779a42.058 42.058 0 0 0-1.73 7.42c-.54 3.57.89 7.62 4.84 8.52 3.48.79 7.7-1 8.51-4.84a25.662 25.662 0 0 0 .08-11.1 6.11 6.11 0 0 0-5.85-4.45 6.33 6.33 0 0 0-5.85 4.45Z" fill="#000000" class="color000 svgShape"/><path fill="#b11d19" d="M1837.37 1177.009a127.08 127.08 0 0 0 51.93 29.52 146.914 146.914 0 0 0 29.41 5.4c8 .65 20.74 2.2 25.32-6.24a3.62 3.62 0 0 0-3.1-5.4c-4.07.09-8 1.29-12.11 1.38a107.603 107.603 0 0 1-13.55-.69 134.295 134.295 0 0 1-25.65-5.36 169.139 169.139 0 0 1-48-24.18c-3.3-2.35-7.18 2.83-4.3 5.57ZM1960.01 1203.009q6.35-2 12.64-4.24c3.59-1.26 7.46-2.28 10.36-4.8a2.65 2.65 0 0 0-1.86-4.49c-3.84.21-7.39 2.22-10.91 3.68-3.86 1.62-7.75 3.17-11.65 4.69-3.14 1.22-1.92 6.23 1.42 5.16ZM1842.13 1716.789a15.509 15.509 0 0 0 4.16-2.33c1.37-.88 2.72-1.78 4.07-2.68q4.17-2.76 8.31-5.56t8.12-5.4c1.43-1 2.87-1.87 4.29-2.83 1.24-.83 2.82-1.59 3.63-2.89.5-.82-.33-1.58-1.13-1.47-1.53.22-3 1.52-4.28 2.34s-2.71 1.8-4.06 2.7q-4.17 2.77-8.31 5.59t-8 5.58q-2.085 1.5-4.16 3a14.314 14.314 0 0 0-3.38 3c-.34.48.22 1.1.74 1ZM1858.01 1725.069c4.29-2 8.28-4.72 12.35-7.15s8.16-4.89 12.25-7.31 8.2-4.83 12.32-7.21q3.09-1.79 6.2-3.55c1.87-1.08 4.43-2.1 5.83-3.77a1.27 1.27 0 0 0-1.22-2.1c-2.15.35-4.35 2-6.22 3.12-2.07 1.18-4.12 2.38-6.17 3.59q-6.27 3.67-12.49 7.42-6.22 3.75-12.17 7.46a121.765 121.765 0 0 0-11.9 7.93c-.94.76.26 2 1.22 1.57ZM1912.12 1689.009l1.84-.43c.29-.07.58-.14.87-.23a1.9 1.9 0 0 0 1.11-.66.69.69 0 0 0-.25-.93 1.82 1.82 0 0 0-1.3 0 8.74 8.74 0 0 0-.88.23l-1.81.52a.79.79 0 0 0-.56.967l.01.033a.81.81 0 0 0 .999.56ZM1883.85 1688.009a13.281 13.281 0 0 1 1.67 0l.81.06a1.22 1.22 0 0 0 .57 0 .91.91 0 0 0 .64-.81.93.93 0 0 0-.48-.79 1.84 1.84 0 0 0-.73-.16l-.81-.07a13.281 13.281 0 0 0-1.67 0 1 1 0 0 0-.63.26.92.92 0 0 0-.26.63.89.89 0 0 0 .89.88Z" class="colorb11d19 svgShape"/><path fill="#494868" d="M1634.309 1674.119h233.33v16.58h-233.33z" class="color494868 svgShape"/><path fill="#005f75" d="M1004.31 1526.169v585.23a1113.527 1113.527 0 0 1-102.88-49.88c-230-126.71-389.31-330.4-490.06-554.94h573.35a19.65 19.65 0 0 1 19.59 19.59ZM787.9 1398.469c-4.31-9.21-16.65-12.55-27.56-7.45s-16.27 16.71-12 25.92a12.566 12.566 0 0 0 .67 1.26l-5.4 9.26-44.08 27-26.22 17.7s-35 18.46-42.18 22.19c-4.9 2.55-4.93 4.29-1.7 3.53 2.55-.62 31.84-14.65 48.9-21.88 6-2.52 30-16.54 30-16.54l62.3-33.28a25.836 25.836 0 0 0 5.31-1.81c10.92-5.08 16.27-16.68 11.96-25.9Zm-14 21.54c-5.46 2.55-11.39 2.23-15.64-.36l-2.43-1.92a11.62 11.62 0 0 1-2.24-3.22c-3.17-6.78.77-15.33 8.81-19.09s17.13-1.31 20.3 5.48-.77 15.35-8.81 19.11Z" class="color005f75 svgShape"/><path fill="#ffffff" d="M805.68 1439.929c-4.31-9.22-16.65-12.55-27.56-7.45l-.31.15.62-.67-57.67 19.74-7.67-5-44.26 25.51s-36 19.08-39.07 20.7c-5.51 3-5 4.49 7.3.11 5.21-1.85 36-13.69 36-13.69l86-30.57 6.45 7.88a13.553 13.553 0 0 0 .69 1.73c4.31 9.23 16.65 12.56 27.56 7.46s16.25-16.68 11.92-25.9Zm-14 21.53c-8 3.76-17.14 1.31-20.31-5.49s.77-15.34 8.81-19.1 17.14-1.3 20.31 5.49-.78 15.34-8.82 19.1Z" class="colorfff svgShape"/><path fill="#fcb190" d="M712.01 1460.819a3.88 3.88 0 1 0-5.154-1.886l.003.006a3.87 3.87 0 0 0 5.138 1.886Z" class="colorfcb190 svgShape"/><path fill="#07a58a" d="M578.44 1475.709s31.11-3.54 34.38-1.91 26.19 13.69 29.46 14.51 36 10.16 40.39 9.5c3.44-.51 6.23-6.73-3.78-11.32s-20.84-9.18-18.31-10.58 41.11.19 46.19.72c6.24.65 16.75.15 17.73-5.1s-10.59-6.31-17.4-7-20.67-2.94-20.76-4 33 .47 42.09-3.4c3.15-1.33 4.76-8.7-3.21-9.59s-40.2 0-39.38-.8 31.34-2 35-3.47 3.94-3.77 1.63-6.56-26.91-2.78-31.5-3.43-14.68.26-15-.73 22.65-.18 26.5-.92 6.41-3 4.92-4.92-7.62-4-21.34-5.73c-8.89-1.12-32.07-.23-40.86 1.33s-29.12 11.91-34.46 10.68-31.84-5.23-32.82-4.9.53 47.62.53 47.62Z" class="color07a58a svgShape"/><path fill="#37d6ba" d="M583.48 1498.569s25.88-17.61 29.54-17.68 29.55-.07 32.84-.88 36.53-7.74 40.16-10.38c2.81-2.06 2.38-8.86-8.62-8.26s-22.73 1.57-21.12-.85 36.47-19 41.21-20.87c5.83-2.32 14.89-7.65 13.32-12.75s-12.32-.66-18.68 1.86-19.67 7-20.24 6.1 29.41-14.93 35.67-22.58c2.17-2.65.17-9.92-7.31-7s-35.561 18.73-35.22 17.62 26.82-16.35 29.32-19.34 1.73-5.17-1.6-6.57-25.12 10.07-29.49 11.63-12.88 7.06-13.63 6.35 20-10.71 23-13.15 4.29-5.6 2.06-6.66-8.62 0-21.55 4.88c-8.39 3.14-28.51 14.72-35.55 20.19s-20.23 24.09-25.52 25.49-30.61 10.18-31.34 10.94 22.75 41.91 22.75 41.91Z" class="color37d6ba svgShape"/><path fill="#ffffff" d="M511.279 1394.669h43.16v39.84h-43.16z" class="colorfff svgShape"/><path fill="#0489ac" d="M558.68 1418.279h-51.67a8.86 8.86 0 0 0-8.86 8.85v69.35a8.86 8.86 0 0 0 8.86 8.85h51.64a8.85 8.85 0 0 0 8.85-8.85v-69.35a8.85 8.85 0 0 0-8.82-8.85Z" class="color0489ac svgShape"/><path fill="#005f75" d="M562.4 1410.899v-14c0-4.89-3.3-8.85-7.37-8.85h-43c-4.07 0-7.37 4-7.37 8.85v14Z" class="color005f75 svgShape"/><path fill="#ffffff" d="M558.42 1406.679a1.21 1.21 0 0 1-1.268 1.15h-.003a1.2 1.2 0 0 1-1.26-1.137v-12.383a1.2 1.2 0 0 1 1.257-1.14h.003a1.21 1.21 0 0 1 1.27 1.14ZM553.17 1406.679a1.21 1.21 0 0 1-1.268 1.15h-.003a1.2 1.2 0 0 1-1.26-1.137v-12.383a1.2 1.2 0 0 1 1.257-1.14h.003a1.21 1.21 0 0 1 1.27 1.14ZM547.92 1406.679a1.21 1.21 0 0 1-1.268 1.15h-.003a1.2 1.2 0 0 1-1.26-1.137v-12.383a1.2 1.2 0 0 1 1.257-1.14h.003a1.21 1.21 0 0 1 1.27 1.14ZM542.67 1406.679a1.21 1.21 0 0 1-1.268 1.15h-.003a1.21 1.21 0 0 1-1.26-1.15v-12.37a1.21 1.21 0 0 1 1.26-1.14 1.21 1.21 0 0 1 1.27 1.14ZM537.42 1406.679a1.2 1.2 0 0 1-1.248 1.15h-.013a1.21 1.21 0 0 1-1.27-1.147v-12.373a1.21 1.21 0 0 1 1.27-1.14 1.2 1.2 0 0 1 1.26 1.137v.003ZM532.18 1406.679a1.21 1.21 0 0 1-1.268 1.15h-.003a1.21 1.21 0 0 1-1.27-1.147v-12.373a1.21 1.21 0 0 1 1.27-1.14 1.21 1.21 0 0 1 1.27 1.14ZM526.92 1406.679a1.2 1.2 0 0 1-1.248 1.15h-.013a1.21 1.21 0 0 1-1.27-1.147v-12.373a1.21 1.21 0 0 1 1.27-1.14 1.2 1.2 0 0 1 1.26 1.137v.003ZM521.68 1406.679a1.21 1.21 0 0 1-1.268 1.15h-.003a1.21 1.21 0 0 1-1.27-1.147v-12.373a1.21 1.21 0 0 1 1.27-1.14 1.21 1.21 0 0 1 1.27 1.14ZM516.43 1406.679a1.21 1.21 0 0 1-1.268 1.15h-.003a1.21 1.21 0 0 1-1.27-1.147v-12.373a1.21 1.21 0 0 1 1.27-1.14 1.21 1.21 0 0 1 1.27 1.14ZM511.18 1406.679a1.21 1.21 0 0 1-1.268 1.15h-.003a1.2 1.2 0 0 1-1.26-1.137v-12.383a1.2 1.2 0 0 1 1.257-1.14h.003a1.21 1.21 0 0 1 1.27 1.14Z" class="colorfff svgShape"/><path fill="#f7f9f9" d="m860.56 1453.459-10.66 34.88a24.13 24.13 0 0 1-23.05 17h-331.1a24.08 24.08 0 0 1-23.22-17.78l-9.19-34.09Z" class="colorf7f9f9 svgShape"/><path fill="#717d7f" style="isolation:isolate" d="m642.849 1453.459-29.94 51.87h-9.71l29.95-51.87h9.7zM668.259 1453.459l-29.95 51.87h-9.7l29.95-51.87h9.7zM685.529 1453.459l-29.95 51.87h-9.7l29.95-51.87h9.7zM860.56 1453.459l-10.66 34.88a24.13 24.13 0 0 1-23.05 17H675.71l30-51.87Z" opacity=".4" class="color717d7f svgShape"/><path fill="#717d7f" d="M451.169 1448.319h416.86v5.14h-416.86z" class="color717d7f svgShape"/><path fill="#bdebfa" d="M326.65 950.129a80.703 80.703 0 0 0-7.59 3.06c-2.8 1.4-5.21 3.78-7.64 5.77-1.52 1.25-3 2.51-4.54 3.78-.45.38-1 .93-1.48 1.42a8 8 0 0 0-1.31.77c-7.85 5.42-14.72 13.49-20.89 20.75a308.996 308.996 0 0 0-31.5 44.84c-17.87 30.75-32.5 64.19-41.63 98.6a415 415 0 0 0 1.61 218.94c5.91 20.92 14.66 41 24.56 60.32 4.4 8.6 8.93 17.32 14.37 25.31 6.53 9.59 15.2 20.59 26.16 25.29 5.11 2.18 10.09 3 15.17 0 4.79-2.8 7.11-7.6 7.44-13 .47-7.69-1.61-15.73-3.78-23.12a104.516 104.516 0 0 0-3.78-9.84c-1.14-2.84-2.37-5.65-3.59-8.46l-.09-.21c-5.23-12.89-9.93-26-13.86-39.32-7.49-25.45-14.21-51-18.08-77.3a422.21 422.21 0 0 1-.54-103.26 436.151 436.151 0 0 1 27.86-101.64c8.31-19.15 18.27-37.33 28.65-55.44 5.34-9.32 10.69-18.76 16.68-27.67a65.25 65.25 0 0 0 5.46-10.08c.14-.17.32-.42.56-.76.7-1 1.25-2.09 1.88-3.11 3.43-5.64 6.53-10.74 8.38-17.18 2.95-10.26-7.54-22.58-18.48-18.46ZM2799.3 799.009q-1.85-9.21-3.95-18.36a321.478 321.478 0 0 0-10.63-36.64 625.78 625.78 0 0 0-33.13-76.86 682.496 682.496 0 0 0-90.11-132c-35.26-40.74-76.88-76.26-121.23-106.73-45.2-31.05-94.79-55.1-146.41-73.48-24.87-8.85-50.44-15-76.25-20.36a289.468 289.468 0 0 0-43.8-5.62c-13-.7-26-1.34-39-1.68-6.43-.16-12.87.44-19.27.92-7.1.53-13 5-13.94 12.31a14.18 14.18 0 0 0 10.16 15.57c24.14 6.5 48.25 12.28 71.81 20.78 11.67 4.21 24 6.52 35.64 10.89s23.59 8.34 35.27 12.84c6.88 2.91 13.78 5.74 20.67 8.6a689.561 689.561 0 0 1 145.73 85.12 661.38 661.38 0 0 1 111.37 112c34.24 45 62.27 94.49 84.59 146.45 5 12.28 9.61 24.73 14.79 37l-3.3-7.82q5.34 12.69 10.16 25.6c1.52 4.06 3 8.15 4.42 12.24a99.81 99.81 0 0 0 2.43 6.26 39.998 39.998 0 0 0 6.929 10.46c.5.59 1 1.15 1.55 1.7 2 2.7 4.4 5.18 6.55 7.67 11.09 12.82 33.45 5.67 37.39-9.87a90.91 90.91 0 0 0 2.08-9.47 62.416 62.416 0 0 0 1.53-7.94c.86-6.58-.77-13.13-2.05-19.58ZM2874.59 1093.949a401.644 401.644 0 0 0-10-56.9c-4.54-18.15-9.64-37-17.81-53.88-4.06-8.4-8.26-16.76-12.64-25-2.92-5.5-5.7-11.69-10.2-16.06-1.7-1.64-8-4.73-4-3.14 1.25 1 1.45 1.07.61.23a19.58 19.58 0 0 1-1.43-1.71c-1.58-1.92-3.15-3.86-4.75-5.77-4.88-5.84-15.59-6.85-21.85-2.82a18.77 18.77 0 0 0-8.28 20.36c.3 1.41 2.16 6.47 1.58 7.62l-.24-2.44a9.74 9.74 0 0 1 0 2.16 21.812 21.812 0 0 0 .67 8.24c1.28 5 3.19 10 4.63 14.94 2.86 9.84 4.43 20 7.2 29.81a442.837 442.837 0 0 1 12 57.21 543.667 543.667 0 0 1 4.64 61.78c.12 10.81-.57 21.58.66 32.32 1.29 11.22 1.87 22.5 3 33.73 1 9.8 6.51 20.27 17.13 22.5a49.824 49.824 0 0 0 6.21.84c11 .72 18.899-7.91 22.5-17.13 6.84-17.51 11.8-36.93 12.45-55.7a377.191 377.191 0 0 0-2.08-51.19Z" class="colorbdebfa svgShape"/><path fill="#ffffff" d="M822.209 1452.809h155.6v18.49h-155.6z" class="colorfff svgShape"/><path fill="#ffffff" d="M888.32 1392.619s-.78 99.93-.36 103.4a12.1 12.1 0 0 0 12.21 9.8c5.42-.06 11.6-1.48 12.93-10.35s.79-102.71.79-102.71Z" class="colorfff svgShape"/><path fill="#bc0202" d="m890.83 1415.009-.28 77.42a9.58 9.58 0 0 0 9.274 9.876q.203.006.405.004h.57a9.61 9.61 0 0 0 9.867-9.346q.005-.187.003-.374l.28-77.52Z" class="colorbc0202 svgShape"/><path fill="#ffffff" d="M928.59 1392.659s-.43 99.94 0 103.41 4.23 10.07 11.92 9.75c5.41-.23 11.92-1.52 13.22-10.4s.43-102.7.43-102.7Z" class="colorfff svgShape"/><path fill="#bc0202" d="M931.16 1406.559v85.85a9.56 9.56 0 0 0 9.264 9.847q.222.007.445.003h.56a9.61 9.61 0 0 0 9.839-9.376q.004-.192.001-.384v-85.94Z" class="colorbc0202 svgShape"/><path fill="#ffffff" d="M847.42 1392.659s-.43 99.94 0 103.41 4.87 10.07 12.13 9.75c5.42-.24 11.7-1.52 13-10.4s.44-102.7.44-102.7Z" class="colorfff svgShape"/><path fill="#9fc3d3" d="M913.46 1391.419a10.928 10.928 0 0 1-1.89.28v-2.84a1.85 1.85 0 0 0-1.81-1.88l-17.6-.08a1.86 1.86 0 0 0-1.84 1.86v2.85c-1.32-.16-2.12-.31-2.12-.3a.73.73 0 0 0-.62.15.78.78 0 0 0-.28.59l-.12 101.93a12.22 12.22 0 0 0 4.12 9.17 13.61 13.61 0 0 0 9 3.43h.71a13.49 13.49 0 0 0 10.11-4.41 12.22 12.22 0 0 0 3.17-8.07l.12-101.94a.77.77 0 0 0-1-.74Zm-.69 102.67a10.62 10.62 0 0 1-2.78 7.06 12 12 0 0 1-9 3.91h-.72a12 12 0 0 1-8-3 10.67 10.67 0 0 1-3.62-8l.12-101 1.5.2v4a1.85 1.85 0 0 0 1.819 1.88l17.6.09a1.87 1.87 0 0 0 1.83-1.87v-4a6.804 6.804 0 0 0 1.27-.15ZM954.52 1391.559a.73.73 0 0 0-.64-.14 15.104 15.104 0 0 1-1.89.27v-2.84a1.86 1.86 0 0 0-1.81-1.88l-17.6-.08a1.86 1.86 0 0 0-1.84 1.86v2.85c-1.33-.16-2.13-.31-2.13-.3a.73.73 0 0 0-.62.15.78.78 0 0 0-.28.59l-.12 101.93a12.22 12.22 0 0 0 4.12 9.17 13.63 13.63 0 0 0 9 3.43h.71a13.47 13.47 0 0 0 10.11-4.41 12.16 12.16 0 0 0 3.16-8.07l.12-101.94a.7.7 0 0 0-.29-.59Zm-1.33 102.53a10.62 10.62 0 0 1-2.78 7.06 12 12 0 0 1-9 3.91h-.71a12.05 12.05 0 0 1-8-3 10.7 10.7 0 0 1-3.62-8l.12-101 1.5.2v4a1.85 1.85 0 0 0 1.819 1.88l17.6.09a1.87 1.87 0 0 0 1.83-1.87v-4h.06q.75-.06 1.26-.15ZM872.84 1391.419a14.703 14.703 0 0 1-1.89.27v-2.84a1.84 1.84 0 0 0-1.8-1.88h-.01l-17.6-.08a1.84 1.84 0 0 0-1.83 1.85v2.86c-1.32-.16-2.12-.31-2.12-.3a.76.76 0 0 0-.63.15.81.81 0 0 0-.28.59l-.11 101.93a12.18 12.18 0 0 0 4.12 9.17 13.59 13.59 0 0 0 9 3.43h.71a13.53 13.53 0 0 0 10.12-4.41 12.16 12.16 0 0 0 3.16-8.07l.12-101.94a.73.73 0 0 0-.3-.6.75.75 0 0 0-.66-.13Zm-.69 102.67a10.62 10.62 0 0 1-2.78 7.06 11.94 11.94 0 0 1-9 3.91h-.72a12 12 0 0 1-8-3 10.7 10.7 0 0 1-3.62-8l.12-101 1.5.2v4a1.85 1.85 0 0 0 1.819 1.88l17.6.09a1.86 1.86 0 0 0 1.83-1.87v-4h.06a6.684 6.684 0 0 0 1.26-.15Z" class="color9fc3d3 svgShape"/><path fill="#bc0202" d="M850.12 1446.319v46.09a9.57 9.57 0 0 0 9.284 9.847q.213.006.425.003h.56a9.61 9.61 0 0 0 9.839-9.376q.004-.192.001-.384v-46.19Z" class="colorbc0202 svgShape"/><path fill="#ffffff" d="M846.92 1379.239a2.36 2.36 0 0 0-1.36 2.11v6.86a2.31 2.31 0 0 0 2 2.34c1.89.53 6.87.92 12.74 1a67.82 67.82 0 0 0 12.66-.82 2.36 2.36 0 0 0 2.15-2.34v-6.86a2.34 2.34 0 0 0-1.75-2.28s-26.06-.53-26.44-.01ZM815.769 1396.889h6.44v109.69h-6.44zM977.809 1396.889h6.44v109.69h-6.44zM887.76 1379.189a2.36 2.36 0 0 0-1.37 2.11l-.06 6.86a2.3 2.3 0 0 0 2 2.34c1.89.54 6.88 1 12.73 1a68.277 68.277 0 0 0 12.67-.77 2.38 2.38 0 0 0 2.16-2.34l.07-6.85a2.35 2.35 0 0 0-1.74-2.3s-26.08-.56-26.46-.05ZM927.95 1379.239a2.35 2.35 0 0 0-1.35 2.11v6.86a2.3 2.3 0 0 0 2 2.34c1.9.53 6.89.92 12.74 1a62.205 62.205 0 0 0 12.66-.82 2.36 2.36 0 0 0 2.16-2.34v-6.86a2.34 2.34 0 0 0-1.75-2.28s-26.07-.53-26.46-.01Z" class="colorfff svgShape"/><path fill="#dc433d" d="M2325.12 2414.169c40 8.63 80.12 17.05 120.63 23.29 20 3.07 40 5.7 60.13 7.44 20 1.72 41.25 4.25 61.2 1.65 5.08-.66 5.11-7.28 0-7.93-10.14-1.29-20.43-1.2-30.64-1.66s-20.39-1.17-30.56-2.06q-29.89-2.64-59.58-7.11c-39.871-6-79.45-13.82-119-21.5-5.121-1-7.351 6.77-2.17 7.88ZM2503.89 2309.449c35.08 4.94 70.9 5.88 106.28 7q26.91.84 53.81 1.29c9 .16 17.93.34 26.9.38 7.87 0 17.7 1.13 25-2 2.92-1.25 2.879-6.38 0-7.64-4.27-1.87-8.47-1.53-13.091-1.91-4-.32-7.93-.32-11.91-.38-9-.13-17.93-.17-26.9-.28q-26.38-.33-52.77-1c-35.43-.87-71.1-2.82-106.51-1.44-3.25.13-4.37 5.48-.81 6Z" class="colordc433d svgShape"/><path fill="#231f36" d="m1963.9 2396.85-204.81 112.83a1031.004 1031.004 0 0 0 429.84 0l-183.2-112.83Z" class="color231f36 svgShape"/><path fill="#683522" d="M1904.28 931.539c6.21-.41 11.73-2.74 17-6 2.73-1.71 5.34-3.6 8-5.46s5.71-3.3 7.67-5.83c1.44-1.86.82-5.65-2.21-5.35-5 .51-8.95 4.35-12.72 7.52-5.26 4.43-10.59 8.91-17.67 9.8-3.31.42-3.51 5.57 0 5.35ZM1991.89 919.269c2.44 1.54 4.8 3.19 7.24 4.73s4.81 3.34 7.76 2.54a3.16 3.16 0 0 0 2.16-3.8c-.63-3-3.831-4.47-6.38-5.74s-5.54-2.43-8.34-3.53c-3.46-1.35-5.361 4-2.44 5.8Z" class="color683522 svgShape"/><path fill="#ffffff" d="M1246.72 382.719v452H830.57v-252.08c59-61 122.08-117.79 197.4-161.46a653.25 653.25 0 0 1 78.27-38.46Z" class="colorfff svgShape"/><path fill="#dcf4fe" d="M1026.819 518.329h52.25v204.51h-52.25z" class="colordcf4fe svgShape"/><path fill="#dcf4fe" d="M950.689 594.459h204.51v52.25h-204.51z" class="colordcf4fe svgShape"/></g></svg>