<svg xmlns="http://www.w3.org/2000/svg" data-name="2" viewBox="0 0 4008.528 2543.773"><path fill="#d0ecff" d="M3920.386 1453.745c0 645.833-859.34 953.003-1920.893 953.003s-1923.33-307.17-1923.33-953.003S1308.061 70.552 2369.614 70.552s1550.772 737.36 1550.772 1383.193Z" class="colord0ecff svgShape"/><ellipse cx="2069.141" cy="2218.102" fill="#8ec0ff" rx="1795.01" ry="238.167" class="color8ec0ff svgShape"/><ellipse cx="2003.625" cy="2240.37" fill="#5db2ff" rx="788.554" ry="182.506" class="color5db2ff svgShape"/><ellipse cx="640.034" cy="2271.299" fill="#5db2ff" rx="206.526" ry="42.092" class="color5db2ff svgShape"/><ellipse cx="2973.719" cy="2168.933" fill="#5db2ff" rx="166.692" ry="42.092" class="color5db2ff svgShape"/><ellipse cx="3403.308" cy="2175.68" fill="#5db2ff" rx="252.143" ry="56.489" class="color5db2ff svgShape"/><ellipse cx="2041.322" cy="2165.763" fill="#5e95f0" rx="252.143" ry="56.489" class="color5e95f0 svgShape"/><ellipse cx="991.921" cy="2187.936" fill="#5db2ff" rx="252.143" ry="56.489" class="color5db2ff svgShape"/><path fill="#5794cf" stroke="#5794cf" stroke-miterlimit="10" d="M2882.601 2021.153v46.22a73.996 73.996 0 0 1-3.405 22.67c-2.787 8.61-7.74 18.042-16.41 21.322a106.346 106.346 0 0 1-24.385 5.833c-6.477.787-11.355 8.181-11.067 16.788.49 14.719 5.505 35.557 28.216 44.628h87.733s20.386-2.511 25.69-29.511a53.682 53.682 0 0 0 .077-19.488 383.991 383.991 0 0 1-5.333-49.414c0-22.963-.619-59.048-.619-59.048ZM3042.555 2026.203v46.22a66.19 66.19 0 0 1-3.406 22.67c-2.787 8.61-7.74 18.041-16.409 21.322a106.358 106.358 0 0 1-24.386 5.833c-6.477.787-11.354 8.181-11.067 16.788.49 14.718 5.505 35.557 28.216 44.628h87.734s20.385-2.512 25.689-29.511a53.685 53.685 0 0 0 .077-19.488c-3.774-21.512-5.333-43.927-5.333-49.414 0-22.963-.619-59.048-.619-59.048Z" class="color5794cf svgShape colorStroke5794cf svgStroke"/><path fill="#007f76" stroke="#007f76" stroke-miterlimit="10" d="M2848.219 1460.414s1.037 517.192 22.124 594.283c0 0 46.715 19.682 116.932 0l-5.383-442.897s16.181 26.08 18.817 67.086 19.77 365.768 19.77 365.768v9.842s63.26 22.963 119.932-4.92c0 0-21.087-550.12-32.949-589.162 0 0-212.723 25.92-259.243 0Z" class="color007f76 svgShape colorStroke007f76 svgStroke"/><path fill="#016a6d" stroke="#016a6d" stroke-miterlimit="10" d="M2848.29 1479.783s145.484 20.98 248.044-12.498l18.67 44.955 25.407 537.335s-39.013 30.047-119.933 4.92c0 0 63.913-93.991 58.31-274.99a323.346 323.346 0 0 0-6.762-56.608c-12.69-60.28-50.508-185.053-149.41-213.474l-74.397-17.476Z" class="color016a6d svgShape colorStroke016a6d svgStroke"/><path fill="#005d6a" stroke="#005d6a" stroke-miterlimit="10" d="M2756.725 1236.015s31.764 22.233 98.54 33.254v-33.254l-67.215-25.484-21.527 11.126Z" class="color005d6a svgShape colorStroke005d6a svgStroke"/><path fill="#f9d7cb" stroke="#f9d7cb" stroke-miterlimit="10" d="M2767.633 1232.503c-3.488 9.052-7.656 20.239-10.908 30.094 0 0-78.916-74.326-112.716-100.672a175.09 175.09 0 0 0-40.799 39.426c27.197 32.643 120.918 141.49 165.422 146.546 0 0 29.652-.992 39.536-15.87 7.291-10.976 22.112-57.032 29.386-80.44-30.724-22.349-56.214-21.922-69.92-19.084Z" class="colorf9d7cb svgShape colorStrokef9d7cb svgStroke"/><path fill="none" d="M3102.027 1253.208v109.771l1.988 15.578c7.346-15.574 14.831-30.516 21.632-42.39a17.931 17.931 0 0 0 1.616-13.888l-19.964-69.07-.531-4.152c-3.118 2.524-4.741 4.151-4.741 4.151Z"/><path fill="#007f76" stroke="#007f76" stroke-miterlimit="10" d="M3106.768 1249.057a131.231 131.231 0 0 1 71.707-27.99q2.274-.168 4.605-.261l-25.678-59.027a39.783 39.783 0 0 0-8.848-12.779c-7.451-7.186-21.4-18.28-40.596-23.417-29.654-7.935-115.8-28.435-115.8-28.435l-66.21-2.645-89.487 31.741s-27.018 8.597-39.539 29.427-40.197 80.344-40.197 80.344a45.192 45.192 0 0 1 10.908-3.512c13.707-2.838 39.197-3.265 69.921 19.084a151 151 0 0 1 8.791 6.912s3.295 81.336 1.318 107.787-11.202 91.255-11.202 111.093c0 0 170.884 19.4 271.174-3.901a67.8 67.8 0 0 0-42.387-6.729l.28-.253c5.41-12.91 21.582-52.102 38.487-87.939l-1.988-15.578v-109.77s1.623-1.628 4.74-4.152Z" class="color007f76 svgShape colorStroke007f76 svgStroke"/><path fill="#f9d7cb" stroke="#f9d7cb" stroke-miterlimit="10" d="m3204.106 1298.936-25.631-77.868a131.231 131.231 0 0 0-71.707 27.989l.53 4.151 19.965 69.071a17.931 17.931 0 0 1-1.616 13.889c-6.8 11.873-14.286 26.815-21.632 42.39-16.905 35.836-33.077 75.029-38.486 87.938l-.281.253a67.8 67.8 0 0 1 42.387 6.729 86.933 86.933 0 0 1 19.786 14.125c39.534-50.874 65.48-135.047 76.447-166.146a34.9 34.9 0 0 0 .238-22.52ZM2919.185 1040.647v60.218s25.787 17.193 31.674 31.08c0 0 19.726-22.484 57.288-31.08v-76.277Z" class="colorf9d7cb svgShape colorStrokef9d7cb svgStroke"/><path fill="#602f24" stroke="#602f24" stroke-miterlimit="10" d="M3031.293 1003.608s-1.632 34.403-21.574 37.04l-10.907-18.52 20.62-18.52Z" class="color602f24 svgShape colorStroke602f24 svgStroke"/><path fill="#f9c9c4" stroke="#f9d7cb" stroke-miterlimit="10" d="M2891.248 968.78s-9.542.442-10.86 9.7c0 0-3.32 14.106 10.86 19.837Z" class="colorf9c9c4 svgShape colorStrokef9d7cb svgStroke"/><path fill="#f9b2a7" d="M2883.505 972.115s6.133 15.542 7.743 26.202v-18.362l-1.68-8.487-.733-2.259s-3.972 1.284-5.33 2.906Z" class="colorf9b2a7 svgShape"/><path fill="#5c372e" stroke="#5c372e" stroke-miterlimit="10" d="M2885.65 949.448s.204 25.81 5.598 30.507l4.956-23.077v-22.483Z" class="color5c372e svgShape colorStroke5c372e svgStroke"/><path fill="#f9d7cb" stroke="#f9d7cb" stroke-miterlimit="10" d="M3026.68 985.533h-2.464c2.934-20.375.509-35.102-1.92-43.773-18.072-4.993-53.736-11.242-85.35-8.48-15.33 1.338-30.969 4.795-45.671 11.541v45.626s-.027.61-.027 1.7c20.331 3.212 75.675 10.337 107.316-1.324 0 0 11.281 11.613 17.178 36.485a40.31 40.31 0 0 0 .758-5.846v-9.037s22.174 4.44 27.945-14.104a14.658 14.658 0 0 0 .615-5.315c-.327-4.96-2.078-15.397-10.898-18.69a28.86 28.86 0 0 0-7.482 11.217Z" class="colorf9d7cb svgShape colorStrokef9d7cb svgStroke"/><path fill="#724a2e" stroke="#724a2e" stroke-miterlimit="10" d="M2898.424 959.376s15.727-6.282 27.716.975c0 0 2.59 3.826-5.286 3.456 0 0-12.92-1.74-20.538.655a3.727 3.727 0 0 1-4.032-1.06c-.836-1.028-.91-2.45 2.14-4.026ZM2966.597 960.98s16.163-5.049 27.56 3.114c0 0 2.287 4.015-5.536 3.037 0 0-12.749-2.734-20.528-.934a3.728 3.728 0 0 1-3.938-1.369c-.754-1.09-.719-2.513 2.442-3.849ZM2902.167 975.003s9.346-7.207 17.563-1.028a1.083 1.083 0 0 0 1.483-1.557 10.353 10.353 0 0 0-2.955-2.066c-5.991-3.137-14.074 1.18-14.074 1.18s-3.156 1.666-3.319 2.671 1.302.8 1.302.8ZM2988.274 976.963s-9.538-6.95-17.584-.547a1.083 1.083 0 0 1-1.525-1.517 10.356 10.356 0 0 1 2.898-2.146c5.904-3.3 14.1.795 14.1.795s3.2 1.579 3.391 2.58-1.28.835-1.28.835Z" class="color724a2e svgShape colorStroke724a2e svgStroke"/><path fill="#5c372e" stroke="#5c372e" stroke-miterlimit="10" d="M2914.594 978.752a4.778 4.778 0 1 1-4.778-4.794 4.786 4.786 0 0 1 4.778 4.794Z" class="color5c372e svgShape colorStroke5c372e svgStroke"/><path fill="#d8f1ff" d="M2891.248 992.147c.003 9.746 2.216 58.51 45.972 64.754 0 0 70.116 11.382 78.522-29.593-5.897-24.872-17.178-36.485-17.178-36.485-31.64 11.661-86.985 4.536-107.316 1.324Z" class="colord8f1ff svgShape"/><path fill="#5c372e" stroke="#5c372e" stroke-miterlimit="10" d="M2981.044 981.174a4.778 4.778 0 1 1-4.777-4.794 4.786 4.786 0 0 1 4.777 4.794Z" class="color5c372e svgShape colorStroke5c372e svgStroke"/><path fill="none" stroke="#000" stroke-miterlimit="10" d="M3034.012 974.254c-10.241-.698-35.448 16.569-35.448 16.569" class="colorStroke000 svgStroke"/><path fill="#602f24" stroke="#602f24" stroke-miterlimit="10" d="M3039.971 947.18s-6.656-2.495-17.674-5.42c2.527 8.67 4.973 23.398 1.919 43.773h8.23a85.532 85.532 0 0 0 8.07-6.443c-.054-.02-.384-4.817-.438-4.836-.175-.06 1.144-19.14-.107-27.075Z" class="color602f24 svgShape colorStroke602f24 svgStroke"/><path fill="#007f76" stroke="#007f76" stroke-miterlimit="10" d="M2885.65 949.448s56.23-23.522 154.786 4.785c0 0-.142-4.336-.465-6.38 0 0-2.63-59.918-72.218-67.362a55.31 55.31 0 0 0-11.05-.085c-17.552 1.65-65.836 11.429-71.054 69.042Z" class="color007f76 svgShape colorStroke007f76 svgStroke"/><path fill="none" stroke="#000" stroke-miterlimit="10" d="M2942.661 968.78s-3.956 23.234-3.955 28.204" class="colorStroke000 svgStroke"/><path fill="#ffffff" stroke="#fff" stroke-miterlimit="10" d="M2626.978 1128.044s-5.257-20.646-19.482-30.19c-8.572-5.751-21.6-8.902-30.6-10.499a19.225 19.225 0 0 0-16.914 5.34l-24.695 24.595a19.48 19.48 0 0 0-5.6 16.687 26.608 26.608 0 0 0 1.453 5.458c8.695-12.88 23.468-30.877 35.218-25.432 17.811 8.254 23.893 28.452 24.762 33.775a37.606 37.606 0 0 1-11.69-.655c-1.053 3.85-20.147-5.242-20.147-5.242-7.64-2.054-11.403-.453-13.129 2.326 0 0 52.694 48.852 90.969 12.583-7.41-12.148-10.145-28.746-10.145-28.746Z" class="colorfff svgShape colorStrokefff svgStroke"/><path fill="#eff4ff" stroke="#eff4ff" stroke-miterlimit="10" d="M2591.12 1147.778c-.869-5.323-6.951-25.52-24.762-33.775-11.75-5.445-26.523 12.551-35.218 25.432a28.686 28.686 0 0 0 1.688 3.648 4.145 4.145 0 0 0 7.31-.138l9.761-13.886a9.092 9.092 0 0 1 13.512-1.546c7.26 6.486 15.557 15.259 16.06 19.007a1.481 1.481 0 0 1-.041.603 37.606 37.606 0 0 0 11.69.655Z" class="coloreff4ff svgShape colorStrokeeff4ff svgStroke"/><path fill="#eff4ff" stroke="#eff4ff" stroke-miterlimit="10" d="m2644.009 1161.925-6.886-5.135c-38.275 36.27-90.969-12.583-90.969-12.583-1.65 2.656-1.44 6.389-.957 9.045.987 5.436 10.924 5.601 17.525 13.487 6.6 7.885 16.217 14.584 16.217 14.584a148.18 148.18 0 0 1 17.046 10.791c-.109.02-.216.043-.325.061 0 0 2.733 3.395 7.55 9.176a45.525 45.525 0 0 1 6.434-8.147 176.863 176.863 0 0 1 34.365-31.279Z" class="coloreff4ff svgShape colorStrokeeff4ff svgStroke"/><path fill="#ffffff" stroke="#fff" stroke-miterlimit="10" d="M3069.414 1457.2c-9.41 8.473-43.268 44.461-41.415 52.159 2.218 9.216 8.27 8.361 8.27 8.361s-9.459 14.228-1.82 20.884a13.223 13.223 0 0 0 10.442 1.329s-.766 5.993 3.94 9.028c4.706 3.036 10.442 1.329 10.442 1.329s.385 6.952 6.08 8.895c5.694 1.943 10.901-2.268 10.901-2.268s3.464 6.11 9.54 5.064c6.077-1.047 11.137-12.524 11.137-12.524l29.837-61.441c.064.062.13.12.194.183.153-.196.305-.398.459-.595-22.483-21.041-40.929-33.159-58.007-30.404Z" class="colorfff svgShape colorStrokefff svgStroke"/><path fill="#eff4ff" stroke="#eff4ff" stroke-miterlimit="10" d="m3036.269 1517.72 6.903-10.185a4.44 4.44 0 0 0 .547-4.054 2.767 2.767 0 0 0-1.306-1.555l.692.347s3.544.49 2.991 6.244a15.235 15.235 0 0 1-2.75 7.234c-2.934 4.202-9.06 14.054-8.897 22.853 0 0-6.359-4.354-.9-15.73Z" class="coloreff4ff svgShape colorStrokeeff4ff svgStroke"/><path fill="#577ecf" stroke="#577ecf" stroke-miterlimit="10" d="M2882.601 2058.784s40.662 13.372 81.013 1.806c0 0 1.008 52.912 5.04 66.721 0 0 10.1 43.037-25.37 51.303h-87.734s-16.733-5.64-21.66-18.728c0 0 51.507-2.194 79.737-20.851a33.198 33.198 0 0 0 3.725-52.376c-7.283-6.507-18.254-13.467-34.75-19.286Z" class="color577ecf svgShape colorStroke577ecf svgStroke"/><path fill="#016a6d" stroke="#016a6d" stroke-miterlimit="10" d="M2885.65 949.448s49.925-23.646 154.786 4.785c0 0 2.182-55.536-56.822-70.896 0 0-53.025 49.706-95.401 51.058 0 0-2.66 11.464-2.564 15.053Z" class="color016a6d svgShape colorStroke016a6d svgStroke"/><path fill="#48191a" stroke="#48191a" stroke-miterlimit="10" d="M3016.5 1012.425s3.318 13.514-6.78 28.222c0 0 9.854.028 15.806-13.339 0 0-.142-6.843 4.643-14.883 0 0-9.244 1.958-13.67 0Z" class="color48191a svgShape colorStroke48191a svgStroke"/><path fill="#f9b2a7" stroke="#f9b2a7" stroke-miterlimit="10" d="m3027.569 989.903-3.353 14.481a21.892 21.892 0 0 0 7.809-.926 7.215 7.215 0 0 0 4.938-8.225c-.59-2.742-2.813-5.476-9.394-5.33Z" class="colorf9b2a7 svgShape colorStrokef9b2a7 svgStroke"/><path fill="#f9b2a7" d="M2890.927 947.635c17.38-5.466 131.379-3.854 133.289 37.898v-35.086s-71.98-19.883-133.29-2.812Z" class="colorf9b2a7 svgShape"/><path fill="#c9eaff" d="M2891.308 993.574s-6.683 77.023 80.24 66.206c0 0 38.075-4.935 44.254-31.044 0 0-3.755-25.472-17.179-36.486 0 0-10.238 34.792-52.521 36.486 0 0-34.289 1.546-54.794-35.162Z" class="colorc9eaff svgShape"/><path fill="#f9b2a7" d="M2918.819 1051.012c.002-1.54 43.534 28.201 89.328-8.278v58.13a153.167 153.167 0 0 0-50.576 24.76s19.694-29.136 2.952-47.358-41.704-19.913-41.704-19.913ZM3178.475 1221.068s-36.964-2.473-71.707 27.989l.53 4.151s69.06-40.9 94.655 39.188ZM2767.633 1232.503s29.203-9.716 69.921 19.084l-21.68 63.88s22.59-64.587-51.34-74.813ZM2644.009 1161.925s-33.487 25.988-40.799 39.426l36.173 41.637s-36.953-46.65 7.35-78.911ZM3069.414 1457.2s18.264-9.131 58.007 30.404c0 0 34.682-47.595 44.38-79.62 0 0-25.925 54.092-59.81 48.829s-35.111-4.464-41.014-3.344Z" class="colorf9b2a7 svgShape"/><path fill="#eff4ff" stroke="#eff4ff" stroke-miterlimit="10" d="m3065.248 1461.171 4.166-3.97s19.568-8.264 58.007 30.402c0 0-20.298 40.866-25.394 51.36l-5.096 10.494s-4.742 15.179-15.784 12.644c0 0 51.61-55.685-15.9-100.93Z" class="coloreff4ff svgShape colorStrokeeff4ff svgStroke"/><path fill="#016a6d" stroke="#016a6d" stroke-miterlimit="10" d="M3102.027 1253.208s-11.757-11.05-14.363-18.87c0 0 25.452 92.96-32.02 236.757l15.333-17.626s15.297-39.509 33.038-74.912c0 0-3.264-30.02-1.988-125.349ZM2846.345 1258.499s4.704-36.09 6.441-47.968c0 0-3.62 27.717-68.783 18.16l2.191 2.235s24.531-1.05 60.151 27.573ZM2950.86 1131.945s27.873-25.249 57.287-31.08l99.81 24.718s37.774 9.37 49.445 36.196l25.678 59.027s-29.486.078-43.192 7.819c0 0-31.662-93.784-121.442-96.68Z" class="color016a6d svgShape colorStroke016a6d svgStroke"/><path fill="#577ecf" stroke="#577ecf" stroke-miterlimit="10" d="M3041.608 2060.062s54.282 13.595 81.882-2.197c0 0 .224 51.229 5.513 76.8 0 0 6.315 40.57-25.766 48.999h-87.734s-20.969-9.292-24.451-24.75c0 0 92.268 10.01 96.322-44.437 0 0-1.017-30.7-44.82-45.18Z" class="color577ecf svgShape colorStroke577ecf svgStroke"/><path fill="#48191a" stroke="#48191a" stroke-miterlimit="10" d="M3030.169 1012.425s1.889 12.811-4.772 20.631c0 0 8.904-5.042 9.557-22.182ZM3024.216 985.533h8.23l8.07-6.443s-9.408-3.317-9.223-27.24l-7.077-1.403Z" class="color48191a svgShape colorStroke48191a svgStroke"/><path fill="#016a6d" stroke="#016a6d" stroke-miterlimit="10" d="M2981.892 1611.8s-17.574-20.306-31.909-24.215c0 0 57.05 457.253-79.64 467.112 0 0 47.361 21.417 116.932 0Z" class="color016a6d svgShape colorStroke016a6d svgStroke"/><path fill="#6096cd" d="M1333.716 936.942h18.569v1241.904h-18.569z" class="color6096cd svgShape"/><path fill="#4285c4" d="M1291.028 959.838h240.894v18.227h-240.894z" class="color4285c4 svgShape"/><path fill="#2368a5" stroke="#2368a5" stroke-miterlimit="10" d="M1404.41 993.358h102.653v71.886H1404.41z" opacity=".17" class="color2368a5 svgShape colorStroke2368a5 svgStroke"/><path fill="#ef1d46" stroke="#ef1d46" stroke-miterlimit="10" d="M1455.736 1153.54a51.327 51.327 0 0 0 51.327-51.328v-36.968H1404.41v36.968a51.327 51.327 0 0 0 51.326 51.327Z" class="coloref1d46 svgShape colorStrokeef1d46 svgStroke"/><path fill="#ef1d46" stroke="#ef1d46" stroke-miterlimit="10" stroke-width="2" d="M1694.051 1654.664c-56.867-19.042-104.806-57.251-142.486-113.567-30.129-45.03-53.802-101.67-70.362-168.35-28.188-113.504-25.927-218.175-25.9-219.22l.868.023c-.026 1.043-2.284 105.612 25.88 219.005 25.978 104.594 83.894 238.297 212.276 281.284Z" class="coloref1d46 svgShape colorStrokeef1d46 svgStroke"/><path fill="#d71d3b" stroke="#d71d3b" stroke-miterlimit="10" d="M1507.063 1065.244H1404.41v36.968s-1.043 48.456 51.761 51.338c0 0-5.523-61.163 22.684-74.735 0 0 21.083-7.53 28.208-8.688Z" class="colord71d3b svgShape colorStroked71d3b svgStroke"/><path fill="#195383" stroke="#195383" stroke-miterlimit="10" d="M1921.145 2019.611v47.855a78.233 78.233 0 0 1-3.447 23.47c-2.82 8.916-7.834 18.68-16.608 22.077a105.62 105.62 0 0 1-24.68 6.04c-6.557.814-11.493 8.47-11.202 17.38.497 15.24 5.572 36.815 28.558 46.207h88.796s20.632-2.6 26-30.555a56.839 56.839 0 0 0 .078-20.177c-1.894-11.046-5.397-33.815-5.397-51.161 0-23.775-.626-61.136-.626-61.136ZM2160.393 2019.602l.017 47.854a78.224 78.224 0 0 0 3.455 23.469c2.823 8.914 7.84 18.675 16.615 22.067a105.6 105.6 0 0 0 24.684 6.024c6.556.811 11.495 8.464 11.207 17.375-.491 15.24-5.559 36.818-28.541 46.223l-88.797.052s-20.633-2.588-26.01-30.539a56.833 56.833 0 0 1-.086-20.177c1.89-11.047 5.385-33.818 5.379-51.164-.008-23.775.605-61.136.605-61.136Z" class="color195383 svgShape colorStroke195383 svgStroke"/><path fill="none" d="m1858.45 1282.874 29.77 26.136c.192-33.992-1.937-86.011-1.937-86.011q-4.811-4.032-9.473-7.33l-21.828 52.294a13.108 13.108 0 0 0 3.468 14.91Z"/><path fill="#007f76" stroke="#007f76" stroke-miterlimit="10" d="M1885.356 1424.903s-4.345 533.573 16.742 613.389c0 0 46.715 20.378 116.932 0v-456.65s16.18 27.002 18.816 69.458c2.636 42.455 19.77 378.7 19.77 378.7v10.19s63.261 23.775 119.933-5.095c0 0-21.087-569.569-32.949-609.992 0 0-212.724 26.838-259.244 0Z" class="color007f76 svgShape colorStroke007f76 svgStroke"/><path fill="#005d6a" stroke="#005d6a" stroke-miterlimit="10" d="M1796.662 1200.755s33.608 25.515 89.62 22.244l13.18-22.244-42.833-27.479-38.22 3.271s-23.505 27.927-21.747 24.208ZM2136.692 1223.289s55.354-4.216 86.326-37.582l-48.105-12.43-49.423 20.935Z" class="color005d6a svgShape colorStroke005d6a svgStroke"/><path fill="#007f76" stroke="#007f76" stroke-miterlimit="10" d="M2146.373 1213.925a132.156 132.156 0 0 1 76.645-28.218l-25.679-58.4a39.354 39.354 0 0 0-8.848-12.643c-7.451-7.11-21.4-18.086-40.596-23.168-29.654-7.852-115.8-28.133-115.8-28.133l-66.209-2.617-89.488 31.404s-27.018 8.505-39.538 29.114c-12.52 20.608-40.198 79.49-40.198 79.49s6.205-3.231 16.884-4.409a70.095 70.095 0 0 1 3.451-.29c14.397-.865 35.43 2.285 59.813 19.613q4.659 3.311 9.473 7.33s2.13 52.02 1.936 86.012l42.874 37.641c-9.885 32.058-35.585 42.526-35.585 42.526s-5.23-3.925-13.314-10.058c-2.896 24.444-5.796 49.432-5.796 60.435 0 0 180.559 20.282 279.405-5.888l-13.839-107.296v-108.605s1.509-1.497 4.41-3.84Z" class="color007f76 svgShape colorStroke007f76 svgStroke"/><path fill="#ffffff" stroke="#fff" stroke-miterlimit="10" d="M1998.275 1389.282s11.862-10.537 28.244-1.103c0 0 3.363-21.698-7.013-23.585-5.146-.936-23.327-2.336-40.345-3.51 4.443 8.262 7.694 21.697 19.114 28.198Z" class="colorfff svgShape colorStrokefff svgStroke"/><path fill="#eff4ff" stroke="#eff4ff" stroke-miterlimit="10" d="M2000.832 1388.18s-8.678-9.743-13.725-10.547c0 0 26.37-.691 39.412 10.546a27.16 27.16 0 0 0-25.687 0Z" class="coloreff4ff svgShape colorStrokeeff4ff svgStroke"/><path fill="#010017" stroke="#000" stroke-miterlimit="10" d="m2083.748 1458.953-1.14.981-13.684-14.708 1.139-.982 13.685 14.709z" class="color010017 svgShape colorStroke000 svgStroke"/><path fill="#70dfff" stroke="#70dfff" stroke-miterlimit="10" d="m2072.143 1437.653-10.258 8.834-55.437-59.586 10.258-8.834 55.437 59.586z" opacity=".74" class="color70dfff svgShape colorStroke70dfff svgStroke"/><path fill="#1f005c" stroke="#1f005c" stroke-miterlimit="10" d="m2076.891 1442.756-10.258 8.834-4.748-5.103 10.258-8.834 4.748 5.103zM2016.706 1378.067l-10.258 8.834-3.489-3.75 10.258-8.834 3.489 3.75z" class="color1f005c svgShape colorStroke1f005c svgStroke"/><path fill="#5caaff" stroke="#5caaff" stroke-miterlimit="10" d="M2015.612 1370.271c1.123 1.207-1.794 5.482-6.515 9.548s-9.459 6.383-10.582 5.176 1.794-5.482 6.515-9.548 9.46-6.383 10.582-5.176Z" class="color5caaff svgShape colorStroke5caaff svgStroke"/><path fill="#ffffff" stroke="#fff" stroke-miterlimit="10" d="M2034.412 1397.613s-2.469 4.246-12.346 2.359c-9.876-1.887-21.234-11.793-21.234-11.793-10.328-6.501-17.653-18.833-21.67-27.095a3320.96 3320.96 0 0 0-30.182-2.15l-13.827 6.132-26.173 33.49v6.369l46.667 29.44s10.123 8.06 29.876 5.702l14.321 3.302a21.028 21.028 0 0 0 17.778-6.133s8.395 2.276 14.321-2.871l5.556-6.091s6.296.944 10.247-9.906c0 0 1.975-17.925-13.334-20.755Z" class="colorfff svgShape colorStrokefff svgStroke"/><path fill="#ffcfb7" stroke="#ffcfb7" stroke-miterlimit="10" d="m1900.786 1318.225-33.463-28.266a13.815 13.815 0 0 1-3.898-16.125l22.858-50.835c-27.79-24.429-52.138-30.821-69.436-26.62l-27.223 73.779a28.536 28.536 0 0 0-1.216 4.29c-1.553 7.77-4.833 31.516 9.355 45.57 12.857 12.736 68.99 54.129 96.25 74.029 9.088 6.633 14.967 10.878 14.967 10.878s28.889-11.321 40-45.991Z" class="colorffcfb7 svgShape colorStrokeffcfb7 svgStroke"/><path fill="#ff9b7a" stroke="#ff9b7a" stroke-miterlimit="10" d="m1816.997 1196.056-.15.324-4.838 13.113c44.407-3.993 72.036 18.482 72.036 18.482l2.238-4.976s-34.949-34.816-69.286-26.943Z" class="colorff9b7a svgShape colorStrokeff9b7a svgStroke"/><path stroke="#000" stroke-miterlimit="10" stroke-width="2" d="M1936.037 1079.334c-16.282 38.913-12.453 114.406-12.413 115.164l.868-.046c-.04-.756-3.859-76.053 12.347-114.782a40.064 40.064 0 0 1 26.447-23.203v-.903a40.936 40.936 0 0 0-27.249 23.77ZM2080.207 1150.874c-4.42-29.283-15.982-58.13-16.09-58.397-5.28-15.386-14.892-25.22-26.286-31.336v1.011c11.047 6.05 20.343 15.68 25.472 30.629.115.286 11.586 28.906 16.013 58.013a254.935 254.935 0 0 0-29.91 39.737c-12.587 20.94-25.39 51.05-14.903 75.579l.799-.341c-10.342-24.189 2.363-54.015 14.842-74.778a253.068 253.068 0 0 1 29.948-39.752l.148-.153Z" class="colorStroke000 svgStroke"/><path stroke="#000" stroke-miterlimit="10" stroke-width="2" d="m2137.234 1257.83-.843-.21c7.594-30.797-8.253-58.054-22.884-75.495a175.49 175.49 0 0 0-33.967-30.822l.476-.728a176.553 176.553 0 0 1 34.157 30.991c14.76 17.596 30.743 45.11 23.061 76.264Z" class="colorStroke000 svgStroke"/><path stroke="#000" stroke-miterlimit="10" stroke-width="2" d="m2060.45 1175.276-.355-.794c.258-.115 26.044-11.378 46.933-.83l-.392.776c-20.523-10.362-45.933.734-46.187.848Z" class="colorStroke000 svgStroke"/><circle cx="1924.058" cy="1210.022" r="19.304" fill="#5caaff" transform="rotate(-45 1924.058 1210.022)" class="color5caaff svgShape"/><circle cx="1924.058" cy="1210.022" r="15.607" fill="#110045" class="color110045 svgShape"/><circle cx="2041.322" cy="1257.83" r="11.295" fill="#5caaff" transform="rotate(-45 2041.322 1257.83)" class="color5caaff svgShape"/><circle cx="2128.372" cy="1252.698" r="11.295" fill="#5caaff" transform="rotate(-10.496 2128.372 1252.698)" class="color5caaff svgShape"/><path fill="#ffcfb7" stroke="#ffcfb7" stroke-miterlimit="10" d="M1958.11 1032.458v53.648s38.88 22.073 45.8 35.158c0 0 11.667-27.152 40.43-43.18v-52.994ZM2069.554 951.923a24.764 24.764 0 0 1 11.282.068 16.058 16.058 0 0 1 10.015 23.26c-2.965 5.301-9.822 9.715-25.108 7.64ZM1930.614 953.458a24.763 24.763 0 0 0-11.283.068 16.058 16.058 0 0 0-10.014 23.259c2.965 5.302 9.822 9.716 25.108 7.64Z" class="colorffcfb7 svgShape colorStrokeffcfb7 svgStroke"/><path fill="#f78646" stroke="#f78646" stroke-miterlimit="10" d="m2086.275 929.662-.104 12.665s-1.169 24.243-14.642 33.058l-3.952-43.09ZM1915.262 929.662l.015 8.74s2.166 24.294 12.447 33.564l9.959-42.304Z" class="colorf78646 svgShape colorStrokef78646 svgStroke"/><path fill="#ff9b7a" stroke="#ff9b7a" stroke-miterlimit="10" d="M1958.11 1035.3v7.893a75.992 75.992 0 0 0 23.858 16.113 47.415 47.415 0 0 0 31.58 1.965 71.498 71.498 0 0 0 30.791-18.078v-8.692l-21.981-1.155-58.246-1.401s-6.001 6.198-6.001 3.355Z" class="colorff9b7a svgShape colorStrokeff9b7a svgStroke"/><path fill="#ff9b7a" d="M1923.414 961.915a9.043 9.043 0 0 0-2.209.41c-6.858 2.109-7.108 11.728-.273 13.912a14.088 14.088 0 0 0 5.54.473ZM2078.793 961.915a9.043 9.043 0 0 1 2.208.41c6.858 2.109 7.108 11.728.273 13.912a14.088 14.088 0 0 1-5.54.473Z" class="colorff9b7a svgShape"/><path fill="#ffcfb7" stroke="#ffcfb7" stroke-miterlimit="10" d="M2058.055 978.529s4.99 4.242 9.522 14.723a175.468 175.468 0 0 0 6.293-47.871v-13.958s-80.394-30.967-147.17 1.309c0 0-3.359 31.253 5.748 61.48a64.85 64.85 0 0 1 7.211-15.683s59.088 38.819 118.396 0Z" class="colorffcfb7 svgShape colorStrokeffcfb7 svgStroke"/><path fill="#f78646" stroke="#f78646" stroke-miterlimit="10" d="M1951.369 950.605s15.727-6.215 27.716.965c0 0 2.589 3.785-5.286 3.42 0 0-12.921-1.722-20.539.647a3.753 3.753 0 0 1-4.03-1.048c-.837-1.018-.91-2.425 2.139-3.984ZM2049 951.85s-14.62-6.499-26.208-.039c0 0-2.586 3.535 4.864 3.458 0 0 12.265-1.2 19.37 1.334a3.518 3.518 0 0 0 3.845-.864c.828-.945.95-2.29-1.872-3.89ZM1956.885 967.648s9.347-7.131 17.563-1.018a1.077 1.077 0 0 0 1.483-1.54 10.351 10.351 0 0 0-2.955-2.044c-5.99-3.104-14.074 1.167-14.074 1.167s-3.155 1.648-3.319 2.643 1.302.792 1.302.792ZM2043.048 968.114s-9.596-6.797-17.588-.397a1.077 1.077 0 0 1-1.538-1.487 10.342 10.342 0 0 1 2.88-2.147c5.877-3.314 14.107.67 14.107.67s3.213 1.536 3.412 2.524-1.273.837-1.273.837Z" class="colorf78646 svgShape colorStrokef78646 svgStroke"/><path fill="#d8f1ff" stroke="#d8f1ff" stroke-miterlimit="10" d="M1996.112 1049.624c44.014 3.543 63.16-27.325 71.465-56.372-4.532-10.481-9.522-14.723-9.522-14.723-59.308 38.819-118.396 0-118.396 0a64.85 64.85 0 0 0-7.211 15.684c8.005 26.571 25.643 52.35 63.664 55.41Z" class="colord8f1ff svgShape colorStroked8f1ff svgStroke"/><path fill="none" stroke="#000" stroke-miterlimit="10" d="M1939.66 978.529s-10.656-13.085-13.566-27.478M2058.055 978.529s11.467-12.649 15.837-27.478" class="colorStroke000 svgStroke"/><path fill="#007f76" stroke="#007f76" stroke-miterlimit="10" d="M1915.277 938.402s103.679-14.393 170.894 3.925c0 0 6.59-102.498-85.447-102.498s-85.447 98.573-85.447 98.573Z" class="color007f76 svgShape colorStroke007f76 svgStroke"/><path fill="#0087d0" stroke="#0087d0" stroke-miterlimit="10" d="M1973.667 971.966a4.778 4.778 0 1 1-4.777-4.743 4.76 4.76 0 0 1 4.777 4.743ZM2036.872 971.966a4.778 4.778 0 1 1-4.777-4.743 4.76 4.76 0 0 1 4.777 4.743Z" class="color0087d0 svgShape colorStroke0087d0 svgStroke"/><path fill="none" stroke="#000" stroke-miterlimit="10" d="m1999.993 971.966-1.652 23.778" class="colorStroke000 svgStroke"/><path fill="#ffcfb7" stroke="#ffcfb7" stroke-miterlimit="10" d="m2367.333 1193.558-117.956 57.574-40.683-64.088a131.703 131.703 0 0 0-62.32 26.88l57.534 93.473s18.45 22.244 47.446 13.739 141.02-86.354 141.02-86.354 0-30.102-25.041-41.224Z" class="colorffcfb7 svgShape colorStrokeffcfb7 svgStroke"/><path fill="#ffffff" stroke="#fff" stroke-miterlimit="10" d="M2362.701 1195.082c.136-.406 8.351-3.282 13.803-6.205a23.329 23.329 0 0 0 7.597-6.487c4.38-5.797 13.058-16.153 20.6-18.313l14.068-3.441s12.437-5.263 15.292-8.705c2.854-3.44 8.563-5.87 12.436-2.631s1.632 12.55-7.747 21.457c0 0-.612 1.619 2.243.404 2.854-1.214 31.602-12.955 31.602-12.955s15.087-6.68 19.776-2.429 1.02 8.3 1.02 8.3 13.66-7.49 17.737 0-5.504 12.55-5.504 12.55a5.625 5.625 0 0 1 1.427 7.894c-3.058 4.858-10.03 7.256-10.03 7.256s1.874.841 1.874 4.89-12.64 7.084-17.33 9.513-14.883 8.3-14.883 8.3-15.903 11.335-36.699 11.133c-20.796-.203-39.566 10.028-39.566 10.028Z" class="colorfff svgShape colorStrokefff svgStroke"/><path fill="none" stroke="#eff4ff" stroke-miterlimit="10" stroke-width="3" d="M2493.39 1164.077s-26.708 10.728-32.825 12.145M2505.624 1176.722s-1.835-4.453-37.923 10.931M2497.02 1191.777s-4.649-5.547-18.513.48-15.699 6.231-19.777 6.838-18.145-.81-24.262 1.62" class="colorStrokeeff4ff svgStroke"/><path fill="#eff4ff" d="M2439.29 1171.347s-6.453 17.83-12.977 20.056c0 0 12.414-4.752 17.267-21.69 1.291-1.07-1.741 1.132-4.29 1.634Z" class="coloreff4ff svgShape"/><path fill="#f76f3b" d="M1926.31 937.194s-2.096 21.18 1.414 34.772c0 0-3.605-2.005-6.303-9.2 0 0 1.741-21.185 0-25.132ZM2073.892 939.412s1.588 18.106-2.363 35.973a22.358 22.358 0 0 0 8.883-10.595s.25-15.302 5.76-22.463Z" class="colorf76f3b svgShape"/><path fill="#ff9b7a" stroke="#ff9b7a" stroke-miterlimit="10" d="m2208.694 1187.044 4.77 7.513s-33.249 1.957-62.602 26.661l-4.489-7.293s24.97-22.334 62.32-26.881Z" class="colorff9b7a svgShape colorStrokeff9b7a svgStroke"/><path fill="#016a6d" d="M1915.277 938.402s94.14-14.979 170.894 3.925c1.337-.948.25-24.703-2.61-31.621 0 0-43.114 20.004-168.387 23.1Z" class="color016a6d svgShape"/><path fill="#ff9b7a" stroke="#ff9b7a" stroke-miterlimit="10" d="M1926.31 937.194s93.883-12.072 147.582 2.218l.178 2.915s-49.337-7.555-72.845-6.871c-23.509.684-41.38-1.027-75.283 6.871Z" class="colorff9b7a svgShape colorStrokeff9b7a svgStroke"/><path fill="#016a6d" d="M1886.283 1440.563s100.798 27.504 260.544-2.91l2.346 22.281s-202.457.12-264.067 11.507ZM1886.283 1222.999l7.688-12.977s-7.244 89.162 18.919 118.427l-24.67-19.439ZM1881.463 1385.314l-5.065 54.24s11.617-22.422 79.249-5.19l-46.667-29.44Z" class="color016a6d svgShape"/><path fill="#016a6d" stroke="#016a6d" stroke-miterlimit="10" d="M2141.964 1217.765s-.658-19.165-2.737-22.583c0 0 10.675 6.126 38.733 0 0 0-35.996 17.663-35.996 22.583Z" class="color016a6d svgShape colorStroke016a6d svgStroke"/><path fill="#ff9b7a" stroke="#ff9b7a" stroke-miterlimit="10" d="m1908.98 1404.925-43.187-31.633s42.416 33.253 69.35 7.317c0 0 6.387-6.989 13.837-21.675 0 0-8.82 34.12-40 45.99Z" class="colorff9b7a svgShape colorStrokeff9b7a svgStroke"/><path fill="#eff4ff" stroke="#eff4ff" stroke-miterlimit="10" d="M1948.98 1358.934s29.321 73.87 97.016 47.837c0 0 3.722 7.36 1.75 11.597s-2.162 7.483-10.247 9.906c0 0-6.037 13.33-19.877 8.962a17.736 17.736 0 0 1-17.778 6.133l-14.32-3.302s-20.234 4.048-29.877-5.702l-46.667-29.44s27.337-6.543 40-45.991Z" class="coloreff4ff svgShape colorStrokeeff4ff svgStroke"/><path fill="#ff9b7a" stroke="#ff9b7a" stroke-miterlimit="10" d="m2362.701 1195.082 27.716 40.56-17.08 12.168s16.82-6.838-10.636-52.728Z" class="colorff9b7a svgShape colorStrokeff9b7a svgStroke"/><path fill="#eff4ff" stroke="#eff4ff" stroke-miterlimit="10" d="m2374.995 1212.074 16.138 23.567s12.864-7.197 24.066-8.58c0 0 6.45-.924 14.784-1.448s17.391 1.372 36.699-11.134l14.883-8.299s18.072-5.883 17.33-9.514c0 0-40.925 17.377-49.831 19.488s-47.372 2.964-74.069-4.08Z" class="coloreff4ff svgShape colorStrokeeff4ff svgStroke"/><path fill="none" stroke="#8bd7ff" stroke-miterlimit="10" d="m1921.145 2060.029 10.088 9.847-10.088 5.213 10.088 8.109-13.535 7.738 9.481 7.322" class="colorStroke8bd7ff svgStroke"/><path fill="none" stroke="#195383" stroke-miterlimit="10" d="M1920.413 2066.132s-7-23.637-11.261-16.854 11.261 16.854 11.261 16.854ZM1920.413 2066.132s-19.522-8.096-16.036-.677 16.036.677 16.036.677ZM1920.413 2066.132s-7.788 16.245-21.012 16.245M1935.425 2068.206s-7-23.637-11.262-16.854 11.262 16.854 11.262 16.854Z" class="colorStroke195383 svgStroke"/><path fill="none" stroke="#195383" stroke-miterlimit="10" d="M1935.425 2068.206s-19.523-8.096-16.037-.677 16.037.677 16.037.677ZM1935.425 2068.206s-7.789 16.245-21.012 16.245M2160.912 2062.593s15.702-19.005 16.965-11.095-16.965 11.095-16.965 11.095ZM2160.912 2062.593s21.134.2 15.02 5.66-15.02-5.66-15.02-5.66Z" class="colorStroke195383 svgStroke"/><path fill="none" stroke="#8bd7ff" stroke-miterlimit="10" d="M2173.881 2085.771c-12.167-5.18-12.969-23.178-12.969-23.178l-11.31 8.419 11.27 5.317-11.27 8.122 14.263 6.474-11.946 7.333" class="colorStroke8bd7ff svgStroke"/><path fill="#cce5ff" stroke="#cce5ff" stroke-miterlimit="10" d="M1932.448 994.213s9.316 52.456 59.706 55.292c2.24.126 4.47.274 6.699.523 11.304 1.267 54.376 2.038 68.724-56.776 0 0-58.035 76.805-135.13.96Z" class="colorcce5ff svgShape colorStrokecce5ff svgStroke"/><path fill="#016a6d" d="M2019.03 1753.794h-31.923s47.805 286.904-85.009 284.498c0 0 44.787 23.257 116.932 0v-284.498M2043.494 1755.725h28.65s-27.159 272.967 105.405 279.17c0 0-49.236 31.354-119.933 5.095l-14.122-284.265" class="color016a6d svgShape"/><path fill="#193f7a" stroke="#193f7a" stroke-miterlimit="10" d="M1921.145 2044.68s49.312 10.458 82.303-2.426l-.205 38.493s1.712 32.68 5.397 51.161c0 0 8.453 39.54-26.078 50.732h-88.796s-18.256-7.48-22.747-20.984c0 0 92.651 15.956 101.919-23.431s-24.232-80.512-51.793-93.545ZM2161.61 2042.254s-33.622 16.412-83.054 4.06l-.24 34.472s-.952 30.409-5.379 51.164c0 0-8.833 38.393 26.096 50.716l88.797-.052s10.899-2.847 16.855-11.998c0 0-89.836 12.21-99.104-35.866 0 0-9.098-44.233 54.822-86.122Z" class="color193f7a svgShape colorStroke193f7a svgStroke"/><path fill="#ffd4ca" stroke="#ffd4ca" stroke-miterlimit="10" d="M1541.02 1549.928s7.468 25.293 28.116 27.803c14.085 1.712 25.718-14.918 31.689-25.661a115.933 115.933 0 0 1 23.572-29.864c10.205-9.204 23.813-18.718 39.191-22.36 33.388-7.908 86.545-16.255 119.494-18.012 0 0-34.706 72.926-35.145 107.193s.879 74.683.879 74.683-84.349 16.255-123.448 12.74c-38.179-3.431-48.293-2.674-61.836-21.86a20.166 20.166 0 0 0-4.577-4.676c-5.048-3.68-15.799-8.911-34.63-6.852-28.116 3.076-36.023 3.076-36.023 3.076l34.705-54.036Z" class="colorffd4ca svgShape colorStrokeffd4ca svgStroke"/><path fill="#f59059" stroke="#f59059" stroke-miterlimit="10" d="M1346.063 1480.12s22.084-2.786 43 28.517 24.604 59.983 24.604 59.983l58.59 20.077 36.465 54.493s-62.687 52.444-126.604 29.91c0 0-20.076-9.304-27.042-29.85 0 0-27.451-5.796-29.09-36.116s8.604-66.784 6.965-78.666-6.965-33.598-13.11-36.056c0 0 33.187-15.57 54.083 13.111 0 0-11.063-22.535-27.861-25.403Z" class="colorf59059 svgShape colorStrokef59059 svgStroke"/><path fill="#ffd4ca" stroke="#ffd4ca" stroke-miterlimit="10" d="M1426.146 1563.976c49.205 31.203 118.387-5.598 118.47-5.642a80.288 80.288 0 0 0-1.887-13.887c-6.146-26.632-30.32-36.466-39.743-37.695-6.748-.88-14.966-5.373-19.09-7.854a8.643 8.643 0 0 1-3.537-4.149c-5.995-14.682-17.054-11.382-20.998-9.624a10.54 10.54 0 0 0-2.171 1.31c-3.31 2.57-17.31 12.753-29.41 11.14-8.831-1.177-22.167 3.66-30.656 7.31 13.841 51.019 29.022 59.09 29.022 59.09Z" class="colorffd4ca svgShape colorStrokeffd4ca svgStroke"/><path fill="#ffc5be" stroke="#ffc5be" stroke-miterlimit="10" d="M1544.462 1570.992a101.944 101.944 0 0 0 .153-12.658c-.082.044-69.264 36.845-118.47 5.642 0 0-15.18-8.072-29.021-59.091l-8.06 3.752.04.09c13.856 29.337 7.764 74.234 7.764 74.234 29.5-4.917 61.458 11.882 61.458 11.882l1.23 12.7c-5.327-3.687-17.618-4.096-17.618-4.096-8.45 21.254-1.537 31.465 4.837 36.135a19.18 19.18 0 0 0 14.222 3.329 22.2 22.2 0 0 0 18.635-16.52c11.881 12.291 29.088 16.798 29.09 16.799s32.07-32.375 35.74-72.198ZM1748.126 1585.088c-33.198-4.378-88.93 4.817-88.93 4.817s73.548-15.56 87.357-36.412 32.76-71.511 32.76-71.511l-25.965 75.37a201.998 201.998 0 0 0-5.222 27.736" class="colorffc5be svgShape colorStrokeffc5be svgStroke"/><path fill="#f59059" stroke="#f59059" stroke-miterlimit="10" d="M1423.857 1542.723s-9.435-15.469-3.961-29.42c0 0 3.557-3.419 4.585 4.957 0 0 .495 13.947 4.384 21.555a3.998 3.998 0 0 1-.389 4.444c-.93 1.067-2.413 1.4-4.619-1.536ZM1441.881 1514.435s8.949 12.716.377 23.204a1.426 1.426 0 0 0 1.963 2.04 13.66 13.66 0 0 0 2.878-3.78c4.452-7.723-.77-18.614-.77-18.614s-2.014-4.251-3.325-4.522-1.123 1.672-1.123 1.672Z" class="colorf59059 svgShape colorStrokef59059 svgStroke"/><path fill="#ea5642" stroke="#ea5642" stroke-miterlimit="10" d="M1504.18 1509.35c1.845.297 2.957 2.923 2.484 5.866-.473 2.943-2.353 5.088-4.198 4.792s-2.958-2.923-2.485-5.866 2.352-5.089 4.198-4.792Z" class="colorea5642 svgShape colorStrokeea5642 svgStroke"/><path fill="#84b0de" stroke="#84b0de" stroke-miterlimit="10" d="M1534.436 1526.368c-72.92 19.933-94.955-30.206-94.955-30.206l-1.93.57s20.787 53.813 98.591 32.087Z" class="color84b0de svgShape colorStroke84b0de svgStroke"/><path fill="#4186c3" stroke="#4186c3" stroke-miterlimit="10" d="M1503.322 1468.654s-42.372-14.397-63.841 27.508c0 0 22.035 50.14 94.955 30.206 0 0 9.388-42.338-31.114-57.714Z" opacity=".35" class="color4186c3 svgShape colorStroke4186c3 svgStroke"/><path fill="#ffbeb6" stroke="#ffbeb6" stroke-miterlimit="10" d="m2460.523 1580.548-66.014-2.63-1.757 71.169 40.31-.903 5.783-57.04s12.891-8.02 21.678-10.596ZM2566.647 1598.673c50.467-12.897 35.25-118.572 34.227-125.306a16.212 16.212 0 0 0-6.363-.038 8.152 8.152 0 0 0-6.327 5.391c-1.049 3.137-1.472 8.219.82 16.142a13.596 13.596 0 0 1-1.818 11.486c-5.273 7.683-13.985 22.727-14.29 38.621-.275 14.278-5.156 25.587-10.609 32.345a18.36 18.36 0 0 1-15.047 6.69l-79.229-3.158c6.05 5.15 47.492 30.897 98.636 17.827Z" class="colorffbeb6 svgShape colorStrokeffbeb6 svgStroke"/><path fill="#ffa1a7" stroke="#ffbeb6" stroke-miterlimit="10" d="M2556.467 1645.974c7.829 1.033 25.87 3.679 34 7.067 10.544 4.393 30.753 2.196 36.903-18.451 4.46-14.97 1.067-26.707-1.135-32.03a32.592 32.592 0 0 1-2.323-9.668c-.652-7.552-.845-20.327 3.458-31.229 4.902-12.417-2.592-29.938-6.754-38.1a32.2 32.2 0 0 1-3.372-11.54 92.756 92.756 0 0 1-.417-12.743c.353-7.764-4.39-23.455-15.953-25.913 1.023 6.734 16.24 112.41-34.227 125.306-51.144 13.07-92.585-12.677-98.636-17.826l-7.488-.299c-8.787 2.576-21.678 10.595-21.678 10.595l-5.782 57.04 116.16-2.601a47.262 47.262 0 0 1 7.244.392Z" class="colorffa1a7 svgShape colorStrokeffbeb6 svgStroke"/><path fill="#ffd4ca" stroke="#ffd4ca" stroke-miterlimit="10" d="M2576.494 1654.925c16.219-2.251 42.284-29.028 48.076-76.525 5.304-43.489-5.752-76.952-7.655-82.29a15.735 15.735 0 0 0-7.907-.45 8.152 8.152 0 0 0-6.326 5.392c-1.05 3.137-1.473 8.219.819 16.142a13.595 13.595 0 0 1-1.818 11.486c-5.273 7.683-13.985 22.727-14.29 38.621-.275 14.278-5.155 25.587-10.609 32.345a18.36 18.36 0 0 1-15.046 6.69l-152.731-6.086-1.938 78.475 25.082-1.731 14.386-26.102c53.08 12.83 113.739 6.283 129.957 4.033Z" class="colorffd4ca svgShape colorStrokeffd4ca svgStroke"/><path fill="#ffbeb6" stroke="#ffbeb6" stroke-miterlimit="10" d="M2570.965 1668.306c7.828 1.033 25.868 3.679 34 7.067 10.544 4.393 30.752 2.196 36.903-18.452 4.459-14.97 1.067-26.706-1.136-32.03a32.596 32.596 0 0 1-2.323-9.667c-.652-7.553-.845-20.327 3.459-31.23 4.901-12.416-2.593-29.937-6.755-38.1a32.196 32.196 0 0 1-3.371-11.54 92.801 92.801 0 0 1-.418-12.742c.337-7.41-3.965-22.045-14.41-25.502 1.904 5.338 12.96 38.801 7.656 82.29-5.792 47.497-31.857 74.274-48.076 76.525-16.218 2.25-76.878 8.797-129.957-4.033l-14.386 26.102 131.57-9.08a47.267 47.267 0 0 1 7.244.392Z" class="colorffbeb6 svgShape colorStrokeffbeb6 svgStroke"/><path fill="#ffb4b8" d="M1573.607 1642.881a52.876 52.876 0 0 1-23.813-44.08 118.475 118.475 0 0 1 3.5-28.793l-8.677-11.675s.923 44.806-35.895 84.857c0 0 26.947-2.578 36.362.726 9.415 3.304 13.758 4.693 18.448 10.673 0 0-.673-1.12-1.72-3.22a44.213 44.213 0 0 1 1.72 3.22c3.832 8.01 8.966 10.925 10.676 11.71.552.254 1.093.521 1.634.8 45.336 23.32 171.399-3.091 171.399-3.091v-9.668c-75.25 37.29-141.343 9.8-173.634-11.459ZM1454.015 1604.493l15.427 12.215a25.832 25.832 0 0 1-3.808 4.738c-6.586 6.43-17.534.67-15.656-8.34a23.404 23.404 0 0 1 4.037-8.613Z" class="colorffb4b8 svgShape"/><path fill="#4186c3" stroke="#4186c3" stroke-miterlimit="10" d="M1288.818 1722.139v-1.689h-21.087v538.268h11.058v-536.579h10.029z" class="color4186c3 svgShape colorStroke4186c3 svgStroke"/><path fill="#4170c3" stroke="#4170c3" stroke-miterlimit="10" d="M1278.789 1722.139h10.03v536.579h-10.03z" class="color4170c3 svgShape colorStroke4170c3 svgStroke"/><circle cx="1279.225" cy="2271.075" r="26.197" fill="#dde8f4" transform="rotate(-58.584 1279.225 2271.075)" class="colordde8f4 svgShape"/><circle cx="1279.726" cy="2271.734" r="18.554" fill="#d0ecff" class="colord0ecff svgShape"/><path fill="#85addc" d="M1289.332 2271.734a9.606 9.606 0 1 1-9.606-9.606 9.606 9.606 0 0 1 9.606 9.606Z" class="color85addc svgShape"/><path fill="#195583" stroke="#195583" stroke-miterlimit="10" d="M1383.891 1720.451h10.716v428.884h-10.716z" class="color195583 svgShape colorStroke195583 svgStroke"/><path fill="#193b7c" stroke="#193b7c" stroke-miterlimit="10" d="M1394.608 1720.451h10.371v428.884h-10.371z" class="color193b7c svgShape colorStroke193b7c svgStroke"/><circle cx="1394.435" cy="2156.506" r="26.197" fill="#dde8f4" transform="rotate(-67.309 1394.435 2156.506)" class="colordde8f4 svgShape"/><circle cx="1394.936" cy="2157.165" r="18.554" fill="#d0ecff" transform="rotate(-56.959 1394.936 2157.165)" class="colord0ecff svgShape"/><circle cx="1394.936" cy="2157.165" r="9.606" fill="#85addc" class="color85addc svgShape"/><path fill="#195583" stroke="#195583" stroke-miterlimit="10" d="M2574.228 1720.498h10.544v428.884h-10.544z" class="color195583 svgShape colorStroke195583 svgStroke"/><path fill="#193b7c" stroke="#193b7c" stroke-miterlimit="10" d="M2563.685 1720.498h10.543v428.884h-10.543z" class="color193b7c svgShape colorStroke193b7c svgStroke"/><circle cx="2575.178" cy="2161.739" r="26.197" fill="#dde8f4" transform="rotate(-76.868 2575.178 2161.74)" class="colordde8f4 svgShape"/><circle cx="2575.68" cy="2162.398" r="18.554" fill="#d0ecff" transform="rotate(-41.229 2575.68 2162.398)" class="colord0ecff svgShape"/><circle cx="2575.68" cy="2162.398" r="9.606" fill="#85addc" transform="rotate(-22.64 2575.68 2162.398)" class="color85addc svgShape"/><path fill="#4186c3" stroke="#4186c3" stroke-miterlimit="10" d="M2711.83 1721.502h10.544v538.267h-10.544z" class="color4186c3 svgShape colorStroke4186c3 svgStroke"/><path fill="#4170c3" stroke="#4170c3" stroke-miterlimit="10" d="M2701.286 1721.502h10.544v538.267h-10.544z" class="color4170c3 svgShape colorStroke4170c3 svgStroke"/><circle cx="2712.78" cy="2272.995" r="26.197" fill="#dde8f4" transform="rotate(-56.705 2712.78 2272.995)" class="colordde8f4 svgShape"/><circle cx="2713.281" cy="2273.654" r="18.554" fill="#d0ecff" transform="rotate(-76.609 2713.281 2273.654)" class="colord0ecff svgShape"/><circle cx="2713.281" cy="2273.654" r="9.606" fill="#85addc" transform="rotate(-76.662 2713.281 2273.654)" class="color85addc svgShape"/><path fill="#4186c3" stroke="#4186c3" stroke-miterlimit="10" d="M1244.135 1438.975h14.449v234.527h-14.449zM2738.327 1438.975h14.449v234.527h-14.449z" class="color4186c3 svgShape colorStroke4186c3 svgStroke"/><path fill="#b0c4e2" stroke="#b0c4e2" stroke-miterlimit="10" d="M1234.013 1679.026h1533.172a7.72 7.72 0 0 1 7.72 7.72v21.453a7.72 7.72 0 0 1-7.72 7.72H1234.013a7.72 7.72 0 0 1-7.72-7.72v-21.453a7.72 7.72 0 0 1 7.72-7.72Z" class="colorb0c4e2 svgShape colorStrokeb0c4e2 svgStroke"/><path fill="#4186c3" stroke="#4186c3" stroke-miterlimit="10" d="M1232.273 1709.281h1536.651v11.169H1232.273z" class="color4186c3 svgShape colorStroke4186c3 svgStroke"/><path fill="#9db1e2" stroke="#b0c4e2" stroke-miterlimit="10" d="M1397.124 1679.026h1232.431s-472.807 64.294-721.104 11.809c0 0-378.909 19.278-511.327-11.809Z" class="color9db1e2 svgShape colorStrokeb0c4e2 svgStroke"/><path fill="#85addc" d="M2466.718 1571.977c-95.017-48.285-211.58-74.155-321.363-87.536l-18.982 54.504h-202.305l16.993-67.581c-93.784-1.116-157.979 4.388-157.979 4.388a2.024 2.024 0 0 0-3.77.148l-25.964 75.37a124.556 124.556 0 0 0-6.783 42.104l1.936 157.179a2.024 2.024 0 0 0 2.014 1.999l686.058 3.173a2.017 2.017 0 0 0 1.993-2.414c-12.838-62.75 23.803-164.533 29.13-178.823a2.023 2.023 0 0 0-.978-2.511Z" class="color85addc svgShape"/><path fill="#3e7db7" d="m2126.373 1538.945 18.982-54.504c-74.088-9.03-145.087-12.373-204.294-13.077l-16.993 67.581Z" class="color3e7db7 svgShape"/><path fill="#0d6bb2" d="m1941.06 1471.364-16.992 67.581h202.305s-159.915-5.36-185.312-67.581Z" class="color0d6bb2 svgShape"/><path fill="#799fdc" d="m1783.082 1475.752-29.734 75.518s-7.13 14.008-6.783 42.104 3.95 159.178 3.95 159.178l688.051.759s-5.859-21.864-1.61-52.444-537.494 61.347-606.422-117.044c0 0-19.117-55.257-21.287-109.804l-26.165 1.733" class="color799fdc svgShape"/><path fill="#7092e1" stroke="#b2bbe1" stroke-miterlimit="10" d="M839.786 1020.303h301.423a44.228 44.228 0 0 1 44.228 44.228v1087.48a44.228 44.228 0 0 1-44.228 44.227H839.786a44.228 44.228 0 0 1-44.228-44.228V1064.531a44.228 44.228 0 0 1 44.228-44.228Z" class="color7092e1 svgShape colorStrokeb2bbe1 svgStroke"/><path fill="#5372d5" stroke="#5372d5" stroke-miterlimit="10" d="M862.784 1058.055h242.537a44.943 44.943 0 0 1 44.943 44.942v172.189a44.943 44.943 0 0 1-44.943 44.943H862.783a44.943 44.943 0 0 1-44.942-44.943v-172.189a44.943 44.943 0 0 1 44.943-44.942Z" class="color5372d5 svgShape colorStroke5372d5 svgStroke"/><path fill="#0d193f" stroke="#b2bbe1" stroke-miterlimit="10" d="M870.652 1047.992h242.538a44.943 44.943 0 0 1 44.942 44.942v172.189a44.943 44.943 0 0 1-44.942 44.943H870.652a44.943 44.943 0 0 1-44.943-44.943v-172.189a44.943 44.943 0 0 1 44.943-44.942Z" class="color0d193f svgShape colorStrokeb2bbe1 svgStroke"/><path fill="none" stroke="#97ff73" stroke-miterlimit="10" stroke-width="2" d="M825.709 1133.365h65.759l19.477-45.464 21.844 81.748 12.11-62.011 6.516 25.727h27.367l13.139 30.893 16.835-79.809 10.425 48.916 15.639-29.48 11.728 57.817 9.123-28.337h22.154l19.548-48.916 9.123 87.117 15.638-63.928 7.819 25.727h28.179" class="colorStroke97ff73 svgStroke"/><path fill="none" stroke="#ff9e00" stroke-miterlimit="10" stroke-width="2" d="M1158.132 1232.14h-65.758l-19.477-45.464-21.845 81.747-12.109-62.01-6.516 25.727h-27.368l-13.138 30.893-16.835-79.809-10.426 48.916-15.638-29.48-11.729 57.817-9.122-28.337h-22.155l-19.548-48.916-9.122 87.117-15.639-63.928-7.819 25.727h-28.179" class="colorStrokeff9e00 svgStroke"/><path fill="#5372d5" stroke="#5372d5" stroke-miterlimit="10" d="M795.558 1269.124v927.154l351.452-.04s-206.635-7.047-258.577-305.926-71.25-582.058-92.875-621.188Z" class="color5372d5 svgShape colorStroke5372d5 svgStroke"/><path fill="#ed5a46" stroke="#ed5a46" stroke-miterlimit="10" d="M393.309 1458.514c17.984 183.558 17.569 182.516 38.642 253.925 20.604 69.82 55.077 273.156 52.422 335.378 0 0 31.267-259.554-15.771-427.507s-75.293-161.796-75.293-161.796Z" class="colored5a46 svgShape colorStrokeed5a46 svgStroke"/><path fill="#e38e3f" stroke="#e38e3f" stroke-miterlimit="10" d="M516.59 2017.023s-41.592-325.635 118.28-428.556c0 0-14.786 81.43-51.748 153.346 0 0-66.532 142.145-66.532 275.21Z" class="colore38e3f svgShape colorStrokee38e3f svgStroke"/><path fill="#ffd866" stroke="#ffd866" stroke-miterlimit="10" d="M527.973 2025.125s31.378-154.711 176.823-239.237c0 0-46.838-34.009-109.058 16.612s-76.86 204.6-76.86 204.6ZM294.311 1650.68s152.78 178.574 173.866 340.593c0 0-17.293-248.79-83.135-315.017 0 0-41.323-39.362-90.73-25.575Z" class="colorffd866 svgShape colorStrokeffd866 svgStroke"/><path fill="#e38e3f" stroke="#e38e3f" stroke-miterlimit="10" d="M445.59 1964.353s-52.26-142.796-202.995-202.253c0 0 39.686-39.162 106.26.045s102.788 183.727 102.788 183.727Z" class="colore38e3f svgShape colorStrokee38e3f svgStroke"/><path fill="#e3782b" stroke="#e3782b" stroke-miterlimit="10" d="M242.595 1762.1s108.816 32.545 190.913 175.971h16.025s-96.29-196.663-175.402-191.473c0 0-23.055 6.265-31.536 15.502Z" class="colore3782b svgShape colorStrokee3782b svgStroke"/><path fill="#ffbd53" stroke="#ffbd53" stroke-miterlimit="10" d="M294.311 1650.68s127.741 123.958 173.866 340.593c0 0-39.387-325.714-173.866-340.592Z" class="colorffbd53 svgShape colorStrokeffbd53 svgStroke"/><path fill="#ed3e30" stroke="#ed3e30" stroke-miterlimit="10" d="M393.309 1458.514s121.082 331.471 91.064 589.303c0 0-10.97-214.432-52.422-335.378 0 0-42.347-119.75-38.642-253.925Z" class="colored3e30 svgShape colorStrokeed3e30 svgStroke"/><path fill="#e3782b" stroke="#e3782b" stroke-miterlimit="10" d="M634.87 1588.467s-145.182 42.757-121.798 436.658c0 0-11.814-269.306 121.797-436.658Z" class="colore3782b svgShape colorStrokee3782b svgStroke"/><path fill="#ffbd53" stroke="#ffbd53" stroke-miterlimit="10" d="M704.796 1785.888s-135.785 69.486-176.823 239.237c0 0 18.06-235.11 176.823-239.237Z" class="colorffbd53 svgShape colorStrokeffbd53 svgStroke"/><path fill="#03598e" stroke="#03598e" stroke-miterlimit="10" d="m418.407 1968.972 29.57 205.141h97.95l36.962-205.141H418.407zM414.198 1938.071h171.669a14.888 14.888 0 0 1 14.888 14.888v1.125a14.888 14.888 0 0 1-14.888 14.888h-171.67a14.888 14.888 0 0 1-14.887-14.888v-1.125a14.888 14.888 0 0 1 14.888-14.888Z" class="color03598e svgShape colorStroke03598e svgStroke"/><path fill="#034181" stroke="#034181" stroke-miterlimit="10" d="M582.89 1968.972H418.406l29.57 205.141h97.95s-72.699-38.665-77.755-148.687a38.53 38.53 0 0 1 26.206-38.386c17.701-5.877 45.47-10.673 86.536-7.106ZM433.508 1938.071h127.88s-27.901 13.885-69.422 15.45-58.458-15.45-58.458-15.45Z" class="color034181 svgShape colorStroke034181 svgStroke"/><path fill="#4186c3" stroke="#4186c3" stroke-miterlimit="10" d="m679.75 1461.015-179.621-28.876a8.3 8.3 0 0 1-6.858-9.485l35.11-218.403a8.3 8.3 0 0 1 9.485-6.858l179.622 28.876a8.3 8.3 0 0 1 6.857 9.485l-35.11 218.403a8.3 8.3 0 0 1-9.485 6.858Z" class="color4186c3 svgShape colorStroke4186c3 svgStroke"/><path fill="#2166c3" stroke="#2166c3" stroke-miterlimit="10" d="m667.058 1419.565-143.792-23.116a6.645 6.645 0 0 1-5.49-7.593l28.107-174.837a6.645 6.645 0 0 1 7.593-5.49l143.792 23.116a6.645 6.645 0 0 1 5.49 7.593l-28.107 174.837a6.645 6.645 0 0 1-7.593 5.49Z" class="color2166c3 svgShape colorStroke2166c3 svgStroke"/><path fill="#fbcec9" stroke="#fbcec9" stroke-miterlimit="10" d="M549.082 1149.9v89.512l81.727 3.56v-30.048a43.162 43.162 0 0 1 3.74-17.76 48.033 48.033 0 0 1 17.548-20.851l-81.655-27.973-21.36-9.154Z" class="colorfbcec9 svgShape colorStrokefbcec9 svgStroke"/><path fill="#21221f" stroke="#21221f" stroke-miterlimit="10" d="M513.083 1081.413s-1.803 92.171 41.477 108.293c0 0 15.63 3.133 17.433-7.805a180.492 180.492 0 0 0 1.803-24.609l29.455-40.58 39.804-58.17-115.545 12.92Z" class="color21221f svgShape colorStroke21221f svgStroke"/><path fill="#fbcec9" stroke="#fbcec9" stroke-miterlimit="10" d="M596.09 1128.991s61.604.037 94.284-13.87a24.677 24.677 0 0 0-4.001-6.59c-7.37-8.887-11.67-38.662-11.67-38.662-6.755 3.037-34.393 3.799-34.393 3.799-17.197 16.406-52.819 18.457-52.819 18.457 3.071 16.406-4.299 36.866-4.299 36.866l-2.456-10.206c-11.823-10.527-20.116-7.613-25.185-2.86a21.153 21.153 0 0 0-6.354 17.246c1.83 22.528 24.783 22.528 24.783 22.528a92.71 92.71 0 0 0 24.798 20.673c-3.642-12.03-6.566-29.06-2.688-47.38Z" class="colorfbcec9 svgShape colorStrokefbcec9 svgStroke"/><path fill="#007f76" stroke="#007f76" stroke-miterlimit="10" d="M513.072 1080.315s109.987 9.225 164.004-2.275l-1.255-6.444s-7.984-59.56-74.312-60.758c0 0-74.925-2.995-88.437 69.477Z" class="color007f76 svgShape colorStroke007f76 svgStroke"/><path fill="#21221f" stroke="#21221f" stroke-miterlimit="10" d="M639.024 1088.003s16.157-6.054 28.444.867c0 0 2.648 3.658-5.433 3.322 0 0-13.258-1.635-21.082.677a3.995 3.995 0 0 1-4.135-1.005c-.855-.983-.928-2.344 2.206-3.86ZM645.45 1103.93s9.878-7.451 18.563-1.063c1.08.794 2.458-.615 1.568-1.61a10.941 10.941 0 0 0-3.124-2.136c-6.332-3.243-14.876 1.22-14.876 1.22s-3.335 1.722-3.508 2.762 1.376.827 1.376.827Z" class="color21221f svgShape colorStroke21221f svgStroke"/><path fill="#21221f" stroke="#21221f" stroke-miterlimit="10" d="M663.188 1108.442a5.05 5.05 0 1 1-5.05-4.956 5.004 5.004 0 0 1 5.05 4.956Z" class="color21221f svgShape colorStroke21221f svgStroke"/><path fill="#005d6a" stroke="#005d6a" stroke-miterlimit="10" d="M402.027 1368.158s3.398 17.423 90.466 32.462l-27.165-32.462-53.634-14.431Z" class="color005d6a svgShape colorStroke005d6a svgStroke"/><path fill="#fbcec9" stroke="#fbcec9" stroke-miterlimit="10" d="M419.356 1334.061s-25.772 106.641-25.076 111.426 6.966 12.305 16.02 17.774 32.042 7.52 48.062 0 50.848-25.977 50.848-25.977l3.862-90.918-56.103-30.762Z" class="colorfbcec9 svgShape colorStrokefbcec9 svgStroke"/><path fill="#5794cf" stroke="#5794cf" stroke-miterlimit="10" d="M506.331 2148.286v88.108s-1.393 38.644 15.324 43.281c10.364 2.875 29.294 2.185 42.186 1.246a32.035 32.035 0 0 0 23.28-13.189c11.046-14.828 27.887-41.82 30.657-71.528 4.18-44.827-51.544-47.918-51.544-47.918l-4.082 9.274ZM658.265 2152.245v88.109s-1.394 38.644 15.323 43.281c10.364 2.875 29.295 2.185 42.187 1.246a32.034 32.034 0 0 0 23.279-13.189c11.046-14.828 27.888-41.82 30.657-71.528 4.18-44.827-51.544-47.919-51.544-47.919l-4.081 9.275Z" class="color5794cf svgShape colorStroke5794cf svgStroke"/><path fill="#007f76" stroke="#007f76" stroke-miterlimit="10" d="M474.06 1567.104s-4.267 516.195 16.435 593.411c0 0 45.862 19.715 114.796 0V1718.74s15.885 26.122 18.473 67.195 19.408 366.367 19.408 366.367v9.857s62.106 23 117.743-4.929c0 0-20.702-551.018-32.347-590.125 0 0-208.839 25.964-254.509 0Z" class="color007f76 svgShape colorStroke007f76 svgStroke"/><path fill="#fbcec9" stroke="#fbcec9" stroke-miterlimit="10" d="M830.534 1303.832c-1.092 7.056-25.205 69.092-25.205 69.092l-10.986-37.136-24.31-17.334-42.972 19.09-5.563 31.138s44.009 103.673 75.135 104.87c15.691.604 28.888-9.883 38.118-20.433a79.405 79.405 0 0 0 17.464-34.256c6.684-28.602 21.88-93.794 24.112-104.825a24.802 24.802 0 0 1 .753-2.81c-20.198-8.305-36.389-10.948-45.869-11.749-.23 1.531-.463 2.972-.677 4.353Z" class="colorfbcec9 svgShape colorStrokefbcec9 svgStroke"/><path fill="#007f76" stroke="#007f76" stroke-miterlimit="10" d="M574.92 1220.388a110.969 110.969 0 0 0-44.048 7.097l-64.763 24.537s-25.982 8.83-38.023 30.228-26.059 85.908-26.059 85.908 24.792-24.434 73.588 19.72c0 0 3.169 83.55 1.268 110.72s-10.774 93.74-10.774 114.12c0 0 173.639 21.057 268.697-6.114l-13.308-111.402v-112.759s29.15-31.247 77.947-33.285l-24.695-60.634a41.037 41.037 0 0 0-8.508-13.126c-7.166-7.382-20.58-18.778-39.041-24.055-19.533-5.583-64.553-17.221-90.982-24a200.286 200.286 0 0 0-41.23-6.098Z" class="color007f76 svgShape colorStroke007f76 svgStroke"/><path fill="#d8f1ff" stroke="#d8f1ff" stroke-miterlimit="10" d="M652.643 1187.672a28.423 28.423 0 0 0 9.919-2.84c23.45-11.918 23.976-51.691 23.976-51.691 5.11-4.647 6.71-11.242 4.007-18.02-32.733 13.907-94.44 13.87-94.44 13.87-3.884 18.32-.954 35.352 2.693 47.381a92.063 92.063 0 0 0 53.845 11.3Z" class="colord8f1ff svgShape colorStroked8f1ff svgStroke"/><path fill="none" stroke="#000" stroke-miterlimit="10" d="m580.736 1118.785 15.37 10.206" class="colorStroke000 svgStroke"/><path fill="#ffffff" stroke="#fff" stroke-miterlimit="10" d="M896.754 1284.963s13.512-13.614 14.123-28.888c.31-7.765-2.331-17.082-5.003-24.367A23.842 23.842 0 0 0 889 1216.739l-33.49-7.973a24.426 24.426 0 0 0-17.885 17.445l30.638-2.187c-.337 7.411-4.766 30.35-8.551 33.367s-6.047-17.53-6.047-17.53c-4.022-13.25-11.81-8.715-15.557-5.433s.872 10.926-2.093 19.623a84.224 84.224 0 0 0-3.57 19.137 122.69 122.69 0 0 1-1.234 26.291c9.48.8 25.671 3.444 45.869 11.749 4.36-13.29 19.674-26.265 19.674-26.265Z" class="colorfff svgShape colorStrokefff svgStroke"/><path fill="#21221f" stroke="#21221f" stroke-miterlimit="10" d="m573.98 1155.699 24.818 20.673" class="color21221f svgShape colorStroke21221f svgStroke"/><path fill="#fbb3b3" stroke="#fbb3b3" stroke-miterlimit="10" d="M677.076 1082.758v-4.718s-26.38 5.456-53.097 5.776-21.937 7.717-36.488 8.309a99.29 99.29 0 0 1-4.299 36.866s8.612-51.559 93.884-46.233ZM573.98 1128.008s-5.044-5.154-9.736-2.706a6.178 6.178 0 0 0-3.203 5.097c-.308 4.578.554 11.09 12.939 13.869ZM638.398 1188.113s-21.529.168-34.524-9.084c0 0 11.528 16.835 28.237 23.184a124.034 124.034 0 0 1 6.287-14.1ZM549.082 1187.175v12c0 .012.001.022.013.023.657.077 24.885 2.725 24.885-27.632a25.087 25.087 0 0 1-.433 4.07c-1.933 10.581-13.436 16.809-23.164 12.218a10.759 10.759 0 0 1-1.267-.699.022.022 0 0 0-.034.02Z" class="colorfbb3b3 svgShape colorStrokefbb3b3 svgStroke"/><path fill="#fbb3b3" d="M412.497 1362.741s28.349-8.705 63.118 25.136c0 0-57.83-11.355-68.523 39.127a31.739 31.739 0 0 0 20.03 36.51c5.946 2.13 13.51 3.277 23.125 2.638 0 0-20.13 7.373-39.946-2.891a71.214 71.214 0 0 1-11.36-10.012 15.446 15.446 0 0 1-3.398-13.495ZM799.445 1349.159s-38.326.369-73.623 29.224c0 0 40.511 94.583 70.811 95.17 0 0 26.545 6.309 49.926-38.474 0 0-33.962 59.043-64.371 18.208 0 0-47.157-74.523 17.257-100.253ZM831.211 1299.48s34.327 6.677 45.869 11.748l-4.104 17.976s7.404-15.845-41.765-29.725Z" class="colorfbb3b3 svgShape"/><path fill="#d5ebff" stroke="#dfebff" stroke-miterlimit="10" d="m866.926 1234.25 41.678 4.057s6.968 21.89-3.197 34.947c0 0-8.295-31.857-39.475-33.866Z" class="colord5ebff svgShape colorStrokedfebff svgStroke"/><path fill="#dfebff" stroke="#dfebff" stroke-miterlimit="10" d="M850.455 1233.396a13.252 13.252 0 0 1 3.21 6.465c.474 3.586 2.623 17.994 6.047 17.53 0 0-1.964 4.806-4.629 2.606s-4.112-27.515-14.248-27.686Z" class="colordfebff svgShape colorStrokedfebff svgStroke"/><path fill="#016a6d" d="M513.072 1080.315s94.081 9.982 164.004-2.275l-1.255-6.444s-82.24 5.812-81.554-23.604c.685-29.417 25.48-35.152 25.48-35.152s-87.768-20.226-106.675 67.475Z" class="color016a6d svgShape"/><path fill="#0d110e" stroke="#21221f" stroke-miterlimit="10" d="M623.98 1083.816s-27.006 7.717-36.489 8.309c0 0 1.319 18.404-4.299 36.866a20.563 20.563 0 0 0-9.212-15.593s-15.691-8.327-22.339 7.651c-4.804 11.548-.787 21.997 6.435 28.715a26.663 26.663 0 0 0 13.996 6.668s1.728.275 1.724.86 1.514 6.414-.25 18.344-13.57 16.36-24.464 11.539c0 0-27.938-39.638-3.632-104.408Z" class="color0d110e svgShape colorStroke21221f svgStroke"/><path fill="#016a6d" d="m727.201 1251.343-90.982-24s-29.127-5.582-41.23-6.098l-30.157-.958s-17.73 1.049-33.96 7.198l-64.763 24.537s-30.036 11.213-38.023 30.228-26.059 85.908-26.059 85.908 29.688-22.301 73.588 19.72l1.268 110.72-10.774 114.12s95.575 23.285 163 14.407c0 0-158.828-125.137-75.336-292.624a135.218 135.218 0 0 1 41.278-49.031c27.048-19.714 72.837-42.768 132.15-34.127Z" class="color016a6d svgShape"/><path fill="#016063" d="M472.301 1613.413s187.182 34.364 262.505-6.81c0 0-216.55 53.877-223.088 212.91s33.39 310.55 93.573 341.002c0 0-77.447 21.077-117.496 2.007 0 0-28.117-254.861-15.494-549.109Z" class="color016063 svgShape"/><path fill="#016063" d="M605.291 1718.739s17.261 46.25 18.473 67.195 19.408 376.224 19.408 376.224 59.545 23.922 117.743-4.929c0 0-100.336-18.499-102.679-269.432 0 0-9.59-172.08-52.945-169.058Z" class="color016063 svgShape"/><path fill="#3a81cf" stroke="#3a81cf" stroke-miterlimit="10" d="M506.331 2168.304v68.09s-.629 37.317 15.324 43.281 42.186 1.246 42.186 1.246-52.304 10.775-40.2-80.13a16.84 16.84 0 0 1 12.441-14.08c13.137-3.425 35.168-10.395 46.807-20.948 0 0-47.885 8.583-76.558 2.541ZM582.889 2165.763v58.464M657.344 2166.481l.92 73.873s-1.967 41.277 15.324 43.281 42.187 1.246 42.187 1.246-39.953.657-39.165-76.354a23.92 23.92 0 0 1 16.955-22.645c12.065-3.654 27.737-9.618 35.185-17.552 0 0-23.785 10.19-71.406-1.849ZM728.75 2168.33v55.897" class="color3a81cf svgShape colorStroke3a81cf svgStroke"/><path stroke="#000" stroke-miterlimit="10" d="m805.95 1218.077-.735 10.165 3.52.343.735-10.165-3.52-.343zM912.859 1228.485l-3.52-.343-.735 10.165 3.52.343.735-10.165z" class="colorStroke000 svgStroke"/><path fill="#ffffff" stroke="#fff" stroke-miterlimit="10" d="m920.356 1229.215-7.497-.73-.735 10.165 7.497.73a2.197 2.197 0 0 0 2.204-2.232l.384-5.306a2.332 2.332 0 0 0-1.853-2.627Z" class="colorfff svgShape colorStrokefff svgStroke"/><path fill="#b0c4e2" stroke="#b0c4e2" stroke-miterlimit="10" d="m809.47 1218.42-.735 10.165 99.869 9.722.735-10.165-99.869-9.722z" class="colorb0c4e2 svgShape colorStrokeb0c4e2 svgStroke"/><path fill="#ffffff" d="m798.065 1222.428 7.142 5.929.751-10.395-7.893 4.466z" class="colorfff svgShape"/><path stroke="#000" stroke-miterlimit="10" d="m798.065 1222.428 3.571 2.964.376-5.197-3.947 2.233z" class="colorStroke000 svgStroke"/><path fill="#4186c3" stroke="#4186c3" stroke-miterlimit="10" d="M2370.449 343.757h428.884v15.815h-428.884z" transform="rotate(-71.751 2584.896 351.668)" class="color4186c3 svgShape colorStroke4186c3 svgStroke"/><circle cx="2508.719" cy="557.797" r="25.289" fill="#b2c3e1" stroke="#b2c3e1" stroke-miterlimit="10" transform="rotate(-5.655 2508.72 557.797)" class="colorb2c3e1 svgShape colorStrokeb2c3e1 svgStroke"/><path fill="#2368a5" stroke="#2368a5" stroke-miterlimit="10" d="M2462.13 573.34c-96.64-86.505-221.215-107.444-289.39-52.057a121.52 121.52 0 0 1 14.627-20.205c63.864-71.349 199.664-53.975 303.315 38.805s135.906 225.832 72.04 297.18a121.328 121.328 0 0 1-13.925 13.251c42.994-74.253 7.865-192.358-86.667-276.975Z" class="color2368a5 svgShape colorStroke2368a5 svgStroke"/><path fill="#b0c4e2" stroke="#b0c4e2" stroke-miterlimit="10" d="M2259.407 798.258c-94.532-84.616-129.66-202.72-86.667-276.975 68.175-55.387 192.75-34.448 289.39 52.056 94.532 84.617 129.66 202.722 86.667 276.975-68.175 55.388-192.75 34.448-289.39-52.056Z" class="colorb0c4e2 svgShape colorStrokeb0c4e2 svgStroke"/><path fill="#d0ddef" stroke="#d0ddef" stroke-miterlimit="10" d="m2465.81 675.733-10.543 137.885-154.124-58.762-78.558-148.362 130.55-31.316 112.675 100.555z" class="colord0ddef svgShape colorStroked0ddef svgStroke"/><path fill="#89a2e2" stroke="#b0c4e2" stroke-miterlimit="10" d="M2172.414 518.759s143.436-133.098 316.761 61.802l83.405 113.593 10.428 106.625-34.537 47.01s-88.686 81.82-238.846-14.15c0 0 138.15-126.057-4.08-275.085-19.778-20.723-45.821-34.595-74.2-38.5-21.6-2.97-46.38-.575-67.48 16.603 0 0 8.466-12.658 8.55-17.898Z" opacity=".36" class="color89a2e2 svgShape colorStrokeb0c4e2 svgStroke"/><ellipse cx="2455.267" cy="813.618" fill="#ffffff" rx="46.262" ry="51.016" transform="rotate(-45 2455.267 813.618)" class="colorfff svgShape"/><ellipse cx="2465.81" cy="675.734" fill="#ffffff" rx="46.262" ry="51.016" transform="rotate(-45 2465.81 675.734)" class="colorfff svgShape"/><ellipse cx="2353.135" cy="575.178" fill="#ffffff" rx="46.262" ry="51.016" transform="rotate(-45 2353.135 575.178)" class="colorfff svgShape"/><ellipse cx="2222.585" cy="606.494" fill="#ffffff" rx="46.262" ry="51.016" transform="rotate(-45 2222.586 606.494)" class="colorfff svgShape"/><ellipse cx="2301.143" cy="754.856" fill="#ffffff" rx="46.262" ry="51.016" transform="rotate(-45 2301.143 754.856)" class="colorfff svgShape"/><circle cx="2353.135" cy="684.034" r="12.645" fill="#3e7db7" stroke="#3e7db7" stroke-miterlimit="10" class="color3e7db7 svgShape colorStroke3e7db7 svgStroke"/><path fill="#238ea5" stroke="#2368a5" stroke-miterlimit="10" d="M1507.063 993.358H1404.41v71.886h21.156c.58 0 6.023-57.095 81.497-61.729Z" opacity=".17" class="color238ea5 svgShape colorStroke2368a5 svgStroke"/><path fill="#0f4b85" stroke="#0f4b85" stroke-miterlimit="10" d="M1766.5 464.58s-99.606-18.811-209.515 82.13c0 0-191.401 183.646-58.115 310.432 0 0-90.7-165.392 146.42-320.388 0 0 133.523-78.654 229.637-8.643 0 0-68.84-63.113-108.427-63.532Z" class="color0f4b85 svgShape colorStroke0f4b85 svgStroke"/><path fill="#ffffff" d="M1843.064 575.456c-30.76-46.356-128.81-35.418-219.005 24.43s-138.374 145.942-107.615 192.298l541.602 908.606c256.195-17.791 489.194-116.786 489.194-116.786Z" opacity=".22" class="colorfff svgShape"/><path fill="#ffffff" d="M2207.813 565.087c30.76-46.356 128.81-35.418 219.004 24.43s138.375 145.942 107.616 192.298l-541.602 908.606c-256.196-17.791-489.195-116.786-489.195-116.786Z" opacity=".22" class="colorfff svgShape"/><path fill="#4186c3" stroke="#4186c3" stroke-miterlimit="10" d="m1537.44 559.672-134.308-407.313-6.349 2.094L1530.4 559.672l-8.671 2.859.691 2.093 15.02-4.952z" class="color4186c3 svgShape colorStroke4186c3 svgStroke"/><path fill="#285cb7" stroke="#285cb7" stroke-miterlimit="10" d="M1454.691 145.152h9.13v426.68h-9.13z" transform="rotate(-18.249 1459.257 358.492)" class="color285cb7 svgShape colorStroke285cb7 svgStroke"/><path fill="#b2c3e1" stroke="#b2c3e1" stroke-miterlimit="10" d="M1531.922 556.717a25.289 25.289 0 0 1 25.29 25.289c0 .035-.003.069-.004.104a25.285 25.285 0 1 0-43.546-17.59 25.21 25.21 0 0 1 18.26-7.803Z" class="colorb2c3e1 svgShape colorStrokeb2c3e1 svgStroke"/><path fill="#6db4e1" stroke="#6db4e1" stroke-miterlimit="10" d="M1538.948 589.913a25.209 25.209 0 0 0 18.26-7.803c0-.035.003-.07.003-.104a25.282 25.282 0 0 0-43.55-17.486l-.002.104a25.29 25.29 0 0 0 25.289 25.29Z" class="color6db4e1 svgShape colorStroke6db4e1 svgStroke"/><path fill="#2368a5" stroke="#2368a5" stroke-miterlimit="10" d="M1585.537 580.167c96.64-86.504 221.215-107.444 289.39-52.056a121.506 121.506 0 0 0-14.627-20.206c-63.864-71.348-199.664-53.975-303.315 38.805s-135.905 225.832-72.04 297.18a121.32 121.32 0 0 0 13.925 13.252c-42.994-74.254-7.865-192.359 86.667-276.975Z" class="color2368a5 svgShape colorStroke2368a5 svgStroke"/><path fill="#b0c4e2" stroke="#b0c4e2" stroke-miterlimit="10" d="M1788.26 805.086c94.532-84.616 129.66-202.721 86.667-276.975-68.175-55.388-192.75-34.448-289.39 52.056-94.532 84.616-129.66 202.721-86.667 276.975 68.175 55.388 192.75 34.448 289.39-52.056Z" class="colorb0c4e2 svgShape colorStrokeb0c4e2 svgStroke"/><path fill="#d0ddef" stroke="#d0ddef" stroke-miterlimit="10" d="m1581.857 682.561 10.543 137.885 154.124-58.763 78.557-148.361-130.549-31.316-112.675 100.555z" class="colord0ddef svgShape colorStroked0ddef svgStroke"/><path fill="#89a2e2" stroke="#b0c4e2" stroke-miterlimit="10" d="M1874.927 528.111s-143.436-133.098-316.761 61.802l-83.405 113.593-10.428 106.626 34.537 47.01s88.686 81.82 238.846-14.15c0 0-138.15-126.058 4.08-275.085 19.778-20.724 45.821-34.595 74.2-38.5 21.6-2.971 46.38-.576 67.48 16.602 0 0-8.466-12.657-8.55-17.898Z" opacity=".36" class="color89a2e2 svgShape colorStrokeb0c4e2 svgStroke"/><ellipse cx="1592.4" cy="820.446" fill="#ffffff" rx="51.016" ry="46.262" transform="rotate(-45 1592.4 820.446)" class="colorfff svgShape"/><ellipse cx="1581.857" cy="682.561" fill="#ffffff" rx="51.016" ry="46.262" transform="rotate(-45 1581.857 682.561)" class="colorfff svgShape"/><ellipse cx="1694.532" cy="582.006" fill="#ffffff" rx="51.016" ry="46.262" transform="rotate(-45 1694.532 582.006)" class="colorfff svgShape"/><ellipse cx="1825.082" cy="613.322" fill="#ffffff" rx="51.016" ry="46.262" transform="rotate(-45 1825.081 613.322)" class="colorfff svgShape"/><ellipse cx="1746.524" cy="761.683" fill="#ffffff" rx="51.016" ry="46.262" transform="rotate(-45 1746.524 761.683)" class="colorfff svgShape"/><circle cx="1694.532" cy="690.862" r="12.644" fill="#3e7db7" stroke="#3e7db7" stroke-miterlimit="10" transform="rotate(-22.5 1694.532 690.861)" class="color3e7db7 svgShape colorStroke3e7db7 svgStroke"/><path fill="#d0ecff" stroke="#d0ecff" stroke-miterlimit="10" d="M3602.503 2138.294v-.23a25.915 25.915 0 0 0-20.852.822v.23a25.91 25.91 0 1 0 20.852-.822Zm-10.043 43.074a18.338 18.338 0 0 1-10.809-32.302v-.232a18.295 18.295 0 0 1 20.852-1.999v.232a18.342 18.342 0 0 1-10.043 34.3Z" class="colord0ecff svgShape colorStroked0ecff svgStroke"/><path fill="#85addc" stroke="#85addc" stroke-miterlimit="10" d="M3602.503 2146.514a18.13 18.13 0 0 0-20.852 2.022 18.336 18.336 0 1 0 20.852-2.022Zm-8.658 26.14a9.607 9.607 0 1 1 9.606-9.607 9.606 9.606 0 0 1-9.606 9.607Z" class="color85addc svgShape colorStroke85addc svgStroke"/><path fill="#d0ecff" d="M3593.845 2172.654a9.607 9.607 0 1 0-9.606-9.607 9.606 9.606 0 0 0 9.606 9.607Z" class="colord0ecff svgShape"/><path fill="#236397" d="M3241.933 1881.189h339.718v18.246h-339.718z" class="color236397 svgShape"/><path fill="#4085c1" stroke="#4085c1" stroke-miterlimit="10" d="M3221.081 1611.848v527.08a25.652 25.652 0 0 1 20.852-.832v-526.248ZM3581.651 1611.848v527.08a25.652 25.652 0 0 1 20.852-.832v-526.248Z" class="color4085c1 svgShape colorStroke4085c1 svgStroke"/><path fill="#d0ecff" d="M3241.933 2138.294v-.23a25.915 25.915 0 0 0-20.852.822v.23a25.909 25.909 0 1 0 20.852-.822Zm-10.042 43.074a18.338 18.338 0 0 1-10.81-32.302v-.232a18.294 18.294 0 0 1 20.852-1.999v.232a18.342 18.342 0 0 1-10.042 34.3Z" class="colord0ecff svgShape"/><path fill="#85addc" d="M3241.933 2146.514a18.13 18.13 0 0 0-20.852 2.022 18.336 18.336 0 1 0 20.852-2.022Zm-8.713 26.14a9.607 9.607 0 1 1 9.606-9.607 9.606 9.606 0 0 1-9.606 9.607Z" class="color85addc svgShape"/><path fill="#d0ecff" d="M3233.22 2172.654a9.607 9.607 0 1 0-9.606-9.607 9.606 9.606 0 0 0 9.606 9.607Z" class="colord0ecff svgShape"/><rect width="74.721" height="125.982" x="3546.028" y="1365.965" fill="#549abe" rx="7.484" class="color549abe svgShape"/><path fill="#b5c3db" d="M3567.424 1402.456h31.93a7.494 7.494 0 0 1 7.494 7.494v56.258a7.494 7.494 0 0 1-7.494 7.493h-31.93a7.494 7.494 0 0 1-7.494-7.493v-56.258a7.494 7.494 0 0 1 7.494-7.494Z" class="colorb5c3db svgShape"/><rect width="74.721" height="26.065" x="3546.028" y="1339.9" fill="#82ade3" stroke="#82ade3" stroke-miterlimit="10" rx="8.55" class="color82ade3 svgShape colorStroke82ade3 svgStroke"/><path fill="#5184c2" stroke="#5184c2" stroke-miterlimit="10" d="M3462.358 1412.014h59.604a5.82 5.82 0 0 1 5.82 5.82v68.293a5.82 5.82 0 0 1-5.82 5.82h-59.604a5.82 5.82 0 0 1-5.82-5.82v-68.293a5.82 5.82 0 0 1 5.82-5.82Z" class="color5184c2 svgShape colorStroke5184c2 svgStroke"/><path fill="#1b5584" stroke="#1b5584" stroke-miterlimit="10" d="M3476.238 1434.604h32.713a5.8 5.8 0 0 1 5.8 5.799v33.581a5.8 5.8 0 0 1-5.8 5.8h-32.713a5.8 5.8 0 0 1-5.799-5.8v-33.581a5.8 5.8 0 0 1 5.8-5.8Z" class="color1b5584 svgShape colorStroke1b5584 svgStroke"/><path fill="#303533" d="M3464.31 1388.555h55.7a7.772 7.772 0 0 1 7.773 7.772v7.046a7.772 7.772 0 0 1-7.772 7.772h-55.701a7.772 7.772 0 0 1-7.772-7.772v-7.046a7.772 7.772 0 0 1 7.772-7.772Z" class="color303533 svgShape"/><rect width="74.721" height="125.982" x="3206.311" y="1369.44" fill="#1b5584" stroke="#1b5584" stroke-miterlimit="10" rx="7.484" class="color1b5584 svgShape colorStroke1b5584 svgStroke"/><path fill="#5184c2" stroke="#5184c2" stroke-miterlimit="10" d="M3227.706 1405.932h31.93a7.494 7.494 0 0 1 7.494 7.493v56.258a7.494 7.494 0 0 1-7.494 7.494h-31.93a7.494 7.494 0 0 1-7.494-7.494v-56.258a7.494 7.494 0 0 1 7.494-7.493Z" class="color5184c2 svgShape colorStroke5184c2 svgStroke"/><rect width="74.721" height="26.065" x="3206.311" y="1343.375" fill="#f2f4f5" stroke="#f2f4f5" stroke-miterlimit="10" rx="8.55" class="colorf2f4f5 svgShape colorStrokef2f4f5 svgStroke"/><rect width="55.606" height="139.884" x="3376.604" y="1355.539" fill="#3d7db9" stroke="#3d7db9" stroke-miterlimit="10" rx="6.803" class="color3d7db9 svgShape colorStroke3d7db9 svgStroke"/><path fill="#5392de" stroke="#5392de" stroke-miterlimit="10" d="M3393.824 1396.374h21.166a6.794 6.794 0 0 1 6.794 6.795v65.476a6.794 6.794 0 0 1-6.794 6.794h-21.166a6.794 6.794 0 0 1-6.794-6.794v-65.476a6.794 6.794 0 0 1 6.794-6.795Z" class="color5392de svgShape colorStroke5392de svgStroke"/><path fill="#b5c3db" d="M3383.062 1335.555h42.69a6.458 6.458 0 0 1 6.458 6.458v7.068a6.458 6.458 0 0 1-6.458 6.458h-42.69a6.458 6.458 0 0 1-6.458-6.458v-7.068a6.458 6.458 0 0 1 6.458-6.458Z" class="colorb5c3db svgShape"/><path fill="#549abe" d="M3297.278 1415.489h59.604a5.82 5.82 0 0 1 5.82 5.82v68.293a5.82 5.82 0 0 1-5.82 5.82h-59.604a5.82 5.82 0 0 1-5.82-5.82v-68.292a5.82 5.82 0 0 1 5.82-5.821Z" class="color549abe svgShape"/><path fill="#82ade3" stroke="#82ade3" stroke-miterlimit="10" d="M3310.29 1438.079h32.712a5.8 5.8 0 0 1 5.8 5.8v33.58a5.8 5.8 0 0 1-5.8 5.8h-32.713a5.8 5.8 0 0 1-5.799-5.8v-33.58a5.8 5.8 0 0 1 5.8-5.8Z" class="color82ade3 svgShape colorStroke82ade3 svgStroke"/><path fill="#303533" d="M3299.23 1392.03h55.7a7.772 7.772 0 0 1 7.773 7.772v7.046a7.772 7.772 0 0 1-7.773 7.772h-55.7a7.772 7.772 0 0 1-7.773-7.772v-7.046a7.772 7.772 0 0 1 7.773-7.772Z" class="color303533 svgShape"/><rect width="455.274" height="319.734" x="3185.458" y="1471.095" fill="#7eaedf" stroke="#7eaedf" stroke-miterlimit="10" rx="33.473" class="color7eaedf svgShape colorStroke7eaedf svgStroke"/><path fill="#639adf" stroke="#639adf" stroke-miterlimit="10" d="M3183.08 1737.049v23.077a30.703 30.703 0 0 0 30.704 30.703h396.245a30.703 30.703 0 0 0 30.703-30.703v-258.328a30.703 30.703 0 0 0-30.703-30.703h-17.952s13.517 208.445-121.638 250.407-287.359 15.547-287.359 15.547Z" class="color639adf svgShape colorStroke639adf svgStroke"/><path fill="#0f387a" d="M3213.74 1369.44h59.863s7.428.113 7.428 6.502v39.547s-2.325-42.142-67.292-46.049Z" class="color0f387a svgShape"/><path fill="#c2dcdb" d="M3213.74 1369.44s62.273-.35 67.291-18.637v11.209s-1.34 7.428-7.428 7.428Z" class="colorc2dcdb svgShape"/><path fill="#4385be" d="M3296.515 1415.489h61.13s5.058.989 5.058 5.057v31.434s-8.806-36.928-66.188-36.491Z" class="color4385be svgShape"/><path fill="#291c2c" d="M3362.703 1398.783s-4.751 13.372-66.188 16.706h61.13s5.058-2.938 5.058-7.622Z" class="color291c2c svgShape"/><path fill="#2467b9" stroke="#3d7db9" stroke-miterlimit="10" d="M3382.215 1355.539h44.384s5.611-1.65 5.611 5.91v37.334s-1.906-42.813-49.995-43.244Z" class="color2467b9 svgShape colorStroke3d7db9 svgStroke"/><path fill="#9fa3d1" d="M3432.21 1341.166s.99 11.329-49.995 14.373h44.384s5.611-.654 5.611-5.611Z" class="color9fa3d1 svgShape"/><path fill="#386bc2" stroke="#5184c2" stroke-miterlimit="10" d="M3461.595 1412.014h61.13s5.058-.098 5.058 5.057v26.876s-5.475-29.33-66.188-31.933Z" class="color386bc2 svgShape colorStroke5184c2 svgStroke"/><path fill="#291c2c" d="m3463.29 1411.145 59.7-.294s4.793-1.485 4.793-6.46v-9.083s-14.03 15.834-64.493 15.837Z" class="color291c2c svgShape"/><path fill="#4087be" d="M3552.53 1365.965h61.717s6.502-.176 6.502 6.502v34.771s-10.26-39.394-68.218-41.273Z" class="color4087be svgShape"/><path fill="#6794d9" stroke="#6794d9" stroke-miterlimit="10" d="M3552.53 1365.965s67.545-2.089 68.22-18.637v11.208s.512 6.123-6.503 7.429Z" class="color6794d9 svgShape colorStroke6794d9 svgStroke"/><circle cx="2069.664" cy="318.976" r="90.558" fill="#aedcff" transform="rotate(-45 2069.664 318.976)" class="coloraedcff svgShape"/><circle cx="2060.095" cy="313.653" r="90.558" fill="#b0c4e2" stroke="#b0c4e2" stroke-miterlimit="10" transform="rotate(-45 2060.095 313.653)" class="colorb0c4e2 svgShape colorStrokeb0c4e2 svgStroke"/><path fill="#c2d7ff" d="m1996.06 315.227-12.262-14.01a77.345 77.345 0 0 0 76.297 89.732q1.112 0 2.216-.032l-10.84-12.385a90.738 90.738 0 0 1-55.41-63.305Z" class="colorc2d7ff svgShape"/><path fill="#e9f4ff" d="m2051.471 378.532-55.41-63.305a90.738 90.738 0 0 0 55.41 63.305ZM2004.341 260.119l101.437 115.888a77.659 77.659 0 0 0 5.876-4.78l-101.8-116.304q-2.88 2.465-5.513 5.196ZM2137.391 313.653a77.308 77.308 0 0 0-117.39-66.093l100.285 114.57a76.948 76.948 0 0 0 17.105-48.477Z" class="colore9f4ff svgShape"/><path fill="#cde9ff" d="M2084.121 384.602a90.327 90.327 0 0 1-32.65-6.07l10.84 12.385a76.948 76.948 0 0 0 29.18-6.615q-3.647.294-7.37.3ZM1993.563 294.044a90.587 90.587 0 0 1 3.567-25.232 76.882 76.882 0 0 0-13.332 32.405l12.263 14.01a90.78 90.78 0 0 1-2.498-21.183Z" class="colorcde9ff svgShape"/><path fill="#e1ffff" d="M1997.13 268.812a91.057 91.057 0 0 0-1.07 46.415l55.411 63.305a90.327 90.327 0 0 0 32.65 6.07q3.723 0 7.37-.3a77.238 77.238 0 0 0 14.287-8.295l-101.437-115.888a77.717 77.717 0 0 0-7.211 8.693ZM2120.286 362.13l-100.284-114.57a77.534 77.534 0 0 0-10.148 7.363l101.8 116.303a77.754 77.754 0 0 0 8.632-9.095Z" class="colore1ffff svgShape"/><path fill="#d7c3c7" stroke="#d7c3c7" stroke-miterlimit="10" d="M2056.186 250.521h6.588v65.882h-6.588z" class="colord7c3c7 svgShape colorStroked7c3c7 svgStroke"/><path fill="#d7c3c7" stroke="#d7c3c7" stroke-miterlimit="10" d="M2081.099 285.446h6.044v55.871h-6.044z" transform="rotate(90 2084.121 313.381)" class="colord7c3c7 svgShape colorStroked7c3c7 svgStroke"/><path fill="#b0c4e2" stroke="#b0c4e2" stroke-miterlimit="10" d="M2073.598 313.653a13.503 13.503 0 1 1-13.503-13.503 13.503 13.503 0 0 1 13.503 13.503Z" class="colorb0c4e2 svgShape colorStrokeb0c4e2 svgStroke"/><path fill="#03598e" stroke="#03598e" stroke-miterlimit="10" d="M3267.401 421.697h70.198l1.076-5.33a20.89 20.89 0 0 0-20.477-25.023h-83.343a20.01 20.01 0 0 0-19.715 23.435l18.656 107.392a21.555 21.555 0 0 0 21.237 17.866h9.14l-16.486-94.905a20.01 20.01 0 0 1 19.714-23.435Z" class="color03598e svgShape colorStroke03598e svgStroke"/><path fill="#032f61" stroke="#032f61" stroke-miterlimit="10" d="m3317.208 522.746 20.391-101.049h-70.198a20.01 20.01 0 0 0-19.714 23.435l16.486 94.905h31.905a21.555 21.555 0 0 0 21.13-17.291Z" class="color032f61 svgShape colorStroke032f61 svgStroke"/><path fill="none" stroke="#070017" stroke-miterlimit="10" d="M3276.968 391.344s24.222-35.228 41.697 23.025 42.233 100.478 78.64 107.035M3315.753 601.405c-56.163-67.595-64.281-165.69-60.56-210.06.815-9.706 2.195-16.84 3.764-20.524 8.737-20.523 10.194 20.523 10.194 20.523M3245.044 391.344s-30.631-28.323-30.204 39.584 7.928 137.81 15.1 175.673" class="colorStroke070017 svgStroke"/><path fill="#84cfdf" stroke="#84cfdf" stroke-miterlimit="10" d="M3216.589 629.683c-3.347 1.924-34.388-35.497 8.306-68.071 0 0 38.095 41.41-8.306 68.071Z" class="color84cfdf svgShape colorStroke84cfdf svgStroke"/><path fill="#70a5e1" stroke="#70a5e1" stroke-miterlimit="10" d="M3332.549 611.805c-.759 3.785-49.36 2.48-45.736-51.098 0 0 56.252-1.374 45.736 51.098Z" class="color70a5e1 svgShape colorStroke70a5e1 svgStroke"/><path fill="#005be7" stroke="#005be7" stroke-miterlimit="10" d="M3425.489 544.508c.142 3.858-47.43 13.893-56.366-39.06 0 0 54.39-14.42 56.366 39.06Z" class="color005be7 svgShape colorStroke005be7 svgStroke"/><path fill="#84cfdf" stroke="#84cfdf" stroke-miterlimit="10" d="M3218.57 514.94s-71.749 20.253-54.273 45.763 54.273-45.764 54.273-45.764ZM3217.114 464.58s-71.75 20.253-54.274 45.763c17.476 25.51 54.274-45.764 54.274-45.764Z" class="color84cfdf svgShape colorStroke84cfdf svgStroke"/><path fill="#005be7" stroke="#005be7" stroke-miterlimit="10" d="M3338.73 468.143s-30.295 68.12.493 70.99-.493-70.99-.493-70.99ZM3318.44 419.916s-42.063 61.553-12.294 69.92 12.294-69.92 12.294-69.92Z" class="color005be7 svgShape colorStroke005be7 svgStroke"/><path fill="#84cfdf" stroke="#84cfdf" stroke-miterlimit="10" d="M3215.135 411.01s-71.75 20.255-54.273 45.765c17.475 25.51 54.273-45.764 54.273-45.764ZM3220.538 513.699s72.936 15.443 57.193 42.058-57.193-42.058-57.193-42.058ZM3218.646 463.354s72.936 15.443 57.193 42.057c-15.743 26.615-57.193-42.057-57.193-42.057ZM3217.062 409.772s72.936 15.443 57.193 42.058c-15.742 26.614-57.193-42.058-57.193-42.058Z" class="color84cfdf svgShape colorStroke84cfdf svgStroke"/><path fill="#70a5e1" stroke="#70a5e1" stroke-miterlimit="10" d="M3272.246 518.088s72.936 15.444 57.193 42.058-57.193-42.058-57.193-42.058ZM3256.911 463.354s72.936 15.443 57.193 42.057c-15.743 26.615-57.193-42.057-57.193-42.057ZM3255.378 397.066s72.936 15.444 57.193 42.058c-15.743 26.615-57.193-42.058-57.193-42.058Z" class="color70a5e1 svgShape colorStroke70a5e1 svgStroke"/><path fill="#005be7" stroke="#005be7" stroke-miterlimit="10" d="M3298.303 381.958s67.206-32.271 70.974-1.58-70.974 1.58-70.974 1.58ZM3317.098 420.274s68.639-30.647 74.212 2.09c5.573 32.737-74.212-2.09-74.212-2.09ZM3339.095 471.1s68.639-30.647 74.212 2.09-74.212-2.09-74.212-2.09Z" class="color005be7 svgShape colorStroke005be7 svgStroke"/><path fill="#84cfdf" stroke="#84cfdf" stroke-miterlimit="10" d="M3228.087 386.43s-70.559-24.074-70.661 6.848 70.661-6.848 70.661-6.848Z" class="color84cfdf svgShape colorStroke84cfdf svgStroke"/><rect width="305.988" height="403.607" x="2789.667" y="315.174" fill="#185990" stroke="#185990" stroke-miterlimit="10" rx="25.196" class="color185990 svgShape colorStroke185990 svgStroke"/><path d="M2816.625 341.612a4.848 4.848 0 1 1-4.847-4.847 4.848 4.848 0 0 1 4.847 4.847Z" fill="#000000" class="color000 svgShape"/><path fill="#ff9e00" stroke="#ff9e00" stroke-miterlimit="10" d="M2934.774 391.004a4.644 4.644 0 1 1-4.645-4.644 4.644 4.644 0 0 1 4.645 4.644Z" class="colorff9e00 svgShape colorStrokeff9e00 svgStroke"/><path fill="none" stroke="#7eaedf" stroke-miterlimit="10" d="M2941.011 391.004h21.306v-18.84" class="colorStroke7eaedf svgStroke"/><path fill="#7eaedf" stroke="#7eaedf" stroke-miterlimit="10" d="M2962.317 347.796h61.484v3.963h-61.484zM2962.317 359.98h61.484v3.963h-61.484zM2962.317 372.164h61.484v3.963h-61.484z" class="color7eaedf svgShape colorStroke7eaedf svgStroke"/><path fill="#ff9e00" stroke="#ff9e00" stroke-miterlimit="10" d="M2894.399 610.918a4.644 4.644 0 1 0 4.644-4.644 4.644 4.644 0 0 0-4.644 4.644Z" class="colorff9e00 svgShape colorStrokeff9e00 svgStroke"/><path fill="none" stroke="#d0ecff" stroke-miterlimit="10" d="M2888.161 610.918h-21.305v-18.84" class="colorStroked0ecff svgStroke"/><path fill="#7eaedf" stroke="#7eaedf" stroke-miterlimit="10" d="M2805.372 567.711h61.484v3.963h-61.484z" transform="rotate(180 2836.114 569.692)" class="color7eaedf svgShape colorStroke7eaedf svgStroke"/><path fill="#7eaedf" stroke="#7eaedf" stroke-miterlimit="10" d="M2805.372 579.894h61.484v3.963h-61.484z" transform="rotate(180 2836.114 581.876)" class="color7eaedf svgShape colorStroke7eaedf svgStroke"/><path fill="#7eaedf" stroke="#7eaedf" stroke-miterlimit="10" d="M2805.372 592.078h61.484v3.963h-61.484z" transform="rotate(180 2836.114 594.06)" class="color7eaedf svgShape colorStroke7eaedf svgStroke"/><path fill="#ff9e00" stroke="#ff9e00" stroke-miterlimit="10" d="M2992.874 527.102a4.644 4.644 0 1 1-4.645-4.645 4.644 4.644 0 0 1 4.645 4.645Z" class="colorff9e00 svgShape colorStrokeff9e00 svgStroke"/><path fill="none" stroke="#d0ecff" stroke-miterlimit="10" d="M2997.959 527.102h40.348v19.305" class="colorStroked0ecff svgStroke"/><path fill="#7eaedf" stroke="#7eaedf" stroke-miterlimit="10" d="M3038.307 546.922h41.31v3.963h-41.31zM3038.307 559.106h41.31v3.963h-41.31zM3038.307 571.29h41.31v3.963h-41.31z" class="color7eaedf svgShape colorStroke7eaedf svgStroke"/><path fill="#ff9e00" stroke="#ff9e00" stroke-miterlimit="10" d="M2897.69 465.44a2.966 2.966 0 1 1-2.966-2.967 2.966 2.966 0 0 1 2.966 2.967Z" class="colorff9e00 svgShape colorStrokeff9e00 svgStroke"/><path fill="none" stroke="#d0ecff" stroke-miterlimit="10" d="M2885.964 466.361h-42.271V445.86" class="colorStroked0ecff svgStroke"/><path fill="#7eaedf" stroke="#7eaedf" stroke-miterlimit="10" d="M2844.174 422.228h37.925v3.963h-37.925zM2844.174 434.412h37.925v3.963h-37.925zM2844.174 446.596h37.925v3.963h-37.925zM2951.664 669.05a2.97 2.97 0 1 0 2.966-2.84 2.905 2.905 0 0 0-2.966 2.84Z" class="color7eaedf svgShape colorStroke7eaedf svgStroke"/><path fill="none" stroke="#7eaedf" stroke-miterlimit="10" stroke-width="2" d="M2963.39 669.931h42.271V650.31" class="colorStroke7eaedf svgStroke"/><path fill="#7eaedf" stroke="#7eaedf" stroke-miterlimit="10" d="M2967.255 627.692h37.925v3.793h-37.925z" transform="rotate(180 2986.218 629.589)" class="color7eaedf svgShape colorStroke7eaedf svgStroke"/><path fill="#7eaedf" stroke="#7eaedf" stroke-miterlimit="10" d="M2967.255 639.353h37.925v3.793h-37.925z" transform="rotate(180 2986.218 641.25)" class="color7eaedf svgShape colorStroke7eaedf svgStroke"/><path fill="#7eaedf" stroke="#7eaedf" stroke-miterlimit="10" d="M2967.255 651.014h37.925v3.793h-37.925z" transform="rotate(180 2986.218 652.91)" class="color7eaedf svgShape colorStroke7eaedf svgStroke"/><path fill="#d0ecff" d="m2996.746 537.034-42.649-83.662a5.511 5.511 0 0 0-6.266-2.82 7.567 7.567 0 0 0-1.897-.25h-16.876V434.23c8.923-3.975 15.284-14.31 15.284-26.437 0-15.564-10.478-28.181-23.404-28.181s-23.405 12.617-23.405 28.181c0 12.974 7.284 23.894 17.195 27.17v15.34h-14.647a7.566 7.566 0 0 0-1.968.268 5.508 5.508 0 0 0-6.666 2.9l-39.686 85.108a5.508 5.508 0 0 0 2.656 7.299l.658.307a5.508 5.508 0 0 0 7.299-2.657l30.064-64.472v43.849a7.567 7.567 0 0 0 1.04 3.821 7.568 7.568 0 0 0-1.04 3.822v23.864a7.594 7.594 0 0 0 .175 1.609 5.103 5.103 0 0 0-.175 1.305v104.053h-2.02a6.92 6.92 0 0 0-6.9 6.9v4.025a6.92 6.92 0 0 0 6.9 6.9h19.983a6.92 6.92 0 0 0 6.9-6.9v-4.025a6.92 6.92 0 0 0-6.9-6.9h-.788v-99.324h26.48v99.27l.002.054h-1.452a6.92 6.92 0 0 0-6.9 6.9v4.025a6.92 6.92 0 0 0 6.9 6.9h19.983a6.92 6.92 0 0 0 6.9-6.9v-4.025a6.92 6.92 0 0 0-6.9-6.9h-1.268c0-.018.003-.036.003-.055V556.176a7.569 7.569 0 0 0 .215-1.765v-23.864a7.568 7.568 0 0 0-1.039-3.822 7.567 7.567 0 0 0 1.04-3.821v-44.77l32.736 64.218a5.508 5.508 0 0 0 7.387 2.4l.647-.33a5.508 5.508 0 0 0 2.399-7.388Z" class="colord0ecff svgShape"/><path d="M3073.266 336.765a4.165 4.165 0 1 1-4.165-4.165 4.165 4.165 0 0 1 4.165 4.165Z" fill="#000000" class="color000 svgShape"/><path fill="#183c78" stroke="#185990" stroke-miterlimit="10" d="M2789.667 615.563v80.803a22.415 22.415 0 0 0 22.415 22.415h75.295s-76.84-15.624-97.71-103.218Z" class="color183c78 svgShape colorStroke185990 svgStroke"/></svg>