<svg xmlns="http://www.w3.org/2000/svg" viewBox="0 0 500 500"><defs><clipPath id="a"><path fill="none" d="M68.9624,211.7843c-5.7876,20.4329-5.8478,42.4752,1.261,62.4202,12.4751,35.0007,43.8392,57.743,80.7413,52.8715,34.6211-4.5703,72.862-19.5343,91.28849-51.115,6.4107-10.9689,10.0193-23.2068,19.33081-32.7349,20.56429-21.0394,65.41939-25.704,73.24769-51.7426,2.472-8.2232.3009-16.9077-3.0035-24.9432-9.4048-22.7936-29.8398-43.8761-58.2606-51.1169-37.0799-9.4463-78.07369-2.4837-114.01409,8.5709-35.8293,11.0203-66.1705,34.1441-83.0844,68.3059A113.96224,113.96224,0,0,0,68.9624,211.7843Z"/></clipPath><clipPath id="b"><rect width="82.145" height="101.932" x="-44.015" y="30.144" fill="none" transform="rotate(-89.94 -2.943 81.11)"/></clipPath><clipPath id="c"><rect width="82.145" height="101.932" x="-44.102" y="112.289" fill="none" transform="rotate(-89.94 -3.03 163.255)"/></clipPath><clipPath id="d"><rect width="82.145" height="101.932" x="-44.189" y="194.434" fill="none" transform="rotate(-89.94 -3.116 245.4)"/></clipPath><clipPath id="e"><rect width="82.145" height="101.932" x="-44.275" y="276.578" fill="none" transform="rotate(-89.94 -3.203 327.544)"/></clipPath><clipPath id="f"><rect width="82.145" height="101.932" x="57.917" y="30.252" fill="none" transform="rotate(-89.94 98.989 81.218)"/></clipPath><clipPath id="g"><rect width="82.145" height="101.932" x="57.83" y="112.397" fill="none" transform="rotate(-89.94 98.902 163.362)"/></clipPath><clipPath id="h"><rect width="82.145" height="101.932" x="57.743" y="194.541" fill="none" transform="rotate(-89.94 98.816 245.507)"/></clipPath><clipPath id="i"><rect width="82.145" height="101.932" x="57.657" y="276.686" fill="none" transform="rotate(-89.94 98.73 327.652)"/></clipPath><clipPath id="j"><rect width="82.145" height="101.932" x="159.849" y="30.359" fill="none" transform="rotate(-89.94 200.92 81.326)"/></clipPath><clipPath id="k"><rect width="82.145" height="101.932" x="159.762" y="112.504" fill="none" transform="rotate(-89.94 200.834 163.47)"/></clipPath><clipPath id="l"><rect width="82.145" height="101.932" x="159.675" y="194.649" fill="none" transform="rotate(-89.94 200.748 245.615)"/></clipPath><clipPath id="m"><rect width="82.145" height="101.932" x="159.589" y="276.793" fill="none" transform="rotate(-89.94 200.661 327.76)"/></clipPath><clipPath id="n"><rect width="82.145" height="101.932" x="261.781" y="30.467" fill="none" transform="rotate(-89.94 302.852 81.433)"/></clipPath><clipPath id="o"><rect width="82.145" height="101.932" x="261.694" y="112.612" fill="none" transform="rotate(-89.94 302.765 163.578)"/></clipPath><clipPath id="p"><rect width="82.145" height="101.932" x="261.608" y="194.756" fill="none" transform="rotate(-89.94 302.68 245.722)"/></clipPath><clipPath id="q"><rect width="82.145" height="101.932" x="261.521" y="276.901" fill="none" transform="rotate(-89.94 302.592 327.867)"/></clipPath><clipPath id="r"><path fill="none" d="M336.68089,146.6544A28.29735,28.29735,0,0,1,357.11,145.2922c11.50149,3.2682,22.19409,12.2075,26.232,23.628.80269,2.2701,1.33239,4.9137.10919,6.9881a8.31613,8.31613,0,0,1-2.401,2.3762c-11.25419,8.1514-24.7309,9.7817-39.342,8.8565a36.62128,36.62128,0,0,1-15.3486-3.9937c-3.2181-1.6614-9.9618-5.4072-10.5764-9.8129-.6515-4.67,4.2759-11.9336,7.0289-15.2781A40.96219,40.96219,0,0,1,336.68089,146.6544Z"/></clipPath></defs><g data-name="—ÎÓÈ_2" fill="#000000" class="color000 svgShape"><path fill="#fbe5e3" d="M307.61279,145.545c6.3099-1.9236,13.6125-4.7073,19.2298-8.2748,7.7833-4.9431,12.7619-10.9912,22.3559-12.9199,9.3757-1.8848,19.30251-.3014,28.1504,3.5773,10.8116,4.7394,20.026,12.7469,27.7145,21.8341,16.6845,19.7199,26.55761,44.444,33.2005,69.4513,3.4826,13.1103,6.1726,26.5983,5.5795,40.1035-.56839,12.944-5.0941,32.6652-16.1221,40.5479-14.0297,10.0281-36.171,4.8977-52.178,8.6472-17.5788,4.1177-31.3817,16.3827-43.2732,29.4506-11.59009,12.7369-21.4149,28.9773-34.8118,39.5144a220.49886,220.49886,0,0,1-89.863,42.0643c-30.2908,6.4865-61.188,6.3416-87.935-12.3102a76.62559,76.62559,0,0,1-21.0321-22.3356c-8.9558-14.3839-12.9107-29.4534-8.0952-46.0878,3.9598-13.6786,12.6716-25.4869,23.0084-35.0667,6.7532-6.2585,14.6418-12.2816,17.1251-21.2496,1.9715-7.1195.1087-14.7168-.9597-22.0777a96.9593,96.9593,0,0,1,19.2015-73.1404c18.872-24.4021,47.526-35.9636,75.79739-45.1152,14.3666-4.6507,30.1032-6.9172,44.8142-2.2465C283.43189,144.3282,293.10909,149.9666,307.61279,145.545Z" class="colorfbe5e3 svgShape"/><g clip-path="url(#a)" opacity=".33" fill="#000000" class="color000 svgShape"><rect width="2.465" height="102.64" x="-4.214" y="66.756" fill="#d68e85" transform="rotate(-89.939 -2.982 118.076)" class="colord68e85 svgShape"/><rect width="2.465" height="102.64" x="-4.197" y="50.327" fill="#d68e85" transform="rotate(-89.94 -2.965 101.647)" class="colord68e85 svgShape"/><rect width="2.465" height="102.64" x="-4.18" y="33.898" fill="#d68e85" transform="rotate(-89.94 -2.947 85.218)" class="colord68e85 svgShape"/><rect width="2.465" height="102.64" x="-4.162" y="17.47" fill="#d68e85" transform="rotate(-89.94 -2.93 68.79)" class="colord68e85 svgShape"/><rect width="2.465" height="102.64" x="-4.145" y="1.04" fill="#d68e85" transform="rotate(-89.94 -2.913 52.36)" class="colord68e85 svgShape"/><rect width="2.465" height="102.64" x="-4.206" y="58.542" fill="#d68e85" transform="rotate(-89.94 -2.974 109.862)" class="colord68e85 svgShape"/><rect width="2.465" height="102.64" x="-4.188" y="42.113" fill="#d68e85" transform="rotate(-89.94 -2.956 93.433)" class="colord68e85 svgShape"/><rect width="2.465" height="102.64" x="-4.171" y="25.683" fill="#d68e85" transform="rotate(-89.94 -2.939 77.003)" class="colord68e85 svgShape"/><rect width="2.465" height="102.64" x="-4.154" y="9.255" fill="#d68e85" transform="rotate(-89.94 -2.921 60.575)" class="colord68e85 svgShape"/><rect width="2.465" height="102.64" x="-4.301" y="148.9" fill="#d68e85" transform="rotate(-89.939 -3.069 200.22)" class="colord68e85 svgShape"/><rect width="2.465" height="102.64" x="-4.284" y="132.472" fill="#d68e85" transform="rotate(-89.94 -3.052 183.792)" class="colord68e85 svgShape"/><rect width="2.465" height="102.64" x="-4.266" y="116.043" fill="#d68e85" transform="rotate(-89.94 -3.034 167.362)" class="colord68e85 svgShape"/><rect width="2.465" height="102.64" x="-4.249" y="99.614" fill="#d68e85" transform="rotate(-89.939 -3.016 150.935)" class="colord68e85 svgShape"/><rect width="2.465" height="102.64" x="-4.232" y="83.185" fill="#d68e85" transform="rotate(-89.939 -2.999 134.505)" class="colord68e85 svgShape"/><rect width="2.465" height="102.64" x="-4.292" y="140.687" fill="#d68e85" transform="rotate(-89.94 -3.06 192.007)" class="colord68e85 svgShape"/><rect width="2.465" height="102.64" x="-4.275" y="124.257" fill="#d68e85" transform="rotate(-89.94 -3.043 175.577)" class="colord68e85 svgShape"/><rect width="2.465" height="102.64" x="-4.258" y="107.828" fill="#d68e85" transform="rotate(-89.94 -3.025 159.148)" class="colord68e85 svgShape"/><rect width="2.464" height="102.64" x="-4.24" y="91.4" fill="#d68e85" transform="rotate(-89.939 -3.008 142.72)" class="colord68e85 svgShape"/><rect width="2.464" height="102.64" x="-4.223" y="74.97" fill="#d68e85" transform="rotate(-89.939 -2.99 126.29)" class="colord68e85 svgShape"/><rect width="2.465" height="102.64" x="-4.388" y="231.045" fill="#d68e85" transform="rotate(-89.94 -3.156 282.364)" class="colord68e85 svgShape"/><rect width="2.465" height="102.64" x="-4.37" y="214.617" fill="#d68e85" transform="rotate(-89.939 -3.137 265.937)" class="colord68e85 svgShape"/><rect width="2.465" height="102.64" x="-4.353" y="198.187" fill="#d68e85" transform="rotate(-89.939 -3.12 249.508)" class="colord68e85 svgShape"/><rect width="2.465" height="102.64" x="-4.336" y="181.759" fill="#d68e85" transform="rotate(-89.939 -3.103 233.08)" class="colord68e85 svgShape"/><rect width="2.465" height="102.64" x="-4.318" y="165.33" fill="#d68e85" transform="rotate(-89.94 -3.086 216.65)" class="colord68e85 svgShape"/><rect width="2.465" height="102.64" x="-4.379" y="222.831" fill="#d68e85" transform="rotate(-89.939 -3.146 274.152)" class="colord68e85 svgShape"/><rect width="2.465" height="102.64" x="-4.362" y="206.402" fill="#d68e85" transform="rotate(-89.939 -3.13 257.722)" class="colord68e85 svgShape"/><rect width="2.464" height="102.64" x="-4.344" y="189.973" fill="#d68e85" transform="rotate(-89.94 -3.112 241.293)" class="colord68e85 svgShape"/><rect width="2.465" height="102.64" x="-4.327" y="173.544" fill="#d68e85" transform="rotate(-89.939 -3.094 224.865)" class="colord68e85 svgShape"/><rect width="2.465" height="102.64" x="-4.31" y="157.115" fill="#d68e85" transform="rotate(-89.939 -3.077 208.435)" class="colord68e85 svgShape"/><rect width="2.465" height="102.64" x="-4.474" y="313.19" fill="#d68e85" transform="rotate(-89.939 -3.241 364.51)" class="colord68e85 svgShape"/><rect width="2.465" height="102.64" x="-4.457" y="296.762" fill="#d68e85" transform="rotate(-89.94 -3.225 348.082)" class="colord68e85 svgShape"/><rect width="2.465" height="102.64" x="-4.44" y="280.332" fill="#d68e85" transform="rotate(-89.94 -3.207 331.652)" class="colord68e85 svgShape"/><rect width="2.464" height="102.64" x="-4.422" y="263.904" fill="#d68e85" transform="rotate(-89.94 -3.19 315.223)" class="colord68e85 svgShape"/><rect width="2.465" height="102.64" x="-4.405" y="247.474" fill="#d68e85" transform="rotate(-89.94 -3.173 298.794)" class="colord68e85 svgShape"/><rect width="2.465" height="102.64" x="-4.466" y="304.976" fill="#d68e85" transform="rotate(-89.939 -3.232 356.297)" class="colord68e85 svgShape"/><rect width="2.465" height="102.64" x="-4.448" y="288.547" fill="#d68e85" transform="rotate(-89.939 -3.215 339.867)" class="colord68e85 svgShape"/><rect width="2.465" height="102.64" x="-4.431" y="272.117" fill="#d68e85" transform="rotate(-89.939 -3.198 323.438)" class="colord68e85 svgShape"/><rect width="2.465" height="102.64" x="-4.414" y="255.689" fill="#d68e85" transform="rotate(-89.94 -3.181 307.009)" class="colord68e85 svgShape"/><rect width="2.465" height="102.64" x="-4.396" y="239.26" fill="#d68e85" transform="rotate(-89.94 -3.164 290.58)" class="colord68e85 svgShape"/><g clip-path="url(#b)" fill="#000000" class="color000 svgShape"><rect width="2.465" height="102.64" x="-4.214" y="66.756" fill="#d68e85" transform="rotate(-89.939 -2.982 118.076)" class="colord68e85 svgShape"/><rect width="2.465" height="102.64" x="-4.197" y="50.327" fill="#d68e85" transform="rotate(-89.94 -2.965 101.647)" class="colord68e85 svgShape"/><rect width="2.465" height="102.64" x="-4.18" y="33.898" fill="#d68e85" transform="rotate(-89.94 -2.947 85.218)" class="colord68e85 svgShape"/><rect width="2.465" height="102.64" x="-4.162" y="17.47" fill="#d68e85" transform="rotate(-89.94 -2.93 68.79)" class="colord68e85 svgShape"/><rect width="2.465" height="102.64" x="-4.145" y="1.04" fill="#d68e85" transform="rotate(-89.94 -2.913 52.36)" class="colord68e85 svgShape"/><rect width="2.465" height="102.64" x="-4.206" y="58.542" fill="#d68e85" transform="rotate(-89.94 -2.974 109.862)" class="colord68e85 svgShape"/><rect width="2.465" height="102.64" x="-4.188" y="42.113" fill="#d68e85" transform="rotate(-89.94 -2.956 93.433)" class="colord68e85 svgShape"/><rect width="2.465" height="102.64" x="-4.171" y="25.683" fill="#d68e85" transform="rotate(-89.94 -2.939 77.003)" class="colord68e85 svgShape"/><rect width="2.465" height="102.64" x="-4.154" y="9.255" fill="#d68e85" transform="rotate(-89.94 -2.921 60.575)" class="colord68e85 svgShape"/><rect width="2.465" height="102.64" x="97.718" y="66.863" fill="#d68e85" transform="rotate(-89.939 98.95 118.183)" class="colord68e85 svgShape"/><rect width="2.465" height="102.64" x="97.735" y="50.435" fill="#d68e85" transform="rotate(-89.94 98.967 101.755)" class="colord68e85 svgShape"/><rect width="2.465" height="102.64" x="97.752" y="34.005" fill="#d68e85" transform="rotate(-89.939 98.985 85.325)" class="colord68e85 svgShape"/><rect width="2.465" height="102.64" x="97.77" y="17.577" fill="#d68e85" transform="rotate(-89.94 99.002 68.897)" class="colord68e85 svgShape"/><rect width="2.465" height="102.64" x="97.787" y="1.148" fill="#d68e85" transform="rotate(-89.94 99.019 52.468)" class="colord68e85 svgShape"/><rect width="2.465" height="102.64" x="97.726" y="58.649" fill="#d68e85" transform="rotate(-89.94 98.959 109.97)" class="colord68e85 svgShape"/><rect width="2.465" height="102.64" x="97.744" y="42.22" fill="#d68e85" transform="rotate(-89.94 98.976 93.54)" class="colord68e85 svgShape"/><rect width="2.465" height="102.64" x="97.761" y="25.791" fill="#d68e85" transform="rotate(-89.94 98.993 77.11)" class="colord68e85 svgShape"/><rect width="2.465" height="102.64" x="97.778" y="9.363" fill="#d68e85" transform="rotate(-89.94 99.01 60.683)" class="colord68e85 svgShape"/><rect width="2.464" height="102.64" x="97.796" y="-7.067" fill="#d68e85" transform="rotate(-89.94 99.028 44.253)" class="colord68e85 svgShape"/></g><g clip-path="url(#c)" fill="#000000" class="color000 svgShape"><rect width="2.465" height="102.64" x="-4.301" y="148.9" fill="#d68e85" transform="rotate(-89.939 -3.069 200.22)" class="colord68e85 svgShape"/><rect width="2.465" height="102.64" x="-4.284" y="132.472" fill="#d68e85" transform="rotate(-89.94 -3.052 183.792)" class="colord68e85 svgShape"/><rect width="2.465" height="102.64" x="-4.266" y="116.043" fill="#d68e85" transform="rotate(-89.94 -3.034 167.362)" class="colord68e85 svgShape"/><rect width="2.465" height="102.64" x="-4.249" y="99.614" fill="#d68e85" transform="rotate(-89.939 -3.016 150.935)" class="colord68e85 svgShape"/><rect width="2.465" height="102.64" x="-4.232" y="83.185" fill="#d68e85" transform="rotate(-89.939 -2.999 134.505)" class="colord68e85 svgShape"/><rect width="2.465" height="102.64" x="-4.292" y="140.687" fill="#d68e85" transform="rotate(-89.94 -3.06 192.007)" class="colord68e85 svgShape"/><rect width="2.465" height="102.64" x="-4.275" y="124.257" fill="#d68e85" transform="rotate(-89.94 -3.043 175.577)" class="colord68e85 svgShape"/><rect width="2.465" height="102.64" x="-4.258" y="107.828" fill="#d68e85" transform="rotate(-89.94 -3.025 159.148)" class="colord68e85 svgShape"/><rect width="2.464" height="102.64" x="-4.24" y="91.4" fill="#d68e85" transform="rotate(-89.939 -3.008 142.72)" class="colord68e85 svgShape"/><rect width="2.464" height="102.64" x="-4.223" y="74.97" fill="#d68e85" transform="rotate(-89.939 -2.99 126.29)" class="colord68e85 svgShape"/><rect width="2.465" height="102.64" x="97.631" y="149.008" fill="#d68e85" transform="rotate(-89.94 98.863 200.328)" class="colord68e85 svgShape"/><rect width="2.465" height="102.64" x="97.648" y="132.58" fill="#d68e85" transform="rotate(-89.94 98.88 183.9)" class="colord68e85 svgShape"/><rect width="2.465" height="102.64" x="97.666" y="116.15" fill="#d68e85" transform="rotate(-89.94 98.898 167.47)" class="colord68e85 svgShape"/><rect width="2.465" height="102.64" x="97.683" y="99.722" fill="#d68e85" transform="rotate(-89.94 98.915 151.042)" class="colord68e85 svgShape"/><rect width="2.464" height="102.64" x="97.701" y="83.292" fill="#d68e85" transform="rotate(-89.94 98.933 134.612)" class="colord68e85 svgShape"/><rect width="2.465" height="102.64" x="97.64" y="140.794" fill="#d68e85" transform="rotate(-89.94 98.872 192.114)" class="colord68e85 svgShape"/><rect width="2.465" height="102.64" x="97.657" y="124.365" fill="#d68e85" transform="rotate(-89.94 98.89 175.685)" class="colord68e85 svgShape"/><rect width="2.465" height="102.64" x="97.674" y="107.935" fill="#d68e85" transform="rotate(-89.94 98.907 159.256)" class="colord68e85 svgShape"/><rect width="2.464" height="102.64" x="97.692" y="91.507" fill="#d68e85" transform="rotate(-89.94 98.924 142.827)" class="colord68e85 svgShape"/><rect width="2.464" height="102.64" x="97.709" y="75.078" fill="#d68e85" transform="rotate(-89.94 98.941 126.398)" class="colord68e85 svgShape"/></g><g clip-path="url(#d)" fill="#000000" class="color000 svgShape"><rect width="2.465" height="102.64" x="-4.388" y="231.045" fill="#d68e85" transform="rotate(-89.94 -3.156 282.364)" class="colord68e85 svgShape"/><rect width="2.465" height="102.64" x="-4.37" y="214.617" fill="#d68e85" transform="rotate(-89.939 -3.137 265.937)" class="colord68e85 svgShape"/><rect width="2.465" height="102.64" x="-4.353" y="198.187" fill="#d68e85" transform="rotate(-89.939 -3.12 249.508)" class="colord68e85 svgShape"/><rect width="2.465" height="102.64" x="-4.336" y="181.759" fill="#d68e85" transform="rotate(-89.939 -3.103 233.08)" class="colord68e85 svgShape"/><rect width="2.465" height="102.64" x="-4.318" y="165.33" fill="#d68e85" transform="rotate(-89.94 -3.086 216.65)" class="colord68e85 svgShape"/><rect width="2.465" height="102.64" x="-4.379" y="222.831" fill="#d68e85" transform="rotate(-89.939 -3.146 274.152)" class="colord68e85 svgShape"/><rect width="2.465" height="102.64" x="-4.362" y="206.402" fill="#d68e85" transform="rotate(-89.939 -3.13 257.722)" class="colord68e85 svgShape"/><rect width="2.464" height="102.64" x="-4.344" y="189.973" fill="#d68e85" transform="rotate(-89.94 -3.112 241.293)" class="colord68e85 svgShape"/><rect width="2.465" height="102.64" x="-4.327" y="173.544" fill="#d68e85" transform="rotate(-89.939 -3.094 224.865)" class="colord68e85 svgShape"/><rect width="2.465" height="102.64" x="-4.31" y="157.115" fill="#d68e85" transform="rotate(-89.939 -3.077 208.435)" class="colord68e85 svgShape"/><rect width="2.465" height="102.64" x="97.544" y="231.153" fill="#d68e85" transform="rotate(-89.94 98.777 282.473)" class="colord68e85 svgShape"/><rect width="2.465" height="102.64" x="97.562" y="214.724" fill="#d68e85" transform="rotate(-89.94 98.794 266.044)" class="colord68e85 svgShape"/><rect width="2.465" height="102.64" x="97.579" y="198.295" fill="#d68e85" transform="rotate(-89.939 98.812 249.615)" class="colord68e85 svgShape"/><rect width="2.465" height="102.64" x="97.596" y="181.867" fill="#d68e85" transform="rotate(-89.939 98.829 233.187)" class="colord68e85 svgShape"/><rect width="2.464" height="102.64" x="97.614" y="165.437" fill="#d68e85" transform="rotate(-89.94 98.846 216.757)" class="colord68e85 svgShape"/><rect width="2.465" height="102.64" x="97.553" y="222.939" fill="#d68e85" transform="rotate(-89.94 98.785 274.259)" class="colord68e85 svgShape"/><rect width="2.465" height="102.64" x="97.57" y="206.51" fill="#d68e85" transform="rotate(-89.94 98.803 257.83)" class="colord68e85 svgShape"/><rect width="2.464" height="102.64" x="97.588" y="190.08" fill="#d68e85" transform="rotate(-89.94 98.82 241.4)" class="colord68e85 svgShape"/><rect width="2.465" height="102.64" x="97.605" y="173.652" fill="#d68e85" transform="rotate(-89.939 98.838 224.972)" class="colord68e85 svgShape"/><rect width="2.465" height="102.64" x="97.622" y="157.222" fill="#d68e85" transform="rotate(-89.94 98.855 208.542)" class="colord68e85 svgShape"/></g><g clip-path="url(#e)" fill="#000000" class="color000 svgShape"><rect width="2.465" height="102.64" x="-4.474" y="313.19" fill="#d68e85" transform="rotate(-89.939 -3.241 364.51)" class="colord68e85 svgShape"/><rect width="2.465" height="102.64" x="-4.457" y="296.762" fill="#d68e85" transform="rotate(-89.94 -3.225 348.082)" class="colord68e85 svgShape"/><rect width="2.465" height="102.64" x="-4.44" y="280.332" fill="#d68e85" transform="rotate(-89.94 -3.207 331.652)" class="colord68e85 svgShape"/><rect width="2.464" height="102.64" x="-4.422" y="263.904" fill="#d68e85" transform="rotate(-89.94 -3.19 315.223)" class="colord68e85 svgShape"/><rect width="2.465" height="102.64" x="-4.405" y="247.474" fill="#d68e85" transform="rotate(-89.94 -3.173 298.794)" class="colord68e85 svgShape"/><rect width="2.465" height="102.64" x="-4.466" y="304.976" fill="#d68e85" transform="rotate(-89.939 -3.232 356.297)" class="colord68e85 svgShape"/><rect width="2.465" height="102.64" x="-4.448" y="288.547" fill="#d68e85" transform="rotate(-89.939 -3.215 339.867)" class="colord68e85 svgShape"/><rect width="2.465" height="102.64" x="-4.431" y="272.117" fill="#d68e85" transform="rotate(-89.939 -3.198 323.438)" class="colord68e85 svgShape"/><rect width="2.465" height="102.64" x="-4.414" y="255.689" fill="#d68e85" transform="rotate(-89.94 -3.181 307.009)" class="colord68e85 svgShape"/><rect width="2.465" height="102.64" x="-4.396" y="239.26" fill="#d68e85" transform="rotate(-89.94 -3.164 290.58)" class="colord68e85 svgShape"/><rect width="2.465" height="102.64" x="97.458" y="313.297" fill="#d68e85" transform="rotate(-89.94 98.69 364.617)" class="colord68e85 svgShape"/><rect width="2.465" height="102.64" x="97.475" y="296.869" fill="#d68e85" transform="rotate(-89.94 98.707 348.19)" class="colord68e85 svgShape"/><rect width="2.464" height="102.64" x="97.493" y="280.44" fill="#d68e85" transform="rotate(-89.939 98.726 331.76)" class="colord68e85 svgShape"/><rect width="2.464" height="102.64" x="97.51" y="264.011" fill="#d68e85" transform="rotate(-89.94 98.742 315.331)" class="colord68e85 svgShape"/><rect width="2.465" height="102.64" x="97.527" y="247.582" fill="#d68e85" transform="rotate(-89.94 98.76 298.902)" class="colord68e85 svgShape"/><rect width="2.465" height="102.64" x="97.466" y="305.084" fill="#d68e85" transform="rotate(-89.94 98.699 356.404)" class="colord68e85 svgShape"/><rect width="2.465" height="102.64" x="97.484" y="288.654" fill="#d68e85" transform="rotate(-89.94 98.716 339.974)" class="colord68e85 svgShape"/><rect width="2.465" height="102.64" x="97.501" y="272.225" fill="#d68e85" transform="rotate(-89.94 98.733 323.545)" class="colord68e85 svgShape"/><rect width="2.465" height="102.64" x="97.518" y="255.797" fill="#d68e85" transform="rotate(-89.94 98.75 307.117)" class="colord68e85 svgShape"/><rect width="2.465" height="102.64" x="97.536" y="239.367" fill="#d68e85" transform="rotate(-89.94 98.768 290.687)" class="colord68e85 svgShape"/></g><g clip-path="url(#f)" fill="#000000" class="color000 svgShape"><rect width="2.465" height="102.64" x="-4.214" y="66.756" fill="#d68e85" transform="rotate(-89.939 -2.982 118.076)" class="colord68e85 svgShape"/><rect width="2.465" height="102.64" x="-4.197" y="50.327" fill="#d68e85" transform="rotate(-89.94 -2.965 101.647)" class="colord68e85 svgShape"/><rect width="2.465" height="102.64" x="-4.18" y="33.898" fill="#d68e85" transform="rotate(-89.94 -2.947 85.218)" class="colord68e85 svgShape"/><rect width="2.465" height="102.64" x="-4.162" y="17.47" fill="#d68e85" transform="rotate(-89.94 -2.93 68.79)" class="colord68e85 svgShape"/><rect width="2.465" height="102.64" x="-4.145" y="1.04" fill="#d68e85" transform="rotate(-89.94 -2.913 52.36)" class="colord68e85 svgShape"/><rect width="2.465" height="102.64" x="-4.206" y="58.542" fill="#d68e85" transform="rotate(-89.94 -2.974 109.862)" class="colord68e85 svgShape"/><rect width="2.465" height="102.64" x="-4.188" y="42.113" fill="#d68e85" transform="rotate(-89.94 -2.956 93.433)" class="colord68e85 svgShape"/><rect width="2.465" height="102.64" x="-4.171" y="25.683" fill="#d68e85" transform="rotate(-89.94 -2.939 77.003)" class="colord68e85 svgShape"/><rect width="2.465" height="102.64" x="-4.154" y="9.255" fill="#d68e85" transform="rotate(-89.94 -2.921 60.575)" class="colord68e85 svgShape"/><rect width="2.465" height="102.64" x="97.718" y="66.863" fill="#d68e85" transform="rotate(-89.939 98.95 118.183)" class="colord68e85 svgShape"/><rect width="2.465" height="102.64" x="97.735" y="50.435" fill="#d68e85" transform="rotate(-89.94 98.967 101.755)" class="colord68e85 svgShape"/><rect width="2.465" height="102.64" x="97.752" y="34.005" fill="#d68e85" transform="rotate(-89.939 98.985 85.325)" class="colord68e85 svgShape"/><rect width="2.465" height="102.64" x="97.77" y="17.577" fill="#d68e85" transform="rotate(-89.94 99.002 68.897)" class="colord68e85 svgShape"/><rect width="2.465" height="102.64" x="97.787" y="1.148" fill="#d68e85" transform="rotate(-89.94 99.019 52.468)" class="colord68e85 svgShape"/><rect width="2.465" height="102.64" x="97.726" y="58.649" fill="#d68e85" transform="rotate(-89.94 98.959 109.97)" class="colord68e85 svgShape"/><rect width="2.465" height="102.64" x="97.744" y="42.22" fill="#d68e85" transform="rotate(-89.94 98.976 93.54)" class="colord68e85 svgShape"/><rect width="2.465" height="102.64" x="97.761" y="25.791" fill="#d68e85" transform="rotate(-89.94 98.993 77.11)" class="colord68e85 svgShape"/><rect width="2.465" height="102.64" x="97.778" y="9.363" fill="#d68e85" transform="rotate(-89.94 99.01 60.683)" class="colord68e85 svgShape"/><rect width="2.464" height="102.64" x="97.796" y="-7.067" fill="#d68e85" transform="rotate(-89.94 99.028 44.253)" class="colord68e85 svgShape"/><rect width="2.465" height="102.64" x="199.65" y="66.971" fill="#d68e85" transform="rotate(-89.939 200.883 118.29)" class="colord68e85 svgShape"/><rect width="2.465" height="102.64" x="199.667" y="50.542" fill="#d68e85" transform="rotate(-89.939 200.9 101.862)" class="colord68e85 svgShape"/><rect width="2.465" height="102.64" x="199.684" y="34.113" fill="#d68e85" transform="rotate(-89.94 200.917 85.433)" class="colord68e85 svgShape"/><rect width="2.465" height="102.64" x="199.702" y="17.685" fill="#d68e85" transform="rotate(-89.94 200.934 69.005)" class="colord68e85 svgShape"/><rect width="2.465" height="102.64" x="199.719" y="1.255" fill="#d68e85" transform="rotate(-89.94 200.951 52.575)" class="colord68e85 svgShape"/><rect width="2.465" height="102.64" x="199.658" y="58.757" fill="#d68e85" transform="rotate(-89.94 200.89 110.077)" class="colord68e85 svgShape"/><rect width="2.465" height="102.64" x="199.676" y="42.328" fill="#d68e85" transform="rotate(-89.94 200.908 93.648)" class="colord68e85 svgShape"/><rect width="2.465" height="102.64" x="199.693" y="25.898" fill="#d68e85" transform="rotate(-89.94 200.925 77.218)" class="colord68e85 svgShape"/><rect width="2.465" height="102.64" x="199.71" y="9.47" fill="#d68e85" transform="rotate(-89.94 200.943 60.79)" class="colord68e85 svgShape"/><rect width="2.464" height="102.64" x="199.728" y="-6.959" fill="#d68e85" transform="rotate(-89.94 200.96 44.36)" class="colord68e85 svgShape"/></g><g clip-path="url(#g)" fill="#000000" class="color000 svgShape"><rect width="2.465" height="102.64" x="-4.301" y="148.9" fill="#d68e85" transform="rotate(-89.939 -3.069 200.22)" class="colord68e85 svgShape"/><rect width="2.465" height="102.64" x="-4.284" y="132.472" fill="#d68e85" transform="rotate(-89.94 -3.052 183.792)" class="colord68e85 svgShape"/><rect width="2.465" height="102.64" x="-4.266" y="116.043" fill="#d68e85" transform="rotate(-89.94 -3.034 167.362)" class="colord68e85 svgShape"/><rect width="2.465" height="102.64" x="-4.249" y="99.614" fill="#d68e85" transform="rotate(-89.939 -3.016 150.935)" class="colord68e85 svgShape"/><rect width="2.465" height="102.64" x="-4.232" y="83.185" fill="#d68e85" transform="rotate(-89.939 -2.999 134.505)" class="colord68e85 svgShape"/><rect width="2.465" height="102.64" x="-4.292" y="140.687" fill="#d68e85" transform="rotate(-89.94 -3.06 192.007)" class="colord68e85 svgShape"/><rect width="2.465" height="102.64" x="-4.275" y="124.257" fill="#d68e85" transform="rotate(-89.94 -3.043 175.577)" class="colord68e85 svgShape"/><rect width="2.465" height="102.64" x="-4.258" y="107.828" fill="#d68e85" transform="rotate(-89.94 -3.025 159.148)" class="colord68e85 svgShape"/><rect width="2.464" height="102.64" x="-4.24" y="91.4" fill="#d68e85" transform="rotate(-89.939 -3.008 142.72)" class="colord68e85 svgShape"/><rect width="2.464" height="102.64" x="-4.223" y="74.97" fill="#d68e85" transform="rotate(-89.939 -2.99 126.29)" class="colord68e85 svgShape"/><rect width="2.465" height="102.64" x="97.631" y="149.008" fill="#d68e85" transform="rotate(-89.94 98.863 200.328)" class="colord68e85 svgShape"/><rect width="2.465" height="102.64" x="97.648" y="132.58" fill="#d68e85" transform="rotate(-89.94 98.88 183.9)" class="colord68e85 svgShape"/><rect width="2.465" height="102.64" x="97.666" y="116.15" fill="#d68e85" transform="rotate(-89.94 98.898 167.47)" class="colord68e85 svgShape"/><rect width="2.465" height="102.64" x="97.683" y="99.722" fill="#d68e85" transform="rotate(-89.94 98.915 151.042)" class="colord68e85 svgShape"/><rect width="2.464" height="102.64" x="97.701" y="83.292" fill="#d68e85" transform="rotate(-89.94 98.933 134.612)" class="colord68e85 svgShape"/><rect width="2.465" height="102.64" x="97.64" y="140.794" fill="#d68e85" transform="rotate(-89.94 98.872 192.114)" class="colord68e85 svgShape"/><rect width="2.465" height="102.64" x="97.657" y="124.365" fill="#d68e85" transform="rotate(-89.94 98.89 175.685)" class="colord68e85 svgShape"/><rect width="2.465" height="102.64" x="97.674" y="107.935" fill="#d68e85" transform="rotate(-89.94 98.907 159.256)" class="colord68e85 svgShape"/><rect width="2.464" height="102.64" x="97.692" y="91.507" fill="#d68e85" transform="rotate(-89.94 98.924 142.827)" class="colord68e85 svgShape"/><rect width="2.464" height="102.64" x="97.709" y="75.078" fill="#d68e85" transform="rotate(-89.94 98.941 126.398)" class="colord68e85 svgShape"/><rect width="2.465" height="102.64" x="199.563" y="149.115" fill="#d68e85" transform="rotate(-89.94 200.796 200.435)" class="colord68e85 svgShape"/><rect width="2.465" height="102.64" x="199.581" y="132.687" fill="#d68e85" transform="rotate(-89.94 200.813 184.007)" class="colord68e85 svgShape"/><rect width="2.465" height="102.64" x="199.598" y="116.258" fill="#d68e85" transform="rotate(-89.94 200.83 167.578)" class="colord68e85 svgShape"/><rect width="2.465" height="102.64" x="199.615" y="99.829" fill="#d68e85" transform="rotate(-89.94 200.848 151.15)" class="colord68e85 svgShape"/><rect width="2.465" height="102.64" x="199.633" y="83.4" fill="#d68e85" transform="rotate(-89.94 200.865 134.72)" class="colord68e85 svgShape"/><rect width="2.465" height="102.64" x="199.572" y="140.902" fill="#d68e85" transform="rotate(-89.94 200.804 192.222)" class="colord68e85 svgShape"/><rect width="2.465" height="102.64" x="199.589" y="124.472" fill="#d68e85" transform="rotate(-89.94 200.821 175.792)" class="colord68e85 svgShape"/><rect width="2.465" height="102.64" x="199.607" y="108.043" fill="#d68e85" transform="rotate(-89.94 200.839 159.363)" class="colord68e85 svgShape"/><rect width="2.465" height="102.64" x="199.624" y="91.615" fill="#d68e85" transform="rotate(-89.939 200.857 142.934)" class="colord68e85 svgShape"/><rect width="2.464" height="102.64" x="199.641" y="75.185" fill="#d68e85" transform="rotate(-89.939 200.874 126.505)" class="colord68e85 svgShape"/></g><g clip-path="url(#h)" fill="#000000" class="color000 svgShape"><rect width="2.465" height="102.64" x="-4.388" y="231.045" fill="#d68e85" transform="rotate(-89.94 -3.156 282.364)" class="colord68e85 svgShape"/><rect width="2.465" height="102.64" x="-4.37" y="214.617" fill="#d68e85" transform="rotate(-89.939 -3.137 265.937)" class="colord68e85 svgShape"/><rect width="2.465" height="102.64" x="-4.353" y="198.187" fill="#d68e85" transform="rotate(-89.939 -3.12 249.508)" class="colord68e85 svgShape"/><rect width="2.465" height="102.64" x="-4.336" y="181.759" fill="#d68e85" transform="rotate(-89.939 -3.103 233.08)" class="colord68e85 svgShape"/><rect width="2.465" height="102.64" x="-4.318" y="165.33" fill="#d68e85" transform="rotate(-89.94 -3.086 216.65)" class="colord68e85 svgShape"/><rect width="2.465" height="102.64" x="-4.379" y="222.831" fill="#d68e85" transform="rotate(-89.939 -3.146 274.152)" class="colord68e85 svgShape"/><rect width="2.465" height="102.64" x="-4.362" y="206.402" fill="#d68e85" transform="rotate(-89.939 -3.13 257.722)" class="colord68e85 svgShape"/><rect width="2.464" height="102.64" x="-4.344" y="189.973" fill="#d68e85" transform="rotate(-89.94 -3.112 241.293)" class="colord68e85 svgShape"/><rect width="2.465" height="102.64" x="-4.327" y="173.544" fill="#d68e85" transform="rotate(-89.939 -3.094 224.865)" class="colord68e85 svgShape"/><rect width="2.465" height="102.64" x="-4.31" y="157.115" fill="#d68e85" transform="rotate(-89.939 -3.077 208.435)" class="colord68e85 svgShape"/><rect width="2.465" height="102.64" x="97.544" y="231.153" fill="#d68e85" transform="rotate(-89.94 98.777 282.473)" class="colord68e85 svgShape"/><rect width="2.465" height="102.64" x="97.562" y="214.724" fill="#d68e85" transform="rotate(-89.94 98.794 266.044)" class="colord68e85 svgShape"/><rect width="2.465" height="102.64" x="97.579" y="198.295" fill="#d68e85" transform="rotate(-89.939 98.812 249.615)" class="colord68e85 svgShape"/><rect width="2.465" height="102.64" x="97.596" y="181.867" fill="#d68e85" transform="rotate(-89.939 98.829 233.187)" class="colord68e85 svgShape"/><rect width="2.464" height="102.64" x="97.614" y="165.437" fill="#d68e85" transform="rotate(-89.94 98.846 216.757)" class="colord68e85 svgShape"/><rect width="2.465" height="102.64" x="97.553" y="222.939" fill="#d68e85" transform="rotate(-89.94 98.785 274.259)" class="colord68e85 svgShape"/><rect width="2.465" height="102.64" x="97.57" y="206.51" fill="#d68e85" transform="rotate(-89.94 98.803 257.83)" class="colord68e85 svgShape"/><rect width="2.464" height="102.64" x="97.588" y="190.08" fill="#d68e85" transform="rotate(-89.94 98.82 241.4)" class="colord68e85 svgShape"/><rect width="2.465" height="102.64" x="97.605" y="173.652" fill="#d68e85" transform="rotate(-89.939 98.838 224.972)" class="colord68e85 svgShape"/><rect width="2.465" height="102.64" x="97.622" y="157.222" fill="#d68e85" transform="rotate(-89.94 98.855 208.542)" class="colord68e85 svgShape"/><rect width="2.465" height="102.64" x="199.477" y="231.26" fill="#d68e85" transform="rotate(-89.94 200.709 282.58)" class="colord68e85 svgShape"/><rect width="2.465" height="102.64" x="199.494" y="214.832" fill="#d68e85" transform="rotate(-89.939 200.727 266.152)" class="colord68e85 svgShape"/><rect width="2.465" height="102.64" x="199.511" y="198.402" fill="#d68e85" transform="rotate(-89.939 200.744 249.722)" class="colord68e85 svgShape"/><rect width="2.464" height="102.64" x="199.529" y="181.974" fill="#d68e85" transform="rotate(-89.94 200.76 233.294)" class="colord68e85 svgShape"/><rect width="2.465" height="102.64" x="199.546" y="165.545" fill="#d68e85" transform="rotate(-89.939 200.779 216.865)" class="colord68e85 svgShape"/><rect width="2.465" height="102.64" x="199.485" y="223.047" fill="#d68e85" transform="rotate(-89.939 200.718 274.366)" class="colord68e85 svgShape"/><rect width="2.465" height="102.64" x="199.503" y="206.617" fill="#d68e85" transform="rotate(-89.94 200.735 257.937)" class="colord68e85 svgShape"/><rect width="2.464" height="102.64" x="199.52" y="190.188" fill="#d68e85" transform="rotate(-89.94 200.752 241.508)" class="colord68e85 svgShape"/><rect width="2.465" height="102.64" x="199.537" y="173.759" fill="#d68e85" transform="rotate(-89.94 200.77 225.08)" class="colord68e85 svgShape"/><rect width="2.465" height="102.64" x="199.554" y="157.33" fill="#d68e85" transform="rotate(-89.94 200.787 208.65)" class="colord68e85 svgShape"/></g><g clip-path="url(#i)" fill="#000000" class="color000 svgShape"><rect width="2.465" height="102.64" x="-4.474" y="313.19" fill="#d68e85" transform="rotate(-89.939 -3.241 364.51)" class="colord68e85 svgShape"/><rect width="2.465" height="102.64" x="-4.457" y="296.762" fill="#d68e85" transform="rotate(-89.94 -3.225 348.082)" class="colord68e85 svgShape"/><rect width="2.465" height="102.64" x="-4.44" y="280.332" fill="#d68e85" transform="rotate(-89.94 -3.207 331.652)" class="colord68e85 svgShape"/><rect width="2.464" height="102.64" x="-4.422" y="263.904" fill="#d68e85" transform="rotate(-89.94 -3.19 315.223)" class="colord68e85 svgShape"/><rect width="2.465" height="102.64" x="-4.405" y="247.474" fill="#d68e85" transform="rotate(-89.94 -3.173 298.794)" class="colord68e85 svgShape"/><rect width="2.465" height="102.64" x="-4.466" y="304.976" fill="#d68e85" transform="rotate(-89.939 -3.232 356.297)" class="colord68e85 svgShape"/><rect width="2.465" height="102.64" x="-4.448" y="288.547" fill="#d68e85" transform="rotate(-89.939 -3.215 339.867)" class="colord68e85 svgShape"/><rect width="2.465" height="102.64" x="-4.431" y="272.117" fill="#d68e85" transform="rotate(-89.939 -3.198 323.438)" class="colord68e85 svgShape"/><rect width="2.465" height="102.64" x="-4.414" y="255.689" fill="#d68e85" transform="rotate(-89.94 -3.181 307.009)" class="colord68e85 svgShape"/><rect width="2.465" height="102.64" x="-4.396" y="239.26" fill="#d68e85" transform="rotate(-89.94 -3.164 290.58)" class="colord68e85 svgShape"/><rect width="2.465" height="102.64" x="97.458" y="313.297" fill="#d68e85" transform="rotate(-89.94 98.69 364.617)" class="colord68e85 svgShape"/><rect width="2.465" height="102.64" x="97.475" y="296.869" fill="#d68e85" transform="rotate(-89.94 98.707 348.19)" class="colord68e85 svgShape"/><rect width="2.464" height="102.64" x="97.493" y="280.44" fill="#d68e85" transform="rotate(-89.939 98.726 331.76)" class="colord68e85 svgShape"/><rect width="2.464" height="102.64" x="97.51" y="264.011" fill="#d68e85" transform="rotate(-89.94 98.742 315.331)" class="colord68e85 svgShape"/><rect width="2.465" height="102.64" x="97.527" y="247.582" fill="#d68e85" transform="rotate(-89.94 98.76 298.902)" class="colord68e85 svgShape"/><rect width="2.465" height="102.64" x="97.466" y="305.084" fill="#d68e85" transform="rotate(-89.94 98.699 356.404)" class="colord68e85 svgShape"/><rect width="2.465" height="102.64" x="97.484" y="288.654" fill="#d68e85" transform="rotate(-89.94 98.716 339.974)" class="colord68e85 svgShape"/><rect width="2.465" height="102.64" x="97.501" y="272.225" fill="#d68e85" transform="rotate(-89.94 98.733 323.545)" class="colord68e85 svgShape"/><rect width="2.465" height="102.64" x="97.518" y="255.797" fill="#d68e85" transform="rotate(-89.94 98.75 307.117)" class="colord68e85 svgShape"/><rect width="2.465" height="102.64" x="97.536" y="239.367" fill="#d68e85" transform="rotate(-89.94 98.768 290.687)" class="colord68e85 svgShape"/><rect width="2.465" height="102.64" x="199.39" y="313.405" fill="#d68e85" transform="rotate(-89.94 200.622 364.725)" class="colord68e85 svgShape"/><rect width="2.465" height="102.64" x="199.407" y="296.977" fill="#d68e85" transform="rotate(-89.94 200.64 348.297)" class="colord68e85 svgShape"/><rect width="2.464" height="102.64" x="199.425" y="280.547" fill="#d68e85" transform="rotate(-89.94 200.657 331.867)" class="colord68e85 svgShape"/><rect width="2.464" height="102.64" x="199.442" y="264.119" fill="#d68e85" transform="rotate(-89.94 200.674 315.439)" class="colord68e85 svgShape"/><rect width="2.465" height="102.64" x="199.459" y="247.689" fill="#d68e85" transform="rotate(-89.94 200.692 299.01)" class="colord68e85 svgShape"/><rect width="2.465" height="102.64" x="199.399" y="305.191" fill="#d68e85" transform="rotate(-89.94 200.63 356.511)" class="colord68e85 svgShape"/><rect width="2.465" height="102.64" x="199.416" y="288.762" fill="#d68e85" transform="rotate(-89.94 200.648 340.082)" class="colord68e85 svgShape"/><rect width="2.464" height="102.64" x="199.433" y="272.332" fill="#d68e85" transform="rotate(-89.94 200.666 323.652)" class="colord68e85 svgShape"/><rect width="2.465" height="102.64" x="199.451" y="255.904" fill="#d68e85" transform="rotate(-89.94 200.683 307.224)" class="colord68e85 svgShape"/><rect width="2.465" height="102.64" x="199.468" y="239.475" fill="#d68e85" transform="rotate(-89.94 200.7 290.795)" class="colord68e85 svgShape"/></g><g clip-path="url(#j)" fill="#000000" class="color000 svgShape"><rect width="2.465" height="102.64" x="97.718" y="66.863" fill="#d68e85" transform="rotate(-89.939 98.95 118.183)" class="colord68e85 svgShape"/><rect width="2.465" height="102.64" x="97.735" y="50.435" fill="#d68e85" transform="rotate(-89.94 98.967 101.755)" class="colord68e85 svgShape"/><rect width="2.465" height="102.64" x="97.752" y="34.005" fill="#d68e85" transform="rotate(-89.939 98.985 85.325)" class="colord68e85 svgShape"/><rect width="2.465" height="102.64" x="97.77" y="17.577" fill="#d68e85" transform="rotate(-89.94 99.002 68.897)" class="colord68e85 svgShape"/><rect width="2.465" height="102.64" x="97.787" y="1.148" fill="#d68e85" transform="rotate(-89.94 99.019 52.468)" class="colord68e85 svgShape"/><rect width="2.465" height="102.64" x="97.726" y="58.649" fill="#d68e85" transform="rotate(-89.94 98.959 109.97)" class="colord68e85 svgShape"/><rect width="2.465" height="102.64" x="97.744" y="42.22" fill="#d68e85" transform="rotate(-89.94 98.976 93.54)" class="colord68e85 svgShape"/><rect width="2.465" height="102.64" x="97.761" y="25.791" fill="#d68e85" transform="rotate(-89.94 98.993 77.11)" class="colord68e85 svgShape"/><rect width="2.465" height="102.64" x="97.778" y="9.363" fill="#d68e85" transform="rotate(-89.94 99.01 60.683)" class="colord68e85 svgShape"/><rect width="2.464" height="102.64" x="97.796" y="-7.067" fill="#d68e85" transform="rotate(-89.94 99.028 44.253)" class="colord68e85 svgShape"/><rect width="2.465" height="102.64" x="199.65" y="66.971" fill="#d68e85" transform="rotate(-89.939 200.883 118.29)" class="colord68e85 svgShape"/><rect width="2.465" height="102.64" x="199.667" y="50.542" fill="#d68e85" transform="rotate(-89.939 200.9 101.862)" class="colord68e85 svgShape"/><rect width="2.465" height="102.64" x="199.684" y="34.113" fill="#d68e85" transform="rotate(-89.94 200.917 85.433)" class="colord68e85 svgShape"/><rect width="2.465" height="102.64" x="199.702" y="17.685" fill="#d68e85" transform="rotate(-89.94 200.934 69.005)" class="colord68e85 svgShape"/><rect width="2.465" height="102.64" x="199.719" y="1.255" fill="#d68e85" transform="rotate(-89.94 200.951 52.575)" class="colord68e85 svgShape"/><rect width="2.465" height="102.64" x="199.658" y="58.757" fill="#d68e85" transform="rotate(-89.94 200.89 110.077)" class="colord68e85 svgShape"/><rect width="2.465" height="102.64" x="199.676" y="42.328" fill="#d68e85" transform="rotate(-89.94 200.908 93.648)" class="colord68e85 svgShape"/><rect width="2.465" height="102.64" x="199.693" y="25.898" fill="#d68e85" transform="rotate(-89.94 200.925 77.218)" class="colord68e85 svgShape"/><rect width="2.465" height="102.64" x="199.71" y="9.47" fill="#d68e85" transform="rotate(-89.94 200.943 60.79)" class="colord68e85 svgShape"/><rect width="2.464" height="102.64" x="199.728" y="-6.959" fill="#d68e85" transform="rotate(-89.94 200.96 44.36)" class="colord68e85 svgShape"/><rect width="2.465" height="102.64" x="301.582" y="67.078" fill="#d68e85" transform="rotate(-89.94 302.814 118.398)" class="colord68e85 svgShape"/><rect width="2.465" height="102.64" x="301.599" y="50.65" fill="#d68e85" transform="rotate(-89.94 302.831 101.97)" class="colord68e85 svgShape"/><rect width="2.465" height="102.64" x="301.617" y="34.221" fill="#d68e85" transform="rotate(-89.94 302.849 85.54)" class="colord68e85 svgShape"/><rect width="2.465" height="102.64" x="301.634" y="17.792" fill="#d68e85" transform="rotate(-89.94 302.866 69.112)" class="colord68e85 svgShape"/><rect width="2.465" height="102.64" x="301.651" y="1.363" fill="#d68e85" transform="rotate(-89.94 302.884 52.683)" class="colord68e85 svgShape"/><rect width="2.465" height="102.64" x="301.59" y="58.865" fill="#d68e85" transform="rotate(-89.94 302.823 110.184)" class="colord68e85 svgShape"/><rect width="2.465" height="102.64" x="301.608" y="42.435" fill="#d68e85" transform="rotate(-89.939 302.84 93.755)" class="colord68e85 svgShape"/><rect width="2.465" height="102.64" x="301.625" y="26.006" fill="#d68e85" transform="rotate(-89.94 302.858 77.326)" class="colord68e85 svgShape"/><rect width="2.465" height="102.64" x="301.643" y="9.578" fill="#d68e85" transform="rotate(-89.94 302.875 60.897)" class="colord68e85 svgShape"/><rect width="2.464" height="102.64" x="301.66" y="-6.852" fill="#d68e85" transform="rotate(-89.94 302.892 44.468)" class="colord68e85 svgShape"/></g><g clip-path="url(#k)" fill="#000000" class="color000 svgShape"><rect width="2.465" height="102.64" x="97.631" y="149.008" fill="#d68e85" transform="rotate(-89.94 98.863 200.328)" class="colord68e85 svgShape"/><rect width="2.465" height="102.64" x="97.648" y="132.58" fill="#d68e85" transform="rotate(-89.94 98.88 183.9)" class="colord68e85 svgShape"/><rect width="2.465" height="102.64" x="97.666" y="116.15" fill="#d68e85" transform="rotate(-89.94 98.898 167.47)" class="colord68e85 svgShape"/><rect width="2.465" height="102.64" x="97.683" y="99.722" fill="#d68e85" transform="rotate(-89.94 98.915 151.042)" class="colord68e85 svgShape"/><rect width="2.464" height="102.64" x="97.701" y="83.292" fill="#d68e85" transform="rotate(-89.94 98.933 134.612)" class="colord68e85 svgShape"/><rect width="2.465" height="102.64" x="97.64" y="140.794" fill="#d68e85" transform="rotate(-89.94 98.872 192.114)" class="colord68e85 svgShape"/><rect width="2.465" height="102.64" x="97.657" y="124.365" fill="#d68e85" transform="rotate(-89.94 98.89 175.685)" class="colord68e85 svgShape"/><rect width="2.465" height="102.64" x="97.674" y="107.935" fill="#d68e85" transform="rotate(-89.94 98.907 159.256)" class="colord68e85 svgShape"/><rect width="2.464" height="102.64" x="97.692" y="91.507" fill="#d68e85" transform="rotate(-89.94 98.924 142.827)" class="colord68e85 svgShape"/><rect width="2.464" height="102.64" x="97.709" y="75.078" fill="#d68e85" transform="rotate(-89.94 98.941 126.398)" class="colord68e85 svgShape"/><rect width="2.465" height="102.64" x="199.563" y="149.115" fill="#d68e85" transform="rotate(-89.94 200.796 200.435)" class="colord68e85 svgShape"/><rect width="2.465" height="102.64" x="199.581" y="132.687" fill="#d68e85" transform="rotate(-89.94 200.813 184.007)" class="colord68e85 svgShape"/><rect width="2.465" height="102.64" x="199.598" y="116.258" fill="#d68e85" transform="rotate(-89.94 200.83 167.578)" class="colord68e85 svgShape"/><rect width="2.465" height="102.64" x="199.615" y="99.829" fill="#d68e85" transform="rotate(-89.94 200.848 151.15)" class="colord68e85 svgShape"/><rect width="2.465" height="102.64" x="199.633" y="83.4" fill="#d68e85" transform="rotate(-89.94 200.865 134.72)" class="colord68e85 svgShape"/><rect width="2.465" height="102.64" x="199.572" y="140.902" fill="#d68e85" transform="rotate(-89.94 200.804 192.222)" class="colord68e85 svgShape"/><rect width="2.465" height="102.64" x="199.589" y="124.472" fill="#d68e85" transform="rotate(-89.94 200.821 175.792)" class="colord68e85 svgShape"/><rect width="2.465" height="102.64" x="199.607" y="108.043" fill="#d68e85" transform="rotate(-89.94 200.839 159.363)" class="colord68e85 svgShape"/><rect width="2.465" height="102.64" x="199.624" y="91.615" fill="#d68e85" transform="rotate(-89.939 200.857 142.934)" class="colord68e85 svgShape"/><rect width="2.464" height="102.64" x="199.641" y="75.185" fill="#d68e85" transform="rotate(-89.939 200.874 126.505)" class="colord68e85 svgShape"/><rect width="2.465" height="102.64" x="301.495" y="149.223" fill="#d68e85" transform="rotate(-89.939 302.729 200.542)" class="colord68e85 svgShape"/><rect width="2.465" height="102.64" x="301.513" y="132.795" fill="#d68e85" transform="rotate(-89.94 302.745 184.115)" class="colord68e85 svgShape"/><rect width="2.465" height="102.64" x="301.53" y="116.365" fill="#d68e85" transform="rotate(-89.94 302.762 167.685)" class="colord68e85 svgShape"/><rect width="2.465" height="102.64" x="301.547" y="99.937" fill="#d68e85" transform="rotate(-89.94 302.78 151.257)" class="colord68e85 svgShape"/><rect width="2.464" height="102.64" x="301.565" y="83.507" fill="#d68e85" transform="rotate(-89.94 302.797 134.827)" class="colord68e85 svgShape"/><rect width="2.465" height="102.64" x="301.504" y="141.009" fill="#d68e85" transform="rotate(-89.94 302.736 192.33)" class="colord68e85 svgShape"/><rect width="2.465" height="102.64" x="301.521" y="124.58" fill="#d68e85" transform="rotate(-89.94 302.754 175.9)" class="colord68e85 svgShape"/><rect width="2.465" height="102.64" x="301.539" y="108.151" fill="#d68e85" transform="rotate(-89.94 302.77 159.47)" class="colord68e85 svgShape"/><rect width="2.465" height="102.64" x="301.556" y="91.722" fill="#d68e85" transform="rotate(-89.94 302.788 143.042)" class="colord68e85 svgShape"/><rect width="2.464" height="102.64" x="301.573" y="75.293" fill="#d68e85" transform="rotate(-89.939 302.806 126.612)" class="colord68e85 svgShape"/></g><g clip-path="url(#l)" fill="#000000" class="color000 svgShape"><rect width="2.465" height="102.64" x="97.544" y="231.153" fill="#d68e85" transform="rotate(-89.94 98.777 282.473)" class="colord68e85 svgShape"/><rect width="2.465" height="102.64" x="97.562" y="214.724" fill="#d68e85" transform="rotate(-89.94 98.794 266.044)" class="colord68e85 svgShape"/><rect width="2.465" height="102.64" x="97.579" y="198.295" fill="#d68e85" transform="rotate(-89.939 98.812 249.615)" class="colord68e85 svgShape"/><rect width="2.465" height="102.64" x="97.596" y="181.867" fill="#d68e85" transform="rotate(-89.939 98.829 233.187)" class="colord68e85 svgShape"/><rect width="2.464" height="102.64" x="97.614" y="165.437" fill="#d68e85" transform="rotate(-89.94 98.846 216.757)" class="colord68e85 svgShape"/><rect width="2.465" height="102.64" x="97.553" y="222.939" fill="#d68e85" transform="rotate(-89.94 98.785 274.259)" class="colord68e85 svgShape"/><rect width="2.465" height="102.64" x="97.57" y="206.51" fill="#d68e85" transform="rotate(-89.94 98.803 257.83)" class="colord68e85 svgShape"/><rect width="2.464" height="102.64" x="97.588" y="190.08" fill="#d68e85" transform="rotate(-89.94 98.82 241.4)" class="colord68e85 svgShape"/><rect width="2.465" height="102.64" x="97.605" y="173.652" fill="#d68e85" transform="rotate(-89.939 98.838 224.972)" class="colord68e85 svgShape"/><rect width="2.465" height="102.64" x="97.622" y="157.222" fill="#d68e85" transform="rotate(-89.94 98.855 208.542)" class="colord68e85 svgShape"/><rect width="2.465" height="102.64" x="199.477" y="231.26" fill="#d68e85" transform="rotate(-89.94 200.709 282.58)" class="colord68e85 svgShape"/><rect width="2.465" height="102.64" x="199.494" y="214.832" fill="#d68e85" transform="rotate(-89.939 200.727 266.152)" class="colord68e85 svgShape"/><rect width="2.465" height="102.64" x="199.511" y="198.402" fill="#d68e85" transform="rotate(-89.939 200.744 249.722)" class="colord68e85 svgShape"/><rect width="2.464" height="102.64" x="199.529" y="181.974" fill="#d68e85" transform="rotate(-89.94 200.76 233.294)" class="colord68e85 svgShape"/><rect width="2.465" height="102.64" x="199.546" y="165.545" fill="#d68e85" transform="rotate(-89.939 200.779 216.865)" class="colord68e85 svgShape"/><rect width="2.465" height="102.64" x="199.485" y="223.047" fill="#d68e85" transform="rotate(-89.939 200.718 274.366)" class="colord68e85 svgShape"/><rect width="2.465" height="102.64" x="199.503" y="206.617" fill="#d68e85" transform="rotate(-89.94 200.735 257.937)" class="colord68e85 svgShape"/><rect width="2.464" height="102.64" x="199.52" y="190.188" fill="#d68e85" transform="rotate(-89.94 200.752 241.508)" class="colord68e85 svgShape"/><rect width="2.465" height="102.64" x="199.537" y="173.759" fill="#d68e85" transform="rotate(-89.94 200.77 225.08)" class="colord68e85 svgShape"/><rect width="2.465" height="102.64" x="199.554" y="157.33" fill="#d68e85" transform="rotate(-89.94 200.787 208.65)" class="colord68e85 svgShape"/><rect width="2.465" height="102.64" x="301.409" y="231.368" fill="#d68e85" transform="rotate(-89.94 302.64 282.688)" class="colord68e85 svgShape"/><rect width="2.465" height="102.64" x="301.426" y="214.939" fill="#d68e85" transform="rotate(-89.939 302.66 266.259)" class="colord68e85 svgShape"/><rect width="2.465" height="102.64" x="301.443" y="198.51" fill="#d68e85" transform="rotate(-89.94 302.676 249.83)" class="colord68e85 svgShape"/><rect width="2.464" height="102.64" x="301.461" y="182.082" fill="#d68e85" transform="rotate(-89.94 302.693 233.402)" class="colord68e85 svgShape"/><rect width="2.464" height="102.64" x="301.478" y="165.652" fill="#d68e85" transform="rotate(-89.939 302.71 216.972)" class="colord68e85 svgShape"/><rect width="2.465" height="102.64" x="301.417" y="223.154" fill="#d68e85" transform="rotate(-89.94 302.65 274.474)" class="colord68e85 svgShape"/><rect width="2.465" height="102.64" x="301.435" y="206.725" fill="#d68e85" transform="rotate(-89.939 302.668 258.044)" class="colord68e85 svgShape"/><rect width="2.465" height="102.64" x="301.452" y="190.295" fill="#d68e85" transform="rotate(-89.939 302.684 241.615)" class="colord68e85 svgShape"/><rect width="2.464" height="102.64" x="301.469" y="173.867" fill="#d68e85" transform="rotate(-89.939 302.703 225.187)" class="colord68e85 svgShape"/><rect width="2.465" height="102.64" x="301.487" y="157.438" fill="#d68e85" transform="rotate(-89.939 302.72 208.757)" class="colord68e85 svgShape"/></g><g clip-path="url(#m)" fill="#000000" class="color000 svgShape"><rect width="2.465" height="102.64" x="97.458" y="313.297" fill="#d68e85" transform="rotate(-89.94 98.69 364.617)" class="colord68e85 svgShape"/><rect width="2.465" height="102.64" x="97.475" y="296.869" fill="#d68e85" transform="rotate(-89.94 98.707 348.19)" class="colord68e85 svgShape"/><rect width="2.464" height="102.64" x="97.493" y="280.44" fill="#d68e85" transform="rotate(-89.939 98.726 331.76)" class="colord68e85 svgShape"/><rect width="2.464" height="102.64" x="97.51" y="264.011" fill="#d68e85" transform="rotate(-89.94 98.742 315.331)" class="colord68e85 svgShape"/><rect width="2.465" height="102.64" x="97.527" y="247.582" fill="#d68e85" transform="rotate(-89.94 98.76 298.902)" class="colord68e85 svgShape"/><rect width="2.465" height="102.64" x="97.466" y="305.084" fill="#d68e85" transform="rotate(-89.94 98.699 356.404)" class="colord68e85 svgShape"/><rect width="2.465" height="102.64" x="97.484" y="288.654" fill="#d68e85" transform="rotate(-89.94 98.716 339.974)" class="colord68e85 svgShape"/><rect width="2.465" height="102.64" x="97.501" y="272.225" fill="#d68e85" transform="rotate(-89.94 98.733 323.545)" class="colord68e85 svgShape"/><rect width="2.465" height="102.64" x="97.518" y="255.797" fill="#d68e85" transform="rotate(-89.94 98.75 307.117)" class="colord68e85 svgShape"/><rect width="2.465" height="102.64" x="97.536" y="239.367" fill="#d68e85" transform="rotate(-89.94 98.768 290.687)" class="colord68e85 svgShape"/><rect width="2.465" height="102.64" x="199.39" y="313.405" fill="#d68e85" transform="rotate(-89.94 200.622 364.725)" class="colord68e85 svgShape"/><rect width="2.465" height="102.64" x="199.407" y="296.977" fill="#d68e85" transform="rotate(-89.94 200.64 348.297)" class="colord68e85 svgShape"/><rect width="2.464" height="102.64" x="199.425" y="280.547" fill="#d68e85" transform="rotate(-89.94 200.657 331.867)" class="colord68e85 svgShape"/><rect width="2.464" height="102.64" x="199.442" y="264.119" fill="#d68e85" transform="rotate(-89.94 200.674 315.439)" class="colord68e85 svgShape"/><rect width="2.465" height="102.64" x="199.459" y="247.689" fill="#d68e85" transform="rotate(-89.94 200.692 299.01)" class="colord68e85 svgShape"/><rect width="2.465" height="102.64" x="199.399" y="305.191" fill="#d68e85" transform="rotate(-89.94 200.63 356.511)" class="colord68e85 svgShape"/><rect width="2.465" height="102.64" x="199.416" y="288.762" fill="#d68e85" transform="rotate(-89.94 200.648 340.082)" class="colord68e85 svgShape"/><rect width="2.464" height="102.64" x="199.433" y="272.332" fill="#d68e85" transform="rotate(-89.94 200.666 323.652)" class="colord68e85 svgShape"/><rect width="2.465" height="102.64" x="199.451" y="255.904" fill="#d68e85" transform="rotate(-89.94 200.683 307.224)" class="colord68e85 svgShape"/><rect width="2.465" height="102.64" x="199.468" y="239.475" fill="#d68e85" transform="rotate(-89.94 200.7 290.795)" class="colord68e85 svgShape"/><rect width="2.465" height="102.64" x="301.322" y="313.512" fill="#d68e85" transform="rotate(-89.94 302.554 364.832)" class="colord68e85 svgShape"/><rect width="2.465" height="102.64" x="301.339" y="297.084" fill="#d68e85" transform="rotate(-89.939 302.573 348.404)" class="colord68e85 svgShape"/><rect width="2.464" height="102.64" x="301.357" y="280.655" fill="#d68e85" transform="rotate(-89.94 302.589 331.975)" class="colord68e85 svgShape"/><rect width="2.464" height="102.64" x="301.374" y="264.226" fill="#d68e85" transform="rotate(-89.94 302.606 315.546)" class="colord68e85 svgShape"/><rect width="2.465" height="102.64" x="301.391" y="247.797" fill="#d68e85" transform="rotate(-89.94 302.624 299.117)" class="colord68e85 svgShape"/><rect width="2.465" height="102.64" x="301.331" y="305.299" fill="#d68e85" transform="rotate(-89.94 302.563 356.619)" class="colord68e85 svgShape"/><rect width="2.465" height="102.64" x="301.348" y="288.869" fill="#d68e85" transform="rotate(-89.94 302.58 340.19)" class="colord68e85 svgShape"/><rect width="2.464" height="102.64" x="301.365" y="272.44" fill="#d68e85" transform="rotate(-89.94 302.598 323.76)" class="colord68e85 svgShape"/><rect width="2.465" height="102.64" x="301.383" y="256.012" fill="#d68e85" transform="rotate(-89.94 302.615 307.332)" class="colord68e85 svgShape"/><rect width="2.465" height="102.64" x="301.4" y="239.582" fill="#d68e85" transform="rotate(-89.939 302.634 290.902)" class="colord68e85 svgShape"/></g><g clip-path="url(#n)" fill="#000000" class="color000 svgShape"><rect width="2.465" height="102.64" x="199.65" y="66.971" fill="#d68e85" transform="rotate(-89.939 200.883 118.29)" class="colord68e85 svgShape"/><rect width="2.465" height="102.64" x="199.667" y="50.542" fill="#d68e85" transform="rotate(-89.939 200.9 101.862)" class="colord68e85 svgShape"/><rect width="2.465" height="102.64" x="199.684" y="34.113" fill="#d68e85" transform="rotate(-89.94 200.917 85.433)" class="colord68e85 svgShape"/><rect width="2.465" height="102.64" x="199.702" y="17.685" fill="#d68e85" transform="rotate(-89.94 200.934 69.005)" class="colord68e85 svgShape"/><rect width="2.465" height="102.64" x="199.719" y="1.255" fill="#d68e85" transform="rotate(-89.94 200.951 52.575)" class="colord68e85 svgShape"/><rect width="2.465" height="102.64" x="199.658" y="58.757" fill="#d68e85" transform="rotate(-89.94 200.89 110.077)" class="colord68e85 svgShape"/><rect width="2.465" height="102.64" x="199.676" y="42.328" fill="#d68e85" transform="rotate(-89.94 200.908 93.648)" class="colord68e85 svgShape"/><rect width="2.465" height="102.64" x="199.693" y="25.898" fill="#d68e85" transform="rotate(-89.94 200.925 77.218)" class="colord68e85 svgShape"/><rect width="2.465" height="102.64" x="199.71" y="9.47" fill="#d68e85" transform="rotate(-89.94 200.943 60.79)" class="colord68e85 svgShape"/><rect width="2.464" height="102.64" x="199.728" y="-6.959" fill="#d68e85" transform="rotate(-89.94 200.96 44.36)" class="colord68e85 svgShape"/><rect width="2.465" height="102.64" x="301.582" y="67.078" fill="#d68e85" transform="rotate(-89.94 302.814 118.398)" class="colord68e85 svgShape"/><rect width="2.465" height="102.64" x="301.599" y="50.65" fill="#d68e85" transform="rotate(-89.94 302.831 101.97)" class="colord68e85 svgShape"/><rect width="2.465" height="102.64" x="301.617" y="34.221" fill="#d68e85" transform="rotate(-89.94 302.849 85.54)" class="colord68e85 svgShape"/><rect width="2.465" height="102.64" x="301.634" y="17.792" fill="#d68e85" transform="rotate(-89.94 302.866 69.112)" class="colord68e85 svgShape"/><rect width="2.465" height="102.64" x="301.651" y="1.363" fill="#d68e85" transform="rotate(-89.94 302.884 52.683)" class="colord68e85 svgShape"/><rect width="2.465" height="102.64" x="301.59" y="58.865" fill="#d68e85" transform="rotate(-89.94 302.823 110.184)" class="colord68e85 svgShape"/><rect width="2.465" height="102.64" x="301.608" y="42.435" fill="#d68e85" transform="rotate(-89.939 302.84 93.755)" class="colord68e85 svgShape"/><rect width="2.465" height="102.64" x="301.625" y="26.006" fill="#d68e85" transform="rotate(-89.94 302.858 77.326)" class="colord68e85 svgShape"/><rect width="2.465" height="102.64" x="301.643" y="9.578" fill="#d68e85" transform="rotate(-89.94 302.875 60.897)" class="colord68e85 svgShape"/><rect width="2.464" height="102.64" x="301.66" y="-6.852" fill="#d68e85" transform="rotate(-89.94 302.892 44.468)" class="colord68e85 svgShape"/><rect width="2.465" height="102.64" x="403.514" y="67.186" fill="#d68e85" transform="rotate(-89.939 404.746 118.506)" class="colord68e85 svgShape"/><rect width="2.465" height="102.64" x="403.531" y="50.757" fill="#d68e85" transform="rotate(-89.939 404.764 102.077)" class="colord68e85 svgShape"/><rect width="2.465" height="102.64" x="403.549" y="34.328" fill="#d68e85" transform="rotate(-89.94 404.78 85.648)" class="colord68e85 svgShape"/><rect width="2.465" height="102.64" x="403.566" y="17.9" fill="#d68e85" transform="rotate(-89.94 404.798 69.22)" class="colord68e85 svgShape"/><rect width="2.465" height="102.64" x="403.583" y="1.47" fill="#d68e85" transform="rotate(-89.94 404.816 52.79)" class="colord68e85 svgShape"/><rect width="2.465" height="102.64" x="403.523" y="58.972" fill="#d68e85" transform="rotate(-89.94 404.755 110.292)" class="colord68e85 svgShape"/><rect width="2.465" height="102.64" x="403.54" y="42.543" fill="#d68e85" transform="rotate(-89.939 404.772 93.863)" class="colord68e85 svgShape"/><rect width="2.465" height="102.64" x="403.557" y="26.113" fill="#d68e85" transform="rotate(-89.939 404.79 77.432)" class="colord68e85 svgShape"/><rect width="2.465" height="102.64" x="403.575" y="9.685" fill="#d68e85" transform="rotate(-89.94 404.807 61.005)" class="colord68e85 svgShape"/><rect width="2.464" height="102.64" x="403.592" y="-6.744" fill="#d68e85" transform="rotate(-89.94 404.824 44.576)" class="colord68e85 svgShape"/></g><g clip-path="url(#o)" fill="#000000" class="color000 svgShape"><rect width="2.465" height="102.64" x="199.563" y="149.115" fill="#d68e85" transform="rotate(-89.94 200.796 200.435)" class="colord68e85 svgShape"/><rect width="2.465" height="102.64" x="199.581" y="132.687" fill="#d68e85" transform="rotate(-89.94 200.813 184.007)" class="colord68e85 svgShape"/><rect width="2.465" height="102.64" x="199.598" y="116.258" fill="#d68e85" transform="rotate(-89.94 200.83 167.578)" class="colord68e85 svgShape"/><rect width="2.465" height="102.64" x="199.615" y="99.829" fill="#d68e85" transform="rotate(-89.94 200.848 151.15)" class="colord68e85 svgShape"/><rect width="2.465" height="102.64" x="199.633" y="83.4" fill="#d68e85" transform="rotate(-89.94 200.865 134.72)" class="colord68e85 svgShape"/><rect width="2.465" height="102.64" x="199.572" y="140.902" fill="#d68e85" transform="rotate(-89.94 200.804 192.222)" class="colord68e85 svgShape"/><rect width="2.465" height="102.64" x="199.589" y="124.472" fill="#d68e85" transform="rotate(-89.94 200.821 175.792)" class="colord68e85 svgShape"/><rect width="2.465" height="102.64" x="199.607" y="108.043" fill="#d68e85" transform="rotate(-89.94 200.839 159.363)" class="colord68e85 svgShape"/><rect width="2.465" height="102.64" x="199.624" y="91.615" fill="#d68e85" transform="rotate(-89.939 200.857 142.934)" class="colord68e85 svgShape"/><rect width="2.464" height="102.64" x="199.641" y="75.185" fill="#d68e85" transform="rotate(-89.939 200.874 126.505)" class="colord68e85 svgShape"/><rect width="2.465" height="102.64" x="301.495" y="149.223" fill="#d68e85" transform="rotate(-89.939 302.729 200.542)" class="colord68e85 svgShape"/><rect width="2.465" height="102.64" x="301.513" y="132.795" fill="#d68e85" transform="rotate(-89.94 302.745 184.115)" class="colord68e85 svgShape"/><rect width="2.465" height="102.64" x="301.53" y="116.365" fill="#d68e85" transform="rotate(-89.94 302.762 167.685)" class="colord68e85 svgShape"/><rect width="2.465" height="102.64" x="301.547" y="99.937" fill="#d68e85" transform="rotate(-89.94 302.78 151.257)" class="colord68e85 svgShape"/><rect width="2.464" height="102.64" x="301.565" y="83.507" fill="#d68e85" transform="rotate(-89.94 302.797 134.827)" class="colord68e85 svgShape"/><rect width="2.465" height="102.64" x="301.504" y="141.009" fill="#d68e85" transform="rotate(-89.94 302.736 192.33)" class="colord68e85 svgShape"/><rect width="2.465" height="102.64" x="301.521" y="124.58" fill="#d68e85" transform="rotate(-89.94 302.754 175.9)" class="colord68e85 svgShape"/><rect width="2.465" height="102.64" x="301.539" y="108.151" fill="#d68e85" transform="rotate(-89.94 302.77 159.47)" class="colord68e85 svgShape"/><rect width="2.465" height="102.64" x="301.556" y="91.722" fill="#d68e85" transform="rotate(-89.94 302.788 143.042)" class="colord68e85 svgShape"/><rect width="2.464" height="102.64" x="301.573" y="75.293" fill="#d68e85" transform="rotate(-89.939 302.806 126.612)" class="colord68e85 svgShape"/><rect width="2.465" height="102.64" x="403.427" y="149.33" fill="#d68e85" transform="rotate(-89.939 404.66 200.65)" class="colord68e85 svgShape"/><rect width="2.465" height="102.64" x="403.445" y="132.902" fill="#d68e85" transform="rotate(-89.94 404.677 184.222)" class="colord68e85 svgShape"/><rect width="2.465" height="102.64" x="403.462" y="116.473" fill="#d68e85" transform="rotate(-89.94 404.693 167.793)" class="colord68e85 svgShape"/><rect width="2.465" height="102.64" x="403.479" y="100.044" fill="#d68e85" transform="rotate(-89.94 404.712 151.364)" class="colord68e85 svgShape"/><rect width="2.464" height="102.64" x="403.497" y="83.615" fill="#d68e85" transform="rotate(-89.94 404.729 134.935)" class="colord68e85 svgShape"/><rect width="2.465" height="102.64" x="403.436" y="141.117" fill="#d68e85" transform="rotate(-89.94 404.668 192.437)" class="colord68e85 svgShape"/><rect width="2.465" height="102.64" x="403.453" y="124.687" fill="#d68e85" transform="rotate(-89.94 404.686 176.007)" class="colord68e85 svgShape"/><rect width="2.465" height="102.64" x="403.471" y="108.258" fill="#d68e85" transform="rotate(-89.94 404.703 159.578)" class="colord68e85 svgShape"/><rect width="2.465" height="102.64" x="403.488" y="91.83" fill="#d68e85" transform="rotate(-89.94 404.72 143.15)" class="colord68e85 svgShape"/><rect width="2.465" height="102.64" x="403.505" y="75.4" fill="#d68e85" transform="rotate(-89.939 404.739 126.72)" class="colord68e85 svgShape"/></g><g clip-path="url(#p)" fill="#000000" class="color000 svgShape"><rect width="2.465" height="102.64" x="199.477" y="231.26" fill="#d68e85" transform="rotate(-89.94 200.709 282.58)" class="colord68e85 svgShape"/><rect width="2.465" height="102.64" x="199.494" y="214.832" fill="#d68e85" transform="rotate(-89.939 200.727 266.152)" class="colord68e85 svgShape"/><rect width="2.465" height="102.64" x="199.511" y="198.402" fill="#d68e85" transform="rotate(-89.939 200.744 249.722)" class="colord68e85 svgShape"/><rect width="2.464" height="102.64" x="199.529" y="181.974" fill="#d68e85" transform="rotate(-89.94 200.76 233.294)" class="colord68e85 svgShape"/><rect width="2.465" height="102.64" x="199.546" y="165.545" fill="#d68e85" transform="rotate(-89.939 200.779 216.865)" class="colord68e85 svgShape"/><rect width="2.465" height="102.64" x="199.485" y="223.047" fill="#d68e85" transform="rotate(-89.939 200.718 274.366)" class="colord68e85 svgShape"/><rect width="2.465" height="102.64" x="199.503" y="206.617" fill="#d68e85" transform="rotate(-89.94 200.735 257.937)" class="colord68e85 svgShape"/><rect width="2.464" height="102.64" x="199.52" y="190.188" fill="#d68e85" transform="rotate(-89.94 200.752 241.508)" class="colord68e85 svgShape"/><rect width="2.465" height="102.64" x="199.537" y="173.759" fill="#d68e85" transform="rotate(-89.94 200.77 225.08)" class="colord68e85 svgShape"/><rect width="2.465" height="102.64" x="199.554" y="157.33" fill="#d68e85" transform="rotate(-89.94 200.787 208.65)" class="colord68e85 svgShape"/><rect width="2.465" height="102.64" x="301.409" y="231.368" fill="#d68e85" transform="rotate(-89.94 302.64 282.688)" class="colord68e85 svgShape"/><rect width="2.465" height="102.64" x="301.426" y="214.939" fill="#d68e85" transform="rotate(-89.939 302.66 266.259)" class="colord68e85 svgShape"/><rect width="2.465" height="102.64" x="301.443" y="198.51" fill="#d68e85" transform="rotate(-89.94 302.676 249.83)" class="colord68e85 svgShape"/><rect width="2.464" height="102.64" x="301.461" y="182.082" fill="#d68e85" transform="rotate(-89.94 302.693 233.402)" class="colord68e85 svgShape"/><rect width="2.464" height="102.64" x="301.478" y="165.652" fill="#d68e85" transform="rotate(-89.939 302.71 216.972)" class="colord68e85 svgShape"/><rect width="2.465" height="102.64" x="301.417" y="223.154" fill="#d68e85" transform="rotate(-89.94 302.65 274.474)" class="colord68e85 svgShape"/><rect width="2.465" height="102.64" x="301.435" y="206.725" fill="#d68e85" transform="rotate(-89.939 302.668 258.044)" class="colord68e85 svgShape"/><rect width="2.465" height="102.64" x="301.452" y="190.295" fill="#d68e85" transform="rotate(-89.939 302.684 241.615)" class="colord68e85 svgShape"/><rect width="2.464" height="102.64" x="301.469" y="173.867" fill="#d68e85" transform="rotate(-89.939 302.703 225.187)" class="colord68e85 svgShape"/><rect width="2.465" height="102.64" x="301.487" y="157.438" fill="#d68e85" transform="rotate(-89.939 302.72 208.757)" class="colord68e85 svgShape"/><rect width="2.465" height="102.64" x="403.341" y="231.475" fill="#d68e85" transform="rotate(-89.94 404.573 282.795)" class="colord68e85 svgShape"/><rect width="2.465" height="102.64" x="403.358" y="215.047" fill="#d68e85" transform="rotate(-89.94 404.59 266.367)" class="colord68e85 svgShape"/><rect width="2.465" height="102.64" x="403.375" y="198.617" fill="#d68e85" transform="rotate(-89.939 404.609 249.937)" class="colord68e85 svgShape"/><rect width="2.464" height="102.64" x="403.393" y="182.189" fill="#d68e85" transform="rotate(-89.94 404.625 233.51)" class="colord68e85 svgShape"/><rect width="2.465" height="102.64" x="403.41" y="165.76" fill="#d68e85" transform="rotate(-89.94 404.642 217.08)" class="colord68e85 svgShape"/><rect width="2.465" height="102.64" x="403.349" y="223.262" fill="#d68e85" transform="rotate(-89.939 404.583 274.581)" class="colord68e85 svgShape"/><rect width="2.465" height="102.64" x="403.367" y="206.832" fill="#d68e85" transform="rotate(-89.94 404.599 258.152)" class="colord68e85 svgShape"/><rect width="2.464" height="102.64" x="403.384" y="190.403" fill="#d68e85" transform="rotate(-89.94 404.616 241.723)" class="colord68e85 svgShape"/><rect width="2.464" height="102.64" x="403.401" y="173.975" fill="#d68e85" transform="rotate(-89.939 404.635 225.294)" class="colord68e85 svgShape"/><rect width="2.465" height="102.64" x="403.419" y="157.545" fill="#d68e85" transform="rotate(-89.94 404.651 208.865)" class="colord68e85 svgShape"/></g><g clip-path="url(#q)" fill="#000000" class="color000 svgShape"><rect width="2.465" height="102.64" x="199.39" y="313.405" fill="#d68e85" transform="rotate(-89.94 200.622 364.725)" class="colord68e85 svgShape"/><rect width="2.465" height="102.64" x="199.407" y="296.977" fill="#d68e85" transform="rotate(-89.94 200.64 348.297)" class="colord68e85 svgShape"/><rect width="2.464" height="102.64" x="199.425" y="280.547" fill="#d68e85" transform="rotate(-89.94 200.657 331.867)" class="colord68e85 svgShape"/><rect width="2.464" height="102.64" x="199.442" y="264.119" fill="#d68e85" transform="rotate(-89.94 200.674 315.439)" class="colord68e85 svgShape"/><rect width="2.465" height="102.64" x="199.459" y="247.689" fill="#d68e85" transform="rotate(-89.94 200.692 299.01)" class="colord68e85 svgShape"/><rect width="2.465" height="102.64" x="199.399" y="305.191" fill="#d68e85" transform="rotate(-89.94 200.63 356.511)" class="colord68e85 svgShape"/><rect width="2.465" height="102.64" x="199.416" y="288.762" fill="#d68e85" transform="rotate(-89.94 200.648 340.082)" class="colord68e85 svgShape"/><rect width="2.464" height="102.64" x="199.433" y="272.332" fill="#d68e85" transform="rotate(-89.94 200.666 323.652)" class="colord68e85 svgShape"/><rect width="2.465" height="102.64" x="199.451" y="255.904" fill="#d68e85" transform="rotate(-89.94 200.683 307.224)" class="colord68e85 svgShape"/><rect width="2.465" height="102.64" x="199.468" y="239.475" fill="#d68e85" transform="rotate(-89.94 200.7 290.795)" class="colord68e85 svgShape"/><rect width="2.465" height="102.64" x="301.322" y="313.512" fill="#d68e85" transform="rotate(-89.94 302.554 364.832)" class="colord68e85 svgShape"/><rect width="2.465" height="102.64" x="301.339" y="297.084" fill="#d68e85" transform="rotate(-89.939 302.573 348.404)" class="colord68e85 svgShape"/><rect width="2.464" height="102.64" x="301.357" y="280.655" fill="#d68e85" transform="rotate(-89.94 302.589 331.975)" class="colord68e85 svgShape"/><rect width="2.464" height="102.64" x="301.374" y="264.226" fill="#d68e85" transform="rotate(-89.94 302.606 315.546)" class="colord68e85 svgShape"/><rect width="2.465" height="102.64" x="301.391" y="247.797" fill="#d68e85" transform="rotate(-89.94 302.624 299.117)" class="colord68e85 svgShape"/><rect width="2.465" height="102.64" x="301.331" y="305.299" fill="#d68e85" transform="rotate(-89.94 302.563 356.619)" class="colord68e85 svgShape"/><rect width="2.465" height="102.64" x="301.348" y="288.869" fill="#d68e85" transform="rotate(-89.94 302.58 340.19)" class="colord68e85 svgShape"/><rect width="2.464" height="102.64" x="301.365" y="272.44" fill="#d68e85" transform="rotate(-89.94 302.598 323.76)" class="colord68e85 svgShape"/><rect width="2.465" height="102.64" x="301.383" y="256.012" fill="#d68e85" transform="rotate(-89.94 302.615 307.332)" class="colord68e85 svgShape"/><rect width="2.465" height="102.64" x="301.4" y="239.582" fill="#d68e85" transform="rotate(-89.939 302.634 290.902)" class="colord68e85 svgShape"/><rect width="2.465" height="102.64" x="403.254" y="313.62" fill="#d68e85" transform="rotate(-89.94 404.486 364.94)" class="colord68e85 svgShape"/><rect width="2.465" height="102.64" x="403.271" y="297.192" fill="#d68e85" transform="rotate(-89.939 404.505 348.511)" class="colord68e85 svgShape"/><rect width="2.464" height="102.64" x="403.289" y="280.762" fill="#d68e85" transform="rotate(-89.94 404.521 332.082)" class="colord68e85 svgShape"/><rect width="2.464" height="102.64" x="403.306" y="264.334" fill="#d68e85" transform="rotate(-89.94 404.538 315.654)" class="colord68e85 svgShape"/><rect width="2.465" height="102.64" x="403.323" y="247.904" fill="#d68e85" transform="rotate(-89.94 404.556 299.224)" class="colord68e85 svgShape"/><rect width="2.465" height="102.64" x="403.263" y="305.406" fill="#d68e85" transform="rotate(-89.94 404.495 356.726)" class="colord68e85 svgShape"/><rect width="2.465" height="102.64" x="403.28" y="288.977" fill="#d68e85" transform="rotate(-89.939 404.514 340.297)" class="colord68e85 svgShape"/><rect width="2.464" height="102.64" x="403.297" y="272.547" fill="#d68e85" transform="rotate(-89.94 404.53 323.867)" class="colord68e85 svgShape"/><rect width="2.465" height="102.64" x="403.315" y="256.119" fill="#d68e85" transform="rotate(-89.94 404.547 307.44)" class="colord68e85 svgShape"/><rect width="2.465" height="102.64" x="403.332" y="239.69" fill="#d68e85" transform="rotate(-89.94 404.564 291.01)" class="colord68e85 svgShape"/></g></g><g data-name="posters" fill="#000000" class="color000 svgShape"><circle cx="353.481" cy="167.374" r="55.402" fill="#ffffff" transform="rotate(-22.105 353.481 167.374)" class="colorfff svgShape"/><path fill="#5cbfcc" d="M353.48139,223.8984a56.52475,56.52475,0,1,1,56.5241-56.5247A56.58813,56.58813,0,0,1,353.48139,223.8984Zm0-110.8043a54.2795,54.2795,0,1,0,54.2798,54.2796A54.34128,54.34128,0,0,0,353.48139,113.0941Z" class="color5cbfcc svgShape"/><g clip-path="url(#r)" fill="#000000" class="color000 svgShape"><path fill="#ffffff" d="M335.64289,144.8712a52.25317,52.25317,0,0,1,6.0853-2.3862c4.3779-1.4105,9.0087-2.3658,13.57-1.7734,4.9996.649,9.58681,3.1134,13.738,5.9744,5.6162,3.8706,10.75481,8.6538,14.0334,14.6351,1.9068,3.4786,3.1556,7.6539,1.855,11.402a13.64174,13.64174,0,0,1-4.4067,5.8018c-4.9152,4.0771-9.1502,10.2925-15.2787,10.6437-7.436.4263-18.3947,1.519-25.7194.1209-9.9372-1.8965-27.2235-9.486-23.0314-24.333C319.09169,155.7361,326.81589,148.9949,335.64289,144.8712Z" class="colorfff svgShape"/><path fill="#8fe7e0" d="M354.99619,173.4066a18.57724,18.57724,0,1,1-11.7107-23.5181A18.57739,18.57739,0,0,1,354.99619,173.4066Z" class="color8fe7e0 svgShape"/><path fill="#4d2c49" d="M347.85419,171.0129a11.04479,11.04479,0,1,1-6.9624-13.9824A11.04484,11.04484,0,0,1,347.85419,171.0129Z" class="color4d2c49 svgShape"/><path fill="#fffefd" d="M332.47719,166.2327a4.308,4.308,0,1,1-2.7157-5.4537A4.30786,4.30786,0,0,1,332.47719,166.2327Z" class="colorfffefd svgShape"/></g><path fill="#5cbfcc" d="M343.027,143.7401a29.79039,29.79039,0,0,1,9.75739.1865c8.5265,1.514,16.213,6.1221,22.9744,11.5328a212.35893,212.35893,0,0,1,19.2797,17.24c-1.4466,2.8326-3.3796,3.1355-6.1213,3.7354-.846.185-8.3534,1.6084-8.2361,2.2366-2.9195-15.6316-20.193-27.3034-35.4602-27.2433-13.69389.0545-22.1207,7.732-29.3104,18.5513C320.97119,157.0824,329.872,145.7508,343.027,143.7401Z" class="color5cbfcc svgShape"/><rect width="2.657" height="1.331" x="433.347" y="126.764" fill="#5cbfcc" class="color5cbfcc svgShape"/><path fill="#5cbfcc" d="M427.87689,128.0946h-5.4758V126.764h5.4758Zm-10.95089,0h-5.475V126.764h5.475Zm-10.951,0H400.5V126.764h5.475Zm-10.94951,0h-5.4757V126.764h5.4757Z" class="color5cbfcc svgShape"/><polygon fill="#5cbfcc" points="380.063 129.796 379.112 128.864 381.17 126.764 384.107 126.764 384.107 128.095 381.729 128.095 380.063 129.796" class="color5cbfcc svgShape"/><path fill="#5cbfcc" d="M355.88179,154.4801l-.9499-.9318,4.0302-4.1139.9498.9316Zm8.0603-8.228-.9499-.9317,4.0302-4.1139.9499.9316Zm8.0596-8.228-.9499-.9317,4.0301-4.114.95.9318Z" class="color5cbfcc svgShape"/><rect width="2.661" height="1.331" x="349.115" y="158.413" fill="#5cbfcc" transform="rotate(-45.596 350.446 159.079)" class="color5cbfcc svgShape"/><path fill="#5cbfcc" d="M428.02039 217.2453h-2.0946v-1.3306h2.0946zm-7.417 0h-5.3225v-1.3306h5.3225zm-10.6449 0h-2.8413l-2.1309-2.1667.9486-.933 1.7399 1.7691h2.2837zm-8.70349-5.9618l-3.73191-3.7948.9486-.933 3.7319 3.7948zm-7.46391-7.5899l-3.732-3.7949.9486-.933 3.732 3.7949zm-7.4632-7.5906l-3.732-3.7948.9486-.9331 3.7319 3.7949zm-7.464-7.5899l-3.73189-3.7948.94859-.933 3.7319 3.7948zm-7.4632-7.5899l-3.7318-3.7949.9485-.933 3.7319 3.7948zM272.60049 198.5635l-.5224-1.2241 4.89491-2.0908.52249 1.2243zm9.7892-4.181l-.5224-1.224 4.895-2.0907.5223 1.2241zm9.7898-4.1807l-.5222-1.2241 4.8942-2.0908.5224 1.2241zm9.7893-4.1809l-.5224-1.2242 4.8949-2.0906.5224 1.224zm9.7898-4.1809l-.5224-1.224 4.8943-2.0908.5223 1.224zm9.7891-4.1809l-.5222-1.224 4.8949-2.0908.5223 1.224zm9.78931-4.1809l-.52241-1.2241 4.8949-2.0908.5224 1.2241z" class="color5cbfcc svgShape"/><rect width="24.616" height="9.314" x="412.053" y="114.789" fill="#8fe7e0" class="color8fe7e0 svgShape"/><rect width="24.616" height="9.314" x="270.343" y="205.27" fill="#8fe7e0" class="color8fe7e0 svgShape"/><rect width="24.616" height="9.314" x="413.384" y="202.609" fill="#8fe7e0" class="color8fe7e0 svgShape"/></g><g data-name="doctor" fill="#000000" class="color000 svgShape"><path fill="#f7b690" d="M168.6443,281.7586c-.5431.7967-7.3751-.4853-10.6373,2.2028-1.3014,1.0723-6.0167,7.2538-6.1498,9.2935s5.466-1.8846,6.6764-2.3076,8.4509-2.3097,8.0777-.8131-5.5475,2.2466-4.5435,4.9288c.149.398,1.7083-.1526,3.5314-.4823a15.24325,15.24325,0,0,0,3.5257-.5225c2.4817-1.0487,4.5868-6.4562,4.4095-7.7016s3.7105-5.818,2.7341-9.6553S169.7376,280.1548,168.6443,281.7586Z" class="colorf7b690 svgShape"/><path fill="#ffffff" d="M242.15429,260.2618c-6.4157-14.2675-4.4427-28.6047-4.8572-32.351-1.2244-11.0673-16.42269-23.9727-16.42269-23.9727-3.0754,1.269-10.1392,6.0112-13.1983,9.7432-2.7631,3.3709-9.8171,36.7671-12.3098,40.7717-3.2574,5.2333-29.2409,25.0001-29.2409,25.0001s7.0695,15.7488,12.0229,15.7488c2.9702,0,10.3104-9.6667,16.061-15.7488-1.5365,3.8287-21.3298,48.2225-18.7509,52.0739,13.0631,19.5094,104.18869,11.1836,104.18869,1.3977C279.64709,323.4638,254.69209,288.1435,242.15429,260.2618Z" class="colorfff svgShape"/><path fill="#f3a088" d="M272.40449,245.734c5.0043,1.9194,17.4138-6.1498,19.448-5.4333,2.1507.7577,4.7353,2.292,9.7232,2.8886,4.7017.5625,8.6696-2.9044,10.3716-4.4083s-6.8157-1.3786-8.1857-1.7696c-1.7969-.5128-5.46-2.1277-6.294-3.625-1.36259-2.4461,2.8926-5.332,1.2912-7.8612-.557-.8796-1.1065.718-2.3205,1.9954-1.51529,1.5945-2.7381,1.257-3.7836,2.5914a31.6917,31.6917,0,0,0-2.393,3.6945C289.42639,234.9272,268.53329,244.2493,272.40449,245.734Z" class="colorf3a088 svgShape"/><path fill="#f7b690" d="M249.93139,430.1865c1.8739,4.8842,1.218,11.5356.6558,12.9311-.2786.6915-2.764,8.5141,4.1695,6.3627,4.5106-1.3996,5.4084-2.9404,4.8378-3.8862-2.77949-4.6065-1.2366-13.148-1.2366-15.0087S249.24059,428.386,249.93139,430.1865Z" class="colorf7b690 svgShape"/><path fill="#072b45" d="M260.70439,448.9455c.8793-.1977.5584,2.8777.319,3.1962s-4.97039,1.3748-10.0393,1.2451c-4.5887-.1175-7.5026-.3635-7.8734-1.2137a3.51819,3.51819,0,0,1,.9932-2.9945c.7865-.5006,8.3633-.9712,8.6188-.9025S260.70439,448.9455,260.70439,448.9455Z" class="color072b45 svgShape"/><path fill="#4d2c49" d="M251.81739,440.8136c-1.0045.0346-2.4607,2.2692-3.2669,4.6189-.9389.9923-2.6496,1.3498-3.5426,2.6744-.6213.9218-1.4038,2.5428-1.0681,2.9808,1.17021,1.5273,16.077,1.2704,16.6116-.1058.6953-1.7899-.7608-3.4278-.9708-5.1904-.1925-1.6162.0051-2.4232-.5655-3.2774-.1764-.2641-.6197-.1046-.6038.4035.035,1.1155.2052,3.0868-1.4055,3.3137C255.61569,442.1324,253.46879,440.7566,251.81739,440.8136Z" class="color4d2c49 svgShape"/><path fill="#f7b690" d="M189.6345,430.5549a55.02191,55.02191,0,0,1-2.9395,12.761c-.2786.6916-2.764,8.5141,4.1695,6.3627a17.08306,17.08306,0,0,0,3.0193-1.2105c1.883-1.0168,1.3859-3.5144,1.2456-3.9702-1.4556-4.7306,1.9308-11.8312,1.9308-13.5283C197.0602,429.109,189.821,428.6354,189.6345,430.5549Z" class="colorf7b690 svgShape"/><path fill="#072b45" d="M196.1133,449.1439c.8793-.1978.5584,2.8776.319,3.1961s-4.2715,1.3748-9.3404,1.2451c-4.5887-.1174-9.0549-.3995-9.4257-1.2497-.1896-.4349-.4425-2.3911.4489-2.9585.7864-.5005,10.4599-.9713,10.7154-.9025S196.1133,449.1439,196.1133,449.1439Z" class="color072b45 svgShape"/><path fill="#4d2c49" d="M187.9252,441.0119c-1.004.0479-2.9037,3.6553-3.9658,4.6189-1.0118.9179-4.0474,1.3498-4.9403,2.6744a3.53394,3.53394,0,0,0-.3919,2.9978c1.1702,1.5272,16.7985,1.2534,17.3331-.1228.6953-1.7899.0869-2.9631-.1231-4.7257-.1926-1.6162-.3837-2.2258-.4951-3.2469-.0429-.3931-.4464-.5792-.728.0728-.4424,1.0245-.8545,2.9092-1.5005,3.1492C192.168,446.6688,192.8669,440.776,187.9252,441.0119Z" class="color4d2c49 svgShape"/><path fill="#0d778c" d="M251.18159,362.802c3.7062-9.8956,14.7347-50.1449,10.1018-69.4261-1.5923-6.6267-13.072-24.0496-18.9943-30.3605H214.1408s-15.8996,47.4691-19.5105,95.8714c-.2696,3.6134-1.8753,13.8992-2.4256,20.9214-1.0927,13.9457-1.0214,37.1315-3.1824,49.7541.3799,3.5161,8.6521,4.3773,9.0297,2.4248,3.126-16.1668,17.7899-38.5178,18.3601-52.7031.1272-3.1632-1.2216-10.4342-2.7545-15.205,6.2258-15.3871,11.54809-39.4054,14.18679-53.3741,1.8387,13.7692,4.0622,38.4829,5.8069,54.718.5258,4.8931.9396,14.0517,2.2131,18.9863,2.1522,8.339,8.3538,18.048,14.0297,48.6008-.084,3.9186,8.0653,1.5914,9.0365-.7197,0-1.7334,4.4325-40.2762,1.5373-55.0717C259.88589,374.244,256.45679,367.9142,251.18159,362.802Z" class="color0d778c svgShape"/><path fill="#d68e85" d="M237.41339,205.4551c3.1509,1.4176,7.1592,6.6915,8.5605,10.1947.927,2.3175-6.273,24.6938-1.9122,44.0878,1.878,8.3519-30.06409,4.6251-29.92089,3.2778,1.2231-11.5106,2.7955-53.9713,6.7335-59.0773C223.3327,200.7505,229.04649,201.6905,237.41339,205.4551Z" class="colord68e85 svgShape"/><path fill="#4d2c49" d="M247.35989,176.14c3.7968-2.8068,5.2486-8.7473,2.6653-10.7925a4.72128,4.72128,0,0,0-5.2426.078,8.83759,8.83759,0,0,0,1.6006-2.6146,2.08974,2.08974,0,0,0-.7635-2.5818c-.6208-.4712-2.883-.8736-6.0688,1.2494,1.0019-.9436,1.4387-3.215.4777-4.2196-1.9002-1.9867-5.5037-.0874-7.2247,1.2832.891-2.1131.6727-3.9914-.5067-4.3845-1.9296-.6432-5.2417,1.1357-6.9646,4.9292.1846-.7627.2378-2.7452-.9574-3.6223-1.16749-.8567-2.99689.6763-3.26009,2.1001-1.1027-2.8923-6.5367-.8922-5.3145,4.3244-2.6199-1.067-4.6925,4.499-.7796,8.1684a2.26357,2.26357,0,0,1-1.4653-1.2122c-2.5526,4.865,1.6917,10.4868,4.8995,11.1577,4.8307,4.5469,3.2924,7.1227,9.66909,10.4195,4.521,2.3372,8.3149.9058,8.8328-.6793a5.104,5.104,0,0,0,6.2608-6.2248c1.7454.2232,4.2499-.2394,5.1682-1.7403A4.57893,4.57893,0,0,0,247.35989,176.14Z" class="color4d2c49 svgShape"/><path fill="#f3a088" d="M232.94149,181.9669c.4693,7.3608,3.2276,21.1654,4.4719,23.4882,1.75161,3.2696-7.7198,6.3845-11.6901,5.3336s-5.138-3.1529-5.25469-4.5542,3.71859-9.6957,4.173-21.9431C224.93369,176.4175,232.75019,178.9663,232.94149,181.9669Z" class="colorf3a088 svgShape"/><path fill="#f7b690" d="M219.3532,166.1532c-6.5857,10.8305-1.3753,28.6107,2.8303,28.787,3.43059.1439,13.95289-5.063,13.347-13.6442a3.85454,3.85454,0,0,0,3.5606-5.0585c-1.4484-2.8197-3.7364.044-3.7364.044s-1.9072-1.3176-.6984-6.4148C221.4494,172.2692,219.3532,166.1532,219.3532,166.1532Z" class="colorf7b690 svgShape"/><path fill="#ffffff" d="M236.99819,204.4278c2.81581.6155,10.0571,4.8405,12.08681,6.723,2.27139,2.1067,15.89389,26.3794,18.17089,27.9415,2.08,1.427,21.879-6.4441,21.879-6.4441l7.0664,19.0275s-27.8708,6.3677-33.47129,4.3628c-4.25771-1.5242-13.29561-19.5597-14.49091-18.8096-1.5359.9639,15.4376,37.4035,24.6661,56.147,4.9794,10.1132,16.3363,34.3221,13.7555,38.172-7.0136,10.4623-32.4506,15.4226-35.4791,14.7237-5.7163-13.1102-20.2459-101.4931-19.02159-112.5603C233.38439,222.6439,236.99819,204.4278,236.99819,204.4278Z" class="colorfff svgShape"/><path fill="#2a94c0" d="M194.6303 278.8568a.32418.32418 0 01-.1225-.0237.3283.3283 0 01-.1822-.4269c4.3937-10.9561 7.198-32.64 7.198-42.7549a.3284.3284 0 11.6568 0c0 10.1666-2.8222 31.9716-7.2455 42.9992A.32783.32783 0 01194.6303 278.8568zM213.9659 244.9609a.33048.33048 0 01-.3284-.3387l.2309-7.3856-4.767-11.7855a.32787.32787 0 01.1071-.3851l5.4591-4.1189-6.4905-7.0765a.32819.32819 0 11.4836-.4438l6.7349 7.3429a.3277.3277 0 01-.0442.484l-5.5464 4.1846 4.6984 11.6161a.33845.33845 0 01.0237.1334l-.2328 7.455A.32872.32872 0 01213.9659 244.9609zM233.44779 243.8833a.32817.32817 0 01-.3284-.3284v-6.3773a.3258.3258 0 01.075-.2085l10.6649-12.9695-6.8972-3.6853a.32769.32769 0 01-.0616-.5365l10.3083-9.0283a.32815.32815 0 11.4323.4938l-9.951 8.7157 6.8318 3.6503a.328.328 0 01.0987.4981l-10.8444 13.1879v6.2596A.32823.32823 0 01233.44779 243.8833zM251.07079 290.2766a.59652.59652 0 01-.1437-.0147c-1.4682-.3673-4.5579-6.2815-5.1622-7.4633a.32821.32821 0 01.1623-.4509l16.3441-7.0498a.32743.32743 0 01.3925.1038l5.30521 7.0499a.32889.32889 0 01-.11551.4914C265.35069 284.1931 253.06939 290.2766 251.07079 290.2766zm-4.5606-7.4652c1.4599 2.8069 3.7434 6.6051 4.576 6.8136.8774.1677 8.8862-3.4903 16.12081-7.0935l-4.91261-6.5284z" class="color2a94c0 svgShape"/><path fill="#2a94c0" d="M252.61979,305.85a1.04139,1.04139,0,0,1-.6587-.1623c-1.43809-1.1988-5.7369-18.2654-6.2225-20.2076a.32858.32858,0,0,1,.6376-.1591c1.8133,7.2555,5.0474,19.0633,6.0056,19.8619.7999.6183,8.92221-2.7715,16.40121-6.4424l-3.99611-13.245a.32833.32833,0,1,1,.6286-.1899l4.0768,13.5119a.32847.32847,0,0,1-.1692.3896C265.95809,300.8646,255.58639,305.85,252.61979,305.85Z" class="color2a94c0 svgShape"/></g><g data-name="plant" fill="#000000" class="color000 svgShape"><path fill="#d1e2eb" d="M355.35419,386.5906a53.85662,53.85662,0,0,1,.36181,5.6804h31.01379c10.5387-5.0891,34.112-28.5915,32.1555-47.3157-1.7728-16.9664-15.1461-12.4067-19.8031-22.9309s14.1865-38.0184,6.2286-50.2429c-6.2286-9.5678-22.8804-4.4537-32.59879-11.9593-6.63761-5.1262-7.62051-25.3537-19.05121-25.3537s-22.9035,20.4656-20.7447,36.8346c1.1884,9.0111,8.8905,20.0916,10.1371,33.486s-14.7941,30.6158-12.6773,48.7938S354.50749,379.8933,355.35419,386.5906Z" class="colord1e2eb svgShape"/><path fill="#5cbfcc" d="M337.13039,355.7889c-1.0192,4.8775,9.9607,22.7627,19.0448,36.4821h30.5546c5.4849-5.5273,9.89021-11.0014,9.3787-13.9268-1.2837-7.3419-7.0532-.5946-7.6301-4.2567s28.8472-27.607,24.2317-36.116-23.6548,10.1052-24.8086,2.5289,16.7313-41.6426,11.5389-47.9757c-5.1926-6.3331-13.9689,2.3211-18.8118-2.2945s7.7438-46.3494-4.1878-49.3341c-11.5325-2.885-26.3292,23.598-28.06,38.3722S366.645,315.0892,363.709,320.6552c-2.14931,4.0745-27.15561-19.9108-32.34811-11.8982s24.8869,35.259,22.54,40.3865S338.84619,347.5775,337.13039,355.7889Z" class="color5cbfcc svgShape"/><path fill="#0d778c" d="M367.00529,357.8057c-.833,11.6136,1.695,23.1784,3.6928,34.4653H373.86c-1.90971-9.5021-4.20951-19.6317-4.40491-31.7396-.2109-13.0732,8.7191-29.3987,8.844-50.6409.1145-19.2423-14.0342-25.059-11.4122-43.7937.0529-.4531.7124-3.4819.9913-4.3052.3647-1.1724.5592-1.7976.5592-1.7976a.42532.42532,0,0,0-.8101-.2591,34.73284,34.73284,0,0,0-2.1641,10.8792c-.3907,12.6214,8.4524,20.1601,10.6124,32.8969C379.08609,321.5129,368.21179,343.6265,367.00529,357.8057Z" class="color0d778c svgShape"/><polygon fill="#8fe7e0" points="399.082 394.312 398.428 398.049 397.392 403.98 391.749 436.254 390.195 445.142 353.976 445.142 345.613 397.308 345.089 394.312 399.082 394.312" class="color8fe7e0 svgShape"/><path fill="#5cbfcc" d="M391.74939,436.2535l-1.554,8.8881h-36.2191l-8.3631-47.8337,52.8153.7411-.629,3.5993-40.436,4.562S362.19,436.039,391.74939,436.2535Z" class="color5cbfcc svgShape"/><rect width="58.684" height="5.659" x="342.959" y="394.311" fill="#8fe7e0" class="color8fe7e0 svgShape"/></g><circle cx="96.406" cy="383.388" r="27.252" fill="#ffffff" class="colorfff svgShape"/><path fill="#bd7871" d="M96.4062,411.6133a28.22565,28.22565,0,1,1,28.226-28.2255A28.25769,28.25769,0,0,1,96.4062,411.6133Zm0-54.5046a26.279,26.279,0,1,0,26.2793,26.2791A26.30888,26.30888,0,0,0,96.4062,357.1087Z" class="colorbd7871 svgShape"/><rect width="38.37" height="26.077" x="77.221" y="370.186" fill="#ffffff" rx="13.038" class="colorfff svgShape"/><path fill="#bd7871" d="M109.409,396.9929H83.403a6.91986,6.91986,0,0,1-6.912-6.9122V376.3683a6.91986,6.91986,0,0,1,6.912-6.9122h26.006a6.92,6.92,0,0,1,6.9125,6.9122v13.7124A6.92,6.92,0,0,1,109.409,396.9929ZM83.403,370.9162a5.45819,5.45819,0,0,0-5.452,5.4521v13.7124a5.45827,5.45827,0,0,0,5.452,5.4522h26.006a5.45836,5.45836,0,0,0,5.4524-5.4522V376.3683a5.45827,5.45827,0,0,0-5.4524-5.4521Z" class="colorbd7871 svgShape"/><circle cx="96.406" cy="383.224" r="7.751" fill="#ffffff" transform="rotate(-80.783 96.406 383.224)" class="colorfff svgShape"/><path fill="#bd7871" d="M96.4062,391.5833a8.3589,8.3589,0,1,1,8.3588-8.3588A8.36815,8.36815,0,0,1,96.4062,391.5833Zm0-15.5011a7.1422,7.1422,0,1,0,7.1421,7.1423A7.15023,7.15023,0,0,0,96.4062,376.0822Z" class="colorbd7871 svgShape"/><rect width="3.022" height="8.327" x="94.895" y="379.061" fill="#bd7871" class="colorbd7871 svgShape"/><rect width="3.022" height="8.327" x="94.895" y="379.061" fill="#bd7871" transform="rotate(90 96.406 383.224)" class="colorbd7871 svgShape"/><path fill="#bd7871" d="M104.7919,366.1199a1.51113,1.51113,0,0,1-1.5111,1.5112H89.5314a1.51115,1.51115,0,0,1,0-3.0223h13.7494A1.511,1.511,0,0,1,104.7919,366.1199Z" class="colorbd7871 svgShape"/><path fill="#5cbfcc" d="M293.47829,429.8561a3.03455,3.03455,0,0,1-2.1454-5.1799l10.5798-10.5795a3.034,3.034,0,0,1,4.2907,4.2907l-10.5797,10.5795A3.02462,3.02462,0,0,1,293.47829,429.8561Z" class="color5cbfcc svgShape"/><path fill="#5cbfcc" d="M304.058 429.8561a3.02388 3.02388 0 01-2.14531-.8892l-10.5798-10.5795a3.034 3.034 0 014.2908-4.2907l10.5797 10.5795a3.03455 3.03455 0 01-2.14539 5.1799zM95.5965 165.1093a13.4994 13.4994 0 1113.4994-13.4994A13.5143 13.5143 0 0195.5965 165.1093zm0-23.6238a10.1244 10.1244 0 1010.1244 10.1244A10.13563 10.13563 0 0095.5965 141.4855z" class="color5cbfcc svgShape"/></g></svg>