<?xml version="1.0" standalone="no"?>
<!DOCTYPE svg PUBLIC "-//W3C//DTD SVG 20010904//EN"
 "http://www.w3.org/TR/2001/REC-SVG-20010904/DTD/svg10.dtd">
<svg version="1.0" xmlns="http://www.w3.org/2000/svg"
 width="5000.000000pt" height="5456.000000pt" viewBox="0 0 5000.000000 5456.000000"
 preserveAspectRatio="xMidYMid meet">

<g transform="translate(0.000000,5456.000000) scale(0.100000,-0.100000)"
fill="#000000" stroke="none">
<path d="M28740 51374 c-25 -2 -103 -9 -175 -14 -735 -60 -1449 -305 -2005
-688 -375 -257 -724 -590 -897 -853 -164 -250 -198 -426 -123 -633 l33 -88
-21 -44 c-169 -347 33 -986 559 -1770 38 -57 71 -104 72 -104 2 0 -3 44 -10
98 -22 171 -33 447 -33 814 l0 357 79 -34 c175 -75 318 -100 556 -99 194 0
340 20 539 70 314 80 702 240 1077 444 159 87 208 119 400 265 245 184 321
220 446 213 63 -4 80 -10 128 -41 30 -20 73 -60 96 -89 110 -140 608 -1028
919 -1640 l176 -348 18 58 c36 115 105 230 185 311 120 121 236 171 392 171
l88 0 19 53 c213 572 301 1239 236 1777 -64 522 -292 984 -625 1266 -348 296
-789 461 -1417 530 -129 14 -614 26 -712 18z"/>
<path d="M21075 48160 c-113 -11 -290 -38 -565 -85 l-215 -37 -112 26 c-331
78 -693 87 -1034 25 -441 -79 -939 -441 -1307 -949 -273 -377 -407 -916 -372
-1500 17 -270 40 -388 146 -718 52 -165 56 -173 77 -165 12 4 58 8 102 8 65 0
90 -5 135 -26 129 -60 268 -214 365 -402 32 -62 60 -114 62 -116 6 -8 75 63
166 174 206 250 369 545 554 1000 78 192 105 237 190 315 119 108 290 181 708
301 502 144 762 251 1015 417 136 89 214 152 327 264 51 51 94 90 95 87 2 -2
33 -65 71 -139 89 -179 177 -300 317 -440 122 -122 204 -179 300 -207 69 -20
204 -13 277 15 l51 19 6 -21 c14 -51 -3 -717 -19 -734 -1 -1 -31 11 -66 27
-103 48 -181 65 -304 64 -170 -1 -316 -51 -481 -165 -101 -69 -106 -75 -93
-123 15 -54 74 -111 124 -121 58 -11 145 11 270 68 249 113 341 143 473 155
l73 6 -6 -159 -6 -159 86 205 c152 361 211 511 263 670 100 302 128 470 119
724 -9 267 -62 479 -181 721 -112 226 -238 398 -428 581 -220 211 -449 332
-716 379 -107 19 -346 27 -467 15z m1040 -1342 c158 -187 235 -333 279 -530 8
-36 -10 -37 -79 -5 -128 60 -238 243 -454 757 l-32 75 107 -105 c58 -58 139
-144 179 -192z"/>
<path d="M29090 47750 c-283 -18 -517 -57 -621 -103 -62 -27 -133 -86 -154
-128 -27 -51 -28 -127 -5 -239 12 -58 24 -108 28 -112 4 -4 57 13 117 38 177
73 389 140 549 174 177 36 429 70 526 70 l70 0 0 144 0 143 -37 6 c-72 12
-339 15 -473 7z"/>
<path d="M26880 47373 c-146 -26 -391 -107 -533 -178 -144 -71 -135 -51 -97
-207 18 -73 33 -134 34 -135 1 0 48 14 106 33 185 61 349 87 545 87 94 0 199
-5 235 -11 36 -5 67 -8 69 -6 11 11 -19 234 -39 286 -24 65 -71 112 -127 127
-37 11 -143 13 -193 4z"/>
<path d="M29217 46754 c-31 -13 -101 -36 -155 -51 -83 -23 -118 -26 -244 -27
l-147 -1 -7 -49 c-6 -44 -4 -51 17 -67 13 -11 49 -29 79 -41 72 -28 243 -31
338 -5 78 21 199 71 230 95 l24 19 -32 76 c-17 42 -35 77 -38 76 -4 0 -33 -12
-65 -25z"/>
<path d="M27190 46300 c-34 -23 -207 -71 -293 -82 -68 -8 -107 -9 -147 -1 -30
6 -55 10 -56 10 0 -1 2 -26 4 -54 l4 -53 61 -30 c134 -64 288 -59 438 14 102
51 100 46 55 131 -21 41 -41 75 -44 75 -4 0 -14 -5 -22 -10z"/>
<path d="M19815 45364 c-186 -27 -290 -63 -412 -144 -84 -56 -159 -118 -151
-124 1 -2 41 3 88 10 192 29 398 14 645 -47 109 -28 149 -33 250 -33 108 -1
124 1 157 22 42 26 78 91 78 141 0 30 -4 34 -74 66 -143 65 -293 101 -451 109
-55 2 -113 2 -130 0z"/>
<path d="M22220 44322 c-61 -25 -75 -26 -230 -26 -119 0 -180 4 -217 16 -29 8
-53 12 -53 7 0 -13 60 -59 110 -84 148 -75 365 -34 450 85 25 35 24 35 -60 2z"/>
<path d="M19443 44292 c29 -32 145 -89 232 -113 145 -39 345 -25 459 33 47 24
108 69 102 75 -2 2 -31 -3 -65 -12 -184 -48 -468 -35 -721 32 -25 6 -25 6 -7
-15z"/>
<path d="M17355 43652 c-94 -70 -249 -185 -345 -257 -570 -422 -813 -668 -965
-974 -103 -206 -140 -387 -132 -635 9 -264 75 -498 228 -805 48 -97 87 -177
86 -178 -1 0 -103 -40 -227 -88 -124 -49 -308 -123 -410 -165 -102 -43 -221
-87 -265 -99 -288 -78 -642 -293 -938 -571 -321 -300 -516 -764 -692 -1643
-208 -1038 -287 -1626 -430 -3187 -31 -333 -60 -643 -65 -689 -5 -47 -8 -87
-6 -89 2 -2 512 -76 1132 -166 854 -122 1129 -165 1135 -176 18 -32 171 -1066
213 -1445 49 -434 69 -946 47 -1210 -37 -440 -154 -968 -476 -2160 -316 -1168
-446 -1660 -532 -2014 -26 -111 -51 -201 -54 -201 -3 0 -10 15 -16 33 -9 30
-11 27 -31 -62 -95 -404 -237 -1179 -306 -1666 -70 -489 -141 -1225 -120
-1225 58 -1 270 -34 276 -43 4 -7 8 -64 8 -127 0 -63 7 -365 15 -670 90 -3312
156 -5645 260 -9190 142 -4847 253 -8334 281 -8868 8 -137 5 -133 88 -152 72
-16 610 -12 664 5 6 3 90 -5 185 -16 369 -42 478 -52 632 -53 154 -1 235 10
250 34 3 5 62 575 130 1267 163 1637 439 4431 459 4648 9 94 79 811 156 1595
366 3734 689 7122 868 9105 26 291 51 525 54 520 3 -6 8 -68 12 -140 21 -408
280 -4079 437 -6190 433 -5855 769 -9497 997 -10815 l7 -44 45 2 c187 9 920
50 1010 57 36 2 119 7 185 10 66 3 147 8 180 10 33 3 134 10 224 15 91 6 166
12 167 13 1 1 7 144 13 317 16 449 54 1348 106 2510 40 891 57 1266 95 2150 6
129 37 838 70 1575 288 6457 414 9788 452 11964 l12 698 173 42 173 43 0 102
c0 218 -31 562 -140 1551 -94 851 -150 1410 -175 1750 -3 39 -8 95 -10 125
-11 142 -16 211 -30 420 -21 326 -24 372 -30 505 -3 66 -8 165 -10 220 -14
310 -18 492 -17 980 0 465 11 926 27 1140 2 33 7 105 10 160 6 99 8 134 20
270 6 77 6 75 35 365 75 739 237 1580 431 2235 l50 171 268 89 268 89 -43 130
c-83 254 -188 717 -151 665 14 -20 280 -338 392 -469 89 -104 160 -178 191
-197 69 -45 237 -98 384 -122 69 -12 251 -32 405 -46 380 -34 840 -96 983
-132 24 -6 24 -5 8 25 -22 43 -125 145 -336 332 -377 336 -511 496 -527 629
-6 51 9 91 46 125 34 31 133 18 261 -33 163 -65 184 -79 580 -381 58 -45 129
-92 159 -106 77 -37 215 -70 419 -99 204 -30 334 -62 424 -103 188 -87 576
-420 657 -563 l31 -55 332 -103 c183 -57 337 -104 342 -105 5 0 20 40 33 89
14 50 26 91 28 93 1 2 31 -13 66 -32 117 -63 266 -90 597 -107 396 -21 875 7
1158 66 20 4 16 19 -83 297 -157 442 -624 1755 -803 2258 -301 846 -322 905
-329 912 -4 5 -553 24 -1221 43 -668 19 -1298 37 -1400 40 -102 4 -493 15
-870 26 -377 11 -781 22 -898 26 l-212 6 -134 266 c-161 320 -338 690 -432
901 -104 236 -292 607 -394 779 -51 85 -146 263 -212 395 -66 133 -127 249
-136 259 -33 38 -132 10 -132 -38 0 -22 -5 -20 -73 29 -83 59 -194 114 -363
179 -76 30 -222 87 -323 126 -101 39 -252 96 -336 126 l-152 54 -174 171
c-179 177 -391 351 -397 326 -5 -22 45 -162 90 -253 31 -65 51 -92 92 -124 28
-22 75 -63 103 -89 l53 -49 -46 -128 c-147 -410 -241 -712 -323 -1038 -149
-593 -252 -1296 -294 -2015 l-12 -205 -109 205 c-60 113 -119 223 -131 245
-13 22 -46 83 -75 135 -122 221 -311 543 -436 743 -308 490 -561 852 -964
1382 -46 60 -226 288 -320 405 -469 583 -602 764 -720 972 -39 70 -46 77 -68
71 l-24 -6 17 34 c46 89 136 205 273 353 109 117 159 184 169 226 3 14 34 64
69 111 87 120 173 256 286 449 143 247 134 213 78 285 -26 34 -70 102 -98 151
-45 80 -69 130 -126 268 l-16 39 -29 -41 c-145 -199 -404 -144 -614 130 -74
97 -138 210 -184 325 -20 51 -39 93 -42 93 -3 -1 -83 -58 -176 -128z m5536
-5295 c43 -97 79 -179 79 -181 0 -2 9 -24 20 -49 l20 -45 50 19 c61 23 166 25
265 4 141 -30 337 -151 504 -311 64 -60 89 -94 127 -166 l47 -91 -164 6 c-90
4 -298 10 -462 13 -291 7 -299 8 -307 28 -9 26 -45 112 -76 186 -12 30 -27 83
-33 117 -11 73 -50 171 -178 458 -52 116 -96 215 -98 220 -2 6 14 25 37 43
l41 32 24 -52 c14 -29 60 -133 104 -231z m-347 213 c5 -23 4 -30 -2 -20 -14
23 -25 77 -14 65 6 -5 13 -26 16 -45z m-4299 -257 c61 -15 175 -67 229 -106
17 -12 57 -46 90 -77 137 -130 219 -304 232 -500 6 -76 3 -92 -20 -155 -96
-252 -309 -434 -571 -487 -74 -14 -235 -11 -317 8 -345 78 -606 414 -586 753
15 246 289 523 569 576 36 7 36 7 48 -39 16 -67 16 -69 -44 -100 -69 -36 -164
-137 -200 -211 -14 -31 -34 -90 -43 -132 -13 -63 -14 -87 -4 -156 59 -406 536
-580 838 -304 289 263 174 740 -205 851 -30 9 -67 16 -82 16 -24 0 -30 6 -38
38 -17 60 -27 58 104 25z m2921 -255 c-14 -193 -19 -844 -7 -963 25 -249 83
-468 157 -592 102 -169 224 -211 388 -135 80 37 76 37 76 16 0 -9 9 -29 21
-45 l20 -29 -33 -20 c-74 -45 -140 -64 -228 -65 -73 0 -93 4 -141 27 -194 96
-318 394 -360 863 -12 138 -8 611 7 903 l7 122 50 0 50 0 -7 -82z"/>
<path d="M21305 42844 c-91 -25 -155 -27 -254 -9 -109 20 -174 16 -308 -20
-75 -20 -419 -147 -431 -160 -2 -2 32 -6 75 -10 43 -4 92 -13 108 -21 17 -8
97 -66 180 -130 221 -171 327 -218 442 -194 114 24 241 146 297 285 23 59 25
60 85 81 34 12 64 24 68 27 3 4 -7 21 -23 40 -16 18 -44 55 -61 80 -31 45 -34
47 -80 46 -27 0 -70 -7 -98 -15z"/>
<path d="M30465 41989 c-390 -104 -1085 -113 -1614 -19 -62 12 -115 19 -116
18 -2 -2 14 -91 35 -198 22 -107 59 -300 84 -429 84 -429 220 -939 342 -1282
41 -116 85 -251 98 -302 l24 -91 125 250 c212 419 480 922 903 1691 107 193
197 358 200 367 7 19 7 19 -81 -5z"/>
<path d="M24237 33560 c40 -74 324 -616 632 -1204 308 -588 564 -1073 568
-1077 5 -5 1097 -28 2428 -53 1331 -25 2499 -47 2595 -51 l175 -5 78 101 c44
55 77 102 75 104 -3 3 -59 29 -238 110 -47 21 -161 78 -255 125 l-170 87 -330
62 c-181 34 -564 107 -850 161 -737 140 -993 188 -1129 210 -65 11 -121 21
-123 24 -2 2 32 140 77 306 45 166 79 305 76 308 -3 3 -99 11 -214 18 -766 49
-1617 149 -1864 219 -48 14 -235 61 -415 105 -373 92 -516 137 -690 220 -154
73 -277 158 -400 274 l-97 91 71 -135z"/>
<path d="M29232 23448 c-19 -25 -109 -581 -157 -972 -90 -738 -175 -1925 -175
-2443 l0 -131 -62 -22 c-229 -79 -407 -121 -608 -146 -74 -9 -136 -17 -136
-18 -1 0 2 -53 7 -116 22 -323 32 -693 32 -1140 0 -742 -14 -1003 -137 -2595
-34 -434 -54 -733 -77 -1145 -17 -304 -23 -1534 -10 -1842 37 -833 204 -2449
626 -6043 52 -445 111 -961 132 -1146 l37 -336 290 -6 c160 -4 425 -7 588 -7
l296 0 12 53 c107 485 317 1610 545 2922 75 429 184 1039 241 1355 291 1589
371 2070 454 2736 115 920 154 1484 154 2214 0 847 -59 1462 -214 2230 -80
398 -100 645 -100 1240 0 393 9 688 36 1180 9 162 17 335 18 385 l1 90 -60 8
c-154 20 -406 62 -564 94 -210 42 -520 117 -531 129 -4 5 -42 185 -84 399
-250 1287 -433 2334 -508 2908 -12 97 -26 177 -29 177 -4 0 -11 -6 -17 -12z"/>
<path d="M34535 19773 c-840 -105 -1832 -146 -2614 -106 -128 6 -133 5 -128
-13 19 -62 97 -834 121 -1194 45 -673 52 -1516 21 -2555 -21 -705 -25 -1818
-7 -2220 43 -954 92 -1432 228 -2235 65 -383 82 -478 359 -1955 185 -981 274
-1524 324 -1970 12 -99 46 -504 76 -900 56 -737 85 -1065 110 -1285 8 -69 15
-128 15 -132 0 -5 297 -8 660 -8 l659 0 6 33 c75 433 212 1464 375 2812 94
780 169 1381 275 2200 234 1817 314 2997 275 4060 -34 908 -133 1626 -335
2420 -74 295 -103 433 -130 630 -62 465 -93 1027 -104 1900 l-6 540 -180 -22z"/>
</g>
</svg>
