<svg xmlns="http://www.w3.org/2000/svg" data-name="2" viewBox="0 0 4680 3120"><defs><clipPath id="a"><path fill="none" d="M4242.66 1615.43q-13.92 44.28-32.05 86.89c-164 385.41-583.52 659-1194.43 633.51-1137.68-47.4-1662.78 135.55-1962.67-82.95-389.8-284-694.43-770.33-495.89-1274.65q15-38.13 33.89-76.37c.3-.57.59-1.16.89-1.76q20.46-41.15 45.66-82.37c49.31-80.58 112.49-161.12 191.25-240.86q21.12-21.39 43.75-42.72s6-6.34 18.21-17.24c77.06-68.59 402.21-317.71 1046.48-302.37 43.5 1 87 .4 130.36-1.56q39.55-1.77 79-4.93c261.32-20.64 519.82-81.47 770.31-104.91q48.1-4.52 95.8-7c269.11-13.69 528.06 28.14 770.31 224.05a1199 1199 0 0 1 95.78 86.6c48.82 49 96.91 105.09 144.19 169.08a1496.16 1496.16 0 0 1 116.86 184.32q22.64 42.35 41.64 84.93c118.8 265.31 134.68 534.74 60.66 770.31Z"/></clipPath><clipPath id="b"><path fill="none" d="M1432.73-64.03h1195.72v1421.02H1432.73z" transform="rotate(90 2030.585 646.475)"/></clipPath><clipPath id="c"><path fill="none" d="m3724.94 2579.49 52.08 242.18h210.94l39.06-242.18h-302.08z"/></clipPath><clipPath id="d"><path fill="none" d="M1990.63 2269.62s-217.76 170-244.31 201.82-8 228.37 18.59 241.65 1951.79 0 1967.73 0 37.18-10.62 42.49-77-5.31-129.66-18.59-152.46-305.39-228-305.39-228Z"/></clipPath><clipPath id="e"><path fill="none" d="M3177.64 1866.21c10.76 1.93 224.83-38.29 338.13 7.74 49.57 15.93 70.82-17.7 92.06 0s-12.39 37.62 0 80.77-8.85 370.67-37.18 422-26.55 3.54-70.81 12.39-187.66 65.5-378.85 3.54-65.51-548.35 56.65-526.44Z"/></clipPath><clipPath id="f"><path fill="none" d="M2981.13 1757.11c6.25 1.29 46-30.1 102.68 0s254.93 145.17 286.79 217.75-40.71 143.4-44.25 207.13-8.86 177-79.67 201.82-122 76.15-256.7 16.9-129.23-668.39-8.85-643.6Z"/></clipPath><clipPath id="g"><path fill="none" d="M2216.34 1922.36s-58.42-110.37-90.28-90.9-12.4 35.49-44.26 44.3S1874.67 2035.05 1834 2051s-54.88 20.8-47.8 50.23 33.64 56 33.64 86.08 15.93 115.74 62 172.94 90.29 85.53 99.14 115.63 21.24 47.8 54.88 44.26 60.19-100.91 145.17-139.86 129.23-54.88 116.84-145.17-81.53-312.75-81.53-312.75Z"/></clipPath><clipPath id="h"><path fill="none" d="M2591.21 1884.57s-229.7-99.47-320-74.52c-74.35-22.84-85-6.91-85 12.56s5.31 47.25-10.62 99.75-37.18 247.24-30.1 284.42c-37.18 48.81-54.88 76.12 40.72 102.67s279.71 72.59 384.16 39 79.26-470.96 20.84-463.88Z"/></clipPath><clipPath id="i"><path fill="none" d="M3143.23 2119.46c-2.27 1.16-4.66 2.51-7.13 4-89.54 32.84-297.65 112.05-393.52 47.89 0 0-129.68 5.31-202.26-33.64-24.92-13.37-46.7-19.43-63.85-18.27-49.69-25.36-182.23-52.54-159.22 102.61 20.52 138.34 378.85 245.83 479.33 260 .79.33 1.58.65 2.39.91 2.05.67 5.75.83 10.88.52 5.13.31 8.83.15 10.88-.52.81-.26 1.6-.58 2.38-.91 100.49-14.14 458.81-121.63 479.34-260 23.01-155.13-109.54-127.95-159.22-102.59Z"/></clipPath><clipPath id="j"><path fill="none" d="m580.55 1576.53-177.5 133.13a26.36 26.36 0 0 0-2.83 39.73 26.39 26.39 0 0 0 18.64 7.72h1723.4a26.41 26.41 0 0 0 17.94-7l7.21-6.7a26.35 26.35 0 0 0-1.45-39.88l-158.36-127Z"/></clipPath><clipPath id="k"><path fill="none" d="M1340.73 1024.19c-4.69-4-40.38-114.19-21-148.71s72.07-227 53.48-262.89-90.29-79.19-158-80.76S1097.05 590 1097.05 590s-54.44-14.6-78.34 79.67 15.93 194.26 5.31 243.85-78.34 104-92.94 187.67 8 94.27 8 151.36 69.05 62.41 74.36 112.86 50.45 86.31 47.8 107.55 25.23-25.23 21.24-67.72-46.47-182.56 10.62-295.42 47.8-118.83 57.76-156 189.87 70.37 189.87 70.37Z"/></clipPath><clipPath id="l"><path fill="none" d="M1150.82 953.82s-72.36 67.71-87 122.15-17.82 149.03 6.1 214.13 12.52 151 7.21 200.13l-5.31 49.13h381.07v-33.2s54.43 35.85 114.18-4 13.28-140.74 13.28-140.74-119.5-228.37-136.76-270.86-112-91.62-135-100.91-96.03-83.65-157.77-35.83Z"/></clipPath><clipPath id="m"><path fill="none" d="M1124.37 981.19s86.86 78.85 129.35 166.48 71.78 156.68 87 227 36.4 164.64 36.4 164.64h34v-18.59s-17.15-365.13-49.46-427.54-40.91-98.06-40.91-98.06-149.15-132.6-196.38-13.93Z"/></clipPath><clipPath id="n"><path fill="none" d="M1127.75 973.47s73.54 33.33 109 105.3 74.94 219.43 101.44 233.66 114.8-2.42 135.39-16.94 56.49 98.64 56.49 98.64-99 97.63-164.28 94.19c8 35.87 11.39 51 11.39 51h-305.36s18-113.5 3.9-174.82-43-172.9-20-254.71c14.15-50.52 40.76-120.53 72.03-136.32Z"/></clipPath><clipPath id="o"><path fill="none" d="M1548.48 1235.6s22.58-17.56 33.2-37.92 15-58.42 38.94-69 54 1.33 70.82-18.81 42.49-56.13 51.34-45.22 0 26 0 26 18.59-15.94 39.83-21.25 31.87-4.72 31.87-4.72 28.32-10.52 29.21-2-74.36 90-91.18 106.77-73.46 38.06-94.71 52.22-69.93 90.29-69.93 90.29-76.12 12.04-39.39-76.36Z"/></clipPath><clipPath id="p"><path fill="none" d="M1413.53 1320.52c.31-2.53-15.89-10.2-36.4-10.86s-15.46-15.11-36.44-10-33.19 17.26-27.88 37.18 20.5-10.17 20.5-10.17-13.86 24.94-3.91 33.4 19.92-21.13 19.92-21.13-8 28.43-.66 34.41c6.75 5.53 14.75-9.55 22.12-24.32a.55.55 0 0 1 1 .37c-4.43 22.2-8.77 29.92-1.24 29.92 7.99.04 41.46-46.62 42.99-58.8Z"/></clipPath><clipPath id="q"><path fill="none" d="M1366.58 615.24s12 27.88 12 81 15.93 61.08 29.21 66.39-15.93 26.56-20.58 46.47-6 19.92-11.28 30.54-12.62 15.93-14.61 31.87-2.66 27.88-23.9 25.89-65.06-18.59-65.06-18.59S1261 912 1261.69 943.2s18.59 92.94 23.9 119.49 20.58 47.14 20.58 47.14-21.91-15.27-35.19-39.83-25.22-50.46-53.77-63.74-66.39-52.44-66.39-52.44 60.41-104.89 58.42-131.45c-27.88-25.23-38.5-61.74-25.22-70.37s29.21 5.31 29.21 5.31 21.43-16.22 37.84-54.44c16.1-37.53 76.34-122.15 115.51-87.63Z"/></clipPath><clipPath id="r"><path fill="none" d="M2775.59 2433a25.36 25.36 0 0 0 8.14 35c14.6 9.13 41.95 21.72 84 23.93 67.27 3.54 118.61 0 162.87 8.85s33.64-72.58-33.64-86.75-86.74.81-127.46-10.62c-31.4-8.77-78.05 4.42-93.91 29.59Z"/></clipPath><clipPath id="s"><path fill="none" d="M2784.17 1623.45c-10.81-6.2-119.38 34.18-156.56 53.65-37.76 19.78-65.17 133.12-65.17 133.12s52.23 17.7 78.78 49.57 63.78 293.88 63.78 293.88 52.28 85 135.9 65.5 124.81-53.11 124.81-53.11l15.46-301s33.64-33.64 76.12-44.26c-25.34-100.9-35-136.32-115.56-170.84s-157.56-26.51-157.56-26.51Z"/></clipPath><clipPath id="t"><path fill="none" d="m2504.55 1855.56 26.59 343.84h570.71l19.49-343.84h-616.79z"/></clipPath><clipPath id="u"><path fill="none" d="M2840.86 1264.51s-101.38-14.6-129.26 54.44-22.6 92.71-14.6 145.27 11.15 87.09-6.38 95 27.29 23.44 36.09 15.71-2.27 2.65 15.88 2.1 30.09 16.72 48 7.42 70-9.75 95.06-9.52 22-2.89 40.15 0 19.47-9.07 34.08-10.39-17.27-23.85 0-85 .95-215.03-119.02-215.03Z"/></clipPath><clipPath id="v"><path fill="none" d="M2940.41 1464.22c-5.24-7.78-14.36-4-18.74-1.57 1.34-22.74 1-44.56 1-44.56s-50.46-28.33-65.5-64.62c-19.48 37.18-122.16 81.44-122.16 81.44s1.5 10.45 5.23 25.11c-4.21-1-9-.68-12.31 4.2-7.08 10.52 17.22 37.32 27.2 38.53 6.59 14.08 15.09 27.41 25.91 36.61q5 4.22 9.56 8c2.49 18.89 4.29 45.68-3.36 56.62-12.39 17.7-44.7 29.21-44.7 29.21s68.63 87.63 86.32 86.74 68.14-75.23 69.91-80.54-27.44-24.79-28.33-37.19c-.49-7-1.27-23.46-1.86-36.56 22-14.87 39.71-39.51 47-60.7.35-1 .68-2.13 1-3.3 11.2-5.35 30.2-27.96 23.83-37.42Z"/></clipPath></defs><path fill="#ffe5c2" d="M4140.36 760.18a1496.16 1496.16 0 0 0-116.86-184.32c-47.28-64-95.37-120.06-144.19-169.08a1199 1199 0 0 0-95.78-86.6c-242.25-195.91-501.2-237.74-770.31-224q-47.7 2.41-95.8 7c-250.49 23.44-509 84.27-770.31 104.91q-39.46 3.13-79 4.93c-43.39 2-86.86 2.59-130.36 1.56-644.27-15.38-969.42 233.74-1046.48 302.33-12.23 10.9-18.21 17.24-18.21 17.24q-22.63 21.33-43.75 42.72c-78.76 79.74-141.94 160.28-191.25 240.86q-25.24 41.21-45.66 82.37c-.3.6-.59 1.19-.89 1.76q-18.9 38.25-33.89 76.37c-198.54 504.32 106.09 990.63 495.89 1274.65 299.89 218.51 825 35.55 1962.67 82.95 610.91 25.45 1030.47-248.1 1194.43-633.51q18.12-42.57 32.05-86.89c74-235.57 58.14-505-60.67-770.31q-18.99-42.57-41.63-84.94Z" class="colorffe5c2 svgShape"/><g clip-path="url(#a)" fill="#000000" class="color000 svgShape"><path fill="#ffdaae" d="M3147.91 734.3h662.01v230.03h-662.01z" class="colorffdaae svgShape"/><path fill="#fff2de" d="M3187.58 764.2h583.76v162.06h-583.76z" class="colorfff2de svgShape"/><path fill="#ffdaae" d="M3536.77 805.31h41.07v120.94h-41.07z" class="colorffdaae svgShape"/><path fill="#ffffff" d="M3439.4 805.31h41.07v120.94h-41.07z" class="colorfff svgShape"/><path fill="#ffdaae" d="M3281.58 884.3h120.94v41.07h-120.94zM3619.88 805.31h41.07v120.94h-41.07z" class="colorffdaae svgShape"/><path fill="#ffffff" d="M3578.81 784.51h41.07v141.74h-41.07zM3316.88 898.49h57.32v15.07h-57.32z" class="colorfff svgShape"/><path fill="#ffdaae" d="M3454.17 836.62h13.15v73.77h-13.15z" class="colorffdaae svgShape"/><path fill="#ffffff" d="M3630.85 836.62h18.93v69.41h-18.93z" class="colorfff svgShape"/><path fill="#ffdaae" d="M3578.81 797.38h41.07v11.93h-41.07zM1257.16-8.45h1549.8v1313.32h-1549.8z" class="colorffdaae svgShape"/><path fill="#fff2de" d="M1320.08 48.62H2741.1v1195.72H1320.08z" class="colorfff2de svgShape"/><g clip-path="url(#b)" fill="#000000" class="color000 svgShape"><path fill="#ffffff" d="m1214.37 1371.72 875.32 39.72-875.32-916.14v876.42z" opacity=".61" class="colorfff svgShape"/></g><g clip-path="url(#b)" fill="#000000" class="color000 svgShape"><path fill="#ffffff" d="M1538.11-8.45l1219.27 1282.37 49.58-226.97L1775.79-24.71 1538.11-8.45zM1340.49 1.63l1212.9 1303.24h69.09L1418.27-8.45l-77.78 10.08z" opacity=".61" class="colorfff svgShape"/></g><path fill="#fff0dc" d="M4251.16 754c-13.78-6-28.63-11.12-43.54-9.26-52.77 6.58-56.83 80.3-52.74 133.32 14.87 192.57-59.63 384-172.33 540.81s-261.7 283.62-413.05 403.62c-146.08 115.83-313.94 232.69-499.89 219.21-135.93-9.86-256.64-88.62-388.68-122.39-263-67.27-535.33 48.59-806.47 62.11-218.86 10.92-440.68-47.41-625.86-164.58-114.87-72.69-215.2-166.78-331.38-237.35s-257.12-117-388.1-80.66l27.5 58.33c34.09 113.59-21.88 233.93-20.18 352.52 2.59 180.63 136.28 331 273.85 448.09 88.47 75.29 185.1 146.22 297.41 175.94 242.94 64.29 489.88-75.48 740.18-98 282.88-25.4 554.62 99.68 832 160.5 441 96.69 922.52 23.32 1299-225.79 160.52-106.2 303.21-245.65 388-418.46 72.6-148 99.91-313.76 120.59-477.36 17.06-135 30-273.36-.33-406S4376 808.15 4251.16 754Z" class="colorfff0dc svgShape"/></g><ellipse cx="3874.15" cy="2837.91" fill="#ffe5c2" rx="300.64" ry="66.95" class="colorffe5c2 svgShape"/><ellipse cx="1189.06" cy="2609.46" fill="#ffe5c2" rx="705" ry="107.97" class="colorffe5c2 svgShape"/><ellipse cx="2743.88" cy="2904.85" fill="#ffe5c2" rx="1048.57" ry="121.39" class="colorffe5c2 svgShape"/><ellipse cx="3885.34" cy="2821.14" fill="#ffd599" rx="205.65" ry="45.79" class="colorffd599 svgShape"/><ellipse cx="1331.43" cy="2597.95" fill="#ffd599" rx="482.25" ry="73.86" class="colorffd599 svgShape"/><ellipse cx="2762.5" cy="2897.09" fill="#ffd599" rx="717.26" ry="83.04" class="colorffd599 svgShape"/><path fill="#ffffff" d="M3777.02 2821.67h210.94l39.06-242.18h-302.08l52.08 242.18z" class="colorfff svgShape"/><g clip-path="url(#c)" fill="#000000" class="color000 svgShape"><path fill="#eaeaea" d="M4057.81 2493.67c-47.78-31.45-115.76-13.93-156.29 26.44l29.66 24.58c18.9 52.56 5.55 113.55-27.44 158.63s-83.53 75.23-137 91.32c-15.44 4.64-31.61 8.4-44.69 17.82s-22.38 26.44-17.23 41.72c2.85 8.44 9.53 15 16.29 20.78 65.47 56.23 161.52 74.34 243 45.82s145.22-102.6 161.31-187.39c8.86-46.72 4.05-95.27-8.06-141.26-10.04-37.94-26.77-76.88-59.55-98.46Z" class="coloreaeaea svgShape"/></g><path fill="#89a869" d="M3970.71 1855.91a2.45 2.45 0 0 0-3.22 1.25c-52.6 120-75.34 310.1-85.16 448.39-10.63 149.74-8.81 272.75-8.79 274a2.44 2.44 0 0 0 2.44 2.4 2.43 2.43 0 0 0 2.4-2.48c0-1.23-1.82-124.06 8.79-273.59 9.79-137.9 32.44-327.34 84.76-446.73a2.44 2.44 0 0 0-1.22-3.24Z" class="color89a869 svgShape"/><path fill="#89a869" d="M3849.67 1940.75a2.45 2.45 0 1 0-4.67 1.46c.28.87 27.56 88.55 48.77 210.37 35.44 203.56 27 344.3 13.65 426.52a2.45 2.45 0 0 0 2 2.8h.4a2.45 2.45 0 0 0 2.41-2c24.26-149.66 5.95-315.47-13.68-428.21-21.25-122.14-48.61-210.07-48.88-210.94Z" class="color89a869 svgShape"/><path fill="#89a869" d="M4004.7 2035.66a2.44 2.44 0 0 0-3.29 1c-48.58 94.46-77.22 237-92.69 339.94-8 53.08-13.37 101.37-16.84 137.49-4.79-80.95-27.48-161.29-48.1-219.64-28.38-80.31-59.09-137.47-59.4-138a2.44 2.44 0 0 0-4.3 2.32c.31.57 30.87 57.46 59.12 137.43 25.12 71.09 53.33 175 48.08 272.38-.49 6.81-.71 10.57-.72 10.75l4.88.34q.42-5.38.72-10.78c1.93-27.12 8-102.6 21.4-191.57 15.41-102.56 43.92-244.52 92.19-338.38a2.44 2.44 0 0 0-1.05-3.28Z" class="color89a869 svgShape"/><path fill="#abd184" d="M3998.6 2047.83s75.29-57.29 134.32-116.54a1115.26 1115.26 0 0 0 100.69-116.55s-135.41 41.67-184 85.07-51.01 148.02-51.01 148.02Z" class="colorabd184 svgShape"/><path fill="#89a869" d="M3969.73 1864.48s89-76.24 158.76-155.08 119-155.07 119-155.07-160.05 55.44-217.51 113.19-60.25 196.96-60.25 196.96ZM4216.25 2102.93c-39.93 12.15-149.3 7-217.65 55.56s-75.82 170.13-75.82 170.13 48.68-41.66 104.24-86.8 229.16-151.04 189.23-138.89ZM3771.52 1771.34c-68.35-48.61-177.72-43.4-217.65-55.55s133.68 93.74 189.23 138.88 104.24 86.81 104.24 86.81-7.48-121.48-75.82-170.14Z" class="color89a869 svgShape"/><path fill="#abd184" d="M3719.75 2012.39c-59.76-42.51-155.4-38-190.32-48.58s116.89 82 165.47 121.44 91.15 75.91 91.15 75.91-6.54-106.27-66.3-148.77Z" class="colorabd184 svgShape"/><path fill="#931500" d="M1784.4 2888.36h54.86l95.6-203.15-95.6-6.64-54.86 209.79zM3566.57 2685.21l95.59 203.15h54.86l-54.86-209.79-95.59 6.64z" class="color931500 svgShape"/><path fill="#305284" d="M1698.52 2255.59c-37.18 43.24-10.62 364.56 0 404.39s130.12 21.25 140.74 18.59 163-417.28 108.88-542.05c0 0-212.44 75.82-249.62 119.07Z" class="color305284 svgShape"/><path fill="#5e7cc0" d="M1865.38 2363.29c-7.54-45.56-29.73-94.8-75.92-112.16-24-9-52.54-7.22-73.61 8-5.68 4.11-.19 13.66 5.55 9.5 17.9-12.95 40.85-14.87 61.58-8.17 20.41 6.6 37 22.06 48.4 39.82 27.33 42.42 28.12 97.15 29.85 145.94q1.62 45.73-.45 91.5c-.32 7.07 10.68 7.06 11 0q2-44.52.54-89.09c-.95-28.44-2.32-57.21-6.94-85.34Z" class="color5e7cc0 svgShape"/><path fill="#305284" d="M3565.74 2129c-54.08 124.77 98.25 539.4 108.88 542.05s130.12 21.25 140.74-18.59 37.17-361.15 0-404.39S3565.74 2129 3565.74 2129Z" class="color305284 svgShape"/><path fill="#5e7cc0" d="M3803.34 2251.13c-18.54-13.42-42.7-16.33-64.62-10.83-22.17 5.56-40.81 20-54.48 38-32.23 42.41-34.65 99.19-36.9 150.31q-2.21 50.52.08 101.11c.31 7.05 11.31 7.09 11 0-2.36-53.24-2.31-107.65 4.4-160.6 5.56-43.86 22.44-94.08 65.95-113.8 22.16-10 49.06-9.14 69 5.31 5.76 4.15 11.23-5.39 5.57-9.5Z" class="color5e7cc0 svgShape"/><path fill="#5e7cc0" d="m3451.15 2255.59-1460.52 14s-217.76 170-244.31 201.82-8 228.37 18.59 241.65 1951.79 0 1967.73 0 37.18-10.62 42.49-77-5.31-129.66-18.59-152.46-305.39-228.01-305.39-228.01Z" class="color5e7cc0 svgShape"/><g clip-path="url(#d)" fill="#000000" class="color000 svgShape"><path fill="#4f72b2" d="M3744.45 2624.47a415.07 415.07 0 0 1-206-52.23c-30.86-17.2-60.37-38.72-94.94-46-58.84-12.4-116.83 18.59-172.53 41.27-132.43 53.92-282.52 63.39-420.68 26.56-54.93-14.65-108.85-36.51-165.66-38.45-65.71-2.25-128.89 22.29-192.47 39a827.49 827.49 0 0 1-407 2.82c-77.64-19.24-154.81-50.07-234.58-44.21s-163.88 65.3-161.18 145.24l31.63 9.28c-12 15.81-4.28 40.13 11.12 52.64s35.92 16.26 55.5 19.47c437.08 71.54 881.56 85.19 1324.46 85.46 220.07.13 444.68-3.77 652.52-76.11 30-10.44 60.68-23.05 81.86-46.74s29.85-61.42 11.82-87.58c-23.38-33.82-72.82-30.89-113.87-30.42Z" class="color4f72b2 svgShape"/></g><path fill="#305284" d="M1784.4 2483.62h1909.93c-538.72-62.3-1909.93 0-1909.93 0ZM1983.18 2585.51a23.46 23.46 0 1 0 23.46 23.46 23.46 23.46 0 0 0-23.46-23.46Z" class="color305284 svgShape"/><circle cx="2731.51" cy="2608.97" r="23.46" fill="#305284" transform="rotate(-73.16 2731.236 2608.935)" class="color305284 svgShape"/><circle cx="3479.85" cy="2600.97" r="23.46" fill="#305284" transform="rotate(-63.43 3480.2 2601.004)" class="color305284 svgShape"/><rect width="1645" height="561.44" x="1894.06" y="1798.8" fill="#305284" rx="48.79" class="color305284 svgShape"/><path fill="#e59393" d="M2216.34 1922.36s-58.42-110.37-90.28-90.9-12.4 35.49-44.26 44.3S1874.67 2035.05 1834 2051s-54.88 20.8-47.8 50.23 33.64 56 33.64 86.08 15.93 115.74 62 172.94 90.29 85.53 99.14 115.63 21.24 47.8 54.88 44.26 60.19-100.91 145.17-139.86 129.23-54.88 116.84-145.17-81.53-312.75-81.53-312.75ZM3607.83 1874c-21.24-17.7-42.49 15.93-92.06 0-113.3-46-327.37-5.81-338.13-7.74-122.16-21.91-247.85 464.49-56.65 526.45s334.59 5.31 378.85-3.54 42.49 39 70.81-12.39 49.57-378.85 37.18-422 21.24-63.12 0-80.78Z" class="colore59393 svgShape"/><g clip-path="url(#e)" fill="#000000" class="color000 svgShape"><path fill="#db7b7b" d="M3717.23 1892c-.39-31.47-1.48-65.18-19.92-90.68-15.67-21.66-41.27-33.58-66.31-42.94-102.52-38.31-214-48.47-323.24-41.82-50.67 3.08-103 10.33-146 37.22s-74.53 78-64.37 127.76l-14.06 37.88c37.08-27.48 87.24-30.77 132.68-22.76s88.48 26 133.16 37.57 93.45 16.31 135.92-1.74c14.52-6.17 30.27-15.07 45-9.53a217.88 217.88 0 0 0-59.41 144.95c-.15 8.37-.16 17.7-5.94 23.75-3.72 3.91-9.15 5.6-14.38 6.94-35.92 9.16-75.66 8.91-106.33 29.75 15.31 14.64 39.61 11.06 60.78 10.31s47.91 7.63 49.67 28.74c1.36 16.45-14.27 32.06-9.26 47.79 2.18 6.82 7.9 11.95 10.76 18.51 5.81 13.32-2 29.41-13.82 37.79s-26.76 10.91-41.1 13.22l-164.34 26.45c-20.7 3.33-43.16 7.61-56.89 23.44a323.6 323.6 0 0 0 122.61 28.82c8.28.29 19.45 3.09 19 11.36-.29 5.67-6.36 9-11.69 11-74.09 27.24-156.38-1.54-235.12 4-11.74.83-25.64 4.1-29.61 15.18-5.2 14.54 10.89 27.27 24.77 34 153.85 74.63 334.63 92.14 499.93 48.4 34.53-9.14 69.46-21.47 95.76-45.64 26.92-24.73 42.38-59.94 49.56-95.78s6.77-72.72 6.32-109.27q-2.03-172.32-4.13-344.67Z" class="colordb7b7b svgShape"/></g><path fill="#ffffff" d="M3083.81 1757.11c-56.65-30.1-96.43 1.29-102.68 0-120.38-24.79-125.89 584.36 8.85 643.6s185.89 7.88 256.7-16.9 76.12-138.09 79.67-201.82 76.12-134.55 44.25-207.13-230.14-187.65-286.79-217.75Z" class="colorfff svgShape"/><path fill="#efefef" d="M3276.94 1738.9c-70.94-53-150.13-100.32-238.08-110.63-14.08-1.65-28.94-2.21-41.79 3.78-9.56 4.46-17.17 12.18-24.21 20a374.75 374.75 0 0 0-67.21 106.63l-.65 7.32c49.23-13.73 102.48 10.22 138.84 46.13s59.83 82.46 85.72 126.53c10.79 18.38 22.75 37.11 40.92 48.25 38.49 23.59 90.18 5.53 132.26 21.87 6.42 2.5 13 6.25 15.7 12.58 4.7 10.94-4.14 22.68-12.67 31-18.25 17.77-38.11 33.95-54.93 53.08-47.32 53.8-67.25 130.51-52.11 200.53 4.21 19.48 10.87 40.34 3 58.66-3.83 8.93-10.76 16.14-17.78 22.85-31.26 29.88-71.61 55.6-114.65 51.48a516.48 516.48 0 0 0 247.73 3.91c15.13-3.51 31-8.24 41.27-19.9 13-14.8 13.52-36.5 12.87-56.19-1.91-57.86-7.19-118.73 18-170.84 25.58-52.84 80.61-91.94 89-150.05 3-20.63-.49-41.69-6.09-61.77-28.56-102.56-109.89-181.54-195.14-245.22Z" clip-path="url(#f)" class="colorefefef svgShape"/><g clip-path="url(#g)" fill="#000000" class="color000 svgShape"><circle cx="1922.65" cy="2016.16" r="46.24" fill="#f2c0c0" class="colorf2c0c0 svgShape"/><circle cx="1922.65" cy="2228.85" r="46.24" fill="#f2c0c0" class="colorf2c0c0 svgShape"/><circle cx="2107.6" cy="2108.64" r="46.24" fill="#f2c0c0" class="colorf2c0c0 svgShape"/><circle cx="2068.3" cy="2353.7" r="46.24" fill="#f2c0c0" class="colorf2c0c0 svgShape"/><circle cx="2181.59" cy="1916.75" r="46.24" fill="#f2c0c0" transform="rotate(-11.5 2150.532 1926.95)" class="colorf2c0c0 svgShape"/><circle cx="1929.59" cy="2455.42" r="46.24" fill="#f2c0c0" class="colorf2c0c0 svgShape"/></g><path fill="#ffffff" d="M2591.21 1884.57s-229.7-99.47-320-74.52c-74.35-22.84-85-6.91-85 12.56s5.31 47.25-10.62 99.75-37.18 247.24-30.1 284.42c-37.18 48.81-54.88 76.12 40.72 102.67s279.71 72.59 384.16 39 79.26-470.96 20.84-463.88Z" class="colorfff svgShape"/><path fill="#efefef" d="M2636.24 2268.4c-9.8-2.79-18.32 6.57-25.32 14-36.06 38.21-95.4 43.63-147.16 34.65s-101.28-29.68-153.58-34.7c-34.12-3.27-73.91-2.06-95.62-28.59l93.17 4.95c6.78.36-68.78-37.13-100.73-41.32 29.33-24.82 31.89-68.35 32.19-106.78.22-28.12.42-56.41-4.35-84.12-1-5.67-2.16-11.51-.86-17.11 3.61-15.53 23-20.8 33.38-32.93 11-12.91 10.34-32.18 5.64-48.47s-12.8-31.71-14.95-48.54c-.43-3.36-.54-7.05 1.42-9.82 1.53-2.15 4.06-3.35 6.55-4.25 31.54-11.42 63.85 11.35 95.2 23.28 46.43 17.68 97.94 11.51 147.62 12.24s104.64 11.79 133.9 51.94l-.61-6.21c-14.1-23.38.1-53 .71-80.27.57-25.18-11-49.27-26.11-69.42a202.65 202.65 0 0 0-81.75-64.23c-31.57-13.54-66-18.79-100.22-22.14a994.24 994.24 0 0 0-172-1.89c-28 2.12-57.64 6.1-79.61 23.65-32.11 25.66-38 71.49-40.12 112.54-3.05 58.94-3.53 119-21.42 175.2-20.14 63.34-61.37 118.51-80.22 182.25a277 277 0 0 0-11.19 87.22c.78 24 5.35 49.38 21.22 67.45 18.91 21.53 49.27 28 77.45 33.18 99.58 18.22 199.51 34.82 300.07 46.47 37.84 4.39 76.3 8.06 113.89 1.85s74.76-23.42 97.65-53.87 28.3-75.4 6.74-106.81c-2.8-4.08-6.22-8.06-10.98-9.4Z" clip-path="url(#h)" class="colorefefef svgShape"/><path fill="#ffaeae" d="m2562.44 1810.22-22.12 72.58 97.36 39.56 3.54-62.57s-35.4-53.11-78.78-49.57ZM2981.13 1865.1l14.16 57.26 74.36-28.93-12.4-72.59c-49.57-37.18-76.12 44.26-76.12 44.26Z" class="colorffaeae svgShape"/><path fill="#e2d3c9" d="M2750.2 2403.44c-40.72 11.43-60.19-3.54-127.46 10.62s-77.9 95.6-33.64 86.75 95.6-5.31 162.87-8.85 96.93-33.64 96.93-33.64c8.41-40.72-57.98-66.32-98.7-54.88Z" class="colore2d3c9 svgShape"/><path fill="#ffbc80" d="M3143.23 2119.46c-2.27 1.16-4.66 2.51-7.13 4-89.54 32.84-297.65 112.05-393.52 47.89 0 0-129.68 5.31-202.26-33.64-24.92-13.37-46.7-19.43-63.85-18.27-49.69-25.36-182.23-52.54-159.22 102.61 20.52 138.34 378.85 245.83 479.33 260 .79.33 1.58.65 2.39.91 2.05.67 5.75.83 10.88.52 5.13.31 8.83.15 10.88-.52.81-.26 1.6-.58 2.38-.91 100.49-14.14 458.81-121.63 479.34-260 23.01-155.13-109.54-127.95-159.22-102.59Z" class="colorffbc80 svgShape"/><g clip-path="url(#i)" fill="#000000" class="color000 svgShape"><path fill="#f4994e" d="M2742 2325.44a838.06 838.06 0 0 0-135.85-82c-11.49-5.53-23.55-11.13-31.47-21.13a57.23 57.23 0 0 1-7.8-14 98.18 98.18 0 0 1-5.16-16.85c-1.41-6.77-3.48-15.22-10.27-16.54a31.85 31.85 0 0 0 4.9 17.79l-.63.69a126.33 126.33 0 0 0-39.55-31.91q10.71 17.63 21.43 35.26c-22.29-18.35-50.13-28.29-77.36-37.89a427.53 427.53 0 0 1 62.7 41.1c10 7.85 19.59 16.16 30.12 23.22 11.9 8 24.84 14.27 37.46 21.06a524.32 524.32 0 0 1 99.64 69.67c6.66 5.92 13.21 12 20.71 16.83 10.58 6.75 22.81 10.71 33 18.06 22.79 16.47 31.87 47.36 55.08 63.23-11.75-14-12.94-34-21.42-50.2-7.94-15.11-21.78-26.2-35.53-36.39ZM3117.53 2153.46a126.23 126.23 0 0 0-39.56 31.9l-.62-.68a31.85 31.85 0 0 0 4.9-17.79c-6.79 1.32-8.86 9.77-10.28 16.54a96.44 96.44 0 0 1-5.16 16.85 56.87 56.87 0 0 1-7.79 14c-7.92 10-20 15.6-31.48 21.13a838.49 838.49 0 0 0-135.85 82c-13.75 10.19-27.59 21.28-35.51 36.44-8.47 16.22-9.67 36.19-21.42 50.21 23.21-15.87 32.3-46.76 55.09-63.24 10.16-7.35 22.4-11.3 33-18.05 7.51-4.79 14.06-10.91 20.72-16.83a523.55 523.55 0 0 1 99.64-69.67c12.62-6.79 25.55-13.08 37.46-21.06 10.53-7.06 20.15-15.37 30.11-23.22a428.16 428.16 0 0 1 62.71-41.1c-27.23 9.6-55.08 19.54-77.37 37.89Z" class="colorf4994e svgShape"/></g><g clip-path="url(#i)" fill="#000000" class="color000 svgShape"><path fill="#fe9226" d="M2434.13 2085.57a7.49 7.49 0 0 0-11.21 9.95l29.87 33.64a7.49 7.49 0 1 0 11.21-9.95ZM2549.42 2304.67l-42.24 15.48a7.49 7.49 0 0 0 5.16 14.07l42.23-15.48a7.49 7.49 0 1 0-5.15-14.07ZM2366.36 2225.93a7.49 7.49 0 0 0-11.21 10l29.86 33.64a7.49 7.49 0 1 0 11.21-9.95ZM2624.9 2187.26l-37.68-24.56a7.49 7.49 0 0 0-8.19 12.55l37.68 24.57a7.5 7.5 0 0 0 8.19-12.56ZM2988.16 2290.94a7.51 7.51 0 0 0-9 5.64l-10 43.86a7.5 7.5 0 0 0 14.62 3.33l10-43.86a7.51 7.51 0 0 0-5.62-8.97ZM3173.49 2352.8l-37.68-24.57a7.49 7.49 0 0 0-8.19 12.55l37.68 24.57a7.49 7.49 0 1 0 8.19-12.55ZM3239.49 2107.22l-37.68-24.56a7.49 7.49 0 1 0-8.18 12.55l37.68 24.57a7.49 7.49 0 1 0 8.18-12.56ZM2693.32 2362.33a7.49 7.49 0 0 0-11.21 10l29.86 33.64a7.49 7.49 0 1 0 11.21-10ZM3140.75 2203.09a7.52 7.52 0 0 0-9 5.64l-10 43.85a7.52 7.52 0 0 0 5.64 9 7.53 7.53 0 0 0 9-5.64l10-43.86a7.52 7.52 0 0 0-5.64-8.99ZM2828.67 2261.79l-37.67-24.57a7.5 7.5 0 0 0-8.19 12.56l37.68 24.56a7.49 7.49 0 0 0 8.19-12.55ZM2916.91 2461.94l-37.68-24.57a7.52 7.52 0 0 0-10.37 2.18 7.51 7.51 0 0 0 2.19 10.37l37.68 24.57a7.49 7.49 0 1 0 8.18-12.55Z" class="colorfe9226 svgShape"/></g><rect width="1476.25" height="956.12" x="552.77" y="617.76" fill="#dd3601" rx="14.66" class="colordd3601 svgShape"/><rect width="1375.55" height="890.9" x="603.12" y="649.77" fill="#e6e7e8" rx="13.87" class="colore6e7e8 svgShape"/><path fill="#931500" d="m2166 1703.49-158.36-127h-1427l-177.5 133.13a26.36 26.36 0 0 0-2.83 39.73 26.39 26.39 0 0 0 18.64 7.72h1723.4a26.41 26.41 0 0 0 17.94-7l7.21-6.7a26.35 26.35 0 0 0-1.5-39.88Z" class="color931500 svgShape"/><path fill="#dd3601" d="m2168.27 1666.5-158.36-127H582.86l-177.5 133.13a26.37 26.37 0 0 0-2.83 39.73 26.39 26.39 0 0 0 18.64 7.72h1723.4a26.4 26.4 0 0 0 17.94-7l7.21-6.7a26.35 26.35 0 0 0-1.45-39.88Z" clip-path="url(#j)" class="colordd3601 svgShape"/><path fill="#931500" d="m686.77 1607.52-37.18 44.25h1274.65l-30.18-44.25H686.77z" class="color931500 svgShape"/><path fill="#b8ccd3" d="m1696.56 1062.44 6.33-7a43.08 43.08 0 0 0-14 8.3 123.61 123.61 0 0 0-15.76 2c3.17-2.43 6.38-4.78 9.66-7l-1.41-1.93a71.81 71.81 0 0 0-22 12c-20.21 5.61-37.62 20.34-38.16 20.8 0-.06.35-.63.79-1.56 2.15-3.35 5.91-5 5.36-8.79l-3.72 4.66c1.76-5.37 3-13.59-2.45-20.26-8.84-10.93-34.51 25.07-51.33 45.21s-46.91 8.19-70.81 18.82-28.33 48.67-39 69c-5.34 10.22-13.67 19.73-20.67 26.67a49.59 49.59 0 0 1 3.49-16.49l-1.17 1.71c-4.7 1.17-8.6 4.36-12.08 7.71a99.59 99.59 0 0 0-24.26 37.66c-.44.36-.85.72-1.3 1.1-33.94-66-72.82-142.62-82.1-165.47a59.1 59.1 0 0 0-5.29-9.91 120.93 120.93 0 0 0 27.41-57c7.63-41.64-3.73-84.43-19.05-123.89-15.12-39-34.28-76.62-44.06-117.24 7.07-9.46 12.33-17 5.15-19.87a60.76 60.76 0 0 1-7.53-3.49c0-.25 0-.49.09-.73 1.87-11.21 9.43-20.64 12.78-31.49 7.3-23.63-6.2-48-19.76-68.91-.67-2.42-1.37-4.87-2.15-7.32h-366.7c-2 5.78-4 12.09-5.71 19C873.25 763 913.08 863 902.46 912.6s-78.34 104-92.94 187.68 8 94.27 8 151.36c0 39.71 33.38 54.38 55.5 76.59-1.44 3.5-2.77 7-3.86 10.52-8.63 28.06-1.8 58.25 5.07 86.79 2.79 11.68 5.74 23.65 12.57 33.52 7.37 10.66 18.59 17.91 29.67 24.61A272.71 272.71 0 0 0 954.1 1503l-3.84 35.47h79.47c.65.75 1.31 1.49 2 2.22H1282c-.22-.74-.45-1.48-.68-2.22h50v-24.91l.57 3.37c.61 3.48 1.3 7.16 3.68 9.78 2.59 2.86 6.62 3.82 10.39 4.64l42.92 9.34h73.42c5.29-5.6 9.27-12.92 12.41-20a210.62 210.62 0 0 0 17.59-74.12c.43-8.37-1-18.78-8.83-21.69a14.29 14.29 0 0 0-8-.26c-2.82-33.86-16.72-64-16.72-64l-6.76-13a71 71 0 0 0 20.73-5.26c10-4.24 19.65-10.61 25.26-20s6.4-22.14-.15-30.89c-3.16-4.23-7.51-7-12.26-9.34 16-23.14 38.1-53.08 50.63-61.44 21.25-14.16 77.9-35.4 94.72-52.22s92.06-98.26 91.17-106.77c-.64-6.63-17.86-1.77-25.53.74Z" class="colorb8ccd3 svgShape"/><path fill="#ffe6c5" d="m1532 1079.3.07-.09-.2-.59a6.21 6.21 0 0 1 .13.68Z" class="colorffe6c5 svgShape"/><path fill="#7a1c0c" d="M1373.22 612.59c-18.59-35.85-90.29-79.19-158-80.76S1097.05 590 1097.05 590s-54.44-14.6-78.34 79.67 15.93 194.26 5.31 243.85-78.34 104-92.94 187.67 8 94.27 8 151.36 69.05 62.41 74.36 112.86 50.45 86.31 47.8 107.55 25.23-25.23 21.24-67.72-46.47-182.56 10.62-295.42 47.8-118.83 57.76-156 189.91 70.37 189.91 70.37c-4.69-4-40.38-114.19-21-148.71s72.04-227.04 53.45-262.89Z" class="color7a1c0c svgShape"/><g clip-path="url(#k)" fill="#000000" class="color000 svgShape"><path fill="#511007" d="M1402.21 781c-1.73-7.39-3.15-15.06-1.9-22.55 1.87-11.21 9.43-20.63 12.78-31.48 7.3-23.63-6.2-48-19.76-68.91.23.84.46 1.68.67 2.51l-1.91-4.41c.41.63.83 1.26 1.24 1.9-8.39-30.75-24.65-63.91-55.45-71.08-19.24-4.48-39.61 2.66-59-.92-28.61-5.27-51.94-33-80.83-29.6-31.73 3.79-47.08 42-75.77 56.09-8.72 4.29-18.51 6.21-27 10.94-15.77 8.8-25 26.1-30 43.43a146.41 146.41 0 0 0 7.31 100.72c13.81 30.25 38.69 59.22 33.28 92-2.29 13.85-9.92 26.21-18.26 37.49a270 270 0 0 1-48.94 50.73c-15.84 12.62-34.75 26.21-36.24 46.41-1.37 18.61 13.21 36.66 8.4 54.69-2.12 8-7.74 14.41-13.19 20.58-18.39 20.82-37.07 42.28-47.17 68.16s-10.07 57.5 7.17 79.28c15.85 20 44.74 30.82 51 55.57 5.81 22.86-11 44.6-17.93 67.15-8.64 28-1.81 58.24 5 86.78 2.81 11.67 5.75 23.65 12.58 33.52 7.36 10.65 18.59 17.91 29.66 24.62 38.8 23.51 89 43.75 127.5 19.83 21.6-13.41 33.73-37.86 41.39-62.1a277 277 0 0 0 12-105.18c-3.49-43.74-17.39-86.62-16-130.49s24.28-92 66.82-102.8c37.66-9.56 77.06 13 115.5 7.28 41.88-6.17 72.88-45.89 80.51-87.52s-3.72-84.42-19-123.88-34.79-77.6-44.46-118.76Z" class="color511007 svgShape"/><path fill="#511007" d="M1394 660.52c-.21-.83-.44-1.67-.67-2.51-.41-.64-.83-1.27-1.24-1.9Z" class="color511007 svgShape"/></g><path fill="#ffffff" d="M1443.59 1090.58c-17.26-42.49-112-91.62-135-100.91s-96-83.65-157.78-35.85c0 0-72.36 67.71-87 122.15S1046 1225 1069.92 1290.1s12.52 151 7.21 200.13l-5.31 49.13h381.07v-33.2s54.43 35.85 114.18-4 13.28-140.74 13.28-140.74-119.5-228.35-136.76-270.84Z" class="colorfff svgShape"/><g clip-path="url(#l)" fill="#000000" class="color000 svgShape"><path fill="#e2e2e2" d="M1400 1131.23c1-6.84 1.74-11.31 1.74-11.31-.82 3.89-1.4 7.65-1.74 11.31ZM1605.05 1425.73c-4.92-1.81-10.3.26-15.27 1.94-31.33 10.61-67.69 5-94.38-14.55-33-24.15-26.65-87.55-40.52-126-14.88-41.23-33.67-69-48.55-110.2-5.77-16-8-30-6.36-45.72-2.36 16.64-5.94 47.3-2.65 61.77a149.15 149.15 0 0 0 23.91 53.31c9 12.62 20.49 25.14 21 40.63.5 15-9.52 28.08-13.67 42.49-4.62 16-1.82 33.15 1 49.59q12 69.4 23.89 138.79c.6 3.48 1.3 7.17 3.67 9.79 2.6 2.86 6.63 3.82 10.4 4.64l77.59 16.89c8.17 1.78 16.73 3.55 24.78 1.29 13-3.63 20.93-16.54 26.38-28.88a210.67 210.67 0 0 0 17.59-74.13c.44-8.38-.95-18.75-8.81-21.65Z" class="colore2e2e2 svgShape"/></g><path fill="#89a869" d="M1320.8 995.17s-149.2-132.65-196.43-14c0 0 86.86 78.85 129.35 166.48s71.78 156.68 87 227 36.4 164.64 36.4 164.64h34v-18.59s-17.15-365.13-49.46-427.54-40.86-97.99-40.86-97.99Z" class="color89a869 svgShape"/><g clip-path="url(#m)" fill="#000000" class="color000 svgShape"><path fill="#677f4b" d="M1133.85 1051.29a91.72 91.72 0 0 1 25.16 8.25 74.64 74.64 0 0 0-19.93-11.32ZM1239.06 1172c-9-26.58-19.62-53.08-36.55-75.48-11.55-15.29-26.42-28.59-43.5-37 18.88 14.78 31.74 37.87 41.44 60.44a477.64 477.64 0 0 1 33.48 117.49l62.28-131c-17.34 23.3-34.9 46.85-57.15 65.55ZM1334.55 1092.21c.13 1.8.2 3.81-1 5.19-1.7 2-4.9 1.47-7.31.46-7.29-3.08-15-7.17-15-7.17a271.57 271.57 0 0 1 62.74 70.57 516.57 516.57 0 0 0-43.72-126.45q2.17 28.7 4.29 57.4ZM1348 1537.05a39.87 39.87 0 0 0-2.67 8q1.32-3.98 2.67-8Z" class="color677f4b svgShape"/><path fill="#677f4b" d="m1409.3 1171.51-19.41 1.51-2.69-1.31a314.79 314.79 0 0 1-26.52 155.75c-10.3 22.85-23.41 44.61-30.31 68.7-8.37 29.2-7.18 60.16-5.92 90.51-2.68-60 49.27-109.35 57.65-168.77a689 689 0 0 1-34.1 219.15c6.27-13.75 20-23.86 34.64-28.62 17.35-5.64 36-5.11 54.26-4.57 5.5.16 11.43.2 15.93-3 6.3-4.43 7.33-13.22 7.67-20.93a841.08 841.08 0 0 0-23.72-238.91c-6.06-24.29-13.38-48.8-27.48-69.51Z" class="color677f4b svgShape"/></g><path fill="#ffffff" d="M1530 1394.13s-35.9-113.17-56.49-98.64-108.89 31.16-135.39 16.94-66-161.7-101.44-233.66-109-105.3-109-105.3c-31.27 15.79-57.88 85.8-72.07 136.36-23 81.81 6 193.39 20 254.71s-3.9 174.82-3.9 174.82h305.31s-3.41-15.17-11.39-51c65.37 3.4 164.37-94.23 164.37-94.23Z" class="colorfff svgShape"/><g clip-path="url(#n)" fill="#000000" class="color000 svgShape"><path fill="#e2e2e2" d="M1178.11 973.68c-20.16-9.91-44-10.14-65.91-5.37-8.79 1.92-17.58 4.68-24.86 10-11.3 8.18-17.67 21.37-23.44 34.07l4-3c35.44 18.31 56.73 25.9 79.07 59 5.24-14.34 29.06-15.57 39.5-26.71 2.69 13.41-6.56 38.84-9.79 60.33 27.5 32.13 50.15 67.88 72.49 103.79s47.68 71.46 83.29 94.29c-17.13-103-48.45-206.49-112.8-288.73-11.56-14.94-24.66-29.35-41.55-37.67Z" class="colore2e2e2 svgShape"/><path fill="#e2e2e2" d="M1503.74 1267.4c-5.24-1.94-13.65 17.56-18.46 20.38-55.92 32.75-123.13 53-182.06 26-57.47-26.3-79.41-135.47-138.7-176.85-13.59-9.49-31.23-31.15-47.31-35.14 0 0 113.29 143.71 156.85 226.58 3.3 6.28 6.68 12.65 8 19.6 1.79 9.11 0 18.47-.95 27.7a154.42 154.42 0 0 0 2.57 47.9 100.19 100.19 0 0 1 22.69-73.5 81.25 81.25 0 0 0 16.85 66.81c13-16.21 5.19-42 16.82-59.19 12.65-18.73 39.77-17.52 62.32-19.06a160.83 160.83 0 0 0 97.51-42.14c4.33-4 8.59-8.54 10.1-14.24s-.7-12.8-6.23-14.85ZM1370.71 1491.17c-39.52-3.17-79.32-6.39-117.55-16.87s-75.24-28.81-102-58.08c-.32 32.15 16.92 63.94 44 81.2a289.47 289.47 0 0 0-60.62 3.42c2.81 38.16 40.68 65.5 78.36 72.18s76.17-1.6 114.33-4.45c27.39-2 55-1.26 82.28-4.19a320.24 320.24 0 0 0-26.13-73.11Z" class="colore2e2e2 svgShape"/><path fill="#bfbfbf" d="M1156.72 1063.33c-.77-.93-1.57-1.82-2.36-2.74-.95.91-1.9 1.8-2.82 2.74Z" class="colorbfbfbf svgShape"/><path fill="#bfbfbf" d="M1186.92 1101.07c-4.19-3.18-9.25-5.77-13.17-9.23-6-5.32-1.29-11.07 2-16.73l19.48-33c1.48-2.51-1-6.67-4.14-5.39a119.1 119.1 0 0 0-36.78 23.87c.79.92 1.59 1.81 2.36 2.74h-5.18c.92-.94 1.87-1.83 2.82-2.74a319.74 319.74 0 0 0-46.31-44c-3.68-2.86-8.91 2.29-5.18 5.18a321.19 321.19 0 0 1 48.67 46.74 3.69 3.69 0 0 0 5.18 0 111.13 111.13 0 0 1 26.14-19.82c2-3.43 4.07-6.85 6.09-10.28l4.14 5.38a106.75 106.75 0 0 0-10.23 4.9q-7.63 12.88-15.22 25.81c-5.13 8.81-6.82 17.22 2.41 23.67 20.53 14.36 38.61 30.28 53.33 50.74 2.73 3.8 9.09.14 6.33-3.7a207.09 207.09 0 0 0-42.74-44.14Z" class="colorbfbfbf svgShape"/><path fill="#bfbfbf" d="M1189 1038.41c-2 3.43-4.06 6.85-6.09 10.28a106.75 106.75 0 0 1 10.23-4.9ZM1348.25 1495.69a247.23 247.23 0 0 1-173.93-65.16c-3.46-3.2-8.66 2-5.18 5.19a254.77 254.77 0 0 0 179.11 67.3c4.75-.14 4.75-7.47 0-7.33Z" class="colorbfbfbf svgShape"/></g><path fill="#ffaeae" d="M1814.48 1064.61s-10.63-.59-31.87 4.72-39.83 21.25-39.83 21.25 8.85-15 0-26-34.52 25.08-51.34 45.22-46.92 8.19-70.82 18.81-28.32 48.68-38.94 69-33.2 37.92-33.2 37.92c-36.73 88.37 39.39 76.27 39.39 76.27s48.69-76.13 69.93-90.29 77.9-35.4 94.71-52.22 92.06-98.26 91.18-106.77-29.21 2.09-29.21 2.09Z" class="colorffaeae svgShape"/><g clip-path="url(#o)" fill="#000000" class="color000 svgShape"><path fill="#f47171" d="M1748.8 1079.53a6.38 6.38 0 0 1 .13.69l.07-.09ZM1746.44 1123.73c-8.12 7.52-23.68 15.41-34.17 18.92 1.62-6.53 9.1-15.4 13.1-20.8a138.64 138.64 0 0 0 17.41-31.27c1.77-4.51 6.79-6 6.15-10.36l-39.76 50.08a142.48 142.48 0 0 1-11.77 13.61c-5.65 5.53-12.54 10.58-14.83 18.16 12.75-9.36 21-4.09 33.75-13.45 5.64-4.14 22.87-13.47 27.74-18.49 3.66-3.76 11.74-11.67 16.18-14.45 5.51-3.44 40.41-33.07 53.94-48l10.27-11.32c-8 2.62-14.46 8.51-20.65 14.24Z" class="colorf47171 svgShape"/><path fill="#f47171" d="M1764 1089.31c-4.1 7-11.22 11.92-13 20.34a249.56 249.56 0 0 1 53.41-50l-1.41-1.93a72.39 72.39 0 0 0-39 31.59ZM1589.42 1275.23c-23.31-12.1-34.75-43-24.92-67.36l-1.18 1.71c-4.69 1.17-8.59 4.36-12.08 7.71-24 23.12-35.2 58.81-28.66 91.49 2.09 10.43 6.06 20.84 13.61 28.33 14.68 14.55 39.07 14.16 58.12 6.13 10.06-4.25 19.66-10.62 25.27-20s6.4-22.15-.15-30.89c-6.98-9.35-19.66-11.75-30.01-17.12Z" class="colorf47171 svgShape"/></g><path fill="#ffaeae" d="M1332.69 1327.88c.4-.73.62-1.17.62-1.17s-.23.42-.62 1.17Z" class="colorffaeae svgShape"/><path fill="#ffaeae" d="M1377.13 1309.66c-20.51-.67-15.46-15.11-36.44-10s-33.19 17.26-27.88 37.18c4.67 17.51 17-3.65 19.88-9 .39-.75.62-1.17.62-1.17s-.22.44-.62 1.17c-2.57 5-12 24.87-3.29 32.23 10 8.46 19.92-21.13 19.92-21.13s-8 28.43-.66 34.41c6.75 5.53 14.75-9.55 22.12-24.32a.55.55 0 0 1 1 .37c-4.43 22.2-8.77 29.92-1.24 29.92 8 0 41.46-46.66 43-58.84.3-2.48-15.9-10.16-36.41-10.82Z" class="colorffaeae svgShape"/><g clip-path="url(#p)" fill="#000000" class="color000 svgShape"><path fill="#f47171" d="m1303.75 1339.75.16.1.36-1Z" class="colorf47171 svgShape"/><path fill="#f47171" d="M1329.31 1321.65c-4.74 4.61-5.17 12.4-9.91 17a12.55 12.55 0 0 1-15.49 1.19 26.9 26.9 0 0 0-2 11.15c.33 4.15 2.49 8.37 6.25 10.15a6.17 6.17 0 0 0 3.67.62c2.65-.49 4.28-3.1 5.55-5.48q7.2-13.45 13.49-27.38a15.44 15.44 0 0 0 1.84-6.61 2 2 0 0 0-.3-1.17c-.72-.94-2.25-.29-3.1.53ZM1347.49 1333c-1.74-1.2-4 .71-5 2.58-2 3.89-2.64 8.33-3.57 12.62s-2.3 8.7-5.46 11.75c-2.55 2.47-6.58 3.68-9.82 2.58.79 2 1.17 4.23 1.86 6.3 1 3 3.4 6.06 6.53 5.81 2.62-.2 4.44-2.61 5.75-4.87a114.09 114.09 0 0 0 7.38-16.65c2.12-5.56 4.27-11.39 3.58-17.29a3.8 3.8 0 0 0-1.25-2.83Z" class="colorf47171 svgShape"/><path fill="#f47171" d="M1321.56 1361.37a6.69 6.69 0 0 0 2.12 1.17 10.34 10.34 0 0 0-1.38-2.5ZM1375.13 1335.21c-1.42-1.34-3.65.26-4.84 1.8a81.91 81.91 0 0 0-11.3 19.62c-1.57 3.88-2.87 7.95-5.35 11.32s-6.51 6-10.66 5.46l-.8-2.68c-.7 2.87-1.41 5.81-1.09 8.74s1.91 5.9 4.62 7.07c3.29 1.41 7.15-.22 9.82-2.6 4-3.62 6.34-8.76 8.52-13.74l9-20.65c1.74-4 3.51-8.22 2.83-12.5a3.05 3.05 0 0 0-.75-1.84ZM1413 1313.5c-2.4-.81-5.1.4-6.79 2.28a19.64 19.64 0 0 0-3.41 6.73c-6.51 18.35-13.34 37.07-25.66 52.15a19.25 19.25 0 0 1-6.33 5.56c-2.56 1.21-5.85 1.26-8-.56l-1.57-.18c-2 6.16 2.6 13.13 8.74 15.15s13.08-.1 18.18-4.08 8.68-9.57 11.82-15.22a173.24 173.24 0 0 0 16.21-40.35c1.32-5 2.41-10.29 1.3-15.36-.63-2.62-2.02-5.28-4.49-6.12Z" class="colorf47171 svgShape"/></g><path fill="#89a869" d="M1548.48 1235.6s-29.65 29.36-75 59.89c-11.66 72.13 55 116.4 55 116.4s39.39-43.37 59.3-100c-46.78-15.07-39.3-76.29-39.3-76.29Z" class="color89a869 svgShape"/><path fill="#ffaeae" d="M1407.74 762.62c-13.28-5.31-29.21-13.28-29.21-66.39s-12-81-12-81c-39.17-34.52-99.4 50.1-115.51 87.63-16.41 38.22-37.84 54.44-37.84 54.44s-15.89-13.93-29.18-5.3-2.65 45.14 25.23 70.37c2 26.56-58.42 131.45-58.42 131.45s37.84 39.17 66.39 52.44 40.5 39.17 53.77 63.74 35.19 39.83 35.19 39.83-15.27-20.58-20.58-47.14-23.24-88.29-23.9-119.49 10.62-64.4 10.62-64.4 43.82 16.6 65.06 18.59 21.91-10 23.9-25.89 9.29-21.25 14.61-31.87 6.63-10.62 11.28-30.54 33.85-41.16 20.59-46.47Z" class="colorffaeae svgShape"/><g clip-path="url(#q)" fill="#000000" class="color000 svgShape"><path fill="#f47171" d="M1333.49 584.91c-41.36.72-80.39 29.77-94.24 68.75-2 5.72-3.7 11.86-7.92 16.23-7.09 7.34-18.67 7.26-28.85 6.66l1.57 2.09c6.37 25.86 10.33 50.41 8.28 77 19.53-8.64 35-20.2 47.56-37.47 11.3-15.54 18.81-33.55 30-49.2s27.55-29.42 46.75-30.14c10.83-.4 22.48 3.25 32.08-1.81 12.8-6.76 13.61-26.57 4.27-37.64s-24.99-14.72-39.5-14.47ZM1204.86 771.77l6.62 2.67c-.6-.7-1.25-1.42-1.93-2.11a6.4 6.4 0 0 0-4.69-.56Z" class="colorf47171 svgShape"/><path fill="#f47171" d="M1209.55 772.33c.68.69 1.33 1.41 1.93 2.11l-6.62-2.67a6.4 6.4 0 0 1 4.69.56c-2.6-2.66-5.71-4.91-9.25-4.39-4.7.68-7.37 6.4-6.2 11s5.06 8 9.2 10.37c2.68 1.52 6.2 2.67 8.69.86 1.82-1.32 2.4-3.75 2.58-6 .24-3.09-.08-6.36-1.76-9a8.39 8.39 0 0 0-3.26-2.84ZM1272.77 883.52l2.14-4-35.11-18.37c-1.23 6.19.79 12.52 2.91 18.47a399.77 399.77 0 0 0 29.29 63.65c1.48 2.6 3.11 5.29 5.72 6.74 5.17 2.87 12.07-.73 14.63-6.06s1.9-11.61.68-17.4a103.88 103.88 0 0 0-20.26-43.03ZM1271.74 1071.91c-6.15-23.61-10.74-49.24-27.69-66.8-14.42-14.93-35.24-21.3-53.63-30.93s-36.42-26.06-36-46.81l-1.47 1.18c-5.48 6.14-11.31 13.23-10.84 21.45.63 11.28 12.25 18.07 21.73 24.22 30.37 19.67 50.45 51.32 70.74 81.28s43.18 60.41 76.13 75.35c-22.27-9.85-32.82-35.32-38.97-58.94Z" class="colorf47171 svgShape"/><circle cx="1275.52" cy="772.94" r="27.16" fill="#f27070" transform="rotate(-67.5 1275.52 772.947)" class="colorf27070 svgShape"/></g><path fill="#8e1e00" d="m1286.92 696.23 38.5-12s-25.23-1.23-38.5 12ZM1317.64 822.68c.13 8 8.54 19.52 21.34 18.27a31.47 31.47 0 0 0 3.38-.52c17.15-3.66 21.48-20.91 21.48-20.91s-21.93-2-38-3.91c-5.78-.69-8.29 2.62-8.2 7.07ZM1323.21 709.51c-4.89 0-8.85 6.54-8.85 14.61s4 14.6 8.85 14.6 8.85-6.54 8.85-14.6-3.96-14.61-8.85-14.61Z" class="color8e1e00 svgShape"/><path fill="#ffffff" d="M1325.81 820.91a19.36 19.36 0 0 0-8.17 1.77c.13 8 8.54 19.52 21.34 18.27a31.47 31.47 0 0 0 3.38-.52 13.25 13.25 0 0 0 .78-4.49c0-8.3-7.76-15.03-17.33-15.03ZM2287.54 354.05c-87.59-41.5-190.86-48.77-283.41-20s-173.44 93.42-222 177.3c-25.52 44.08-42.5 95-36.68 145.65s38.08 100 86.42 116.06c-2 22.75 2.55 33.41-62.7 79.68A212.77 212.77 0 0 0 1885 814.9c9.91-6.91 19.9-14.95 31.9-16.34s23.58 4.18 34.79 8.72c113.94 46.14 244.91-7.55 341.93-83 72.15-56.14 139.56-140.4 121.18-230-13.16-64.13-68.09-112.2-127.26-140.23ZM3730.75 1020.31c-27-22-59.16-36.83-92.12-48-118.23-40.23-252.69-35-364.33 21S3076.67 1157 3054 1279.84c-6.81 36.88-7.85 76.18 7 110.63 24.72 57.46 92.06 79.11 149.21 104.55l.35.18a156.57 156.57 0 0 1-67 91.16 153.57 153.57 0 0 0 104.82-50.09c51.27 48.47 132.92 40.16 201.07 21.87 121.08-32.5 242.09-91.44 311.14-196.07s67.25-262.45-29.84-341.76Z" class="colorfff svgShape"/><path fill="#305284" d="M3575.91 1117c-21.1-13.65-47-18.32-77.08-13.9q-7.83 1.16-16 3.11a208.21 208.21 0 0 0-50.61 1.81c-35.06 5.42-60.63 16.39-79.14 28.66a127.32 127.32 0 0 0-34.49 10.63 142.92 142.92 0 0 0-22.51 13.13 166.54 166.54 0 0 0-28.82 1.46c20.72-21.4 48.21-40.72 78.82-55.24 16.51-7.84 34-15.07 50.85-22.06 50.88-21.06 103.5-42.85 139.59-84.86 45.36-52.8 54.93-133 23.27-195-32-62.65-104.34-106.47-188.83-114.38-79.08-7.4-157.45 14.13-224.69 34.89-15.07 4.65-30.38 9.52-45.19 14.24-78.43 25-159.52 50.77-242.45 55.9-63.85 4-130.42-5.08-192.52-26.11S2545.71 715 2497.41 673c-36.26-31.49-68.33-68.59-99.34-104.46-32.36-37.42-65.81-76.11-104.16-108.65-20.58-17.47-48.47-38.27-81.77-44.23-24.88-4.45-51-.07-74.07 3.78-64 10.71-136.59 22.84-195.38 60.84-42.27 27.32-46.62 55.21-45.45 69.4 1.12 13.52 8.33 26.08 20.31 35.37a63 63 0 0 0 30.09 12.59 91.19 91.19 0 0 0 28.43 35c25.57 18.63 56.85 21.37 78.57 20.39 53.29-2.41 100.73-29.24 123.79-70 11.93-21.08 16.54-47.46 12.66-72.39-4.06-26.07-16.75-48.29-35.73-62.56-20.13-15.15-49.12-19.62-75.66-11.69-21.41 6.41-38.11 19.83-46.83 37.37-14.26-2.47-29.57-.21-44.43 6.72-23.09 10.77-40.61 30.86-46.87 53.74-4.73 17.27-3.89 36.6 2.37 54.44.44 1.26.91 2.51 1.4 3.75a58.25 58.25 0 0 1-24.8-11.16c-10.88-8.43-17.43-19.76-18.43-31.9-1.08-13.11 3.11-39 43.24-64.9 57.93-37.44 130-49.49 193.52-60.12 23.78-4 48.36-8.09 72.41-3.78 32.15 5.74 59.35 26.07 79.47 43.13 38.06 32.3 71.39 70.85 103.62 108.13 31.13 36 63.31 73.23 99.84 105 48.77 42.37 107.69 76 170.38 97.23S2794.5 804.3 2859 800.31c83.54-5.17 164.92-31.07 243.63-56.12 14.8-4.71 30.1-9.59 45.15-14.23 66.8-20.62 144.61-42 222.8-34.69 82.83 7.75 153.69 50.56 184.93 111.73 30.77 60.28 21.47 138.23-22.63 189.56-35.32 41.13-87.4 62.69-137.75 83.54-16.94 7-34.45 14.26-51.08 22.15-33.34 15.82-63.07 37.27-84.65 61-52.86 10-99.61 45.75-122.88 94.36-8.19 17.09-11.42 32-9.89 45.55 4.16 37 40.17 62.27 107.05 75.2a146.52 146.52 0 0 0 24.76 2.84 136.68 136.68 0 0 0 29.55 26.12 104.44 104.44 0 0 0 50.29 21.34c3 .69 6 1.29 9.07 1.81a157.15 157.15 0 0 0 26.23 2.24c28.45 0 55-8.09 76.43-23.41a226.2 226.2 0 0 0 35.34-6.62c23.16-6.3 53.74-19.08 72.82-44.57a189.69 189.69 0 0 0 50.54-64.11c16.55-34.3 21.39-71.85 13.63-105.74-7.08-30.78-23.99-56.74-46.43-71.26ZM2081.1 441c25.08-7.5 52.41-3.33 71.33 10.9 18 13.51 30 34.6 33.83 59.41 3.72 23.86-.69 49.1-12.08 69.24-11.19 19.78-28.72 36.55-50.68 48.5a160.52 160.52 0 0 1-69.08 19c-21 .94-51-1.66-75.47-19.46a85.05 85.05 0 0 1-25.56-30.52 54.27 54.27 0 0 0 11-.74 68.51 68.51 0 0 0 30.32-13.71c17.08 13.63 42.44 16.5 61.87 6.26 17.85-9.42 28.12-29.07 27.47-52.58-.71-26.16-14.58-49.22-35.32-58.75a63.51 63.51 0 0 0-10.89-3.85c8.25-15.7 23.63-27.79 43.26-33.7Zm-46.54 41.16c.36-1 .73-1.95 1.14-2.91a59.79 59.79 0 0 1 11 3.78c19.07 8.76 31.81 30.13 32.48 54.44.59 21.61-8.71 39.6-24.87 48.12-17.46 9.21-40.17 6.82-55.75-5.12a87 87 0 0 0 26.41-44.62 197.43 197.43 0 0 0 3.67-23.13c1.18-10.2 2.43-20.8 5.92-30.52Zm-88.28 53.27c5.89-21.51 22.42-40.43 44.22-50.6 13.5-6.3 27.36-8.49 40.3-6.53-.29.73-.57 1.47-.84 2.21-3.67 10.24-5 21.12-6.2 31.64a195.16 195.16 0 0 1-3.57 22.55 82.59 82.59 0 0 1-25.53 42.45c-.6-.56-1.17-1.14-1.74-1.74-15.28-16.19-18.13-42.78-6.62-61.84l-4.18-2.53c-12.6 20.88-9.49 50 7.25 67.73.48.51 1 1 1.47 1.49a62.84 62.84 0 0 1-27.29 12.29 50.71 50.71 0 0 1-12.51.54c-7.83-18.09-9.92-38.74-4.76-57.62Zm1537 575.69a157.54 157.54 0 0 1 20.89 3.4c24.82 5.82 44.34 17.26 58 34 15.52 19 19.19 49.64 8.93 74.57a61.06 61.06 0 0 1-12.25 19.19 153 153 0 0 0-30.33-38.77 166.8 166.8 0 0 0-47.45-30.32c-10.45-7.17-28.95-15.9-56.91-15.34a70.48 70.48 0 0 0-11.87-10 65.22 65.22 0 0 0-5.85-3.52c5.7-3.39 11.33-6.54 16.8-9.46 20.92-11.12 41.03-19.08 59.99-23.71Zm11.92 74.37a161.43 161.43 0 0 1 30.06 21.63 147.5 147.5 0 0 1 29.94 38.64 45 45 0 0 1-24.7 10.68 59.21 59.21 0 0 1-11 .08c-.38-26.27-7.17-52.02-24.35-70.99Zm22.24 100.29q.6-4 1.05-8.09a20.86 20.86 0 0 1-1.1 8.13ZM3320.16 1370a41.72 41.72 0 0 1-11.83-14.79 550.44 550.44 0 0 0 80.78 5 81.717 81.717 0 0 1-3.92 3.51c-22.84 19.16-50.55 17.53-65.03 6.28Zm5.29 12.49-1.88.15-1.47.11-.84-1-1.34-1.62c1.7.74 3.4 1.47 5.13 2.18Zm-9.24-9.39-2.37-1.14c-.65-.94-1.28-1.9-1.89-2.87a43.93 43.93 0 0 0 4.26 4Zm-9.91-42.84c-.49-5.18-1-10.41-1.57-15.66l-.45-4.36v-.06a110.91 110.91 0 0 1 17.78-40.84 74.44 74.44 0 0 0 7.39 25.25 83 83 0 0 0 12.21 18c2.19 16.53 10.15 30.44 22.06 38.07a42.28 42.28 0 0 0 9.91 4.63 545.83 545.83 0 0 1-67.14-5.27c.92-6.34.51-13.02-.19-19.77Zm170.44-30.26a25.72 25.72 0 0 0 14 7.58 20.7 20.7 0 0 1-11.48 12.58 19.74 19.74 0 0 1-9.85 1.52 38.55 38.55 0 0 0 7.33-21.68Zm-2-30.14c11.17 2.67 16.46 13.86 17.6 23a34.18 34.18 0 0 1-.23 10l-.46-.08c-6.46-1.09-12.26-5.62-15.72-12.21a43.1 43.1 0 0 0-2.83-8.71 21.48 21.48 0 0 1 1.59-11.99Zm-10.4 50.65a29.88 29.88 0 0 1-9.75-5.91 29.59 29.59 0 0 0 3.5-7.58 48.85 48.85 0 0 0 5.16-3.68l2-1.6-1.66-1.9c-1.36-1.56-2.79-3.14-4.29-4.72a27.38 27.38 0 0 0-.56-3.38 25.26 25.26 0 0 0-1.29-4.08 54.83 54.83 0 0 0 5.65-13.14 47.13 47.13 0 0 1 5.32 8.73 31 31 0 0 0 2.56 8.22q.16.36.33.69a35.69 35.69 0 0 1 .55 4 33.72 33.72 0 0 1-7.57 24.36Zm-123.07-21.24c-.12 1.61-.17 3.23-.16 4.83a77.71 77.71 0 0 1-7.23-11.72 70.2 70.2 0 0 1-7.29-29.07 121.39 121.39 0 0 1 14.06-14.93c18.68-16.76 41.88-27.21 65.34-29.42 2.24-.22 4.64-.36 7.14-.4a128.72 128.72 0 0 1 18.82 26.78h-.35c-24.75-11.06-49.75-11.7-68.33-1.41-13 7.21-22.43 22.09-24 37.9a40.32 40.32 0 0 0 1.95 17.45Zm-14.57-43.72a88.4 88.4 0 0 1 6.06-26.48 101.14 101.14 0 0 1 19-30.69c18.14-.8 36.31 2.6 52.79 11.6q2.05 1.89 4 3.87c-1.05.06-2.07.15-3.07.24-24.49 2.31-48.69 13.2-68.15 30.65a128.1 128.1 0 0 0-10.68 10.82Zm123.77 50a90.54 90.54 0 0 0 .29-9.07c.48-.52.95-1 1.41-1.6.79.77 1.56 1.55 2.32 2.33a26.41 26.41 0 0 1-.64 6.63c-1.15.64-2.28 1.21-3.43 1.73Zm.87 5-.27.48-.22-.27Zm.08-23v-.66c.12.19.24.37.35.56l-.19.26a1.29 1.29 0 0 1-.21-.22Zm-.12-7.93a98 98 0 0 0-2.9-19 75.94 75.94 0 0 1 10.8 9.41 51.69 51.69 0 0 1-4.65 12.77 18.62 18.62 0 0 0-3.3-3.24Zm-5.11-26.37c-.34-1-.7-2-1.07-3 4.77.16 9.66.49 14.7 1a48.72 48.72 0 0 1 .35 12.83 89.33 89.33 0 0 0-14.03-10.89Zm-2.44-7.91a181.05 181.05 0 0 0 1.7-18.11c.82.59 1.62 1.22 2.39 1.89a35.52 35.52 0 0 1 10.83 17.13q-7.67-.78-14.97-.97Zm.35 42.37 1.32 1.09c.18 1.92.32 3.89.39 5.9-.59.61-1.19 1.21-1.8 1.79a22.2 22.2 0 0 1 .04-8.84Zm-.81-10c-.49.7-.94 1.42-1.36 2.16a76.13 76.13 0 0 0-5-3.33c1.12-3.92 2.18-8 3.16-12.14a115.19 115.19 0 0 1 3.5 12.83Zm-6.37-21.83c-1.19 5.93-2.64 12-4.34 18.11a68.49 68.49 0 0 0-9.67-4.33 42.39 42.39 0 0 0-11.1-17.26 146 146 0 0 1 18.82-2.07q2.46 1.13 4.92 2.4c.45 1.02.87 2.07 1.32 3.12Zm-8.1-25.23a83.83 83.83 0 0 1 8.88 14.61h-.32a137 137 0 0 0-8.61-14.64Zm-8.65 48.57c.58 4.74 1.33 20.58-13.33 25.32l-5.49 1.78 5.1 2.7a48.72 48.72 0 0 0 9.47 3.81 110.47 110.47 0 0 1-22.9 5 80.17 80.17 0 0 1-17.22.25c-4.64-5.37-5.93-12.9-3.52-21.18 3.27-11.22 13.74-23.5 27.42-25.23a45.77 45.77 0 0 1 19.32 1.83 38.64 38.64 0 0 1 1.1 5.69Zm-26.6 43.49a115.74 115.74 0 0 0 23.07-5c-1.39 3.14-2.83 6.27-4.35 9.34-1.82.08-3.63.12-5.41.13-8.52.09-17.21-.39-24.17-3.87a96.32 96.32 0 0 0 10.81-.63Zm19.92-15.84c8.73-5.25 13.08-15.59 11.53-28.24-.13-1-.29-2.07-.5-3.11a68.56 68.56 0 0 1 6.67 3.27c-2.34 7.82-5.08 15.74-8.22 23.66-.85 2.14-1.71 4.3-2.59 6.46a45.45 45.45 0 0 1-6.94-2.07Zm14-2.62c2.64-6.68 5.43-14.4 8-22.84 1.5 1 3 2 4.41 3a27.58 27.58 0 0 0-.13 15.68 73.33 73.33 0 0 1-14.15 8.76c.62-1.54 1.23-3.09 1.85-4.63Zm14 .72c.49 1.1 1 2.19 1.65 3.26a48.7 48.7 0 0 1-8.8 1.54 73.79 73.79 0 0 0 7.15-4.83Zm-1.88-66.55a84.27 84.27 0 0 0-14.19-19 49 49 0 0 1 15.19 4.81c-.12 4.54-.46 9.28-1 14.16Zm-95.49 43.94c1.39-14.25 9.81-27.64 21.47-34.09a57 57 0 0 1 27.82-6.72 84.34 84.34 0 0 1 26.91 4.69 134.87 134.87 0 0 0-13.83 2.22 28.35 28.35 0 0 0-12.64-4c-12-.83-23.48 3.65-33.18 12.95a64.74 64.74 0 0 0-16.72 27.57c.05-.9.05-1.77.17-2.65Zm54.75-32a101.47 101.47 0 0 0-33.06 15.87 66.77 66.77 0 0 0-16.12 17 59.25 59.25 0 0 1 14.36-22.26c5.67-5.44 14.84-11.69 27-11.69.82 0 1.64 0 2.48.09a23.54 23.54 0 0 1 5.34.94Zm-30.16 19.8a99.06 99.06 0 0 1 36.87-16.48 34.35 34.35 0 0 1 11.35 14.24 49.27 49.27 0 0 0-17.89-1c-13.92 1.76-27.17 13.83-31.51 28.71-2.31 7.94-1.73 15.37 1.52 21.41a35.56 35.56 0 0 1-15-7.21 27.28 27.28 0 0 1-6.54-8.06c1.78-12.96 11.66-24.63 21.2-31.66Zm-17.77 43.36c5.86 4.93 13.37 8 22.46 9.23.49.48 1 .94 1.54 1.39 8.68 7.2 20.49 8.1 31.93 8h2.82c-1.78 3.33-3.67 6.6-5.69 9.76q-36.08-9.32-55.91-29.49a25.5 25.5 0 0 1-.42-2 31.79 31.79 0 0 0 3.27 3.06Zm58 35c-1.55.65-3.12 1.21-4.7 1.71l1.18-1.68c1.2-.09 2.37-.1 3.58-.13Zm-24-7.52c-9.25-2.32-22.45-7.11-30.53-16.52a119.9 119.9 0 0 0 30.59 16.42Zm4.72 6a88.35 88.35 0 0 0 9.93 1.27q-1.38 1.88-2.85 3.69c-11.06 1.79-22 0-30.38-5.36a42.15 42.15 0 0 1-15.52-18.82c10.98 12.54 29.7 17.45 38.83 19.16Zm6.43 13.16q9-.22 18-.73c-10.91 7.55-23.7 12.52-37.46 15.92a67.66 67.66 0 0 0 11.67-7.81 90.57 90.57 0 0 0 7.8-7.44Zm9.35-5.2a61.7 61.7 0 0 0 9.45-3.82c.85-.43 1.7-.87 2.52-1.34 2.28.43 4.59.82 6.94 1.19q-1.64 1.6-3.36 3.1-7.76.5-15.54.81Zm14.07-12.21c-2.8.38-5.63.65-8.47.78l-2-.45c2.26-3.64 4.36-7.4 6.32-11.23a80.43 80.43 0 0 0 18.28-3 57.59 57.59 0 0 1-14.12 13.84Zm9.56 3.15-.65.76-1.67-.25c.79-.22 1.56-.41 2.33-.57Zm1.25 6c2.32.31 4.66.59 7.05.84q-4.3.43-8.62.8c.54-.65 1.07-1.2 1.58-1.75Zm-.61-11.1a64 64 0 0 0 10.4-12.86 68.42 68.42 0 0 1-6.29 11.71c-1.34.35-2.71.69-4.1 1.04Zm8.12-18.71c-6.12 2.79-13 4.12-20 4.72 1.79-3.73 3.47-7.52 5.07-11.32.69-.28 1.37-.56 2.06-.86a54.21 54.21 0 0 0 16.66-1 67.46 67.46 0 0 1-3.78 8.37Zm9.53 0a35.62 35.62 0 0 0 3.82-3.28l.26-.27a34.21 34.21 0 0 0 9.32 6c-.52.51-1.05 1-1.6 1.5a63 63 0 0 1-18 11 74.28 74.28 0 0 0 6.21-15.04Zm3.62-96.65a41.88 41.88 0 0 0-5.45-4v-2.56c-.27-21.06-5.06-38.49-14.29-52.12a132 132 0 0 1 28.83 4.47 147.82 147.82 0 0 1 18.63 6.36l.37.27c18.83 13.29 30.69 34.89 34.3 62.45a143.85 143.85 0 0 1 1.16 15.78c-5.9-.8-11.78-2.13-17.57-3.43l-3.52-.79a294.17 294.17 0 0 0-29.66-5.08 40.61 40.61 0 0 0-12.78-21.43Zm-10.35-6.58a60.37 60.37 0 0 0-21.42-5c-1.91-1.53-3.88-3-5.93-4.29q-2.85-1.86-5.85-3.5a170.45 170.45 0 0 0-35.14-25 87.16 87.16 0 0 1 15.58-7.71 109.46 109.46 0 0 1 37.25-6.77c10.03 13.22 15.23 30.68 15.52 52.19Zm-66.84-51.27c-1.07.36-2.13.73-3.19 1.11a348.7 348.7 0 0 1 30.89-21.26 64.67 64.67 0 0 1 8.06 4.59 67.57 67.57 0 0 1 7.92 6.24 172.85 172.85 0 0 0-43.67 9.24Zm1.58 4.62q5.67-1.94 11-3.43l-.24.09a92.92 92.92 0 0 0-18.88 9.71 157.6 157.6 0 0 0-3.94-1.89c3.97-1.69 7.99-3.16 12.07-4.56Zm-7.71 12a167.54 167.54 0 0 1 23.74 14.79 110.21 110.21 0 0 0-34.93-5.54 98 98 0 0 1 11.2-9.3Zm-18.24 9.51q-3.87.22-7.78.68c5.09-5.25 10.41-10.25 15.88-15q2.63 1.14 5.21 2.37a103.63 103.63 0 0 0-13.3 11.9Zm-15.61 1.85-.8.15q-4.92.91-9.78 2.18a205.7 205.7 0 0 1 19.89-11.89q-4.76 4.58-9.3 9.51Zm-25.12 6.94-.94.36a114.21 114.21 0 0 1 10.41-23.48 103.44 103.44 0 0 1 7-10.38 171.26 171.26 0 0 1 25.78 7.69 209.33 209.33 0 0 0-42.24 25.76Zm2.16 4.53a142.45 142.45 0 0 1 17.51-5.32 188.88 188.88 0 0 0-27.43 41.67 170.22 170.22 0 0 1 4.35-31.69c1.83-1.63 3.72-3.18 5.58-4.7Zm25.43-6.93c2.85-.49 5.7-.88 8.57-1.17a106.08 106.08 0 0 0-16.7 28.41 91.1 91.1 0 0 0-6.56 34.4 119.36 119.36 0 0 0-18.67 34.8c-1.26-13.43-2.23-26.88-2.28-40.1 8.15-21.21 20.74-39.95 35.65-56.39Zm-33.86 162.36q1.38 2.63 2.88 5.17c-1.53-.82-3-1.67-4.54-2.52a31.07 31.07 0 0 0 1.67-2.7Zm82.5 15.62c15.38-4.57 27.94-10.92 38-19.24q20.19-1.48 40.3-4.44l-.28-4.86q-15.21-.51-28.77-2.15l.86-1.09c.66-.86 1.3-1.74 1.93-2.62 9.87-3.24 18.73-8 25.48-14.08a48.54 48.54 0 0 0 3.53-3.49 25.15 25.15 0 0 0 15.29-1.39c7.14-3 12.25-9.09 14.66-16.79a27.23 27.23 0 0 0 12.9-4.1q-1.77 7-4.07 14c-10.88 32.89-26 58.81-45.13 77.11a232.22 232.22 0 0 1-27.85 2.43 257.68 257.68 0 0 1-84.21-12 225.9 225.9 0 0 0 37.37-7.38Zm112.13-75.14a39.18 39.18 0 0 0 .08-10.67c-1.85-14.81-11-25.62-23.39-27.53l-1.65-.25-.84 1.44a24.17 24.17 0 0 0-2.86 7.76 60.21 60.21 0 0 0-4-5.15 54.67 54.67 0 0 0 .36-16.74q13.24 1.62 27.65 4.82l3.51.78c6.12 1.39 12.35 2.79 18.66 3.6a183.55 183.55 0 0 1-4 35.39 24 24 0 0 1-13.51 6.5Zm-64.06-190a211.11 211.11 0 0 1 35.15-2.53 284.26 284.26 0 0 0-47.22 20.27c-6.42 3.43-13 7.17-19.77 11.24a82.05 82.05 0 0 0-32.52-6.35c-1.46 0-2.93 0-4.42.1 17.13-9.86 39.56-18.3 68.79-22.82Zm-78.07 28.5c14.77-2.09 28.82-.87 41.05 3.67a337.06 337.06 0 0 0-39.34 28.64 175.69 175.69 0 0 0-28-9 127.58 127.58 0 0 1 26.3-23.4Zm-34.24 10.4a127.94 127.94 0 0 1 22.89-8.18 128.1 128.1 0 0 0-20.38 20 174.72 174.72 0 0 0-19.08-2.65 136.54 136.54 0 0 1 16.58-9.26Zm-23.08 13.64a167.59 167.59 0 0 1 22.25 2.51c-2.34 3.2-4.29 6.21-5.91 8.95a121.11 121.11 0 0 0-12 28.34 149.88 149.88 0 0 0-43.86 28.93 110.67 110.67 0 0 0-21.91 29.16 163.69 163.69 0 0 1 5-18.89c10.83-32.68 30.83-60.38 56.44-79.09Zm-49.25 155A123.26 123.26 0 0 1 3233 1294q0-4.12.24-8.27c3.43-17.69 14.82-35.35 28.18-48.08a144.67 144.67 0 0 1 34.57-24.16 163.27 163.27 0 0 0-30 38.32 139.16 139.16 0 0 0-17.63 68.56Zm.5 10.57a45.28 45.28 0 0 1-10.63-12.06 41.59 41.59 0 0 1-4.56-10.79c-.06-.58-.11-1.17-.16-1.76a136 136 0 0 0 15.17 22.28c.06.66.12 1.44.19 2.21Zm21.41-76.72a158 158 0 0 1 28.76-36.85 201.53 201.53 0 0 0-3.28 38.16 152 152 0 0 0-6.05 20c-5.34 23.35-2.78 49.34 6.36 72.86a149.31 149.31 0 0 1-28.38-7.12 156.65 156.65 0 0 1-14.25-14.63 134 134 0 0 1 16.85-72.54Zm28.82 88.37c-7.55-21.51-9.44-44.84-4.63-65.92q.75-3.29 1.65-6.5c.59 13.23 1.88 26.57 3.23 39.82a86.18 86.18 0 0 0-.24 32.48Zm-1.88 11 1 .17c.46 1 .94 2.1 1.43 3.15q-.29.69-.6 1.38a28.18 28.18 0 0 1-2.54 4.32 191.51 191.51 0 0 1-19-13 193.87 193.87 0 0 0 19.72 3.84Zm-35.32-185.86c1.18-.21 2.36-.41 3.55-.59a160.43 160.43 0 0 1 24.34-1.89c-24.09 19.17-42.83 46.2-53.24 77.63a165.59 165.59 0 0 0-7.91 38.71 102.31 102.31 0 0 1-2.77-13c-4.73-32.69 5.9-64.89 31.57-95.7q2.17-2.73 4.47-5.3Zm-27.32 205.81c-64.53-12.48-99.22-36.35-103.12-71-1.42-12.62 1.67-26.65 9.45-42.89 21.68-45.3 64.35-79.11 113.13-90.36l-.36.42c-26.22 31.47-37.51 65.89-32.64 99.53a107.32 107.32 0 0 0 6.39 24 51.45 51.45 0 0 0 1.42 15.71 136.24 136.24 0 0 0 15.45 51.55 121.53 121.53 0 0 0 10.08 15.62 151.62 151.62 0 0 1-19.79-2.72Zm26.15 2.78a117.54 117.54 0 0 1-12.13-18.14 127.53 127.53 0 0 1-12.3-33.34 53 53 0 0 0 13.33 12.77 116.14 116.14 0 0 0 12.4 38.7Zm-5.65-35.38a83.91 83.91 0 0 0 10 4.65 190.68 190.68 0 0 0 28.16 20.75c-6.41 6.1-15.66 8.9-25.81 9.72a109.54 109.54 0 0 1-12.34-35.26Zm84.6 83a149.33 149.33 0 0 1-49-20.7 93 93 0 0 1-19-20.37c-.49-.72-1-1.45-1.45-2.19 11.91-1.35 21.12-5.29 27.37-11.77q6.26 3.6 12.92 6.88 2.64 3.81 5.56 7.41l-1.53.11 2.72 1.33.24.28c17.44 20.68 39.47 32.67 62.94 34.49a84.28 84.28 0 0 1-40.76 4.4Zm29.59 3.79a80 80 0 0 0 23.11-8.51l9.2-5.16-10.53.58c-22.37 1.24-43.92-7.3-61.67-24.24a235.84 235.84 0 0 0 110.41 19.74c-20.28 12.12-44.64 18.22-70.51 17.46Zm78.9-23.18a231.17 231.17 0 0 1-114.93-17.79l2.68-.24a263.35 263.35 0 0 0 96 15.71q10.72-.29 21.21-1.52-2.43 1.87-4.95 3.71Zm35.88-6.62a219.72 219.72 0 0 1-26.55 5.48c1-.88 2.07-1.78 3.07-2.7l1.3-1.19a210.17 210.17 0 0 0 73.54-25.64c-16.39 12.31-35.63 19.64-51.39 23.92Zm70.54-43.26a172.82 172.82 0 0 1-21.47 14.89 203.31 203.31 0 0 1-65.25 24c17.38-18.46 31.33-43.36 41.52-74.19a202.65 202.65 0 0 0 5.61-20.51c6.6-6.83 9.57-15.86 8-24.18l-4.27.83c.44-4.65.71-9.33.79-14a65 65 0 0 0 11.5-.11 49.74 49.74 0 0 0 26.49-11.09 134.56 134.56 0 0 1 9.38 24.62c5.17 19.22 7.91 47.68-8.39 74.08q-1.87 2.79-3.9 5.53Zm49.7-62.83a184.94 184.94 0 0 1-37.39 51.88c14.9-30.72 9.82-66.39-5.64-96.85a65.51 65.51 0 0 0 14.36-21.87c11.09-26.94 7.2-58.9-9.67-79.52-14.39-17.6-34.81-29.6-60.7-35.67-2.47-.58-5-1.11-7.54-1.57l1.84-.28c28.84-4.25 53.64.18 73.71 13.16 21.39 13.83 37.53 38.69 44.29 68.2 7.53 32.68 2.82 69.09-13.25 102.39Z" class="color305284 svgShape"/><path fill="#ffffff" d="M2997 2414.06c-67.27-14.16-86.74.81-127.46-10.62-31.4-8.8-78.05 4.39-93.91 29.55a25.36 25.36 0 0 0 8.14 35c14.6 9.13 41.95 21.72 84 23.93 67.27 3.54 118.61 0 162.87 8.85s33.6-72.54-33.64-86.71Z" class="colorfff svgShape"/><path fill="#e2d3c9" d="M3022.15 2377.33c-25.49-16.37-54.85-25.85-84.52-32-25-5.19-52.31-7.85-75 3.87-14.56 7.52-25.66 20.19-36.39 32.57l-17.88 20.63-6.59 3.27c14.46-7.62 32.21-4.76 47.62.68s30.19 13.34 46.39 15.49c12.93 1.72 26-.32 39-.91 27.33-1.23 55.75 4.44 77.81 20.62s36.5 44 32.23 71.06c-.73 4.59-1.52 10.32 2.32 12.94 3.07 2.09 7.27.7 10.5-1.14 12.73-7.26 21.32-20.65 24.51-35s1.33-29.4-3.36-43.28c-9.66-28.66-31.14-52.43-56.64-68.8Z" clip-path="url(#r)" class="colore2d3c9 svgShape"/><path fill="#fe9226" d="M2941.69 1650c-80.55-34.51-157.52-26.55-157.52-26.55-10.81-6.2-119.38 34.18-156.56 53.65-37.76 19.78-65.17 133.12-65.17 133.12s52.23 17.7 78.78 49.57 63.78 293.88 63.78 293.88 52.28 85 135.9 65.5 124.81-53.11 124.81-53.11l15.46-301s33.64-33.64 76.12-44.26c-25.38-100.86-35.05-136.28-115.6-170.8Z" class="colorfe9226 svgShape"/><g clip-path="url(#s)" fill="#000000" class="color000 svgShape"><path fill="#e56f05" d="M2703.52 2088.5a334.29 334.29 0 0 1-7.55-85.57c.8-19.4 3.26-39.21-1.77-58-4.64-17.32-15.39-32.53-19.94-49.87-12.47-47.48 23.73-95.9 17.93-144.65-.7-5.84-2.6-12.4-7.93-14.87l-4 61.83c-.88 13.76-4.56 31-18 33.86-7.82 1.68-15.54-2.58-22.48-6.54-15.68-9-32-17.25-49.51-21.5s-36.61-4.17-53.08 3.23l2.67-.69-11.43 36.43c-1.52 4.85-3.06 10-2 14.94s4.44 8.82 7.88 12.39c18.44 19.13 41.8 33.27 58.7 53.77 33.49 40.64 35.65 97.52 47 148.94a386 386 0 0 0 33.52 93c3.58 7 9.52 14.91 17.2 13.39 3.07-.61 5.63-2.7 7.77-5 10.19-10.81 13.64-26.54 13-41.38s-4.78-29.21-7.98-43.71ZM3107 1812.71l2.67.69c-16.47-7.41-35.53-7.48-53.08-3.23s-33.83 12.55-49.5 21.49c-7 4-14.67 8.23-22.49 6.55-13.48-2.9-17.16-20.1-18-33.87l-4-61.83c-5.34 2.48-7.24 9-7.94 14.88-5.8 48.75 30.4 97.16 17.93 144.65-4.55 17.34-15.3 32.55-19.94 49.87-5 18.75-2.57 38.56-1.77 57.95a333.85 333.85 0 0 1-7.55 85.57c-3.2 14.51-7.39 28.93-8 43.77s2.85 30.57 13 41.39c2.15 2.27 4.7 4.37 7.77 5 7.68 1.51 13.62-6.43 17.2-13.4a385.49 385.49 0 0 0 33.52-93c11.35-51.42 13.51-108.31 47-148.94 16.9-20.5 40.26-34.65 58.7-53.77 3.44-3.57 6.83-7.54 7.88-12.39s-.46-10.1-2-14.95ZM2935 1621.88a331.94 331.94 0 0 0-200.5-11.89c-12.39 3.17-26 8.21-31.35 19.82l2.89 4.8c29 45.36 69.27 91 122.86 96 8.52.8 56-23.22 65.05-29.17 23.91-15.76 45.8-38.35 50-66.67a12.53 12.53 0 0 0-.2-6.15c-1.27-3.55-5.18-5.36-8.75-6.74Z" class="colore56f05 svgShape"/></g><path fill="#49322c" d="M2531.14 2199.4h570.71l19.49-343.84h-616.79l26.59 343.84z" class="color49322c svgShape"/><g clip-path="url(#t)" fill="#000000" class="color000 svgShape"><path fill="#604640" d="M3166.8 1866.47a86.1 86.1 0 0 0-31.41-24.24 100.71 100.71 0 0 0-61.85-7.34l-10-7.14c-4.66 37.29-24.1 71.67-49.91 99s-57.74 48.12-90.79 66a702.07 702.07 0 0 1-151.41 60.36c-90.47 24.35-189.19 32-265.3 86.66-6.22 4.46-12.48 9.51-15.54 16.53s-2.51 15-1.58 22.61c3 24.42 9.65 49.22 25.12 68.35 25.54 31.56 69.24 41.32 109.73 44.25 44.3 3.21 88.81.68 133.08-2.9q99.56-8 198.37-23.11c47.18-7.2 94.6-15.71 138.84-33.65 20.87-8.47 41.79-19.76 54.24-38.53 9.12-13.75 12.87-30.28 16.44-46.39 15.75-71 31.6-143.53 23.91-215.85-2.42-22.93-7.64-46.52-21.94-64.61Z" class="color604640 svgShape"/></g><path fill="#ffffff" d="M2820.73 1952.28a75.69 75.69 0 1 0 75.69 75.69 75.78 75.78 0 0 0-75.69-75.69Zm0 146.49a70.8 70.8 0 1 1 70.81-70.8 70.88 70.88 0 0 1-70.81 70.8Z" class="colorfff svgShape"/><path fill="#7a1c0c" d="M2840.86 1264.51s-101.38-14.6-129.26 54.44-22.6 92.71-14.6 145.27 11.15 87.09-6.38 95 27.29 23.44 36.09 15.71-2.27 2.65 15.88 2.1 30.09 16.72 48 7.42 70-9.75 95.06-9.52 22-2.89 40.15 0 19.47-9.07 34.08-10.39-17.27-23.85 0-85 .95-215.03-119.02-215.03Z" class="color7a1c0c svgShape"/><path fill="#511007" d="M2857.81 1319.13s-91.48-38.68-125.42 18.49c-32.94 55.49-24.83 98.25-17.71 145.18s10 77.75-5.7 84.87 24.37 20.92 32.22 14-2 2.37 14.18 1.88 26.87 14.92 42.88 6.62 62.46-8.71 84.87-8.5 19.65-2.58 35.85 0 17.39-8.1 30.43-9.28-15.41-21.29 0-75.85-11.26-211.54-91.6-177.41Z" clip-path="url(#u)" class="color511007 svgShape"/><path fill="#ffaeae" d="M2921.67 1462.65c1.34-22.74 1-44.56 1-44.56s-50.46-28.33-65.5-64.62c-19.48 37.18-122.16 81.44-122.16 81.44s1.5 10.45 5.23 25.11c-4.21-1-9-.68-12.31 4.2-7.08 10.52 17.22 37.32 27.2 38.53 6.59 14.08 15.09 27.41 25.91 36.61 3.31 2.81 6.48 5.47 9.56 8 2.49 18.89 4.29 45.68-3.36 56.62-12.39 17.7-44.7 29.21-44.7 29.21s68.63 87.63 86.32 86.74 68.14-75.23 69.91-80.54-27.44-24.79-28.33-37.19c-.49-7-1.27-23.46-1.86-36.56 22-14.87 39.71-39.51 47-60.7.35-1 .68-2.13 1-3.3 11.15-5.35 30.15-28 23.78-37.42-5.19-7.78-14.31-4.04-18.69-1.57Z" class="colorffaeae svgShape"/><g clip-path="url(#v)" fill="#000000" class="color000 svgShape"><path fill="#f47171" d="M2859.09 1312.49c-3.45-.27-6.61 1.78-9.44 3.77-42.64 30-81.05 66.7-127.84 89.74l2.91.53c5 7-5.08 23.61 1.31 29.35 3.78 3.39 17.45-1.94 22.51-2.4 12.19-1.11 23.62-6.21 34.78-11.25a245.48 245.48 0 0 0 34.61-18.72c5.18-3.45 22.74-19.88 28.15-23.76 5.85 14 19.92 22.48 33.51 29.18 17.44 8.59 37.21 15.94 56 10.82a459.41 459.41 0 0 0-67.09-101c-2.59-2.88-5.56-5.96-9.41-6.26ZM2742.29 1475.15c-1.19-1.24-3.34-2.4-4.36-1a2.86 2.86 0 0 0-.15 2.42 19.82 19.82 0 0 0 7.51 10.88c1.12.8 2.61 1.5 3.81.82 1.39-.79 0-4.92 0-4.92a77.19 77.19 0 0 0-6.81-8.2ZM2931.83 1468.19c-1.06-.31-2.12.43-2.94 1.17a27.69 27.69 0 0 0-8.6 15.66s.44.84 2 .57a8.19 8.19 0 0 0 3.92-2.44c3.51-3.28 7.29-7.14 7.26-12-.01-1.15-.47-2.61-1.64-2.96ZM2796.52 1550.9l-8.06-2.62c-3.48-1.39-6 3.38-6.89 7a105.8 105.8 0 0 1-16 35.44c-2.06 3-4.39 6.13-4.28 9.74.19 6.3 7.22 9.77 13.17 11.85l22.68 7.92c8.93 3.11 18.27 6.27 27.63 4.94 17.61-2.52 29.59-19.9 46.61-25.09-2.32-12-.25-24.33 1.48-36.48-24.03 11.62-57.51 6.19-76.34-12.7ZM2780.36 1469.78a17.73 17.73 0 1 0 17.73 17.73 17.72 17.72 0 0 0-17.73-17.73ZM2889 1466.7a17.73 17.73 0 1 0 17.73 17.73 17.72 17.72 0 0 0-17.73-17.73Z" class="colorf47171 svgShape"/></g><path fill="#8e1e00" d="m2806.53 1414.55-31.87 17.26a69 69 0 0 0 31.87-17.26ZM2898.89 1423.18l-31.28-12s13.39 11.34 31.28 12ZM2843.64 1476.19c-4.33-2.6-4.44-13-4.14-16.42a2.44 2.44 0 0 0-4.87-.44c-.15 1.67-1.24 16.41 6.49 21.05 1.12.67 1.17 1.24 1.19 1.49.16 1.83-2.43 5-4.23 6.5a2.44 2.44 0 0 0 3.17 3.72c.66-.55 6.35-5.56 5.93-10.63a6.66 6.66 0 0 0-3.54-5.27ZM2836.29 1516.17c-7.85 3.21-16.25 8.29-10.84 14a2.77 2.77 0 0 0 .24.25c6.81 6.71 14.86 7.58 20.41 5.17a11.27 11.27 0 0 0 5.74-5.17 8.79 8.79 0 0 0 .89-3.8c.15-8.28-8.79-13.62-16.44-10.45Z" class="color8e1e00 svgShape"/><path fill="#ffffff" d="M2835.27 1525.27c-4.3 0-8 2-9.82 4.9a2.77 2.77 0 0 0 .24.25c6.81 6.71 14.86 7.58 20.41 5.17a6.46 6.46 0 0 0 .15-1.46c0-4.89-4.91-8.86-10.98-8.86Z" class="colorfff svgShape"/><path fill="#8e1e00" d="M2790.58 1447c-3.54 0-6.41 5.23-6.41 11.68s2.87 11.68 6.41 11.68 6.41-5.23 6.41-11.68-2.87-11.68-6.41-11.68ZM2885.66 1446.42c-3.54 0-6.41 5.22-6.41 11.68s2.87 11.68 6.41 11.68 6.4-5.23 6.4-11.68-2.86-11.68-6.4-11.68Z" class="color8e1e00 svgShape"/></svg>