<svg xmlns="http://www.w3.org/2000/svg" viewBox="0 0 4500 2999.66"><defs><clipPath id="a"><rect width="372.78" height="462.9" x="3701.1" y="1216.28" fill="none" transform="matrix(-.99 -.17 .17 -.99 7477.25 3526.7)"/></clipPath><clipPath id="b"><rect width="372.78" height="462.9" x="994.87" y="1291.95" fill="none" transform="matrix(.99 -.17 .17 .99 -238.67 219.59)"/></clipPath></defs><g data-name="1" fill="#000000" class="color000 svgShape"><g data-name="4" fill="#000000" class="color000 svgShape"><g data-name="1" fill="#000000" class="color000 svgShape"><path fill="#f0ebff" d="M694.16,2605.5s-410.3-106.68-369.27-410.3,213.36-344.65,73.85-574.42-279-459.53-131.29-705.71S448,685.3,661.34,488.36s705.71,131.29,1017.54,32.82,319.69-213.35,664.34-151.81c352.86,63,468.08,315.93,812.73,192.84S3664.73,275,3902.7,398.09s418.5,402.1,352.86,656.48-229.77,270.8-123.09,443.12S4321.2,1588,4288.38,1949s-339.18,683.83-503.3,700.25S981.37,2695.77,694.16,2605.5Z" data-name="11" class="colorf0ebff svgShape"/><g data-name="10" fill="#000000" class="color000 svgShape"><path fill="#2469ce" d="M3117.61,853.69,2862.14,2356a90.14,90.14,0,0,0,73.74,104l985.4,167.56a90.1,90.1,0,0,0,104-73.74l255.47-1502.31a90.12,90.12,0,0,0-73.74-104L3221.57,780A90.12,90.12,0,0,0,3117.61,853.69Z" class="color2469ce svgShape"/><path fill="#ffffff" d="M3163.17,951.11l-225.83,1328A90.08,90.08,0,0,0,3011.05,2383l864.7,147a90.18,90.18,0,0,0,104-73.7l225.83-1328a90.12,90.12,0,0,0-73.74-104L3267.09,877.36A90.12,90.12,0,0,0,3163.17,951.11Z" class="colorfff svgShape"/><path d="M3117.6,853.69,2862.13,2356a90.13,90.13,0,0,0,73.75,104l985.39,167.57a90.1,90.1,0,0,0,79-25.26c-17.61-25.21-39.29-53.47-62.2-84.3a89.56,89.56,0,0,1-62.32,12.1l-864.7-147a90.08,90.08,0,0,1-73.71-103.92l225.83-1328a90.12,90.12,0,0,1,103.92-73.75l7,1.18c12-34.65,27.43-61.53,43.49-82.27l-96-16.32A90.14,90.14,0,0,0,3117.6,853.69Z" style="mix-blend-mode:multiply" fill="#7b4fc9" opacity=".59" class="color7b4fc9 svgShape"/><path fill="#f95d6c" d="M3476.33,704.75l-25.75,151.44,518.69,88.21L3995,793l-57-9.69,12.52-73.62L3550,641.53l-12.52,73.62ZM3677.52,746a60.76,60.76,0,1,1,49.72,70.09A60.77,60.77,0,0,1,3677.52,746Z" class="colorf95d6c svgShape"/><path fill="#7b4fc9" d="M3416,1396.63l0-.5S3416,1396.3,3416,1396.63Z" class="color7b4fc9 svgShape"/><rect width="372.78" height="462.9" x="3701.1" y="1216.28" fill="#f0ebff" transform="matrix(-.99 -.17 .17 -.99 7477.25 3526.7)" class="colorf0ebff svgShape"/><rect width="905.32" height="69.64" x="3229.65" y="1029.15" fill="#e0d1fc" transform="rotate(-170.35 3682.296 1064.003)" class="colore0d1fc svgShape"/><g clip-path="url(#a)" fill="#000000" class="color000 svgShape"><path fill="#e0d1fc" d="M3723.71,1647.51s18.2,105.84,84.2,149.35,118.4-28.79,130.22-52.21-2.48-66-2.48-66-13-10-6.71-35.39-117.56-85.55-152-84.56c0,0,0,1.08,0,3-.06,9.36-1.39,38.74-14.79,55.2-9.55,11.74-21.3,20.33-29.29,25.4A103.4,103.4,0,0,1,3723.71,1647.51Z" class="colore0d1fc svgShape"/><path fill="#b2a3e2" d="M4046.36,1384.34s8.77,34.77,8.53,59.19-28.52,41.14-28.52,41.14-3.53-82.8-13.19-89.33S4046.36,1384.34,4046.36,1384.34Z" class="colorb2a3e2 svgShape"/><path fill="#e0d1fc" d="M3764.5,1524.52a178.69,178.69,0,0,0,6.66,24.61c.35,1,.7,2,1.08,2.9,12.26,31.45,52.63,53,64,60.8,5.61,3.84,22.51,15.05,40,25.52h0l0,0c18,10.78,36.61,20.77,44,21,14.59.53,33-4.16,50.69-27.58s51.84-92,60.7-184.42a243.69,243.69,0,0,0,.53-42.93c-4.83-59.82-33.1-82-33.1-82-86-57.15-142.55-45.8-178.91-14.56-37.21,32-53.2,84.91-57.86,106.41C3755.4,1446.61,3757.63,1491.18,3764.5,1524.52Z" class="colore0d1fc svgShape"/><path fill="#b2a3e2" d="M3748.64,1443.31s-8.42,3.46-4.08,35.51c3.23,23.93,14.46,39.39,19.94,45.7a41.7,41.7,0,0,0,3.05,3.22s1.8-16.32,11.52-27.4.53-20.45-2.6-30.77,3.15-41.53,24.37-34,11.23,60.62,11.23,60.62l25,2.31a51,51,0,0,0,.55-20.47c-2-11.1,16.39-67.66,16.39-67.66a13,13,0,0,0,14.84,5,21.34,21.34,0,0,0,5.3-2.55c13.2-8.53,13.08-25.18,32.28-22.89s77.15,23.88,107.3,19.22a97.4,97.4,0,0,0,18.48-4.66c25.27-9.21,49-31.64,40.66-84.13-10.42-65.38-74.89-43.07-74.89-43.07-46.46-49-77.4.54-77.4.54l-9.94-10.49c-10-10.51-23.66,6.75-23.66,6.75s5.62-21.56-32.11-24.07c-37.22-2.46-30.17,42.53-30,43.81-.27-.3-3.53-3.55-11.39-3.66a29.13,29.13,0,0,0-3.65.14c-10.37,1-5.22,9.1-4.68,9.94-.78-.58-11.23-7.55-35,16.59-24.82,25.14-11.1,48-11.1,48l-14.85,29.76C3729.36,1424.38,3748.64,1443.31,3748.64,1443.31Z" class="colorb2a3e2 svgShape"/></g><rect width="524.35" height="57.35" x="3312.79" y="1725.09" fill="#f0ebff" transform="rotate(-170.35 3574.946 1753.79)" class="colorf0ebff svgShape"/><rect width="426.04" height="28.68" x="3579.62" y="1879.2" fill="#f0ebff" transform="rotate(-170.35 3792.616 1893.565)" class="colorf0ebff svgShape"/><rect width="426.04" height="28.68" x="3082.88" y="1794.73" fill="#f0ebff" transform="rotate(-170.35 3295.881 1809.091)" class="colorf0ebff svgShape"/><rect width="426.03" height="28.68" x="3567.26" y="1951.89" fill="#f0ebff" transform="rotate(-170.35 3780.256 1966.26)" class="colorf0ebff svgShape"/><rect width="426.04" height="28.68" x="3070.52" y="1867.42" fill="#f0ebff" transform="rotate(-170.35 3283.516 1881.782)" class="colorf0ebff svgShape"/><rect width="426.03" height="28.68" x="3554.89" y="2024.59" fill="#f0ebff" transform="rotate(-170.35 3767.891 2038.951)" class="colorf0ebff svgShape"/><rect width="426.04" height="28.68" x="3058.16" y="1940.11" fill="#f0ebff" transform="rotate(-170.35 3271.157 1954.477)" class="colorf0ebff svgShape"/><rect width="426.04" height="28.68" x="3542.53" y="2097.28" fill="#f0ebff" transform="rotate(-170.35 3755.532 2111.646)" class="colorf0ebff svgShape"/><rect width="426.03" height="28.68" x="3045.8" y="2012.81" fill="#f0ebff" transform="rotate(-170.35 3258.792 2027.168)" class="colorf0ebff svgShape"/><rect width="856.17" height="73.74" x="3064.15" y="2169.26" fill="#f0ebff" transform="rotate(-170.35 3492.215 2206.155)" class="colorf0ebff svgShape"/><rect width="307.24" height="69.64" x="3590.94" y="2373.59" fill="#f0ebff" transform="rotate(-170.35 3744.53 2408.438)" class="colorf0ebff svgShape"/><rect width="40.97" height="163.95" x="3566.65" y="1138.26" fill="#f0ebff" transform="rotate(-80.35 3587.085 1220.251)" class="colorf0ebff svgShape"/><rect width="40.97" height="227.44" x="3287.07" y="1058.97" fill="#f0ebff" transform="rotate(-80.35 3307.495 1172.706)" class="colorf0ebff svgShape"/><rect width="40.96" height="331.9" x="3467.38" y="1137.13" fill="#f0ebff" transform="rotate(-80.35 3487.815 1303.094)" class="colorf0ebff svgShape"/><rect width="40.96" height="88.16" x="3201.93" y="1213.86" fill="#f0ebff" transform="rotate(-80.35 3222.386 1257.95)" class="colorf0ebff svgShape"/><rect width="40.96" height="221.3" x="3505.41" y="1298.63" fill="#f0ebff" transform="rotate(-80.35 3525.851 1409.287)" class="colorf0ebff svgShape"/><rect width="40.97" height="178.28" x="3229.87" y="1273.28" fill="#f0ebff" transform="rotate(-80.35 3250.3 1362.434)" class="colorf0ebff svgShape"/></g><g data-name="9" fill="#000000" class="color000 svgShape"><path fill="#e0d1fc" d="M1227.06,2450.44c-18.87,20.43-44.11,33.29-73.62,33.29-107.66,0-183.66-152-373.66-202.66s-399-190-316.66-240.67,225.19-89.07,118.93-161.7-270.93-148.63-226.59-199.29c39.4-45,154.39-200.17,68-349.73-36.16-62.6-36.35-140,1.69-201.42,17.63-28.47,42.26-55.09,76.72-73.24,19.61-10.34,42.4-18,68.89-21.6,183.66-25.33,107.66,278.66,221.65,329.32s177.34-133,209,31.67-19,392.67,50.66,348.33,145.66-152,145.66,6.33-100.13,390,6.94,476.82C1282.42,2288.92,1277,2396.3,1227.06,2450.44Z" class="colore0d1fc svgShape"/><path fill="#d4c5f9" d="M1227.06,2450.44c-114-102-326.62-308.52-326.62-429,0-164.66-168.88-333.55-295.54-515.1C504,1361.75,499.55,1139.57,501.9,1055c19.61-10.34,42.4-18,68.89-21.6,183.66-25.33,107.66,278.66,221.65,329.32s177.34-133,209,31.67-19,392.67,50.66,348.33,145.66-152,145.66,6.33-100.13,390,6.94,476.82C1282.42,2288.92,1277,2396.3,1227.06,2450.44Z" class="colord4c5f9 svgShape"/><path fill="#9d87d8" d="M1304.73,2661.82c-18.83-26.41-37.14-52.66-55.47-79.11s-36.46-52.91-54.47-79.5Q1140.69,2423.5,1088,2342.9T984,2180.78q-51.18-81.57-100.75-164.14-49.35-82.68-96.68-166.55-47-84-91.24-169.58c-29.27-57.13-57.15-115-83.1-173.66S562.36,1388.54,543,1327.44c22,60.2,48.41,118.56,76.66,175.93s58.56,113.71,90.13,169.31,64.43,110.46,98,164.85q50.64,81.46,103.31,161.59,52.83,80.05,107.24,159T1128.74,2315q55.88,77.92,113.06,154.85,28.54,38.49,57.5,76.66c19.26,25.41,38.72,50.88,58.17,75.83Z" class="color9d87d8 svgShape"/><path fill="#f4f3ff" d="M845.56 1641.41s-91.84-184.72-6.34-200.55S845.56 1641.41 845.56 1641.41zM1013.39 2004.51s-53.84-123.49 44.33-145.66S1013.39 2004.51 1013.39 2004.51zM582.73 1760.68s-161.5-12.66-117.17-63.33S582.73 1760.68 582.73 1760.68zM779.06 2131.18s-209-3.17-152-41.17S779.06 2131.18 779.06 2131.18z" class="colorf4f3ff svgShape"/></g><g data-name="8" fill="#000000" class="color000 svgShape"><rect width="759.15" height="461.45" x="790.2" y="398" fill="#f7f5ff" transform="rotate(-1.15 1168.588 628.073)" class="colorf7f5ff svgShape"/><rect width="776.4" height="110.68" x="775.91" y="363.08" fill="#69dfd4" transform="rotate(-1.15 1163.22 418.252)" class="color69dfd4 svgShape"/><path d="M777.1,481.53s55.4-58.5,177.75-46.3,209.05,12.9,279.1-25.13,179.59,4.94,233-10.78,84.18-44,84.18-44L1553.35,466Z" style="mix-blend-mode:multiply" fill="#69dfd4" class="color69dfd4 svgShape"/><circle cx="860.86" cy="440.24" r="26.04" fill="#1d4d95" transform="rotate(-52.59 860.945 440.23)" class="color1d4d95 svgShape"/><path fill="#1d4d95" d="M1014.65 437.15a26 26 0 11-26.56-25.51A26.05 26.05 0 011014.65 437.15zM1142.39 434.59a26 26 0 11-26.56-25.52A26 26 0 011142.39 434.59z" class="color1d4d95 svgShape"/><circle cx="1244.1" cy="432.55" r="26.04" fill="#1d4d95" transform="rotate(-66.35 1244.16 432.534)" class="color1d4d95 svgShape"/><circle cx="1371.85" cy="429.99" r="26.04" fill="#1d4d95" transform="rotate(-17.33 1371.459 429.937)" class="color1d4d95 svgShape"/><circle cx="1499.6" cy="427.43" r="26.04" fill="#1d4d95" transform="rotate(-77.33 1499.678 427.393)" class="color1d4d95 svgShape"/><rect width="84.94" height="55.34" x="814.33" y="523.89" fill="#ffffff" transform="rotate(-1.15 855.956 551.193)" class="colorfff svgShape"/><rect width="84.94" height="55.34" x="919.84" y="521.78" fill="#ffffff" transform="rotate(-1.15 961.61 548.765)" class="colorfff svgShape"/><rect width="84.94" height="55.34" x="1025.36" y="519.66" fill="#ffffff" transform="rotate(-1.15 1066.762 546.831)" class="colorfff svgShape"/><rect width="84.94" height="55.34" x="1130.87" y="517.55" fill="#ffffff" transform="rotate(-1.15 1172.412 544.902)" class="colorfff svgShape"/><rect width="84.94" height="55.34" x="1232.22" y="515.51" fill="#ffffff" transform="rotate(-1.15 1273.579 542.928)" class="colorfff svgShape"/><rect width="84.94" height="55.34" x="1337.73" y="513.4" fill="#ffffff" transform="rotate(-1.15 1379.233 540.5)" class="colorfff svgShape"/><rect width="84.94" height="55.34" x="1443.24" y="511.28" fill="#e0d1fc" transform="rotate(-1.15 1484.385 538.566)" class="colore0d1fc svgShape"/><rect width="84.94" height="55.34" x="815.83" y="598.75" fill="#ffffff" transform="rotate(-1.15 857.697 625.949)" class="colorfff svgShape"/><rect width="84.94" height="55.34" x="921.34" y="596.64" fill="#ffffff" transform="rotate(-1.15 962.848 624.015)" class="colorfff svgShape"/><rect width="84.94" height="55.34" x="1026.86" y="594.52" fill="#ffffff" transform="rotate(-1.15 1068.503 621.587)" class="colorfff svgShape"/><rect width="84.94" height="55.34" x="1132.37" y="592.4" fill="#e0d1fc" transform="translate(-12.2 23.68)" class="colore0d1fc svgShape"/><rect width="84.94" height="55.34" x="1233.72" y="590.37" fill="#ffffff" transform="rotate(-1.15 1275.32 617.684)" class="colorfff svgShape"/><rect width="84.94" height="55.34" x="1339.23" y="588.25" fill="#ffffff" transform="rotate(-1.15 1380.476 615.251)" class="colorfff svgShape"/><rect width="84.94" height="55.34" x="1444.74" y="586.14" fill="#ffffff" transform="rotate(-1.15 1486.126 613.322)" class="colorfff svgShape"/><rect width="84.94" height="55.34" x="817.33" y="673.61" fill="#ffffff" transform="rotate(-1.15 858.94 700.7)" class="colorfff svgShape"/><rect width="84.94" height="55.34" x="922.85" y="671.49" fill="#ffffff" transform="rotate(-1.15 964.59 698.77)" class="colorfff svgShape"/><rect width="84.94" height="55.34" x="1028.36" y="669.38" fill="#ffffff" transform="rotate(-1.15 1069.746 696.338)" class="colorfff svgShape"/><rect width="84.94" height="55.34" x="1133.87" y="667.26" fill="#ffffff" transform="rotate(-1.15 1175.396 694.41)" class="colorfff svgShape"/><rect width="84.94" height="55.34" x="1235.22" y="665.23" fill="#ffffff" transform="rotate(-1.15 1276.562 692.435)" class="colorfff svgShape"/><rect width="84.94" height="55.34" x="1340.73" y="663.11" fill="#ffffff" transform="rotate(-1.15 1382.217 690.008)" class="colorfff svgShape"/><rect width="84.94" height="55.34" x="1446.25" y="661" fill="#ffffff" transform="rotate(-1.15 1487.867 688.078)" class="colorfff svgShape"/><rect width="84.94" height="55.34" x="818.83" y="748.47" fill="#ffffff" transform="rotate(-1.15 860.68 775.456)" class="colorfff svgShape"/><rect width="84.94" height="55.34" x="924.35" y="746.35" fill="#ffffff" transform="rotate(-1.15 965.832 773.522)" class="colorfff svgShape"/><rect width="84.94" height="55.34" x="1029.86" y="744.24" fill="#e0d1fc" transform="rotate(-1.15 1071.487 771.095)" class="colore0d1fc svgShape"/><rect width="84.94" height="55.34" x="1135.37" y="742.12" fill="#ffffff" transform="rotate(-1.15 1176.64 769.16)" class="colorfff svgShape"/><path fill="#f0ebff" d="M874.74,330.61l2,100.9a17.08,17.08,0,1,1-34.16.68l-2-100.89a17.08,17.08,0,0,1,11.59-16.53,17.11,17.11,0,0,1,17.33,3.86A17.09,17.09,0,0,1,874.74,330.61Z" class="colorf0ebff svgShape"/><path d="M874.74,330.61l2,100.9A17.09,17.09,0,0,1,860,448.93c6.3-10.44,1.64-26.08-4.17-46s4.48-19.63,8.36-42.51c3-17.51-7.14-37.3-12.05-45.62a17.11,17.11,0,0,1,17.33,3.86A17.09,17.09,0,0,1,874.74,330.61Z" style="mix-blend-mode:multiply" fill="#f0ebff" class="colorf0ebff svgShape"/><path fill="#f0ebff" d="M1002.75,328l2,100.9a17.09,17.09,0,0,1-34.17.69l-2-100.9a17.08,17.08,0,0,1,11.59-16.52,16.57,16.57,0,0,1,5.15-.9A17.07,17.07,0,0,1,1002.75,328Z" class="colorf0ebff svgShape"/><path d="M1002.75,328l2,100.9A17.1,17.1,0,0,1,988,446.37c6.29-10.44,1.64-26.08-4.18-46s4.49-19.63,8.37-42.5c3-17.52-7.15-37.31-12.05-45.62a16.57,16.57,0,0,1,5.15-.9A17.07,17.07,0,0,1,1002.75,328Z" style="mix-blend-mode:multiply" fill="#f0ebff" class="colorf0ebff svgShape"/><path fill="#f0ebff" d="M1130.77,325.48l2,100.89a17.09,17.09,0,0,1-34.17.69l-2-100.9a17.08,17.08,0,0,1,11.59-16.52,16.57,16.57,0,0,1,5.15-.9,17.07,17.07,0,0,1,17.42,16.74Z" class="colorf0ebff svgShape"/><path d="M1130.77,325.48l2,100.89a17.09,17.09,0,0,1-16.74,17.43c6.29-10.44,1.64-26.08-4.18-46s4.49-19.64,8.36-42.51c3-17.52-7.14-37.3-12-45.62a16.57,16.57,0,0,1,5.15-.9,17.07,17.07,0,0,1,17.42,16.74Z" style="mix-blend-mode:multiply" fill="#f0ebff" class="colorf0ebff svgShape"/><path fill="#f0ebff" d="M1258.79,322.91l2,100.9a17.09,17.09,0,0,1-34.17.68l-2-100.9a17.07,17.07,0,0,1,11.59-16.52,16.82,16.82,0,0,1,5.15-.9,17.07,17.07,0,0,1,17.42,16.74Z" class="colorf0ebff svgShape"/><path d="M1258.79,322.91l2,100.9a17.09,17.09,0,0,1-16.74,17.42c6.29-10.44,1.64-26.08-4.18-46s4.48-19.64,8.36-42.51c3-17.51-7.14-37.3-12-45.62a16.82,16.82,0,0,1,5.15-.9,17.07,17.07,0,0,1,17.42,16.74Z" style="mix-blend-mode:multiply" fill="#f0ebff" class="colorf0ebff svgShape"/><path fill="#f0ebff" d="M1386.81,320.34l2,100.9a17.08,17.08,0,1,1-34.16.68l-2-100.89a17.07,17.07,0,0,1,11.59-16.53,16.76,16.76,0,0,1,5.15-.9,17.09,17.09,0,0,1,17.42,16.74Z" class="colorf0ebff svgShape"/><path d="M1386.81,320.34l2,100.9a17.08,17.08,0,0,1-16.74,17.42c6.3-10.44,1.65-26.08-4.17-46s4.48-19.63,8.36-42.51c3-17.51-7.14-37.3-12-45.62a16.76,16.76,0,0,1,5.15-.9,17.09,17.09,0,0,1,17.42,16.74Z" style="mix-blend-mode:multiply" fill="#f0ebff" class="colorf0ebff svgShape"/><path fill="#f0ebff" d="M1514.83,317.77l2,100.9a17.08,17.08,0,1,1-34.16.69l-2-100.9a17.09,17.09,0,0,1,34.17-.69Z" class="colorf0ebff svgShape"/><path d="M1514.83,317.77l2,100.9a17.09,17.09,0,0,1-16.74,17.43c6.3-10.44,1.65-26.09-4.17-46s4.48-19.63,8.36-42.5c3-17.52-7.14-37.31-12-45.63a17.1,17.1,0,0,1,22.57,15.84Z" style="mix-blend-mode:multiply" fill="#f0ebff" class="colorf0ebff svgShape"/><rect width="84.94" height="55.34" x="817.33" y="673.61" fill="#ffffff" transform="rotate(-1.15 858.94 700.7)" class="colorfff svgShape"/><rect width="84.94" height="55.34" x="922.85" y="671.49" fill="#e0d1fc" transform="rotate(-1.15 964.59 698.77)" class="colore0d1fc svgShape"/><rect width="84.94" height="55.34" x="1028.36" y="669.38" fill="#ffffff" transform="rotate(-1.15 1069.746 696.338)" class="colorfff svgShape"/><rect width="84.94" height="55.34" x="1133.87" y="667.26" fill="#ffffff" transform="rotate(-1.15 1175.396 694.41)" class="colorfff svgShape"/><rect width="84.94" height="55.34" x="1235.22" y="665.23" fill="#ffffff" transform="rotate(-1.15 1276.562 692.435)" class="colorfff svgShape"/><rect width="84.94" height="55.34" x="1340.73" y="663.11" fill="#ffffff" transform="rotate(-1.15 1382.217 690.008)" class="colorfff svgShape"/><rect width="84.94" height="55.34" x="1446.25" y="661" fill="#e0d1fc" transform="rotate(-1.15 1487.867 688.078)" class="colore0d1fc svgShape"/><polygon fill="#69dfd4" points="823.36 596.19 868.34 647.39 935.09 566.27 916.99 556.87 867.72 616.47 835.92 573.15 823.36 596.19" class="color69dfd4 svgShape"/></g><g data-name="7" fill="#000000" class="color000 svgShape"><path fill="#2469ce" d="M1951.14,929.36l255.47,1502.3a90.14,90.14,0,0,1-73.75,104L1147.47,2703.2a90.1,90.1,0,0,1-104-73.75L788,1127.14a90.13,90.13,0,0,1,73.75-104l985.39-167.57A90.14,90.14,0,0,1,1951.14,929.36Z" class="color2469ce svgShape"/><path fill="#ffffff" d="M1905.58,1026.78l225.83,1328a90.09,90.09,0,0,1-73.71,103.92l-864.71,147A90.21,90.21,0,0,1,1089,2532L863.2,1204a90.13,90.13,0,0,1,73.75-104l864.7-147A90.13,90.13,0,0,1,1905.58,1026.78Z" class="colorfff svgShape"/><path d="M1951.14,929.35l255.47,1502.31a90.14,90.14,0,0,1-73.74,104l-985.39,167.56a90.09,90.09,0,0,1-79-25.26c17.6-25.2,39.28-53.47,62.2-84.3a89.54,89.54,0,0,0,62.31,12.11l864.71-147a90.09,90.09,0,0,0,73.71-103.92l-225.83-1328A90.13,90.13,0,0,0,1801.65,953l-7,1.19c-12-34.66-27.43-61.54-43.49-82.28l96-16.32A90.12,90.12,0,0,1,1951.14,929.35Z" style="mix-blend-mode:multiply" fill="#7b4fc9" opacity=".59" class="color7b4fc9 svgShape"/><path fill="#f95d6c" d="M1531.24,790.81l-12.52-73.62-400.55,68.12,12.52,73.62-57,9.68,25.75,151.45,518.7-88.21-25.76-151.44ZM1341.51,891.72a60.76,60.76,0,1,1,49.72-70.09A60.75,60.75,0,0,1,1341.51,891.72Z" class="colorf95d6c svgShape"/><path fill="#7b4fc9" d="M1652.74,1472.29l0-.49S1652.77,1472,1652.74,1472.29Z" class="color7b4fc9 svgShape"/><rect width="372.78" height="462.9" x="994.87" y="1291.95" fill="#f0ebff" transform="matrix(.99 -.17 .17 .99 -238.67 219.59)" class="colorf0ebff svgShape"/><rect width="905.32" height="69.64" x="933.77" y="1104.82" fill="#e0d1fc" transform="rotate(-9.65 1386.592 1139.719)" class="colore0d1fc svgShape"/><g clip-path="url(#b)" fill="#000000" class="color000 svgShape"><path fill="#e0d1fc" d="M1345,1723.18s-18.21,105.83-84.2,149.34-118.4-28.79-130.22-52.21,2.47-66,2.47-66,13-10,6.71-35.38,117.57-85.55,152-84.56c0,0,0,1.07,0,3,.06,9.36,1.4,38.74,14.8,55.2,9.54,11.74,21.29,20.34,29.28,25.4A104.57,104.57,0,0,0,1345,1723.18Z" class="colore0d1fc svgShape"/><path fill="#b2a3e2" d="M1022.38,1460s-8.77,34.76-8.53,59.18,28.53,41.15,28.53,41.15,3.53-82.8,13.18-89.34S1022.38,1460,1022.38,1460Z" class="colorb2a3e2 svgShape"/><path fill="#e0d1fc" d="M1304.25,1600.19a180,180,0,0,1-6.66,24.6c-.35,1-.7,2-1.08,2.91-12.26,31.44-52.64,53-64,60.79-5.61,3.85-22.5,15.06-40,25.52h0l0,0c-18,10.79-36.62,20.77-44,21-14.59.53-33-4.16-50.68-27.58s-51.84-92-60.7-184.41a242.81,242.81,0,0,1-.54-42.93c4.83-59.83,33.11-82,33.11-82,86-57.15,142.55-45.8,178.9-14.56,37.22,32,53.21,84.91,57.86,106.41C1313.34,1522.27,1311.11,1566.84,1304.25,1600.19Z" class="colore0d1fc svgShape"/><path fill="#b2a3e2" d="M1320.1,1519s8.43,3.45,4.09,35.5c-3.23,23.93-14.46,39.39-19.94,45.71a42.73,42.73,0,0,1-3.06,3.22s-1.8-16.33-11.52-27.4-.52-20.46,2.61-30.78-3.16-41.53-24.37-34-11.23,60.63-11.23,60.63l-25,2.3a51,51,0,0,1-.55-20.47c2-11.09-16.39-67.66-16.39-67.66a13,13,0,0,1-14.85,5,21.51,21.51,0,0,1-5.3-2.55c-13.2-8.52-13.08-25.18-32.27-22.89s-77.16,23.89-107.31,19.22a97.73,97.73,0,0,1-18.48-4.65c-25.27-9.22-49-31.65-40.65-84.14,10.42-65.37,74.88-43.07,74.88-43.07,46.46-49,77.4.54,77.4.54l10-10.48c10-10.51,23.66,6.74,23.66,6.74s-5.62-21.56,32.11-24.07c37.22-2.45,30.17,42.53,30,43.81.28-.3,3.54-3.55,11.39-3.66a27.31,27.31,0,0,1,3.65.15c10.37,1,5.23,9.09,4.68,9.93.78-.57,11.23-7.54,35.06,16.6,24.81,25.13,11.09,48,11.09,48l14.86,29.76C1339.38,1500,1320.1,1519,1320.1,1519Z" class="colorb2a3e2 svgShape"/></g><rect width="524.35" height="57.35" x="1231.61" y="1800.75" fill="#f0ebff" transform="rotate(-9.65 1493.964 1829.571)" class="colorf0ebff svgShape"/><rect width="426.04" height="28.68" x="1063.09" y="1954.86" fill="#f0ebff" transform="rotate(-9.65 1276.23 1969.398)" class="colorf0ebff svgShape"/><rect width="426.04" height="28.68" x="1559.83" y="1870.39" fill="#f0ebff" transform="rotate(-9.65 1773.072 1884.927)" class="colorf0ebff svgShape"/><rect width="426.03" height="28.68" x="1075.45" y="2027.56" fill="#f0ebff" transform="matrix(.99 -.17 .17 .99 -324.08 244.9)" class="colorf0ebff svgShape"/><rect width="426.04" height="28.68" x="1572.19" y="1943.08" fill="#f0ebff" transform="rotate(-9.65 1785.37 1957.612)" class="colorf0ebff svgShape"/><rect width="426.03" height="28.68" x="1087.82" y="2100.25" fill="#f0ebff" transform="matrix(.99 -.17 .17 .99 -336.09 248.01)" class="colorf0ebff svgShape"/><rect width="426.04" height="28.68" x="1584.55" y="2015.78" fill="#f0ebff" transform="matrix(.99 -.17 .17 .99 -314.9 330.09)" class="colorf0ebff svgShape"/><rect width="426.04" height="28.68" x="1100.18" y="2172.94" fill="#f0ebff" transform="matrix(.99 -.17 .17 .99 -348.1 251.11)" class="colorf0ebff svgShape"/><rect width="426.03" height="28.68" x="1596.92" y="2088.47" fill="#f0ebff" transform="rotate(-9.65 1810.144 2102.996)" class="colorf0ebff svgShape"/><rect width="856.17" height="73.74" x="1148.42" y="2244.92" fill="#f0ebff" transform="rotate(-9.65 1576.695 2282.002)" class="colorf0ebff svgShape"/><rect width="307.24" height="69.64" x="1170.57" y="2449.25" fill="#f0ebff" transform="rotate(-9.65 1324.338 2484.29)" class="colorf0ebff svgShape"/><rect width="163.95" height="40.97" x="1399.64" y="1275.41" fill="#f0ebff" transform="rotate(-9.65 1481.794 1296)" class="colorf0ebff svgShape"/><rect width="227.44" height="40.97" x="1647.48" y="1227.87" fill="#f0ebff" transform="rotate(-9.65 1761.412 1248.493)" class="colorf0ebff svgShape"/><rect width="331.9" height="40.96" x="1414.94" y="1358.26" fill="#f0ebff" transform="rotate(-9.65 1581.043 1378.887)" class="colorf0ebff svgShape"/><rect width="88.16" height="40.96" x="1802.26" y="1313.12" fill="#f0ebff" transform="rotate(-9.65 1846.447 1333.7)" class="colorf0ebff svgShape"/><rect width="221.3" height="40.96" x="1432.2" y="1464.45" fill="#f0ebff" transform="rotate(-9.65 1543.027 1485.086)" class="colorf0ebff svgShape"/><rect width="178.28" height="40.97" x="1729.25" y="1417.6" fill="#f0ebff" transform="rotate(-9.65 1818.65 1438.256)" class="colorf0ebff svgShape"/></g><g data-name="6" fill="#000000" class="color000 svgShape"><path fill="#7b4fc9" d="M3349.64,445.67V2694a130.54,130.54,0,0,1-130.53,130.54H2145.61A130.46,130.46,0,0,1,2015.07,2694V445.67a130.54,130.54,0,0,1,130.54-130.53h1073.5A130.54,130.54,0,0,1,3349.64,445.67Z" class="color7b4fc9 svgShape"/><path d="M3349.64,445.67V2694a130.54,130.54,0,0,1-130.53,130.54H2145.61a130.53,130.53,0,0,1-120-79.09c63.17-170.91,164.45-343.83,267.71-388.1,192.37-82.44,728.26-982.46,666.42-1484C2917.66,532,3085.63,378.43,3197.21,315.14h21.9A130.54,130.54,0,0,1,3349.64,445.67Z" style="mix-blend-mode:multiply" fill="#7b4fc9" opacity=".43" class="color7b4fc9 svgShape"/><rect width="1271.3" height="2277.53" x="2046.71" y="428.5" fill="#f0ebff" rx="16.69" class="colorf0ebff svgShape"/><path fill="#ffffff" d="M2782.83,392.28H2429A22.32,22.32,0,0,1,2406.68,370h0A22.33,22.33,0,0,1,2429,347.63h353.82A22.32,22.32,0,0,1,2805.16,370h0A22.32,22.32,0,0,1,2782.83,392.28Z" class="colorfff svgShape"/><path fill="#0c1e42" d="M2862.06,393.32h-14.17a23.83,23.83,0,0,1-23.83-23.83h0a23.83,23.83,0,0,1,23.83-23.83h14.17a23.83,23.83,0,0,1,23.83,23.83h0A23.83,23.83,0,0,1,2862.06,393.32Z" class="color0c1e42 svgShape"/><rect width="211.26" height="77.29" x="2563.34" y="2727.54" fill="#e0d1fc" class="colore0d1fc svgShape"/><path fill="#e0d1fc" d="M3169.29,562.47H2195.42a36.07,36.07,0,0,1-36.07-36.07h0a36.07,36.07,0,0,1,36.07-36.07h973.87a36.07,36.07,0,0,1,36.07,36.07h0A36.07,36.07,0,0,1,3169.29,562.47Z" class="colore0d1fc svgShape"/><rect width="1071.8" height="199.26" x="2142.16" y="2432.92" fill="#e0d1fc" class="colore0d1fc svgShape"/><path d="M2142.16,2632.18s163-115,359.94-81.09,245.41,37.14,324.52-11.3,61.35-59.74,132.4-48.44S3214,2432.92,3214,2432.92v199.26Z" style="mix-blend-mode:multiply" fill="#e0d1fc" class="colore0d1fc svgShape"/><rect width="182.92" height="170.04" x="2166.04" y="2448.53" fill="#f95d6c" class="colorf95d6c svgShape"/><path d="M2166,2618.57s16.32-46.38,46.38-52.39,36.92-11.16,50.67-30.06,6.87-36.06,28.34-42.94,57.54-44.65,57.54-44.65v170Z" style="mix-blend-mode:multiply" fill="#f95d6c" class="colorf95d6c svgShape"/><path fill="#ffffff" d="M2331.59,2483.18l-9.34-20.76-.29.17c-62.64,11.07-96.31,45-113.53,71.47-18.72,28.8-22.46,55.15-22.61,56.25l.38.05-.14.24,20.89,9a17.58,17.58,0,0,0,21.66-6.44l8.44-12.77a17.59,17.59,0,0,0-1.39-21.24l-6.64-7.63a129.77,129.77,0,0,1,52.14-47.87l10.41,8.79a17.6,17.6,0,0,0,21.26,1.08l12.64-8.63A17.58,17.58,0,0,0,2331.59,2483.18Z" class="colorfff svgShape"/><rect width="182.92" height="170.04" x="3015.39" y="2448.53" fill="#69dfd4" class="color69dfd4 svgShape"/><path d="M3015.39,2618.57s13.74-38.65,50.67-46.38,63.55-7.72,73.86-42.08,19.75-46.37,35.21-55,23.19-26.62,23.19-26.62v170Z" style="mix-blend-mode:multiply" fill="#69dfd4" class="color69dfd4 svgShape"/><path fill="#ffffff" d="M3186.15,2597.4H3023.27V2480h162.88ZM3036.72,2584h136v-90.5h-136Z" class="colorfff svgShape"/><polygon fill="#ffffff" points="3104.84 2548.61 3025.39 2495.34 3032.88 2484.16 3104.57 2532.23 3175.5 2481.26 3183.35 2492.19 3104.84 2548.61" class="colorfff svgShape"/><rect width="431.09" height="14.53" x="2464.96" y="2470.36" fill="#ffffff" class="colorfff svgShape"/><rect width="431.09" height="14.53" x="2464.96" y="2510.73" fill="#ffffff" class="colorfff svgShape"/><rect width="431.09" height="14.53" x="2464.96" y="2551.09" fill="#ffffff" class="colorfff svgShape"/><path fill="#9d79dd" d="M2676.92,2275.27l-9,157.65H2385l5.34-234.57-1.48-167.46,254.9,9.39c.07,14.33.7,109,9.08,153.54,5,26.78,14.2,45.19,24,63.24Z" class="color9d79dd svgShape"/><path fill="#9d79dd" d="M2972.59,2198.35v234.57H2710.66c.38-37-.7-100.89-11.1-129-6.73-18.15-14.92-32.41-22.76-46.89l-1.39-215.61-31.69-1.17v-1.83l307.75-4.52S2972.59,2157.62,2972.59,2198.35Z" class="color9d79dd svgShape"/><path fill="#9d79dd" d="M2676.8,2257.06c-9.8-18-19-36.46-24-63.24-8.38-44.55-9-139.21-9.08-153.54l31.69,1.17Z" class="color9d79dd svgShape"/><path fill="#9d79dd" d="M2675.41,2041.45l1.39,215.61c-9.8-18-19-36.46-24-63.24-8.38-44.55-9-139.21-9.08-153.54Z" class="color9d79dd svgShape"/><path fill="#ffb592" d="M2815.69,1088.64s-37.2,105.58-112.63,138.76-116.64-50.27-124.7-76.41,14.08-67.39,14.08-67.39,15.09-8,13.08-35.19,135.77-67.37,171-60.34c0,0-.22,1.1-.53,3-1.58,9.63-5.34,40.06,5.55,59.32,7.76,13.72,18.34,24.61,25.66,31.21A106.94,106.94,0,0,0,2815.69,1088.64Z" class="colorffb592 svgShape"/><path fill="#69dfd4" d="M2809.66,1079.58l-.27,43.07-5.75,912.29a309.09,309.09,0,0,1-42.27,11.16c-102.86,20-218.18-3.62-225.23-7.15,0,0-42.24-526.94-6-689.86,32.16-144.69,56.39-241.8,61.41-261.71-4.75,21-23.18,122,63.29,131,61.7,6.44,107.79-52,133-95.08,2.94-5,5.58-9.8,7.94-14.25a314.15,314.15,0,0,0,13.88-29.43Z" class="color69dfd4 svgShape"/><path fill="#ffffff" d="M3022.86,2226c-37.94,16.45-77.88,25.13-114.79,29.33-80.51,9.11-146.68-3.18-146.68-3.18s-.21-85.05,0-206.05c.44-247.82,2.64-646.4,12.1-773.44,5.49-73.56,12.17-119.11,18.29-147.31,1.38-6.26,2.72-11.66,4-16.32,7.52-27.28,13.45-29.33,13.88-29.43l0,0c5,.26,12,2,20.39,4.89,55.33,19,170.68,86.69,170.68,93.66,0,5.08-.79,131.45-1.4,224.29-.33,54.55-.61,97.52-.61,97.52l4,271.52Z" class="colorfff svgShape"/><path d="M2908.07,2255.33c8.33-71.31,21.15-202.77,8.19-244.54-18.1-58.31-64.36-122.69-64.36-158.89s58.32-76.43,60.35-120.68-20.13-30.15-30.17-58.31,22.11-36.22,50.27-82.46,42.24-189.06,42.24-189.06l24.74,1c-.33,54.55-.61,97.52-.61,97.52l4,271.52L3022.86,2226C2984.92,2242.45,2945,2251.13,2908.07,2255.33Z" style="mix-blend-mode:multiply" fill="#e0d1fc" class="colore0d1fc svgShape"/><polygon fill="#9d79dd" points="2887.1 1979.62 2997.21 1944.93 3007.77 1991.69 2896.15 2035.43 2887.1 1979.62" class="color9d79dd svgShape"/><path fill="#ffffff" d="M2363.21,1625.78c-5.85,37.4-10.1,61.21-10.1,61.21s-55.34,62.86-98.37,69.26c-11.4,1.74-21.94-.51-30.35-8.94-16.82-16.82-30.11-39.27-39.92-64.55-13.61-35.18-20.42-75.82-20.42-114.44,0-46.87,7-62.65,18.24-75.66,3.15-3.69,6.65-7.15,10.43-11,1.8-1.83,3.63-3.74,5.52-5.83,20.11-22.12,54.31-78.44,84.48-154.87s90.49-146.82,90.49-146.82C2421.39,1214.5,2383.12,1498.66,2363.21,1625.78Z" class="colorfff svgShape"/><path fill="#ffffff" d="M2592.44 1083.6s-44.25 275.55-44.25 484.72v689.86s-173 0-207.15-24.14l2-309.72s-1.06-131.87-1.63-225c-.18-28.06-.31-52.6-.35-68.95 0-3.7 0-7 0-9.79 0-56.3 32.17-446.49 32.17-446.49S2558.26 1081.59 2592.44 1083.6zM2254.74 1756.25a27.09 27.09 0 01-4.71 1.64c-55.81 13.57-230.79-175-254.93-187.05s-43.74 0-63.35-28.68q-1.79-2.57-3.37-5c-16.86-25.6-20.92-42.34.35-99.06 22.63-60.32 54.32-61.83 70.9-54.29s123.69 87.48 141.79 95c10 4.16 27.32 9.71 40.87 13.85 11 3.34 19.47 5.77 19.47 5.77 47.94 24.65 73.81 77.59 82.54 129.32C2294.24 1686.68 2282 1744 2254.74 1756.25zM3247.11 1714.13c-22.49 9.73-53 7.46-82.12.79-43.09-9.91-82.93-29.49-88.34-34-4.47-3.72-7.09-11.52-10.46-21.74-3.41-10.42-7.56-23.35-15.18-37.08-15.09-27.16-9-24.12-15.09-46.75s-30.17-40.75-54.29-63.36-21.11-18.11-19.62-122.19 38.72-211.69 38.72-211.69c44.74 1 222.24 279.57 237.33 365.55S3247.11 1714.13 3247.11 1714.13z" class="colorfff svgShape"/><path fill="#ffffff" d="M3099.28,2002.24c-21.12,25.65-15.09,39.23-31.67,70.9-5.59,10.69-13.43,19.14-23.08,23.73-19,9.06-45,3.21-75-29.76-45.25-49.78-15.08-114.63-9-140.29s49.76-135.75,67.86-185.53a540,540,0,0,1,37.81-82.09c.93-1.57,1.42-2.38,1.42-2.38,15.85-28,34.25-42.36,53.07-47.15,58.2-14.86,120.74,61.15,126.43,104.46C3254.66,1771.46,3120.41,1976.6,3099.28,2002.24Z" class="colorfff svgShape"/><path fill="#0c1e42" d="M2530.1,761.81S2515,796,2511,821.14s22.13,47.26,22.13,47.26,18.1-84.47,29.16-89.5S2530.1,761.81,2530.1,761.81Z" class="color0c1e42 svgShape"/><path fill="#ffb592" d="M2795.27,955.12a187.75,187.75,0,0,1-11.15,24.13c-.53,1-1.06,1.89-1.61,2.79-18.1,30.17-63.36,45.26-76.44,51.28-6.44,3-25.75,11.54-45.55,19.24h0l0,0c-20.4,7.94-41.25,15-48.91,13.93-15.09-2-33.19-10-47.27-37.2s-37.2-103.59-30.15-200.13a253.11,253.11,0,0,1,6.95-44.21c15.42-60.64,48.35-78.48,48.35-78.48,98.35-43.7,154.5-22.16,186.4,16.31,32.65,39.4,39.84,96.55,40.86,119.46C2818.23,876.64,2808.15,922.06,2795.27,955.12Z" class="colorffb592 svgShape"/><path fill="#0c1e42" d="M2825.75,874.44s8.06,5-2,37.2c-7.5,24-21.74,38-28.47,43.48a44.88,44.88,0,0,1-3.71,2.78s1-17.1-7-30.17,3-21.11,8.06-31.18,4-43.23-19.1-39.21-22.14,60.34-22.14,60.34l-26.13-2a53.11,53.11,0,0,1,3-21.13c4-11-5-44.23-1-59.31s37.2-32.18,30.17-32.18-34.19,19.1-34.19,19.1a13.56,13.56,0,0,1-16.13,2.54,22.28,22.28,0,0,1-5-3.54C2690,810.08,2693,793,2672.89,792s-83.46,11.07-113.63,1a100.56,100.56,0,0,1-18.18-8c-24.36-13.89-44.82-41.08-27.08-93.56,22.14-65.37,84.49-31.18,84.49-31.18,56.3-42.22,79.44,14.08,79.44,14.08l12.06-9c12.07-9.06,23.14,11.07,23.14,11.07s-2-23.14,37.2-19.12c38.67,4,23.57,49,23.16,50.25.33-.25,4.25-3,12.34-1.77a31.29,31.29,0,0,1,3.73.79c10.47,2.88,3.78,10.26,3.07,11,.9-.45,12.86-5.79,33.12,23.18,21.11,30.17,3,51.28,3,51.28l10.07,33.18C2848.87,858.35,2825.75,874.44,2825.75,874.44Z" class="color0c1e42 svgShape"/><path fill="#7b4fc9" d="M2010.89,1437.45c0,9.73-.63,20.84-1.71,33.33-2.42,28.08-13.92,48.7-27,62-14.08,14.3-30,20.07-38.34,17.47-16.09-5-27.65-35.25-27.65-53.8,0-2.78.1-5.64.33-8.63,1.28-16,6.54-35.94,21.78-67.29a96.1,96.1,0,0,1,7.8-13.39,58.05,58.05,0,0,1,14.12-14.56c10.54-7.34,18.81-6.24,18.81-6.24a31.28,31.28,0,0,1,13.79,1.79C2006,1393.38,2010.91,1409.84,2010.89,1437.45Z" class="color7b4fc9 svgShape"/><path fill="#ffb592" d="M2010.89,1437.45c0,9.73-.63,20.84-1.71,33.33-2.42,28.08-13.92,48.7-27,62-25.38-16.46-61-43.58-61-43.58s-1.69-.45-4.69-1.38c-20.1-6.1-99-32.43-117-74,0,0,0,0,0,0a41.9,41.9,0,0,1-3.44-20.68s2.2-3.76,6.06-9.43c1.91-2.85,4.26-6.18,6.95-9.79,2.39-3.21,5.07-6.63,8-10.1,2.15-2.6,4.45-5.22,6.85-7.8,6.23-6.65,13.1-13,20.25-17.6,0,0,0,0,.06,0,7.28-4.77,14.85-7.8,22.23-7.8,12.33,0,26.92,8.47,41.63,19.51,12.1,9.08,24.23,19.91,35.24,29.19,6,5.08,11.73,9.69,16.87,13.29s9.65,6.17,13.49,7.27c16.86,4.8,25.64,10.2,30.07,18.67l0,.06a34.82,34.82,0,0,1,3.37,11.34.32.32,0,0,1,0,.08C2007.49,1432.08,2008.83,1434.64,2010.89,1437.45Z" class="colorffb592 svgShape"/><path fill="#ffb592" d="M1945.39 1398.33l-3.73-34.25-25.31-33.51s-15.64-11.17-11.17-20.85 18.61 3 24.57 8.93 29 22.34 37.23 34.26 18.62 18.61 26.07 35.74 14.14 41.33 14.14 41.33S1946.13 1454.92 1945.39 1398.33zM1908.15 1349.93l-35.74-32-27.55-25.32L1821 1262.06s-12.66-25.32-20.85-13.41.74 22.34 5.21 34.26 23.86 35 33.51 48.4 23.83 29 29.79 36.49S1900 1369.29 1908.15 1349.93z" class="colorffb592 svgShape"/><path fill="#ffb592" d="M1868.69,1360.35l-35.75-32L1805.39,1303l-23.83-30.53s-12.66-25.31-20.85-13.4.75,22.34,5.22,34.25,23.85,35,33.51,48.41,23.82,29,29.78,36.48S1860.5,1379.71,1868.69,1360.35Z" class="colorffb592 svgShape"/><path fill="#ffb592" d="M1862,1390.14l-35.75-32-27.55-25.32-23.83-30.53s-12.66-25.32-20.85-13.4.75,22.34,5.21,34.25,23.86,35,33.51,48.4,23.83,29,29.79,36.49S1853.79,1409.5,1862,1390.14Z" class="colorffb592 svgShape"/><path fill="#ffb592" d="M1856,1416.2l-35.74-32-27.56-25.32-23.83-30.53s-12.65-25.32-20.85-13.4.75,22.34,5.22,34.25,23.86,35,33.51,48.41,23.82,29,29.78,36.48S1847.84,1435.56,1856,1416.2Z" class="colorffb592 svgShape"/><path d="M2825.75,874.44s8.06,5-2,37.2c-7.5,24-21.74,38-28.47,43.48A180.15,180.15,0,0,1,2782.51,982c-18.1,30.17-63.36,45.26-76.44,51.28-6.44,3-25.79,11.56-45.61,19.26,3.65-13.72,8.42-7.19,27.52-28.3,12.16-13.44,8.05-41.23,9.06-63.35s-9.06-29.17,10-59.34c14.49-22.86,5.28-60.18,0-76.9-1.69-5.34-3-8.59-3-8.59-1-35.19,7-29.14,25.14-33.18,15.66-3.47,32.07-33.28,46.62-60.12,2.26-4.2,4.49-8.33,6.68-12.27a27.25,27.25,0,0,1,3.32-4.83,31.29,31.29,0,0,1,3.73.79c10.47,2.88,3.78,10.26,3.07,11,.9-.45,12.86-5.79,33.12,23.18,21.11,30.17,3,51.28,3,51.28l10.07,33.18C2848.87,858.35,2825.75,874.44,2825.75,874.44Z" style="mix-blend-mode:multiply" fill="#ffb592" opacity=".35" class="colorffb592 svgShape"/><path d="M2807.16,1081.63c-2.5,2.94-6.62,10.08-11.4,27.4-2.36,4.45-5,9.25-7.94,14.25-15.5-8.35-37.63-23-39.17-40.35-2-22.78-13.41-40.21-24.12-40.88-10.54-.65-62.14,10.12-64,10.51,19.8-7.7,39.11-16.26,45.55-19.24,11.7-5.39,49.14-18,69.88-42.22-1.58,9.63-5.34,40.06,5.55,59.32C2789.26,1064.14,2799.84,1075,2807.16,1081.63Z" style="mix-blend-mode:multiply" fill="#ffb592" opacity=".58" class="colorffb592 svgShape"/><rect width="100.56" height="30.17" x="2409.42" y="1534.13" fill="#9d79dd" class="color9d79dd svgShape"/><polygon fill="#9d79dd" points="2341.04 1968.56 2425.51 1972.58 2401.38 2038.95 2316.91 2036.94 2341.04 1968.56" class="color9d79dd svgShape"/><path fill="#7b4fc9" d="M3067.1,2065.78c-5.68,15.79-13.75,33.36-40.45,32-1.64-.06-3.35-.22-5.14-.45-30.84-4-62.35-38.23-69.72-69.74-.43-1.89-.79-3.74-1.06-5.53-4.28-28.24,11.12-45.42,11.12-45.42,18.38-15.16,37.22-11.44,53.81.71,24.32,17.77,43.81,53.57,49.88,74.4C3067.43,2058.17,3068,2063.18,3067.1,2065.78Z" class="color7b4fc9 svgShape"/><path fill="#ffb592" d="M3065.54,2051.71c-9.65,9.73-23.79,27.46-38.89,46-27.52,33.81-58.24,70.46-70.78,66.88-22.87-6.54-80.59-47.92-69.7-61s29.4-46.83,41.38-65.35c5.33-8.25,14.59-13.25,23.18-16.26a86.83,86.83,0,0,1,20.4-4.43l44.53-40.28C3040,1995.08,3059.47,2030.88,3065.54,2051.71Z" class="colorffb592 svgShape"/><path fill="#ffb592" d="M2947.52 2023.75s-19.6 6.54-29 10.89-35.58 23.24-35.58 23.24-28.32 16.7-32 21.06-.73 8.71 2.9 9.44 24-1.46 29.77-6.54 20.33-10.89 37-18.15 31.22 3.63 39.93-13.8S2954.06 2021.57 2947.52 2023.75zM2905.41 2077.49L2872 2116.7l-22.51 18.15s-25.41 11.62-25.41 21.78 18.88 5.09 18.88 5.09 23.23-10.89 32.67-14.52 26.87-22.52 43.57-34.13C2932 2104.16 2914.85 2077.49 2905.41 2077.49z" class="colorffb592 svgShape"/><path fill="#ffb592" d="M2917.39,2108,2884,2147.2l-22.52,18.15s-25.41,11.62-25.41,21.78,18.88,5.09,18.88,5.09,23.24-10.9,32.68-14.53,26.86-22.51,43.56-34.13C2944,2134.66,2926.83,2108,2917.39,2108Z" class="colorffb592 svgShape"/><path fill="#ffb592" d="M2951.15,2114.52l-33.4,39.21-22.51,18.15s-25.41,11.62-25.41,21.79,18.88,5.08,18.88,5.08,23.23-10.89,32.67-14.52,26.87-22.51,43.57-34.13C2977.75,2141.2,2960.59,2114.52,2951.15,2114.52Z" class="colorffb592 svgShape"/><path fill="#ffb592" d="M2964.22,2118.88l-33.4,39.21-22.51,18.15s-25.41,11.62-25.41,21.78,18.88,5.09,18.88,5.09,23.23-10.89,32.67-14.53,26.87-22.51,43.57-34.12C2990.82,2145.55,2973.66,2118.88,2964.22,2118.88Z" class="colorffb592 svgShape"/><path d="M3247.11 1714.13c7.55 57.33-126.7 262.47-147.83 288.11s-15.09 39.23-31.67 70.9c-5.59 10.69-13.43 19.14-23.08 23.73a99.66 99.66 0 018.49-37.81c16.08-36.2 16.08-44.25 2-104.57s14.06-18.12 42.23-32.18 40.23-118.67 48.27-160.92c3.32-17.47 11.48-32.85 19.45-46.47 11.31-19.32 22.3-35.08 18.77-48.06-6.05-22.11-40.23-28.14-60.34-46.26-4.59-4.13-5-7.74-2.74-10.93 7.54-10.83 45.24-17.05 53-23.25 10.06-8-24.13-94.53-70.39-189.06s-94-102.57-106.6-148.83c-11.65-42.87 4-70.4 4-70.4 44.74 1 222.24 279.57 237.33 365.55S3247.11 1714.13 3247.11 1714.13zM2341.41 1699.34c-18.55 18.63-55.79 52.32-86.67 56.91a27.09 27.09 0 01-4.71 1.64c-55.81 13.57-230.79-175-254.93-187.05s-43.74 0-63.35-28.68q-1.79-2.57-3.37-5l50.63-15.08s16.09 24.14 42.24 10.06 54.3-42.24 52.29-10.06-22.12 38.22-4 66.36c13.33 20.74 75.74 70.94 114.95 94.34 14 8.39 25.09 13.33 29.86 12.27 18.1-4 42.24-44.26 48.27-34.19 4.07 6.79 10.89-20.29 21.7-33.09 5.2-6.16 11.32-9 18.53-3.11 8.76 7.19 23.55 7.72 38.23 5.75C2341.1 1646.74 2341.23 1671.28 2341.41 1699.34zM2237.49 1555.4a4 4 0 01-.12-.53 2.24 2.24 0 01.1.37A.5.5 0 012237.49 1555.4zM2230.42 1509c-1.76 5.26 5.63 40.18 6.91 45.79-1.93-4.69-18-7-20-19.64-2-13.07-35.05-42.47-35.05-42.47 3.15-3.69 6.65-7.15 10.43-11 17.75 17.39 55 25.46 55.8 31.39C2249.52 1520.05 2232.43 1503 2230.42 1509z" style="mix-blend-mode:multiply" fill="#e0d1fc" class="colore0d1fc svgShape"/><path fill="#7b4fc9" d="M2782.49 1797.63l-2-.05c1.95-74.07 59.29-318.95 62.26-331.57l-24.65-28.76 30.62-14.29c-1.11-4.75-7.33-31.26-19.93-81.67-14-55.86 11.79-241.87 12-243.74l2 .27c-.26 1.87-26 187.5-12.09 243 13.92 55.68 20.06 82.22 20.12 82.48l.18.78-29.72 13.86 23.62 27.56-.12.48C2844.21 1468.53 2784.47 1722.18 2782.49 1797.63zM2527.06 1729.3l-2-.15c11.92-156.87-43.63-323.77-44.19-325.44l-.28-.82 43.77-20.94-44.57-3.71a5.47 5.47 0 01-4.66-2.19c-4-5.15-2.11-17.72 5.76-37.38 15.89-39.74 87.75-245.27 88.47-247.34l1.86.65c-.72 2.07-72.59 207.64-88.51 247.42-9.9 24.77-8 32.8-6.06 35.39a3.43 3.43 0 003 1.48h.21l51.89 4.33L2483 1403.91C2487.28 1416.89 2538.57 1577.74 2527.06 1729.3z" class="color7b4fc9 svgShape"/><ellipse cx="2794.58" cy="2159.63" fill="#7b4fc9" rx="12.07" ry="13.49" class="color7b4fc9 svgShape"/><path fill="#7b4fc9" d="M2806.65 1873c0 7.45-5.41 13.49-12.07 13.49s-12.07-6-12.07-13.49 5.4-13.48 12.07-13.48S2806.65 1865.58 2806.65 1873zM2675.51 2257.92c-50.37-42.74-39.24-172-38.74-177.5l5.88.53c-.11 1.31-11.35 131.71 36.68 172.46z" class="color7b4fc9 svgShape"/><path d="M2042.37,2156.54s-3.43-178.63,109.93-243.9c153.68-88.49,261.08-250.77,223.29-395.05s154.58-319.47,360.69-350.39,274.82-82.44,316-192.37S3134.77,858,3206.9,830.55s109.93-65.27,109.93-65.27V2153.1Z" style="mix-blend-mode:screen" fill="#e0d1fc" opacity=".38" class="colore0d1fc svgShape"/></g><g data-name="5" fill="#000000" class="color000 svgShape"><path fill="#feb500" d="M2362,584.13v200.1c0,.68,0,1.35,0,2a96.17,96.17,0,0,1-96.15,94.17h-41.67l69.15,115.94L2092.85,880.42H1711.06a96.12,96.12,0,0,1-96.2-96.19V584.13a96.2,96.2,0,0,1,96.2-96.18h554.78A96.2,96.2,0,0,1,2362,584.13Z" class="colorfeb500 svgShape"/><path fill="#ffffff" d="M1848.5 610.58H1729a12.88 12.88 0 00-12.88 12.88h0A12.89 12.89 0 001729 636.35H1848.5a12.89 12.89 0 0012.88-12.89h0A12.88 12.88 0 001848.5 610.58zM2078.58 623.46h0a12.89 12.89 0 0012.89 12.89H2234a12.89 12.89 0 0012.89-12.89h0A12.89 12.89 0 002234 610.58H2091.47A12.89 12.89 0 002078.58 623.46zM1985.91 610.58h-74.79a12.88 12.88 0 00-12.88 12.88h0a12.88 12.88 0 0012.88 12.89h74.79a12.89 12.89 0 0012.88-12.89h0A12.88 12.88 0 001985.91 610.58z" class="colorfff svgShape"/><rect width="153.01" height="25.76" x="1716.1" y="671.13" fill="#ffffff" rx="12.88" class="colorfff svgShape"/><rect width="143.49" height="25.76" x="1934.31" y="671.13" fill="#ffffff" rx="12.88" class="colorfff svgShape"/><rect width="76.36" height="25.76" x="2170.47" y="671.13" fill="#ffffff" rx="12.88" class="colorfff svgShape"/><path fill="#ffffff" d="M2005.66,731.67H1729a12.88,12.88,0,0,0-12.88,12.88h0A12.89,12.89,0,0,0,1729,757.44h276.68a12.89,12.89,0,0,0,12.88-12.89h0A12.88,12.88,0,0,0,2005.66,731.67Z" class="colorfff svgShape"/><path d="M2265.84,880.42h-41.67l69.15,115.94L2092.85,880.42H1711.06a96.23,96.23,0,0,1-88.66-58.8c16,17.29,40.29,33.9,74.91,33.9,72.15,0,67-32.64,127.11-39.5s72.13,18.89,134,18.89,68.7-37.79,130.54-37.79,80.73,46.38,125.38,39.5c41.36-6.36,109.24,12.31,147.68-50.37A96.17,96.17,0,0,1,2265.84,880.42Z" style="mix-blend-mode:multiply" fill="#feb500" opacity=".6" class="colorfeb500 svgShape"/></g><g data-name="4" fill="#000000" class="color000 svgShape"><path fill="#e0d1fc" d="M3164,128.84l-5.83,2.19v.1L2857.22,248l49.29,211.68a382.1,382.1,0,0,0,110.27,191.58l142.36,134h0l144.3-132.54a382.1,382.1,0,0,0,110.27-191.58L3463,249.43Z" class="colore0d1fc svgShape"/><path fill="#f95d6c" d="M3438.08,266.52l-45.24,194.25a350.58,350.58,0,0,1-101.19,175.81L3161.47,756.17l-2.24,2.06-130.66-123a350.67,350.67,0,0,1-101.19-175.81l-45.24-194.27,276.14-107.24v-.08l4.37-1.63,1-.37Z" class="colorf95d6c svgShape"/><path d="M3438.08,266.52l-45.24,194.25a350.58,350.58,0,0,1-101.19,175.81L3161.47,756.17c9.64-79.76,14.65-182.54,3.6-222.18-17.77-63.63,32.56-152.44,20.72-256-8.29-72.58-18-107.39-23.14-121.72l1-.37Z" style="mix-blend-mode:multiply" fill="#f95d6c" class="colorf95d6c svgShape"/><rect width="53.88" height="249.49" x="3142.56" y="299.67" fill="#ffffff" class="colorfff svgShape"/><rect width="53.88" height="249.49" x="3142.56" y="299.67" fill="#ffffff" transform="rotate(90 3169.5 424.42)" class="colorfff svgShape"/></g><g data-name="3" fill="#000000" class="color000 svgShape"><rect width="284.4" height="183.45" x="2827.7" y="1402.88" fill="#09af93" rx="16.5" class="color09af93 svgShape"/><path fill="#ffffff" fill-rule="evenodd" d="M3088.36,1470.81H2949.93v18h138.43v-18Zm-158.76,0H2849v18h80.6v-18Zm158.76-35.92h-62v18h62v-18Zm-82.32,0h-89.88v18H3006v-18Zm-104.94,0H2849v18h52.1Z" class="colorfff svgShape"/></g><g data-name="2" fill="#000000" class="color000 svgShape"><path fill="#fdbc9e" fill-rule="evenodd" d="M1338.18,1353.44c-11-14.76-17.47-35.11-19-55.16-.71-9.28.19-26,3-39.2a107.47,107.47,0,0,1,5-16.41c1.59-4.1,3.76-7.63-1.89-10.41-4.6-2.27-11.36,1.16-15.95,3.79-15.23,8.74-24.34,29.77-26.66,45.77-.55,3.77-2.69,18.86-4.26,30.09-.64,4.58-.39,13.49-4.81,16.53-7.11,4.92-12.17-14.88-15.58-20.31-3.25-5.2-7.36-8.5-12.53-4.15-9.64,8.08-.51,30.11,7.7,42.2s28.66,35.64,45.13,41.54C1313.41,1375.54,1323.17,1365.63,1338.18,1353.44Z" class="colorfdbc9e svgShape"/><path fill="#029f8a" fill-rule="evenodd" d="M1337.5,1344c-28.82,8.22-52.76,35-52.48,45.3,62.63,77,76.5,160.24,9.48,167.62-102.19,42.25-107.9,349.45,96.67,264C1522.24,1766.26,1522.81,1482,1337.5,1344Z" class="color029f8a svgShape"/><path fill="#0b887f" fill-rule="evenodd" d="M1309.76,1553.49a65.19,65.19,0,0,1-15.26,3.45c-99.61,41.18-107.52,334,81.6,269.71C1355.11,1698.07,1332.44,1575.22,1309.76,1553.49Z" class="color0b887f svgShape"/><path fill="#09af93" fill-rule="evenodd" d="M1312.88,1375.68A81.14,81.14,0,0,0,1296,1388c18,24.45,33.79,52.31,42.35,80.88,6.09,20.32,8.92,43.13,3.33,63.67-41.21,151.28,99.92,163.54,94.38,84.21C1429.54,1524,1384.85,1434.7,1312.88,1375.68Z" class="color09af93 svgShape"/><path fill="#fcccb2" fill-rule="evenodd" d="M1418.34,2769.79h-78.8c13.91,17.21,23,34.83,27,52.91,3.66,13.69,90.35,14.56,78.8,0C1428.55,2805.66,1420,2788,1418.34,2769.79Z" class="colorfcccb2 svgShape"/><path fill="#059283" fill-rule="evenodd" d="M1471.24,2821.63c-58.76,0-101.79-13.46-110.84-13.46-17.15,0-31.05,13.23-31.05,29.54a29.12,29.12,0,0,0,13.42,24.32h162.48a24.84,24.84,0,0,0,2.45-10.72C1507.7,2834.92,1491.38,2821.63,1471.24,2821.63Z" class="color059283 svgShape"/><path fill="#06807a" fill-rule="evenodd" d="M1471.24,2821.63c-58.76,0-101.79-13.46-110.84-13.46a32.13,32.13,0,0,0-13.09,2.75c30.16,31.95,99.46,44.12,159.73,46a24.67,24.67,0,0,0,.66-5.65C1507.7,2834.92,1491.38,2821.63,1471.24,2821.63Z" class="color06807a svgShape"/><path fill="#162d2d" fill-rule="evenodd" d="M1499.57,2870.82h-153a5.64,5.64,0,0,1-5.63-5.62V2862h164.3v3.17A5.64,5.64,0,0,1,1499.57,2870.82Z" class="color162d2d svgShape"/><path fill="#fcccb2" fill-rule="evenodd" d="M1036.51,2829.3h73.59a92.06,92.06,0,0,1,.37-52.91h-73.59C1044.86,2793.43,1044.26,2811.1,1036.51,2829.3Z" class="colorfcccb2 svgShape"/><path fill="#059283" fill-rule="evenodd" d="M1034.39,2821.63c13.16,0,26.27,1.42,38.11,1.87,11.88-.45,25.12-1.87,38.28-1.87,18.6,0,33,13.29,32.25,29.68a27.37,27.37,0,0,1-2.78,10.72H1001a25.58,25.58,0,0,1-1.75-10.72C1000.07,2834.92,1015.79,2821.63,1034.39,2821.63Z" class="color059283 svgShape"/><path fill="#162d2d" fill-rule="evenodd" d="M1005.1,2870.82h130.24a6,6,0,0,0,5.9-5.62l.15-3.17H999.9l-.15,3.17A5.32,5.32,0,0,0,1005.1,2870.82Z" class="color162d2d svgShape"/><path fill="#06807a" fill-rule="evenodd" d="M1080.54,2860.62c15.54,0,30.45.52,44.63,1.41h15.08a27.37,27.37,0,0,0,2.78-10.72c.79-16.39-13.65-29.68-32.25-29.68-13.16,0-26.4,1.42-38.28,1.87-11.84-.45-25-1.87-38.11-1.87a38.26,38.26,0,0,0-14.59,2.87C1027.79,2845.53,1051.64,2860.62,1080.54,2860.62Z" class="color06807a svgShape"/><path fill="#fda380" fill-rule="evenodd" d="M1223.22,1487.51c-4.47,26.55,13.12,48,33,59.31,10.36,5.87,23.7,9.9,34.81,14.65,33.82,14.46,36.94,100.8,31.58,187.8-6.1,98.81-29.41,198.68-143.73,198.68-93.12,0-112.27-93-123.38-186.79-11.2-94.67-13.8-190.26,20.36-203.4,14.31-5.5,29.48-8.93,43.11-15.78,21.9-11,26.68-25.84,35.28-51.51,3.86-.06,10.6-4.49,20.83-4.49S1207.75,1486.51,1223.22,1487.51Z" class="colorfda380 svgShape"/><path fill="#fdbc9e" fill-rule="evenodd" d="M1127.52,1807.38c-32.15-98.51-46.91-204.8-13.17-242.8,19.66-22.13,51.54-43.22,68.47-42.19,27.7,1.69,42.82,16.69,61,35,36.77,37.16,30.6,140.69,22.87,241.39C1257.58,1917.57,1171.2,1941.17,1127.52,1807.38Z" class="colorfdbc9e svgShape"/><path fill="#d6463f" fill-rule="evenodd" d="M1434.93,2776.1c-7.92,13.16-83.41,20.17-95.47,12.34-100.64-152.2-187-313.91-202.55-471.47-44.59-452.58,248.34-508.6,223.61-295.28C1332.81,2260.75,1372.88,2566.59,1434.93,2776.1Z" class="colord6463f svgShape"/><path fill="#dc5e5a" fill-rule="evenodd" d="M1414.21,2785.77c-.82-24.61-4.26-47-10.76-66.84-36.54-111.41-111.23-145-185.1-138.57,34.19,70.44,76.23,140.21,121.11,208.08C1348,2794,1388.59,2792.07,1414.21,2785.77Z" class="colordc5e5a svgShape"/><path fill="#cc271e" fill-rule="evenodd" d="M1212,2567c-39.13-83.16-66.9-167.17-75.06-250-17.27-175.28,16.1-291,62-354.75,18.74,27.7,37.69,100.71,41.29,152.58C1250.33,2260.59,1231.29,2405.28,1212,2567Z" class="colorcc271e svgShape"/><path fill="#dc5e5a" fill-rule="evenodd" d="M1121.1,2782.67c-7.36,9.91-86.24,8-95.12-.77-43.66-210.6-59.74-496.37-30.23-712.4,27.49-201.16,248.32-224.65,242.84,11.64C1233.58,2296.81,1170.46,2583.75,1121.1,2782.67Z" class="colordc5e5a svgShape"/><path fill="#e07472" fill-rule="evenodd" d="M1058,2770c28.48-103.95,50.28-204.11,64.35-309.12,11.89-88.76,20.92-180.37,20.75-269.91-.13-66.94-59.75-86-113.53-82.26-13.88,1-27.34,3.18-39.38,7.18-21.6,209.33-4.86,470.19,35.75,666,2.71,2.67,11.91,4.7,23.59,6A53.65,53.65,0,0,0,1058,2770Z" class="colore07472 svgShape"/><path fill="#09af93" fill-rule="evenodd" d="M1376.21,2043.39c6.79,14.31-75.77,32.84-169,37.12-72.6,3.34-151-4.43-203.08-13.5-15.07-2.62-14.88-.48-10.89-15.27,40.41-149.9,39.43-310.44,32.63-483,19.18-12.75,41.47-22.31,65.29-29,23.15,16.43,54.51,26.52,89,26.52,35.11,0,66.93-10.44,90.2-27.36a243.87,243.87,0,0,1,33.33,11.39C1341.07,1559.8,1357.32,1873.8,1376.21,2043.39Z" class="color09af93 svgShape"/><path fill="#20c4a3" fill-rule="evenodd" d="M1230.38,2079.14q-11.42.83-23.16,1.37c-72.6,3.34-151-4.43-203.08-13.5-15.07-2.63-14.88-.47-10.89-15.27,31.63-117.35,37.9-241.22,35.87-372.29C1135,1693.29,1284.3,1945.74,1230.38,2079.14Z" class="color20c4a3 svgShape"/><path fill="#059283" fill-rule="evenodd" d="M1024,1868.12c7.44-89.56,6.17-182.69,2.61-279.65a70.87,70.87,0,0,0,9.55-1.19C1121.53,1596.71,1139.55,1811.28,1024,1868.12Z" class="color059283 svgShape"/><path fill="#162d2d" fill-rule="evenodd" d="M1268,1370.89c1.52,10.85-3.89,24.21-11.7,34.4a76.69,76.69,0,0,1,7.69,17.21c7.67,25.11-20.75,55.88-39.83,56.3-5.22.11-5.93-15.14-9.72-29.9-4.31-16.74-12-17-10.83-38.77.36-7,2-13.42,5.09-18.45a22.11,22.11,0,0,1,3.17-4.09c-3-3-5.43-6.81-7.11-15a30.11,30.11,0,0,1,.83-16.34c2.79-7.74,9.11-12.54,17-14.08C1183,1275.93,1299.67,1317.73,1268,1370.89Z" class="color162d2d svgShape"/><path fill="#254b4b" fill-rule="evenodd" d="M1225.2,1240.77a38.6,38.6,0,0,1,38.6,38.6c0,21.32-24.51,38.61-38.6,38.61-1.49,0-42.66,24.24-49.58,27.07a66.55,66.55,0,0,1-48.17,74.27,40,40,0,1,1-55.12,42.67,28.38,28.38,0,0,1-5.2-55.89,66.5,66.5,0,0,1,33.42-116.78,54.59,54.59,0,0,1,93.54-32.81A38.56,38.56,0,0,1,1225.2,1240.77Z" class="color254b4b svgShape"/><path fill="#fcccb2" fill-rule="evenodd" d="M1246.87,1338c11.32,33.77-1.19,102.41-8.37,124.49-10.35,31.85-25.1,42.66-51.19,42.66-35.92,0-69.8-38.72-69.8-90.32,0-59.74,18.68-101.82,82.46-100C1221.14,1315.49,1241.46,1321.87,1246.87,1338Z" class="colorfcccb2 svgShape"/><path fill="#fcccb2" fill-rule="evenodd" d="M1092,1384.82c-4.39,13.13-1.79,23,6.84,33.92,7.09,9,16.72,14.79,22.43,8-.26-12.65-.22-44,3.2-52.93C1117.83,1364,1098.07,1366.77,1092,1384.82Z" class="colorfcccb2 svgShape"/><path fill="#fda380" fill-rule="evenodd" d="M1109.59,1379.39c-8,.53-15.48,26,3.91,34.65a36.88,36.88,0,0,1-2.55-12.17c-.27-4.63.14-13.3,2.62-19C1115.4,1378.63,1115.47,1379,1109.59,1379.39Z" class="colorfda380 svgShape"/><path fill="#fcddcb" fill-rule="evenodd" d="M1236.93,1365.36c7.85,28.77-2,82.49-7.77,100.15-8.56,26.35-20.76,35.29-42.34,35.29-29.71,0-57.74-32-57.74-74.71,0-15.08,2.51-20.67,16.81-22.48,13.3-1.68,24.58-10.23,29.82-25,3.93-11.09,1.22-34.6,22.41-25.09C1211.82,1359.66,1218.2,1365.38,1236.93,1365.36Z" class="colorfcddcb svgShape"/><path fill="#254b4b" fill-rule="evenodd" d="M1134.6,1378.18c6.55,2.12,14.36,2.07,17.87-7.82,4.89-13.78-7.15-31.57,5.88-41.74,8.86-6.92,38.39-5.41,58.06,6.79,40.15,18.56,102.63-4,80.1-61.3-20.38,14.38-42.15,1-66.32,2.41-61.93,3.6-119.66,22.5-116.11,57.33C1116.35,1356.14,1111.45,1370.69,1134.6,1378.18Z" class="color254b4b svgShape"/><path fill="#085f63" fill-rule="evenodd" d="M1188.11,1468.63c9.16,0,16,8.28,16,10.86s-7.43,4.68-16.6,4.68-16.59-2.1-16.59-4.68S1178.94,1468.63,1188.11,1468.63Z" class="color085f63 svgShape"/><path fill="#fdbc9e" fill-rule="evenodd" d="M992.51,1362.79c11-14.76,17.46-35.11,19-55.16.71-9.28-.19-26-3-39.2a108.61,108.61,0,0,0-5-16.41c-1.6-4.1-3.76-7.63,1.88-10.41,4.6-2.27,11.37,1.16,15.95,3.79,15.23,8.74,24.34,29.77,26.67,45.77.54,3.77,2.69,18.86,4.25,30.08.64,4.59.4,13.5,4.81,16.54,7.11,4.91,12.18-14.88,15.58-20.32,3.25-5.19,7.37-8.49,12.54-4.15,9.64,8.09.5,30.12-7.7,42.21s-28.66,35.64-45.14,41.54C1017.27,1384.89,1007.52,1375,992.51,1362.79Z" class="colorfdbc9e svgShape"/><path fill="#09af93" fill-rule="evenodd" d="M993.19,1353.37c28.82,8.22,52.76,35,52.47,45.3-62.63,77-76.49,160.24-9.47,167.62,102.19,42.25,107.9,349.45-96.67,264C808.44,1775.61,807.88,1491.3,993.19,1353.37Z" class="color09af93 svgShape"/><path fill="#20c4a3" fill-rule="evenodd" d="M979.78,1373.19c-72,59-116.66,148.35-123.12,241.11-5.71,81.84,28.06,203,131.65,191.25,57.54-6.53,73.2-77,45.23-139.47-34.82-77.8-104.5-115.16-79.18-199.67,8.56-28.56,24.33-56.42,42.36-80.88A80.91,80.91,0,0,0,979.78,1373.19Z" class="color20c4a3 svgShape"/></g></g></g></g></svg>